<svg version="1.1" viewBox="0.0 0.0 600.0 371.0" fill="none" stroke="none" stroke-linecap="square" stroke-miterlimit="10" width="600" height="371" xmlns:xlink="http://www.w3.org/1999/xlink" xmlns="http://www.w3.org/2000/svg"><path fill="#ffffff" d="M0 0L600.0 0L600.0 371.0L0 371.0L0 0Z" fill-rule="nonzero"/><path stroke="#333333" stroke-width="1.0" stroke-linecap="butt" d="M88.5 329.5L581.5 329.5" fill-rule="nonzero"/><path stroke="#cccccc" stroke-width="1.0" stroke-linecap="butt" d="M88.5 281.5L581.5 281.5" fill-rule="nonzero"/><path stroke="#cccccc" stroke-width="1.0" stroke-linecap="butt" d="M88.5 234.5L581.5 234.5" fill-rule="nonzero"/><path stroke="#cccccc" stroke-width="1.0" stroke-linecap="butt" d="M88.5 186.5L581.5 186.5" fill-rule="nonzero"/><path stroke="#cccccc" stroke-width="1.0" stroke-linecap="butt" d="M88.5 138.5L581.5 138.5" fill-rule="nonzero"/><path stroke="#cccccc" stroke-width="1.0" stroke-linecap="butt" d="M88.5 90.5L581.5 90.5" fill-rule="nonzero"/><path stroke="#e6e6e6" stroke-width="1.0" stroke-linecap="butt" d="M88.5 305.5L581.5 305.5" fill-rule="nonzero"/><path stroke="#e6e6e6" stroke-width="1.0" stroke-linecap="butt" d="M88.5 257.5L581.5 257.5" fill-rule="nonzero"/><path stroke="#e6e6e6" stroke-width="1.0" stroke-linecap="butt" d="M88.5 210.5L581.5 210.5" fill-rule="nonzero"/><path stroke="#e6e6e6" stroke-width="1.0" stroke-linecap="butt" d="M88.5 162.5L581.5 162.5" fill-rule="nonzero"/><path stroke="#e6e6e6" stroke-width="1.0" stroke-linecap="butt" d="M88.5 114.5L581.5 114.5" fill-rule="nonzero"/><clipPath id="id_0"><path d="M88.55 90.916664L581.45 90.916664L581.45 329.45L88.55 329.45L88.55 90.916664Z" clip-rule="nonzero"/></clipPath><path fill="#4285f4" fill-opacity="0.3019608" clip-path="url(#id_0)" d="M88.55 329.11844L143.31667 329.13275L198.08333 325.4975L252.85 314.5059L307.61667 307.81265L362.38333 291.22742L417.15 190.16322L471.91666 90.916664L526.68335 90.916664L581.45 90.916664L581.45 329.45L526.68335 329.45L471.91666 329.45L417.15 329.45L362.38333 329.45L307.61667 329.45L252.85 329.45L198.08333 329.45L143.31667 329.45L88.55 329.45Z" fill-rule="nonzero"/><path stroke="#4285f4" stroke-width="2.0" stroke-linecap="butt" clip-path="url(#id_0)" d="M88.55 329.11844L143.31667 329.13275L198.08333 325.4975L252.85 314.5059L307.61667 307.81265L362.38333 291.22742L417.15 190.16322L471.91666 90.916664L526.68335 90.916664L581.45 90.916664" fill-rule="nonzero"/><path fill="#000000" fill-opacity="0.0" clip-path="url(#id_0)" d="M91.55 329.11844C91.55 330.7753 90.206856 332.11844 88.55 332.11844C86.89314 332.11844 85.55 330.7753 85.55 329.11844C85.55 327.46158 86.89314 326.11844 88.55 326.11844C90.206856 326.11844 91.55 327.46158 91.55 329.11844Z" fill-rule="nonzero"/><path fill="#000000" fill-opacity="0.0" clip-path="url(#id_0)" d="M146.31667 329.13275C146.31667 330.7896 144.97353 332.13275 143.31667 332.13275C141.6598 332.13275 140.31667 330.7896 140.31667 329.13275C140.31667 327.4759 141.6598 326.13275 143.31667 326.13275C144.97353 326.13275 146.31667 327.4759 146.31667 329.13275Z" fill-rule="nonzero"/><path fill="#000000" fill-opacity="0.0" clip-path="url(#id_0)" d="M201.08333 325.4975C201.08333 327.15436 199.74019 328.4975 198.08333 328.4975C196.42648 328.4975 195.08333 327.15436 195.08333 325.4975C195.08333 323.84064 196.42648 322.4975 198.08333 322.4975C199.74019 322.4975 201.08333 323.84064 201.08333 325.4975Z" fill-rule="nonzero"/><path fill="#000000" fill-opacity="0.0" clip-path="url(#id_0)" d="M255.85 314.5059C255.85 316.16275 254.50685 317.5059 252.85 317.5059C251.19315 317.5059 249.85 316.16275 249.85 314.5059C249.85 312.84903 251.19315 311.5059 252.85 311.5059C254.50685 311.5059 255.85 312.84903 255.85 314.5059Z" fill-rule="nonzero"/><path fill="#000000" fill-opacity="0.0" clip-path="url(#id_0)" d="M310.61667 307.81265C310.61667 309.46948 309.27353 310.81265 307.61667 310.81265C305.9598 310.81265 304.61667 309.46948 304.61667 307.81265C304.61667 306.1558 305.9598 304.81265 307.61667 304.81265C309.27353 304.81265 310.61667 306.1558 310.61667 307.81265Z" fill-rule="nonzero"/><path fill="#000000" fill-opacity="0.0" clip-path="url(#id_0)" d="M365.38333 291.22742C365.38333 292.88428 364.0402 294.22742 362.38333 294.22742C360.72647 294.22742 359.38333 292.88428 359.38333 291.22742C359.38333 289.57056 360.72647 288.22742 362.38333 288.22742C364.0402 288.22742 365.38333 289.57056 365.38333 291.22742Z" fill-rule="nonzero"/><path fill="#000000" fill-opacity="0.0" clip-path="url(#id_0)" d="M420.15 190.16322C420.15 191.82008 418.80685 193.16322 417.15 193.16322C415.49313 193.16322 414.15 191.82008 414.15 190.16322C414.15 188.50638 415.49313 187.16322 417.15 187.16322C418.80685 187.16322 420.15 188.50638 420.15 190.16322Z" fill-rule="nonzero"/><path fill="#000000" fill-opacity="0.0" clip-path="url(#id_0)" d="M474.91666 90.916664C474.91666 92.573524 473.57352 93.916664 471.91666 93.916664C470.25983 93.916664 468.91666 92.573524 468.91666 90.916664C468.91666 89.25981 470.25983 87.916664 471.91666 87.916664C473.57352 87.916664 474.91666 89.25981 474.91666 90.916664Z" fill-rule="nonzero"/><path fill="#000000" fill-opacity="0.0" clip-path="url(#id_0)" d="M529.68335 90.916664C529.68335 92.573524 528.3402 93.916664 526.68335 93.916664C525.0265 93.916664 523.68335 92.573524 523.68335 90.916664C523.68335 89.25981 525.0265 87.916664 526.68335 87.916664C528.3402 87.916664 529.68335 89.25981 529.68335 90.916664Z" fill-rule="nonzero"/><path fill="#000000" fill-opacity="0.0" clip-path="url(#id_0)" d="M584.45 90.916664C584.45 92.573524 583.1069 93.916664 581.45 93.916664C579.79315 93.916664 578.45 92.573524 578.45 90.916664C578.45 89.25981 579.79315 87.916664 581.45 87.916664C583.1069 87.916664 584.45 89.25981 584.45 90.916664Z" fill-rule="nonzero"/><path fill="#000000" d="M36.73751 270.12082L25.253138 270.12082L25.253138 268.83957L26.331263 268.83957Q25.690638 268.38644 25.378138 267.82394Q25.065638 267.24582 25.065638 266.43332Q25.065638 265.37082 25.612513 264.55832Q26.159388 263.74582 27.159388 263.33957Q28.143763 262.9177 29.331263 262.9177Q30.612513 262.9177 31.628138 263.38644Q32.64376 263.83957 33.190636 264.71457Q33.73751 265.57394 33.73751 266.5427Q33.73751 267.24582 33.440636 267.80832Q33.14376 268.3552 32.690636 268.71457L36.73751 268.71457L36.73751 270.12082ZM29.440638 268.8552Q31.050013 268.8552 31.815638 268.21457Q32.58126 267.55832 32.58126 266.63644Q32.58126 265.69894 31.784388 265.02707Q30.987513 264.3552 29.331263 264.3552Q27.737513 264.3552 26.956263 265.01144Q26.159388 265.6677 26.159388 266.57394Q26.159388 267.46457 27.003138 268.1677Q27.846888 268.8552 29.440638 268.8552ZM29.393763 261.65207Q27.096888 261.65207 25.987513 260.37082Q25.065638 259.2927 25.065638 257.76144Q25.065638 256.0427 26.190638 254.96458Q27.300013 253.87083 29.284388 253.87083Q30.878138 253.87083 31.800013 254.35521Q32.721886 254.83958 33.23751 255.76146Q33.73751 256.6677 33.73751 257.76144Q33.73751 259.49582 32.628136 260.57394Q31.503138 261.65207 29.393763 261.65207ZM29.393763 260.19894Q30.987513 260.19894 31.784388 259.51144Q32.58126 258.80832 32.58126 257.76144Q32.58126 256.71457 31.784388 256.02707Q30.987513 255.32396 29.346888 255.32396Q27.815638 255.32396 27.018763 256.02707Q26.221888 256.71457 26.221888 257.76144Q26.221888 258.80832 27.018763 259.51144Q27.800013 260.19894 29.393763 260.19894ZM33.55001 250.82396L33.55001 252.13646L22.096888 252.13646L22.096888 250.73021L26.175013 250.73021Q25.065638 249.83958 25.065638 248.44896Q25.065638 247.68333 25.378138 247.01146Q25.675013 246.32396 26.237513 245.88646Q26.800013 245.43333 27.596888 245.18333Q28.378138 244.93333 29.268763 244.93333Q31.409388 244.93333 32.58126 245.99583Q33.73751 247.04271 33.73751 248.52708Q33.73751 249.99583 32.503136 250.82396L33.55001 250.82396ZM29.331263 250.83958Q30.831263 250.83958 31.487513 250.43333Q32.58126 249.77708 32.58126 248.63646Q32.58126 247.71458 31.784388 247.04271Q30.971888 246.37083 29.393763 246.37083Q27.768763 246.37083 27.003138 247.02708Q26.221888 247.66771 26.221888 248.57396Q26.221888 249.49583 27.018763 250.16771Q27.815638 250.83958 29.331263 250.83958ZM33.55001 243.13646L25.253138 243.13646L25.253138 241.87083L26.503138 241.87083Q25.628138 241.38646 25.346888 240.98021Q25.065638 240.57396 25.065638 240.07396Q25.065638 239.37083 25.518763 238.63646L26.815638 239.12083Q26.518763 239.63646 26.518763 240.15208Q26.518763 240.60521 26.800013 240.98021Q27.065638 241.33958 27.565638 241.49583Q28.315638 241.73021 29.206263 241.73021L33.55001 241.73021L33.55001 243.13646ZM32.51876 232.71458Q33.190636 233.49583 33.471886 234.21458Q33.73751 234.93333 33.73751 235.76146Q33.73751 237.13646 33.065636 237.87083Q32.39376 238.60521 31.362513 238.60521Q30.753138 238.60521 30.253138 238.32396Q29.737513 238.04271 29.440638 237.60521Q29.128138 237.15208 28.971888 236.58958Q28.862513 236.16771 28.768763 235.33958Q28.565638 233.63646 28.284388 232.82396Q27.987513 232.82396 27.909388 232.82396Q27.050013 232.82396 26.706263 233.21458Q26.221888 233.76146 26.221888 234.82396Q26.221888 235.80833 26.581263 236.29271Q26.925013 236.76146 27.800013 236.98021L27.612513 238.35521Q26.737513 238.16771 26.190638 237.74583Q25.643763 237.30833 25.362513 236.49583Q25.065638 235.68333 25.065638 234.62083Q25.065638 233.55833 25.315638 232.90208Q25.565638 232.23021 25.940638 231.91771Q26.315638 231.60521 26.893763 231.48021Q27.253138 231.40208 28.190638 231.40208L30.065638 231.40208Q32.034386 231.40208 32.55001 231.32396Q33.065636 231.23021 33.55001 230.96458L33.55001 232.43333Q33.11251 232.65208 32.51876 232.71458ZM29.378138 232.82396Q29.690638 233.58958 29.909388 235.12083Q30.034388 235.99583 30.190638 236.35521Q30.346888 236.71458 30.659388 236.91771Q30.956263 237.10521 31.315638 237.10521Q31.878138 237.10521 32.253136 236.68333Q32.628136 236.24583 32.628136 235.43333Q32.628136 234.62083 32.284386 233.99583Q31.925013 233.35521 31.300013 233.05833Q30.831263 232.82396 29.893763 232.82396L29.378138 232.82396ZM33.55001 229.12083L25.253138 229.12083L25.253138 227.85521L26.425013 227.85521Q25.065638 226.94896 25.065638 225.21458Q25.065638 224.46458 25.331263 223.83958Q25.596888 223.21458 26.034388 222.90208Q26.471888 222.58958 27.081263 222.46458Q27.471888 222.38646 28.440638 222.38646L33.55001 222.38646L33.55001 223.79271L28.503138 223.79271Q27.643763 223.79271 27.221888 223.96458Q26.784388 224.12083 26.534388 224.54271Q26.284388 224.94896 26.284388 225.51146Q26.284388 226.41771 26.862513 227.07396Q27.425013 227.71458 29.018763 227.71458L33.55001 227.71458L33.55001 229.12083ZM30.878138 215.44896L31.050013 213.99583Q32.33126 214.33958 33.034386 215.27708Q33.73751 216.19896 33.73751 217.63646Q33.73751 219.46458 32.61251 220.52708Q31.487513 221.58958 29.471888 221.58958Q27.378138 221.58958 26.221888 220.51146Q25.065638 219.43333 25.065638 217.71458Q25.065638 216.05833 26.206263 215.01146Q27.331263 213.94896 29.378138 213.94896Q29.503138 213.94896 29.753138 213.94896L29.753138 220.13646Q31.128138 220.05833 31.862513 219.37083Q32.58126 218.66771 32.58126 217.63646Q32.58126 216.85521 32.17501 216.30833Q31.768763 215.76146 30.878138 215.44896ZM28.596888 220.05833L28.596888 215.43333Q27.550013 215.52708 27.034388 215.96458Q26.221888 216.63646 26.221888 217.69896Q26.221888 218.66771 26.878138 219.33958Q27.518763 219.99583 28.596888 220.05833ZM32.284386 205.05833L33.534386 204.85521Q33.659386 205.44896 33.659386 205.91771Q33.659386 206.68333 33.42501 207.10521Q33.17501 207.52708 32.784386 207.69896Q32.378136 207.87083 31.112513 207.87083L26.346888 207.87083L26.346888 208.90208L25.253138 208.90208L25.253138 207.87083L23.190638 207.87083L22.346888 206.46458L25.253138 206.46458L25.253138 205.05833L26.346888 205.05833L26.346888 206.46458L31.190638 206.46458Q31.800013 206.46458 31.971888 206.40208Q32.14376 206.32396 32.253136 206.15208Q32.346886 205.98021 32.346886 205.66771Q32.346886 205.43333 32.284386 205.05833ZM33.55001 202.58958L25.253138 205.13646L25.253138 203.68333L30.034388 202.35521L31.815638 201.87083Q31.690638 201.83958 30.112513 201.43333L25.253138 200.12083L25.253138 198.66771L30.065638 197.43333L31.643763 197.01146L30.050013 196.54271L25.253138 195.12083L25.253138 193.74583L33.55001 196.33958L33.55001 197.80833L28.581263 199.12083L27.159388 199.44896L33.55001 201.12083L33.55001 202.58958ZM30.878138 187.44896L31.050013 185.99583Q32.33126 186.33958 33.034386 187.27708Q33.73751 188.19896 33.73751 189.63646Q33.73751 191.46458 32.61251 192.52708Q31.487513 193.58958 29.471888 193.58958Q27.378138 193.58958 26.221888 192.51146Q25.065638 191.43333 25.065638 189.71458Q25.065638 188.05833 26.206263 187.01146Q27.331263 185.94896 29.378138 185.94896Q29.503138 185.94896 29.753138 185.94896L29.753138 192.13646Q31.128138 192.05833 31.862513 191.37083Q32.58126 190.66771 32.58126 189.63646Q32.58126 188.85521 32.17501 188.30833Q31.768763 187.76146 30.878138 187.44896ZM28.596888 192.05833L28.596888 187.43333Q27.550013 187.52708 27.034388 187.96458Q26.221888 188.63646 26.221888 189.69896Q26.221888 190.66771 26.878138 191.33958Q27.518763 191.99583 28.596888 192.05833ZM30.878138 178.44896L31.050013 176.99583Q32.33126 177.33958 33.034386 178.27708Q33.73751 179.19896 33.73751 180.63646Q33.73751 182.46458 32.61251 183.52708Q31.487513 184.58958 29.471888 184.58958Q27.378138 184.58958 26.221888 183.51146Q25.065638 182.43333 25.065638 180.71458Q25.065638 179.05833 26.206263 178.01146Q27.331263 176.94896 29.378138 176.94896Q29.503138 176.94896 29.753138 176.94896L29.753138 183.13646Q31.128138 183.05833 31.862513 182.37083Q32.58126 181.66771 32.58126 180.63646Q32.58126 179.85521 32.17501 179.30833Q31.768763 178.76146 30.878138 178.44896ZM28.596888 183.05833L28.596888 178.43333Q27.550013 178.52708 27.034388 178.96458Q26.221888 179.63646 26.221888 180.69896Q26.221888 181.66771 26.878138 182.33958Q27.518763 182.99583 28.596888 183.05833ZM32.284386 172.05833L33.534386 171.85521Q33.659386 172.44896 33.659386 172.91771Q33.659386 173.68333 33.42501 174.10521Q33.17501 174.52708 32.784386 174.69896Q32.378136 174.87083 31.112513 174.87083L26.346888 174.87083L26.346888 175.90208L25.253138 175.90208L25.253138 174.87083L23.190638 174.87083L22.346888 173.46458L25.253138 173.46458L25.253138 172.05833L26.346888 172.05833L26.346888 173.46458L31.190638 173.46458Q31.800013 173.46458 31.971888 173.40208Q32.14376 173.32396 32.253136 173.15208Q32.346886 172.98021 32.346886 172.66771Q32.346886 172.43333 32.284386 172.05833ZM36.753136 171.18333L35.42501 171.33958Q35.55001 170.88646 35.55001 170.54271Q35.55001 170.07396 35.39376 169.79271Q35.23751 169.51146 34.95626 169.32396Q34.753136 169.19896 33.909386 168.90208Q33.80001 168.85521 33.565636 168.77708L25.253138 171.91771L25.253138 170.40208L30.050013 168.68333Q30.971888 168.33958 31.971888 168.07396Q31.003138 167.83958 30.081263 167.49583L25.253138 165.73021L25.253138 164.32396L33.690636 167.48021Q35.065636 167.98021 35.58126 168.26146Q36.26876 168.63646 36.596886 169.12083Q36.92501 169.60521 36.92501 170.27708Q36.92501 170.68333 36.753136 171.18333Z" fill-rule="nonzero"/><path fill="#000000" d="M76.05 329.21564Q76.05 327.6844 76.3625 326.7625Q76.675 325.825 77.28438 325.325Q77.90938 324.825 78.84688 324.825Q79.53438 324.825 80.05 325.10626Q80.58125 325.3875 80.925 325.91876Q81.26875 326.4344 81.45625 327.1844Q81.64375 327.9344 81.64375 329.21564Q81.64375 330.73126 81.33125 331.65314Q81.03438 332.575 80.40938 333.09064Q79.8 333.59064 78.84688 333.59064Q77.6125 333.59064 76.89375 332.7Q76.05 331.6375 76.05 329.21564ZM77.12813 329.21564Q77.12813 331.325 77.62813 332.02814Q78.12813 332.73126 78.84688 332.73126Q79.58125 332.73126 80.06563 332.02814Q80.56563 331.325 80.56563 329.21564Q80.56563 327.09064 80.06563 326.40314Q79.58125 325.7 78.83125 325.7Q78.1125 325.7 77.675 326.3094Q77.12813 327.09064 77.12813 329.21564Z" fill-rule="nonzero"/><path fill="#000000" d="M74.59688 284.72772L74.59688 285.74335L68.90938 285.74335Q68.90938 285.36835 69.03438 285.00897Q69.25313 284.43085 69.72188 283.86835Q70.20625 283.30585 71.1125 282.57147Q72.51875 281.41522 73.00313 280.74335Q73.50313 280.07147 73.50313 279.47772Q73.50313 278.85272 73.05 278.43085Q72.59688 277.99335 71.87813 277.99335Q71.1125 277.99335 70.65938 278.44647Q70.20625 278.8996 70.19063 279.7121L69.1125 279.60272Q69.22188 278.38397 69.94063 277.75897Q70.675 277.11835 71.90938 277.11835Q73.14375 277.11835 73.8625 277.80585Q74.58125 278.49335 74.58125 279.50897Q74.58125 280.0246 74.3625 280.5246Q74.15938 281.00897 73.65938 281.57147Q73.175 282.11835 72.05 283.07147Q71.09688 283.86835 70.81563 284.16522Q70.55 284.44647 70.37813 284.72772L74.59688 284.72772ZM76.05 281.50897Q76.05 279.97772 76.3625 279.05585Q76.675 278.11835 77.28438 277.61835Q77.90938 277.11835 78.84688 277.11835Q79.53438 277.11835 80.05 277.3996Q80.58125 277.68085 80.925 278.2121Q81.26875 278.72772 81.45625 279.47772Q81.64375 280.22772 81.64375 281.50897Q81.64375 283.0246 81.33125 283.94647Q81.03438 284.86835 80.40938 285.38397Q79.8 285.88397 78.84688 285.88397Q77.6125 285.88397 76.89375 284.99335Q76.05 283.93085 76.05 281.50897ZM77.12813 281.50897Q77.12813 283.61835 77.62813 284.32147Q78.12813 285.0246 78.84688 285.0246Q79.58125 285.0246 80.06563 284.32147Q80.56563 283.61835 80.56563 281.50897Q80.56563 279.38397 80.06563 278.69647Q79.58125 277.99335 78.83125 277.99335Q78.1125 277.99335 77.675 278.60272Q77.12813 279.38397 77.12813 281.50897Z" fill-rule="nonzero"/><path fill="#000000" d="M72.425 238.03667L72.425 235.97417L68.70625 235.97417L68.70625 235.00542L72.62813 229.44292L73.4875 229.44292L73.4875 235.00542L74.64375 235.00542L74.64375 235.97417L73.4875 235.97417L73.4875 238.03667L72.425 238.03667ZM72.425 235.00542L72.425 231.14604L69.7375 235.00542L72.425 235.00542ZM76.05 233.80229Q76.05 232.27104 76.3625 231.34917Q76.675 230.41167 77.28438 229.91167Q77.90938 229.41167 78.84688 229.41167Q79.53438 229.41167 80.05 229.69292Q80.58125 229.97417 80.925 230.50542Q81.26875 231.02104 81.45625 231.77104Q81.64375 232.52104 81.64375 233.80229Q81.64375 235.31792 81.33125 236.23979Q81.03438 237.16167 80.40938 237.67729Q79.8 238.17729 78.84688 238.17729Q77.6125 238.17729 76.89375 237.28667Q76.05 236.22417 76.05 233.80229ZM77.12813 233.80229Q77.12813 235.91167 77.62813 236.61479Q78.12813 237.31792 78.84688 237.31792Q79.58125 237.31792 80.06563 236.61479Q80.56563 235.91167 80.56563 233.80229Q80.56563 231.67729 80.06563 230.98979Q79.58125 230.28667 78.83125 230.28667Q78.1125 230.28667 77.675 230.89604Q77.12813 231.67729 77.12813 233.80229Z" fill-rule="nonzero"/><path fill="#000000" d="M74.51875 183.84563L73.47188 183.92375Q73.33125 183.29875 73.08125 183.0175Q72.64375 182.56438 72.01875 182.56438Q71.51875 182.56438 71.12813 182.84563Q70.64375 183.22063 70.34688 183.92375Q70.06563 184.61125 70.05 185.8925Q70.425 185.31438 70.97188 185.03313Q71.53438 184.75188 72.14375 184.75188Q73.19063 184.75188 73.925 185.53313Q74.675 186.31438 74.675 187.53313Q74.675 188.34563 74.31563 189.04875Q73.97188 189.73625 73.3625 190.11125Q72.75313 190.47063 71.9875 190.47063Q70.65938 190.47063 69.83125 189.50188Q69.00313 188.53313 69.00313 186.31438Q69.00313 183.81438 69.925 182.68938Q70.72188 181.705 72.08125 181.705Q73.09688 181.705 73.7375 182.28313Q74.39375 182.84563 74.51875 183.84563ZM70.22188 187.54875Q70.22188 188.09563 70.44063 188.59563Q70.675 189.08 71.08125 189.34563Q71.50313 189.61125 71.97188 189.61125Q72.62813 189.61125 73.1125 189.08Q73.59688 188.53313 73.59688 187.61125Q73.59688 186.72063 73.1125 186.205Q72.64375 185.68938 71.925 185.68938Q71.20625 185.68938 70.70625 186.205Q70.22188 186.72063 70.22188 187.54875ZM76.05 186.09563Q76.05 184.56438 76.3625 183.6425Q76.675 182.705 77.28438 182.205Q77.90938 181.705 78.84688 181.705Q79.53438 181.705 80.05 181.98625Q80.58125 182.2675 80.925 182.79875Q81.26875 183.31438 81.45625 184.06438Q81.64375 184.81438 81.64375 186.09563Q81.64375 187.61125 81.33125 188.53313Q81.03438 189.455 80.40938 189.97063Q79.8 190.47063 78.84688 190.47063Q77.6125 190.47063 76.89375 189.58Q76.05 188.5175 76.05 186.09563ZM77.12813 186.09563Q77.12813 188.205 77.62813 188.90813Q78.12813 189.61125 78.84688 189.61125Q79.58125 189.61125 80.06563 188.90813Q80.56563 188.205 80.56563 186.09563Q80.56563 183.97063 80.06563 183.28313Q79.58125 182.58 78.83125 182.58Q78.1125 182.58 77.675 183.18938Q77.12813 183.97063 77.12813 186.09563Z" fill-rule="nonzero"/><path fill="#000000" d="M70.675 137.96709Q70.01875 137.71709 69.69063 137.27959Q69.37813 136.82646 69.37813 136.21709Q69.37813 135.27959 70.05 134.63896Q70.7375 133.99834 71.84688 133.99834Q72.97188 133.99834 73.65938 134.65459Q74.34688 135.31084 74.34688 136.24834Q74.34688 136.84209 74.03438 137.27959Q73.72188 137.71709 73.08125 137.96709Q73.87813 138.21709 74.28438 138.79521Q74.69063 139.37334 74.69063 140.17021Q74.69063 141.26396 73.90938 142.01396Q73.14375 142.76396 71.8625 142.76396Q70.59688 142.76396 69.81563 142.01396Q69.03438 141.26396 69.03438 140.13896Q69.03438 139.29521 69.45625 138.73271Q69.89375 138.17021 70.675 137.96709ZM70.45625 136.17021Q70.45625 136.77959 70.84688 137.17021Q71.25313 137.56084 71.87813 137.56084Q72.4875 137.56084 72.87813 137.18584Q73.26875 136.79521 73.26875 136.23271Q73.26875 135.65459 72.8625 135.26396Q72.45625 134.85771 71.8625 134.85771Q71.25313 134.85771 70.84688 135.24834Q70.45625 135.63896 70.45625 136.17021ZM70.12813 140.13896Q70.12813 140.59209 70.33125 141.01396Q70.55 141.43584 70.97188 141.67021Q71.39375 141.90459 71.87813 141.90459Q72.62813 141.90459 73.1125 141.42021Q73.6125 140.93584 73.6125 140.18584Q73.6125 139.42021 73.1125 138.92021Q72.6125 138.42021 71.84688 138.42021Q71.09688 138.42021 70.6125 138.92021Q70.12813 139.40459 70.12813 140.13896ZM76.05 138.38896Q76.05 136.85771 76.3625 135.93584Q76.675 134.99834 77.28438 134.49834Q77.90938 133.99834 78.84688 133.99834Q79.53438 133.99834 80.05 134.27959Q80.58125 134.56084 80.925 135.09209Q81.26875 135.60771 81.45625 136.35771Q81.64375 137.10771 81.64375 138.38896Q81.64375 139.90459 81.33125 140.82646Q81.03438 141.74834 80.40938 142.26396Q79.8 142.76396 78.84688 142.76396Q77.6125 142.76396 76.89375 141.87334Q76.05 140.81084 76.05 138.38896ZM77.12813 138.38896Q77.12813 140.49834 77.62813 141.20146Q78.12813 141.90459 78.84688 141.90459Q79.58125 141.90459 80.06563 141.20146Q80.56563 140.49834 80.56563 138.38896Q80.56563 136.26396 80.06563 135.57646Q79.58125 134.87334 78.83125 134.87334Q78.1125 134.87334 77.675 135.48271Q77.12813 136.26396 77.12813 138.38896Z" fill-rule="nonzero"/><path fill="#000000" d="M66.01875 94.916664L64.97188 94.916664L64.97188 88.197914Q64.58125 88.55729 63.95625 88.93229Q63.346874 89.291664 62.8625 89.46354L62.8625 88.447914Q63.7375 88.02604 64.39375 87.447914Q65.06563 86.854164 65.34688 86.291664L66.01875 86.291664L66.01875 94.916664ZM69.05 90.68229Q69.05 89.15104 69.3625 88.229164Q69.675 87.291664 70.28438 86.791664Q70.90938 86.291664 71.84688 86.291664Q72.53438 86.291664 73.05 86.572914Q73.58125 86.854164 73.925 87.385414Q74.26875 87.90104 74.45625 88.65104Q74.64375 89.40104 74.64375 90.68229Q74.64375 92.197914 74.33125 93.11979Q74.03438 94.041664 73.40938 94.55729Q72.8 95.05729 71.84688 95.05729Q70.6125 95.05729 69.89375 94.166664Q69.05 93.104164 69.05 90.68229ZM70.12813 90.68229Q70.12813 92.791664 70.62813 93.49479Q71.12813 94.197914 71.84688 94.197914Q72.58125 94.197914 73.06563 93.49479Q73.56563 92.791664 73.56563 90.68229Q73.56563 88.55729 73.06563 87.86979Q72.58125 87.166664 71.83125 87.166664Q71.1125 87.166664 70.675 87.77604Q70.12813 88.55729 70.12813 90.68229ZM76.05 90.68229Q76.05 89.15104 76.3625 88.229164Q76.675 87.291664 77.28438 86.791664Q77.90938 86.291664 78.84688 86.291664Q79.53438 86.291664 80.05 86.572914Q80.58125 86.854164 80.925 87.385414Q81.26875 87.90104 81.45625 88.65104Q81.64375 89.40104 81.64375 90.68229Q81.64375 92.197914 81.33125 93.11979Q81.03438 94.041664 80.40938 94.55729Q79.8 95.05729 78.84688 95.05729Q77.6125 95.05729 76.89375 94.166664Q76.05 93.104164 76.05 90.68229ZM77.12813 90.68229Q77.12813 92.791664 77.62813 93.49479Q78.12813 94.197914 78.84688 94.197914Q79.58125 94.197914 80.06563 93.49479Q80.56563 92.791664 80.56563 90.68229Q80.56563 88.55729 80.06563 87.86979Q79.58125 87.166664 78.83125 87.166664Q78.1125 87.166664 77.675 87.77604Q77.12813 88.55729 77.12813 90.68229Z" fill-rule="nonzero"/><path fill="#000000" d="M71.59688 348.2625L71.59688 349.45L64.97188 349.45Q64.95625 349.0125 65.1125 348.59064Q65.37813 347.91876 65.925 347.2625Q66.4875 346.60626 67.53438 345.7469Q69.175 344.40314 69.7375 343.6219Q70.31563 342.84064 70.31563 342.1375Q70.31563 341.40314 69.78438 340.90314Q69.26875 340.40314 68.44063 340.40314Q67.55 340.40314 67.00313 340.9344Q66.47188 341.46564 66.47188 342.41876L65.20625 342.27814Q65.33125 340.8719 66.175 340.1375Q67.03438 339.3875 68.45625 339.3875Q69.90938 339.3875 70.7375 340.1844Q71.58125 340.98126 71.58125 342.16876Q71.58125 342.77814 71.33125 343.35626Q71.09688 343.9344 70.51875 344.575Q69.95625 345.21564 68.62813 346.34064Q67.51875 347.2625 67.20625 347.60626Q66.89375 347.9344 66.69063 348.2625L71.59688 348.2625ZM73.12813 344.5125Q73.12813 342.73126 73.4875 341.65314Q73.8625 340.5594 74.58125 339.98126Q75.3 339.3875 76.39375 339.3875Q77.20625 339.3875 77.81563 339.71564Q78.425 340.04376 78.81563 340.65314Q79.22188 341.2625 79.44063 342.1375Q79.65938 343.0125 79.65938 344.5125Q79.65938 346.27814 79.3 347.35626Q78.94063 348.4344 78.22188 349.02814Q77.50313 349.6219 76.39375 349.6219Q74.95625 349.6219 74.12813 348.575Q73.12813 347.325 73.12813 344.5125ZM74.39375 344.5125Q74.39375 346.98126 74.97188 347.79376Q75.55 348.60626 76.39375 348.60626Q77.25313 348.60626 77.83125 347.79376Q78.40938 346.96564 78.40938 344.5125Q78.40938 342.02814 77.83125 341.21564Q77.25313 340.40314 76.37813 340.40314Q75.53438 340.40314 75.03438 341.1219Q74.39375 342.04376 74.39375 344.5125ZM85.76875 349.45L84.53438 349.45L84.53438 341.60626Q84.09688 342.02814 83.3625 342.46564Q82.64375 342.8875 82.08125 343.09064L82.08125 341.90314Q83.1125 341.41876 83.87813 340.73126Q84.65938 340.04376 84.97188 339.3875L85.76875 339.3875L85.76875 349.45ZM89.20625 340.7469L89.20625 339.5594L95.70625 339.5594L95.70625 340.5125Q94.7375 341.52814 93.8 343.21564Q92.8625 344.90314 92.34688 346.7Q91.9875 347.95 91.87813 349.45L90.6125 349.45Q90.62813 348.2625 91.06563 346.59064Q91.51875 344.91876 92.34688 343.3719Q93.19063 341.8094 94.12813 340.7469L89.20625 340.7469ZM96.33125 352.23126L96.33125 351.34064L104.4875 351.34064L104.4875 352.23126L96.33125 352.23126ZM109.76875 349.45L108.53438 349.45L108.53438 341.60626Q108.09688 342.02814 107.3625 342.46564Q106.64375 342.8875 106.08125 343.09064L106.08125 341.90314Q107.1125 341.41876 107.87813 340.73126Q108.65938 340.04376 108.97188 339.3875L109.76875 339.3875L109.76875 349.45Z" fill-rule="nonzero"/><path fill="#000000" d="M126.36354 348.2625L126.36354 349.45L119.73854 349.45Q119.722916 349.0125 119.879166 348.59064Q120.14479 347.91876 120.691666 347.2625Q121.254166 346.60626 122.30104 345.7469Q123.941666 344.40314 124.504166 343.6219Q125.08229 342.84064 125.08229 342.1375Q125.08229 341.40314 124.55104 340.90314Q124.035416 340.40314 123.20729 340.40314Q122.316666 340.40314 121.76979 340.9344Q121.23854 341.46564 121.23854 342.41876L119.972916 342.27814Q120.097916 340.8719 120.941666 340.1375Q121.80104 339.3875 123.222916 339.3875Q124.67604 339.3875 125.504166 340.1844Q126.347916 340.98126 126.347916 342.16876Q126.347916 342.77814 126.097916 343.35626Q125.86354 343.9344 125.285416 344.575Q124.722916 345.21564 123.39479 346.34064Q122.285416 347.2625 121.972916 347.60626Q121.660416 347.9344 121.45729 348.2625L126.36354 348.2625ZM127.89479 344.5125Q127.89479 342.73126 128.25417 341.65314Q128.62917 340.5594 129.34792 339.98126Q130.06667 339.3875 131.16042 339.3875Q131.97292 339.3875 132.58229 339.71564Q133.19167 340.04376 133.58229 340.65314Q133.98854 341.2625 134.20729 342.1375Q134.42604 343.0125 134.42604 344.5125Q134.42604 346.27814 134.06667 347.35626Q133.70729 348.4344 132.98854 349.02814Q132.26979 349.6219 131.16042 349.6219Q129.72292 349.6219 128.89479 348.575Q127.89479 347.325 127.89479 344.5125ZM129.16042 344.5125Q129.16042 346.98126 129.73854 347.79376Q130.31667 348.60626 131.16042 348.60626Q132.01979 348.60626 132.59792 347.79376Q133.17604 346.96564 133.17604 344.5125Q133.17604 342.02814 132.59792 341.21564Q132.01979 340.40314 131.14479 340.40314Q130.30104 340.40314 129.80104 341.1219Q129.16042 342.04376 129.16042 344.5125ZM140.53542 349.45L139.30104 349.45L139.30104 341.60626Q138.86354 342.02814 138.12917 342.46564Q137.41042 342.8875 136.84792 343.09064L136.84792 341.90314Q137.87917 341.41876 138.64479 340.73126Q139.42604 340.04376 139.73854 339.3875L140.53542 339.3875L140.53542 349.45ZM143.97292 340.7469L143.97292 339.5594L150.47292 339.5594L150.47292 340.5125Q149.50417 341.52814 148.56667 343.21564Q147.62917 344.90314 147.11354 346.7Q146.75417 347.95 146.64479 349.45L145.37917 349.45Q145.39479 348.2625 145.83229 346.59064Q146.28542 344.91876 147.11354 343.3719Q147.95729 341.8094 148.89479 340.7469L143.97292 340.7469ZM151.09792 352.23126L151.09792 351.34064L159.25417 351.34064L159.25417 352.23126L151.09792 352.23126ZM166.36354 348.2625L166.36354 349.45L159.73854 349.45Q159.72292 349.0125 159.87917 348.59064Q160.14479 347.91876 160.69167 347.2625Q161.25417 346.60626 162.30104 345.7469Q163.94167 344.40314 164.50417 343.6219Q165.08229 342.84064 165.08229 342.1375Q165.08229 341.40314 164.55104 340.90314Q164.03542 340.40314 163.20729 340.40314Q162.31667 340.40314 161.76979 340.9344Q161.23854 341.46564 161.23854 342.41876L159.97292 342.27814Q160.09792 340.8719 160.94167 340.1375Q161.80104 339.3875 163.22292 339.3875Q164.67604 339.3875 165.50417 340.1844Q166.34792 340.98126 166.34792 342.16876Q166.34792 342.77814 166.09792 343.35626Q165.86354 343.9344 165.28542 344.575Q164.72292 345.21564 163.39479 346.34064Q162.28542 347.2625 161.97292 347.60626Q161.66042 347.9344 161.45729 348.2625L166.36354 348.2625Z" fill-rule="nonzero"/><path fill="#000000" d="M181.1302 348.2625L181.1302 349.45L174.5052 349.45Q174.48958 349.0125 174.64583 348.59064Q174.91145 347.91876 175.45833 347.2625Q176.02083 346.60626 177.0677 345.7469Q178.70833 344.40314 179.27083 343.6219Q179.84895 342.84064 179.84895 342.1375Q179.84895 341.40314 179.3177 340.90314Q178.80208 340.40314 177.97395 340.40314Q177.08333 340.40314 176.53645 340.9344Q176.0052 341.46564 176.0052 342.41876L174.73958 342.27814Q174.86458 340.8719 175.70833 340.1375Q176.5677 339.3875 177.98958 339.3875Q179.4427 339.3875 180.27083 340.1844Q181.11458 340.98126 181.11458 342.16876Q181.11458 342.77814 180.86458 343.35626Q180.6302 343.9344 180.05208 344.575Q179.48958 345.21564 178.16145 346.34064Q177.05208 347.2625 176.73958 347.60626Q176.42708 347.9344 176.22395 348.2625L181.1302 348.2625ZM182.66145 344.5125Q182.66145 342.73126 183.02083 341.65314Q183.39583 340.5594 184.11458 339.98126Q184.83333 339.3875 185.92708 339.3875Q186.73958 339.3875 187.34895 339.71564Q187.95833 340.04376 188.34895 340.65314Q188.7552 341.2625 188.97395 342.1375Q189.1927 343.0125 189.1927 344.5125Q189.1927 346.27814 188.83333 347.35626Q188.47395 348.4344 187.7552 349.02814Q187.03645 349.6219 185.92708 349.6219Q184.48958 349.6219 183.66145 348.575Q182.66145 347.325 182.66145 344.5125ZM183.92708 344.5125Q183.92708 346.98126 184.5052 347.79376Q185.08333 348.60626 185.92708 348.60626Q186.78645 348.60626 187.36458 347.79376Q187.9427 346.96564 187.9427 344.5125Q187.9427 342.02814 187.36458 341.21564Q186.78645 340.40314 185.91145 340.40314Q185.0677 340.40314 184.5677 341.1219Q183.92708 342.04376 183.92708 344.5125ZM195.30208 349.45L194.0677 349.45L194.0677 341.60626Q193.6302 342.02814 192.89583 342.46564Q192.17708 342.8875 191.61458 343.09064L191.61458 341.90314Q192.64583 341.41876 193.41145 340.73126Q194.1927 340.04376 194.5052 339.3875L195.30208 339.3875L195.30208 349.45ZM200.55208 344.0125Q199.78645 343.73126 199.41145 343.21564Q199.05208 342.7 199.05208 341.96564Q199.05208 340.8719 199.83333 340.1375Q200.6302 339.3875 201.92708 339.3875Q203.23958 339.3875 204.03645 340.15314Q204.84895 340.91876 204.84895 342.0125Q204.84895 342.7 204.47395 343.21564Q204.11458 343.73126 203.36458 344.0125Q204.28645 344.3094 204.77083 344.98126Q205.2552 345.65314 205.2552 346.59064Q205.2552 347.8719 204.34895 348.7469Q203.4427 349.6219 201.95833 349.6219Q200.47395 349.6219 199.55208 348.7469Q198.64583 347.85626 198.64583 346.54376Q198.64583 345.575 199.14583 344.91876Q199.64583 344.2469 200.55208 344.0125ZM200.3177 341.9344Q200.3177 342.6375 200.77083 343.09064Q201.22395 343.54376 201.95833 343.54376Q202.67708 343.54376 203.1302 343.10626Q203.58333 342.65314 203.58333 341.9969Q203.58333 341.325 203.11458 340.8719Q202.64583 340.40314 201.9427 340.40314Q201.23958 340.40314 200.77083 340.85626Q200.3177 341.29376 200.3177 341.9344ZM199.91145 346.5594Q199.91145 347.09064 200.16145 347.59064Q200.41145 348.075 200.89583 348.34064Q201.39583 348.60626 201.97395 348.60626Q202.84895 348.60626 203.41145 348.04376Q203.98958 347.48126 203.98958 346.60626Q203.98958 345.71564 203.39583 345.1375Q202.8177 344.54376 201.92708 344.54376Q201.05208 344.54376 200.47395 345.1219Q199.91145 345.7 199.91145 346.5594ZM205.86458 352.23126L205.86458 351.34064L214.02083 351.34064L214.02083 352.23126L205.86458 352.23126ZM219.30208 349.45L218.0677 349.45L218.0677 341.60626Q217.6302 342.02814 216.89583 342.46564Q216.17708 342.8875 215.61458 343.09064L215.61458 341.90314Q216.64583 341.41876 217.41145 340.73126Q218.1927 340.04376 218.5052 339.3875L219.30208 339.3875L219.30208 349.45Z" fill-rule="nonzero"/><path fill="#000000" d="M235.89688 348.2625L235.89688 349.45L229.27188 349.45Q229.25626 349.0125 229.4125 348.59064Q229.67813 347.91876 230.225 347.2625Q230.7875 346.60626 231.83438 345.7469Q233.475 344.40314 234.0375 343.6219Q234.61563 342.84064 234.61563 342.1375Q234.61563 341.40314 234.08438 340.90314Q233.56876 340.40314 232.74063 340.40314Q231.85 340.40314 231.30313 340.9344Q230.77188 341.46564 230.77188 342.41876L229.50626 342.27814Q229.63126 340.8719 230.475 340.1375Q231.33438 339.3875 232.75626 339.3875Q234.20938 339.3875 235.0375 340.1844Q235.88126 340.98126 235.88126 342.16876Q235.88126 342.77814 235.63126 343.35626Q235.39688 343.9344 234.81876 344.575Q234.25626 345.21564 232.92813 346.34064Q231.81876 347.2625 231.50626 347.60626Q231.19376 347.9344 230.99063 348.2625L235.89688 348.2625ZM237.42813 344.5125Q237.42813 342.73126 237.7875 341.65314Q238.1625 340.5594 238.88126 339.98126Q239.6 339.3875 240.69376 339.3875Q241.50626 339.3875 242.11563 339.71564Q242.725 340.04376 243.11563 340.65314Q243.52188 341.2625 243.74063 342.1375Q243.95938 343.0125 243.95938 344.5125Q243.95938 346.27814 243.6 347.35626Q243.24063 348.4344 242.52188 349.02814Q241.80313 349.6219 240.69376 349.6219Q239.25626 349.6219 238.42813 348.575Q237.42813 347.325 237.42813 344.5125ZM238.69376 344.5125Q238.69376 346.98126 239.27188 347.79376Q239.85 348.60626 240.69376 348.60626Q241.55313 348.60626 242.13126 347.79376Q242.70938 346.96564 242.70938 344.5125Q242.70938 342.02814 242.13126 341.21564Q241.55313 340.40314 240.67813 340.40314Q239.83438 340.40314 239.33438 341.1219Q238.69376 342.04376 238.69376 344.5125ZM250.06876 349.45L248.83438 349.45L248.83438 341.60626Q248.39688 342.02814 247.6625 342.46564Q246.94376 342.8875 246.38126 343.09064L246.38126 341.90314Q247.4125 341.41876 248.17813 340.73126Q248.95938 340.04376 249.27188 339.3875L250.06876 339.3875L250.06876 349.45ZM255.31876 344.0125Q254.55313 343.73126 254.17813 343.21564Q253.81876 342.7 253.81876 341.96564Q253.81876 340.8719 254.6 340.1375Q255.39688 339.3875 256.69376 339.3875Q258.00626 339.3875 258.80313 340.15314Q259.61563 340.91876 259.61563 342.0125Q259.61563 342.7 259.24063 343.21564Q258.88126 343.73126 258.13126 344.0125Q259.05313 344.3094 259.5375 344.98126Q260.02188 345.65314 260.02188 346.59064Q260.02188 347.8719 259.11563 348.7469Q258.20938 349.6219 256.725 349.6219Q255.24063 349.6219 254.31876 348.7469Q253.4125 347.85626 253.4125 346.54376Q253.4125 345.575 253.9125 344.91876Q254.4125 344.2469 255.31876 344.0125ZM255.08438 341.9344Q255.08438 342.6375 255.5375 343.09064Q255.99063 343.54376 256.725 343.54376Q257.44376 343.54376 257.89688 343.10626Q258.35 342.65314 258.35 341.9969Q258.35 341.325 257.88126 340.8719Q257.4125 340.40314 256.70938 340.40314Q256.00626 340.40314 255.5375 340.85626Q255.08438 341.29376 255.08438 341.9344ZM254.67813 346.5594Q254.67813 347.09064 254.92813 347.59064Q255.17813 348.075 255.6625 348.34064Q256.1625 348.60626 256.74063 348.60626Q257.61563 348.60626 258.17813 348.04376Q258.75626 347.48126 258.75626 346.60626Q258.75626 345.71564 258.1625 345.1375Q257.58438 344.54376 256.69376 344.54376Q255.81876 344.54376 255.24063 345.1219Q254.67813 345.7 254.67813 346.5594ZM260.63126 352.23126L260.63126 351.34064L268.7875 351.34064L268.7875 352.23126L260.63126 352.23126ZM275.89688 348.2625L275.89688 349.45L269.27188 349.45Q269.25626 349.0125 269.4125 348.59064Q269.67813 347.91876 270.225 347.2625Q270.7875 346.60626 271.83438 345.7469Q273.475 344.40314 274.0375 343.6219Q274.61563 342.84064 274.61563 342.1375Q274.61563 341.40314 274.08438 340.90314Q273.56876 340.40314 272.74063 340.40314Q271.85 340.40314 271.30313 340.9344Q270.77188 341.46564 270.77188 342.41876L269.50626 342.27814Q269.63126 340.8719 270.475 340.1375Q271.33438 339.3875 272.75626 339.3875Q274.20938 339.3875 275.0375 340.1844Q275.88126 340.98126 275.88126 342.16876Q275.88126 342.77814 275.63126 343.35626Q275.39688 343.9344 274.81876 344.575Q274.25626 345.21564 272.92813 346.34064Q271.81876 347.2625 271.50626 347.60626Q271.19376 347.9344 270.99063 348.2625L275.89688 348.2625Z" fill-rule="nonzero"/><path fill="#000000" d="M290.66354 348.2625L290.66354 349.45L284.03854 349.45Q284.02292 349.0125 284.17917 348.59064Q284.4448 347.91876 284.99167 347.2625Q285.55417 346.60626 286.60104 345.7469Q288.24167 344.40314 288.80417 343.6219Q289.3823 342.84064 289.3823 342.1375Q289.3823 341.40314 288.85104 340.90314Q288.33542 340.40314 287.5073 340.40314Q286.61667 340.40314 286.0698 340.9344Q285.53854 341.46564 285.53854 342.41876L284.27292 342.27814Q284.39792 340.8719 285.24167 340.1375Q286.10104 339.3875 287.52292 339.3875Q288.97604 339.3875 289.80417 340.1844Q290.64792 340.98126 290.64792 342.16876Q290.64792 342.77814 290.39792 343.35626Q290.16354 343.9344 289.58542 344.575Q289.02292 345.21564 287.6948 346.34064Q286.58542 347.2625 286.27292 347.60626Q285.96042 347.9344 285.7573 348.2625L290.66354 348.2625ZM292.1948 344.5125Q292.1948 342.73126 292.55417 341.65314Q292.92917 340.5594 293.64792 339.98126Q294.36667 339.3875 295.46042 339.3875Q296.27292 339.3875 296.8823 339.71564Q297.49167 340.04376 297.8823 340.65314Q298.28854 341.2625 298.5073 342.1375Q298.72604 343.0125 298.72604 344.5125Q298.72604 346.27814 298.36667 347.35626Q298.0073 348.4344 297.28854 349.02814Q296.5698 349.6219 295.46042 349.6219Q294.02292 349.6219 293.1948 348.575Q292.1948 347.325 292.1948 344.5125ZM293.46042 344.5125Q293.46042 346.98126 294.03854 347.79376Q294.61667 348.60626 295.46042 348.60626Q296.3198 348.60626 296.89792 347.79376Q297.47604 346.96564 297.47604 344.5125Q297.47604 342.02814 296.89792 341.21564Q296.3198 340.40314 295.4448 340.40314Q294.60104 340.40314 294.10104 341.1219Q293.46042 342.04376 293.46042 344.5125ZM304.83542 349.45L303.60104 349.45L303.60104 341.60626Q303.16354 342.02814 302.42917 342.46564Q301.71042 342.8875 301.14792 343.09064L301.14792 341.90314Q302.17917 341.41876 302.9448 340.73126Q303.72604 340.04376 304.03854 339.3875L304.83542 339.3875L304.83542 349.45ZM308.3823 347.1375L309.5698 347.02814Q309.71042 347.85626 310.1323 348.23126Q310.5698 348.60626 311.22604 348.60626Q311.78854 348.60626 312.21042 348.35626Q312.64792 348.09064 312.91354 347.65314Q313.1948 347.21564 313.3823 346.48126Q313.5698 345.7469 313.5698 344.98126Q313.5698 344.90314 313.55417 344.73126Q313.1948 345.325 312.55417 345.7Q311.91354 346.0594 311.16354 346.0594Q309.91354 346.0594 309.05417 345.15314Q308.1948 344.2469 308.1948 342.77814Q308.1948 341.2469 309.08542 340.325Q309.99167 339.3875 311.35104 339.3875Q312.3198 339.3875 313.1323 339.91876Q313.9448 340.4344 314.36667 341.41876Q314.78854 342.3875 314.78854 344.23126Q314.78854 346.15314 314.36667 347.29376Q313.96042 348.4344 313.1323 349.02814Q312.30417 349.6219 311.1948 349.6219Q310.02292 349.6219 309.27292 348.96564Q308.53854 348.3094 308.3823 347.1375ZM313.41354 342.71564Q313.41354 341.65314 312.85104 341.02814Q312.28854 340.40314 311.5073 340.40314Q310.67917 340.40314 310.0698 341.075Q309.46042 341.7469 309.46042 342.8094Q309.46042 343.7625 310.03854 344.3719Q310.61667 344.96564 311.46042 344.96564Q312.3198 344.96564 312.86667 344.3719Q313.41354 343.7625 313.41354 342.71564ZM315.39792 352.23126L315.39792 351.34064L323.55417 351.34064L323.55417 352.23126L315.39792 352.23126ZM328.83542 349.45L327.60104 349.45L327.60104 341.60626Q327.16354 342.02814 326.42917 342.46564Q325.71042 342.8875 325.14792 343.09064L325.14792 341.90314Q326.17917 341.41876 326.9448 340.73126Q327.72604 340.04376 328.03854 339.3875L328.83542 339.3875L328.83542 349.45Z" fill-rule="nonzero"/><path fill="#000000" d="M345.4302 348.2625L345.4302 349.45L338.8052 349.45Q338.78958 349.0125 338.94583 348.59064Q339.21146 347.91876 339.75833 347.2625Q340.32083 346.60626 341.3677 345.7469Q343.00833 344.40314 343.57083 343.6219Q344.14896 342.84064 344.14896 342.1375Q344.14896 341.40314 343.6177 340.90314Q343.10208 340.40314 342.27396 340.40314Q341.38333 340.40314 340.83646 340.9344Q340.3052 341.46564 340.3052 342.41876L339.03958 342.27814Q339.16458 340.8719 340.00833 340.1375Q340.8677 339.3875 342.28958 339.3875Q343.7427 339.3875 344.57083 340.1844Q345.41458 340.98126 345.41458 342.16876Q345.41458 342.77814 345.16458 343.35626Q344.9302 343.9344 344.35208 344.575Q343.78958 345.21564 342.46146 346.34064Q341.35208 347.2625 341.03958 347.60626Q340.72708 347.9344 340.52396 348.2625L345.4302 348.2625ZM346.96146 344.5125Q346.96146 342.73126 347.32083 341.65314Q347.69583 340.5594 348.41458 339.98126Q349.13333 339.3875 350.22708 339.3875Q351.03958 339.3875 351.64896 339.71564Q352.25833 340.04376 352.64896 340.65314Q353.0552 341.2625 353.27396 342.1375Q353.4927 343.0125 353.4927 344.5125Q353.4927 346.27814 353.13333 347.35626Q352.77396 348.4344 352.0552 349.02814Q351.33646 349.6219 350.22708 349.6219Q348.78958 349.6219 347.96146 348.575Q346.96146 347.325 346.96146 344.5125ZM348.22708 344.5125Q348.22708 346.98126 348.8052 347.79376Q349.38333 348.60626 350.22708 348.60626Q351.08646 348.60626 351.66458 347.79376Q352.2427 346.96564 352.2427 344.5125Q352.2427 342.02814 351.66458 341.21564Q351.08646 340.40314 350.21146 340.40314Q349.3677 340.40314 348.8677 341.1219Q348.22708 342.04376 348.22708 344.5125ZM359.60208 349.45L358.3677 349.45L358.3677 341.60626Q357.9302 342.02814 357.19583 342.46564Q356.47708 342.8875 355.91458 343.09064L355.91458 341.90314Q356.94583 341.41876 357.71146 340.73126Q358.4927 340.04376 358.8052 339.3875L359.60208 339.3875L359.60208 349.45ZM363.14896 347.1375L364.33646 347.02814Q364.47708 347.85626 364.89896 348.23126Q365.33646 348.60626 365.9927 348.60626Q366.5552 348.60626 366.97708 348.35626Q367.41458 348.09064 367.6802 347.65314Q367.96146 347.21564 368.14896 346.48126Q368.33646 345.7469 368.33646 344.98126Q368.33646 344.90314 368.32083 344.73126Q367.96146 345.325 367.32083 345.7Q366.6802 346.0594 365.9302 346.0594Q364.6802 346.0594 363.82083 345.15314Q362.96146 344.2469 362.96146 342.77814Q362.96146 341.2469 363.85208 340.325Q364.75833 339.3875 366.1177 339.3875Q367.08646 339.3875 367.89896 339.91876Q368.71146 340.4344 369.13333 341.41876Q369.5552 342.3875 369.5552 344.23126Q369.5552 346.15314 369.13333 347.29376Q368.72708 348.4344 367.89896 349.02814Q367.07083 349.6219 365.96146 349.6219Q364.78958 349.6219 364.03958 348.96564Q363.3052 348.3094 363.14896 347.1375ZM368.1802 342.71564Q368.1802 341.65314 367.6177 341.02814Q367.0552 340.40314 366.27396 340.40314Q365.44583 340.40314 364.83646 341.075Q364.22708 341.7469 364.22708 342.8094Q364.22708 343.7625 364.8052 344.3719Q365.38333 344.96564 366.22708 344.96564Q367.08646 344.96564 367.63333 344.3719Q368.1802 343.7625 368.1802 342.71564ZM370.16458 352.23126L370.16458 351.34064L378.32083 351.34064L378.32083 352.23126L370.16458 352.23126ZM385.4302 348.2625L385.4302 349.45L378.8052 349.45Q378.78958 349.0125 378.94583 348.59064Q379.21146 347.91876 379.75833 347.2625Q380.32083 346.60626 381.3677 345.7469Q383.00833 344.40314 383.57083 343.6219Q384.14896 342.84064 384.14896 342.1375Q384.14896 341.40314 383.6177 340.90314Q383.10208 340.40314 382.27396 340.40314Q381.38333 340.40314 380.83646 340.9344Q380.3052 341.46564 380.3052 342.41876L379.03958 342.27814Q379.16458 340.8719 380.00833 340.1375Q380.8677 339.3875 382.28958 339.3875Q383.7427 339.3875 384.57083 340.1844Q385.41458 340.98126 385.41458 342.16876Q385.41458 342.77814 385.16458 343.35626Q384.9302 343.9344 384.35208 344.575Q383.78958 345.21564 382.46146 346.34064Q381.35208 347.2625 381.03958 347.60626Q380.72708 347.9344 380.52396 348.2625L385.4302 348.2625Z" fill-rule="nonzero"/><path fill="#000000" d="M400.19687 348.2625L400.19687 349.45L393.57187 349.45Q393.55624 349.0125 393.7125 348.59064Q393.97812 347.91876 394.525 347.2625Q395.0875 346.60626 396.13437 345.7469Q397.775 344.40314 398.3375 343.6219Q398.91562 342.84064 398.91562 342.1375Q398.91562 341.40314 398.38437 340.90314Q397.86874 340.40314 397.04062 340.40314Q396.15 340.40314 395.60312 340.9344Q395.07187 341.46564 395.07187 342.41876L393.80624 342.27814Q393.93124 340.8719 394.775 340.1375Q395.63437 339.3875 397.05624 339.3875Q398.50937 339.3875 399.3375 340.1844Q400.18124 340.98126 400.18124 342.16876Q400.18124 342.77814 399.93124 343.35626Q399.69687 343.9344 399.11874 344.575Q398.55624 345.21564 397.22812 346.34064Q396.11874 347.2625 395.80624 347.60626Q395.49374 347.9344 395.29062 348.2625L400.19687 348.2625ZM401.72812 344.5125Q401.72812 342.73126 402.0875 341.65314Q402.4625 340.5594 403.18124 339.98126Q403.9 339.3875 404.99374 339.3875Q405.80624 339.3875 406.41562 339.71564Q407.025 340.04376 407.41562 340.65314Q407.82187 341.2625 408.04062 342.1375Q408.25937 343.0125 408.25937 344.5125Q408.25937 346.27814 407.9 347.35626Q407.54062 348.4344 406.82187 349.02814Q406.10312 349.6219 404.99374 349.6219Q403.55624 349.6219 402.72812 348.575Q401.72812 347.325 401.72812 344.5125ZM402.99374 344.5125Q402.99374 346.98126 403.57187 347.79376Q404.15 348.60626 404.99374 348.60626Q405.85312 348.60626 406.43124 347.79376Q407.00937 346.96564 407.00937 344.5125Q407.00937 342.02814 406.43124 341.21564Q405.85312 340.40314 404.97812 340.40314Q404.13437 340.40314 403.63437 341.1219Q402.99374 342.04376 402.99374 344.5125ZM416.19687 348.2625L416.19687 349.45L409.57187 349.45Q409.55624 349.0125 409.7125 348.59064Q409.97812 347.91876 410.525 347.2625Q411.0875 346.60626 412.13437 345.7469Q413.775 344.40314 414.3375 343.6219Q414.91562 342.84064 414.91562 342.1375Q414.91562 341.40314 414.38437 340.90314Q413.86874 340.40314 413.04062 340.40314Q412.15 340.40314 411.60312 340.9344Q411.07187 341.46564 411.07187 342.41876L409.80624 342.27814Q409.93124 340.8719 410.775 340.1375Q411.63437 339.3875 413.05624 339.3875Q414.50937 339.3875 415.3375 340.1844Q416.18124 340.98126 416.18124 342.16876Q416.18124 342.77814 415.93124 343.35626Q415.69687 343.9344 415.11874 344.575Q414.55624 345.21564 413.22812 346.34064Q412.11874 347.2625 411.80624 347.60626Q411.49374 347.9344 411.29062 348.2625L416.19687 348.2625ZM417.72812 344.5125Q417.72812 342.73126 418.0875 341.65314Q418.4625 340.5594 419.18124 339.98126Q419.9 339.3875 420.99374 339.3875Q421.80624 339.3875 422.41562 339.71564Q423.025 340.04376 423.41562 340.65314Q423.82187 341.2625 424.04062 342.1375Q424.25937 343.0125 424.25937 344.5125Q424.25937 346.27814 423.9 347.35626Q423.54062 348.4344 422.82187 349.02814Q422.10312 349.6219 420.99374 349.6219Q419.55624 349.6219 418.72812 348.575Q417.72812 347.325 417.72812 344.5125ZM418.99374 344.5125Q418.99374 346.98126 419.57187 347.79376Q420.15 348.60626 420.99374 348.60626Q421.85312 348.60626 422.43124 347.79376Q423.00937 346.96564 423.00937 344.5125Q423.00937 342.02814 422.43124 341.21564Q421.85312 340.40314 420.97812 340.40314Q420.13437 340.40314 419.63437 341.1219Q418.99374 342.04376 418.99374 344.5125ZM424.93124 352.23126L424.93124 351.34064L433.0875 351.34064L433.0875 352.23126L424.93124 352.23126ZM438.36874 349.45L437.13437 349.45L437.13437 341.60626Q436.69687 342.02814 435.9625 342.46564Q435.24374 342.8875 434.68124 343.09064L434.68124 341.90314Q435.7125 341.41876 436.47812 340.73126Q437.25937 340.04376 437.57187 339.3875L438.36874 339.3875L438.36874 349.45Z" fill-rule="nonzero"/><path fill="#000000" d="M454.96353 348.2625L454.96353 349.45L448.33853 349.45Q448.3229 349.0125 448.47916 348.59064Q448.74478 347.91876 449.29166 347.2625Q449.85416 346.60626 450.90103 345.7469Q452.54166 344.40314 453.10416 343.6219Q453.68228 342.84064 453.68228 342.1375Q453.68228 341.40314 453.15103 340.90314Q452.6354 340.40314 451.80728 340.40314Q450.91666 340.40314 450.36978 340.9344Q449.83853 341.46564 449.83853 342.41876L448.5729 342.27814Q448.6979 340.8719 449.54166 340.1375Q450.40103 339.3875 451.8229 339.3875Q453.27603 339.3875 454.10416 340.1844Q454.9479 340.98126 454.9479 342.16876Q454.9479 342.77814 454.6979 343.35626Q454.46353 343.9344 453.8854 344.575Q453.3229 345.21564 451.99478 346.34064Q450.8854 347.2625 450.5729 347.60626Q450.2604 347.9344 450.05728 348.2625L454.96353 348.2625ZM456.49478 344.5125Q456.49478 342.73126 456.85416 341.65314Q457.22916 340.5594 457.9479 339.98126Q458.66666 339.3875 459.7604 339.3875Q460.5729 339.3875 461.18228 339.71564Q461.79166 340.04376 462.18228 340.65314Q462.58853 341.2625 462.80728 342.1375Q463.02603 343.0125 463.02603 344.5125Q463.02603 346.27814 462.66666 347.35626Q462.30728 348.4344 461.58853 349.02814Q460.86978 349.6219 459.7604 349.6219Q458.3229 349.6219 457.49478 348.575Q456.49478 347.325 456.49478 344.5125ZM457.7604 344.5125Q457.7604 346.98126 458.33853 347.79376Q458.91666 348.60626 459.7604 348.60626Q460.61978 348.60626 461.1979 347.79376Q461.77603 346.96564 461.77603 344.5125Q461.77603 342.02814 461.1979 341.21564Q460.61978 340.40314 459.74478 340.40314Q458.90103 340.40314 458.40103 341.1219Q457.7604 342.04376 457.7604 344.5125ZM470.96353 348.2625L470.96353 349.45L464.33853 349.45Q464.3229 349.0125 464.47916 348.59064Q464.74478 347.91876 465.29166 347.2625Q465.85416 346.60626 466.90103 345.7469Q468.54166 344.40314 469.10416 343.6219Q469.68228 342.84064 469.68228 342.1375Q469.68228 341.40314 469.15103 340.90314Q468.6354 340.40314 467.80728 340.40314Q466.91666 340.40314 466.36978 340.9344Q465.83853 341.46564 465.83853 342.41876L464.5729 342.27814Q464.6979 340.8719 465.54166 340.1375Q466.40103 339.3875 467.8229 339.3875Q469.27603 339.3875 470.10416 340.1844Q470.9479 340.98126 470.9479 342.16876Q470.9479 342.77814 470.6979 343.35626Q470.46353 343.9344 469.8854 344.575Q469.3229 345.21564 467.99478 346.34064Q466.8854 347.2625 466.5729 347.60626Q466.2604 347.9344 466.05728 348.2625L470.96353 348.2625ZM472.49478 344.5125Q472.49478 342.73126 472.85416 341.65314Q473.22916 340.5594 473.9479 339.98126Q474.66666 339.3875 475.7604 339.3875Q476.5729 339.3875 477.18228 339.71564Q477.79166 340.04376 478.18228 340.65314Q478.58853 341.2625 478.80728 342.1375Q479.02603 343.0125 479.02603 344.5125Q479.02603 346.27814 478.66666 347.35626Q478.30728 348.4344 477.58853 349.02814Q476.86978 349.6219 475.7604 349.6219Q474.3229 349.6219 473.49478 348.575Q472.49478 347.325 472.49478 344.5125ZM473.7604 344.5125Q473.7604 346.98126 474.33853 347.79376Q474.91666 348.60626 475.7604 348.60626Q476.61978 348.60626 477.1979 347.79376Q477.77603 346.96564 477.77603 344.5125Q477.77603 342.02814 477.1979 341.21564Q476.61978 340.40314 475.74478 340.40314Q474.90103 340.40314 474.40103 341.1219Q473.7604 342.04376 473.7604 344.5125ZM479.6979 352.23126L479.6979 351.34064L487.85416 351.34064L487.85416 352.23126L479.6979 352.23126ZM494.96353 348.2625L494.96353 349.45L488.33853 349.45Q488.3229 349.0125 488.47916 348.59064Q488.74478 347.91876 489.29166 347.2625Q489.85416 346.60626 490.90103 345.7469Q492.54166 344.40314 493.10416 343.6219Q493.68228 342.84064 493.68228 342.1375Q493.68228 341.40314 493.15103 340.90314Q492.6354 340.40314 491.80728 340.40314Q490.91666 340.40314 490.36978 340.9344Q489.83853 341.46564 489.83853 342.41876L488.5729 342.27814Q488.6979 340.8719 489.54166 340.1375Q490.40103 339.3875 491.8229 339.3875Q493.27603 339.3875 494.10416 340.1844Q494.9479 340.98126 494.9479 342.16876Q494.9479 342.77814 494.6979 343.35626Q494.46353 343.9344 493.8854 344.575Q493.3229 345.21564 491.99478 346.34064Q490.8854 347.2625 490.5729 347.60626Q490.2604 347.9344 490.05728 348.2625L494.96353 348.2625Z" fill-rule="nonzero"/><path fill="#000000" d="M509.7302 348.2625L509.7302 349.45L503.1052 349.45Q503.08957 349.0125 503.24582 348.59064Q503.51144 347.91876 504.05832 347.2625Q504.62082 346.60626 505.6677 345.7469Q507.30832 344.40314 507.87082 343.6219Q508.44894 342.84064 508.44894 342.1375Q508.44894 341.40314 507.9177 340.90314Q507.40207 340.40314 506.57394 340.40314Q505.68332 340.40314 505.13644 340.9344Q504.6052 341.46564 504.6052 342.41876L503.33957 342.27814Q503.46457 340.8719 504.30832 340.1375Q505.1677 339.3875 506.58957 339.3875Q508.0427 339.3875 508.87082 340.1844Q509.71457 340.98126 509.71457 342.16876Q509.71457 342.77814 509.46457 343.35626Q509.2302 343.9344 508.65207 344.575Q508.08957 345.21564 506.76144 346.34064Q505.65207 347.2625 505.33957 347.60626Q505.02707 347.9344 504.82394 348.2625L509.7302 348.2625ZM511.26144 344.5125Q511.26144 342.73126 511.62082 341.65314Q511.99582 340.5594 512.7146 339.98126Q513.43335 339.3875 514.5271 339.3875Q515.3396 339.3875 515.949 339.71564Q516.55835 340.04376 516.949 340.65314Q517.3552 341.2625 517.574 342.1375Q517.7927 343.0125 517.7927 344.5125Q517.7927 346.27814 517.43335 347.35626Q517.074 348.4344 516.3552 349.02814Q515.6365 349.6219 514.5271 349.6219Q513.0896 349.6219 512.2615 348.575Q511.26144 347.325 511.26144 344.5125ZM512.5271 344.5125Q512.5271 346.98126 513.1052 347.79376Q513.68335 348.60626 514.5271 348.60626Q515.3865 348.60626 515.9646 347.79376Q516.5427 346.96564 516.5427 344.5125Q516.5427 342.02814 515.9646 341.21564Q515.3865 340.40314 514.5115 340.40314Q513.6677 340.40314 513.1677 341.1219Q512.5271 342.04376 512.5271 344.5125ZM525.7302 348.2625L525.7302 349.45L519.1052 349.45Q519.0896 349.0125 519.24585 348.59064Q519.5115 347.91876 520.05835 347.2625Q520.62085 346.60626 521.6677 345.7469Q523.30835 344.40314 523.87085 343.6219Q524.449 342.84064 524.449 342.1375Q524.449 341.40314 523.9177 340.90314Q523.4021 340.40314 522.574 340.40314Q521.68335 340.40314 521.1365 340.9344Q520.6052 341.46564 520.6052 342.41876L519.3396 342.27814Q519.4646 340.8719 520.30835 340.1375Q521.1677 339.3875 522.5896 339.3875Q524.0427 339.3875 524.87085 340.1844Q525.7146 340.98126 525.7146 342.16876Q525.7146 342.77814 525.4646 343.35626Q525.2302 343.9344 524.6521 344.575Q524.0896 345.21564 522.7615 346.34064Q521.6521 347.2625 521.3396 347.60626Q521.0271 347.9344 520.824 348.2625L525.7302 348.2625ZM531.9021 349.45L530.6677 349.45L530.6677 341.60626Q530.2302 342.02814 529.49585 342.46564Q528.7771 342.8875 528.2146 343.09064L528.2146 341.90314Q529.24585 341.41876 530.0115 340.73126Q530.7927 340.04376 531.1052 339.3875L531.9021 339.3875L531.9021 349.45ZM534.4646 352.23126L534.4646 351.34064L542.62085 351.34064L542.62085 352.23126L534.4646 352.23126ZM547.9021 349.45L546.6677 349.45L546.6677 341.60626Q546.2302 342.02814 545.49585 342.46564Q544.7771 342.8875 544.2146 343.09064L544.2146 341.90314Q545.24585 341.41876 546.0115 340.73126Q546.7927 340.04376 547.1052 339.3875L547.9021 339.3875L547.9021 349.45Z" fill-rule="nonzero"/><path fill="#999999" d="M266.26562 68.55L264.04688 61.284378L265.3125 61.284378L266.46875 65.4875L266.90625 67.03438Q266.92188 66.925 267.28125 65.53438L268.4375 61.284378L269.6875 61.284378L270.78125 65.50313L271.14062 66.89375L271.5625 65.4875L272.8125 61.284378L274.0 61.284378L271.73438 68.55L270.45312 68.55L269.29688 64.20625L269.01562 62.971878L267.54688 68.55L266.26562 68.55ZM280.60938 67.45625L280.78125 68.53438Q280.26562 68.64375 279.85938 68.64375Q279.1875 68.64375 278.8125 68.44063Q278.45312 68.22188 278.29688 67.87813Q278.15625 67.53438 278.15625 66.425L278.15625 62.253128L277.25 62.253128L277.25 61.284378L278.15625 61.284378L278.15625 59.487503L279.375 58.753128L279.375 61.284378L280.60938 61.284378L280.60938 62.253128L279.375 62.253128L279.375 66.4875Q279.375 67.01875 279.4375 67.175Q279.5 67.31563 279.64062 67.40938Q279.79688 67.50313 280.0625 67.50313Q280.28125 67.50313 280.60938 67.45625ZM281.875 71.34688L281.73438 70.19063Q282.14062 70.3 282.4375 70.3Q282.84375 70.3 283.09375 70.15938Q283.34375 70.03438 283.5 69.78438Q283.60938 69.59688 283.875 68.8625Q283.90625 68.76875 283.98438 68.56563L281.21875 61.284378L282.54688 61.284378L284.0625 65.4875Q284.35938 66.3 284.59375 67.175Q284.79688 66.33125 285.09375 65.51875L286.64062 61.284378L287.875 61.284378L285.10938 68.675Q284.67188 69.8625 284.42188 70.31563Q284.09375 70.925 283.67188 71.20625Q283.25 71.50313 282.65625 71.50313Q282.3125 71.50313 281.875 71.34688ZM288.4375 66.37813L289.64062 66.19063Q289.75 66.925 290.21875 67.31563Q290.6875 67.70625 291.53125 67.70625Q292.375 67.70625 292.78125 67.3625Q293.20312 67.01875 293.20312 66.55Q293.20312 66.12813 292.82812 65.89375Q292.57812 65.72188 291.57812 65.47188Q290.21875 65.12813 289.6875 64.87813Q289.17188 64.62813 288.90625 64.19063Q288.64062 63.753128 288.64062 63.221878Q288.64062 62.737503 288.85938 62.331253Q289.07812 61.909378 289.46875 61.628128Q289.75 61.425003 290.23438 61.284378Q290.73438 61.128128 291.3125 61.128128Q292.15625 61.128128 292.79688 61.378128Q293.45312 61.612503 293.76562 62.034378Q294.07812 62.456253 294.1875 63.159378L292.98438 63.331253Q292.90625 62.768753 292.5 62.456253Q292.10938 62.143753 291.39062 62.143753Q290.54688 62.143753 290.1875 62.425003Q289.82812 62.690628 289.82812 63.081253Q289.82812 63.315628 289.96875 63.503128Q290.125 63.706253 290.45312 63.831253Q290.625 63.893753 291.53125 64.14375Q292.84375 64.50313 293.35938 64.72188Q293.875 64.94063 294.15625 65.3625Q294.45312 65.78438 294.45312 66.40938Q294.45312 67.03438 294.09375 67.58125Q293.75 68.1125 293.0625 68.425Q292.39062 68.72188 291.53125 68.72188Q290.125 68.72188 289.375 68.12813Q288.64062 67.53438 288.4375 66.37813ZM295.9375 59.940628L295.9375 58.534378L297.15625 58.534378L297.15625 59.940628L295.9375 59.940628ZM295.9375 68.55L295.9375 61.284378L297.15625 61.284378L297.15625 68.55L295.9375 68.55ZM303.65625 67.65938Q302.98438 68.2375 302.34375 68.4875Q301.71875 68.72188 300.98438 68.72188Q299.79688 68.72188 299.14062 68.14375Q298.5 67.55 298.5 66.62813Q298.5 66.09688 298.73438 65.65938Q298.98438 65.22188 299.375 64.95625Q299.78125 64.69063 300.26562 64.55Q300.625 64.45625 301.35938 64.3625Q302.85938 64.19063 303.5625 63.940628Q303.5625 63.690628 303.5625 63.628128Q303.5625 62.862503 303.21875 62.565628Q302.75 62.143753 301.8125 62.143753Q300.95312 62.143753 300.53125 62.456253Q300.125 62.753128 299.92188 63.518753L298.71875 63.362503Q298.875 62.581253 299.25 62.112503Q299.64062 61.643753 300.34375 61.393753Q301.0625 61.128128 302.0 61.128128Q302.92188 61.128128 303.5 61.346878Q304.07812 61.565628 304.34375 61.893753Q304.625 62.221878 304.73438 62.737503Q304.79688 63.050003 304.79688 63.862503L304.79688 65.50313Q304.79688 67.22188 304.875 67.675Q304.95312 68.12813 305.1875 68.55L303.90625 68.55Q303.71875 68.15938 303.65625 67.65938ZM303.5625 64.90938Q302.89062 65.175 301.54688 65.37813Q300.79688 65.4875 300.46875 65.62813Q300.15625 65.75313 299.98438 66.01875Q299.8125 66.28438 299.8125 66.59688Q299.8125 67.09688 300.1875 67.425Q300.5625 67.75313 301.28125 67.75313Q302.0 67.75313 302.54688 67.44063Q303.09375 67.12813 303.35938 66.58125Q303.5625 66.175 303.5625 65.3625L303.5625 64.90938ZM304.9375 68.55Q304.54688 68.78438 304.32812 69.12813Q304.10938 69.4875 304.10938 69.8625Q304.10938 70.14375 304.26562 70.33125Q304.4375 70.53438 304.78125 70.53438Q304.9375 70.53438 305.09375 70.4875Q305.26562 70.45625 305.40625 70.37813L305.40625 71.25313Q304.90625 71.4875 304.48438 71.4875Q304.125 71.4875 303.85938 71.37813Q303.60938 71.28438 303.4375 71.1125Q303.26562 70.94063 303.17188 70.70625Q303.09375 70.4875 303.09375 70.2375Q303.09375 69.8 303.32812 69.34688Q303.57812 68.90938 304.03125 68.55L304.9375 68.55ZM311.65625 65.89375L312.875 66.05Q312.67188 67.3 311.84375 68.01875Q311.03125 68.72188 309.84375 68.72188Q308.35938 68.72188 307.45312 67.75313Q306.54688 66.76875 306.54688 64.94063Q306.54688 63.768753 306.9375 62.893753Q307.32812 62.003128 308.125 61.565628Q308.92188 61.128128 309.85938 61.128128Q311.03125 61.128128 311.78125 61.721878Q312.54688 62.315628 312.75 63.425003L311.5625 63.612503Q311.39062 62.878128 310.95312 62.518753Q310.51562 62.143753 309.90625 62.143753Q308.96875 62.143753 308.39062 62.815628Q307.8125 63.471878 307.8125 64.90938Q307.8125 66.37813 308.375 67.05Q308.9375 67.70625 309.82812 67.70625Q310.5625 67.70625 311.04688 67.26875Q311.53125 66.81563 311.65625 65.89375ZM318.65625 67.65938Q317.98438 68.2375 317.34375 68.4875Q316.71875 68.72188 315.98438 68.72188Q314.79688 68.72188 314.14062 68.14375Q313.5 67.55 313.5 66.62813Q313.5 66.09688 313.73438 65.65938Q313.98438 65.22188 314.375 64.95625Q314.78125 64.69063 315.26562 64.55Q315.625 64.45625 316.35938 64.3625Q317.85938 64.19063 318.5625 63.940628Q318.5625 63.690628 318.5625 63.628128Q318.5625 62.862503 318.21875 62.565628Q317.75 62.143753 316.8125 62.143753Q315.95312 62.143753 315.53125 62.456253Q315.125 62.753128 314.92188 63.518753L313.71875 63.362503Q313.875 62.581253 314.25 62.112503Q314.64062 61.643753 315.34375 61.393753Q316.0625 61.128128 317.0 61.128128Q317.92188 61.128128 318.5 61.346878Q319.07812 61.565628 319.34375 61.893753Q319.625 62.221878 319.73438 62.737503Q319.79688 63.050003 319.79688 63.862503L319.79688 65.50313Q319.79688 67.22188 319.875 67.675Q319.95312 68.12813 320.1875 68.55L318.90625 68.55Q318.71875 68.15938 318.65625 67.65938ZM318.5625 64.90938Q317.89062 65.175 316.54688 65.37813Q315.79688 65.4875 315.46875 65.62813Q315.15625 65.75313 314.98438 66.01875Q314.8125 66.28438 314.8125 66.59688Q314.8125 67.09688 315.1875 67.425Q315.5625 67.75313 316.28125 67.75313Q317.0 67.75313 317.54688 67.44063Q318.09375 67.12813 318.35938 66.58125Q318.5625 66.175 318.5625 65.3625L318.5625 64.90938ZM326.65625 65.89375L327.875 66.05Q327.67188 67.3 326.84375 68.01875Q326.03125 68.72188 324.84375 68.72188Q323.35938 68.72188 322.45312 67.75313Q321.54688 66.76875 321.54688 64.94063Q321.54688 63.768753 321.9375 62.893753Q322.32812 62.003128 323.125 61.565628Q323.92188 61.128128 324.85938 61.128128Q326.03125 61.128128 326.78125 61.721878Q327.54688 62.315628 327.75 63.425003L326.5625 63.612503Q326.39062 62.878128 325.95312 62.518753Q325.51562 62.143753 324.90625 62.143753Q323.96875 62.143753 323.39062 62.815628Q322.8125 63.471878 322.8125 64.90938Q322.8125 66.37813 323.375 67.05Q323.9375 67.70625 324.82812 67.70625Q325.5625 67.70625 326.04688 67.26875Q326.53125 66.81563 326.65625 65.89375ZM328.92188 68.55L328.92188 58.534378L330.15625 58.534378L330.15625 62.128128Q331.01562 61.128128 332.32812 61.128128Q333.14062 61.128128 333.73438 61.456253Q334.32812 61.768753 334.57812 62.331253Q334.84375 62.878128 334.84375 63.956253L334.84375 68.55L333.60938 68.55L333.60938 63.956253Q333.60938 63.018753 333.20312 62.612503Q332.8125 62.190628 332.07812 62.190628Q331.53125 62.190628 331.04688 62.471878Q330.5625 62.753128 330.35938 63.237503Q330.15625 63.721878 330.15625 64.58125L330.15625 68.55L328.92188 68.55Z" fill-rule="nonzero"/><path fill="#757575" d="M212.98438 39.55L212.98438 37.440624L221.78125 26.440624Q222.71875 25.26875 223.5625 24.39375L213.98438 24.39375L213.98438 22.3625L226.28125 22.3625L226.28125 24.39375L216.64062 36.315624L215.59375 37.51875L226.5625 37.51875L226.5625 39.55L212.98438 39.55ZM237.20312 38.01875Q236.03125 39.003124 234.9375 39.425Q233.85938 39.83125 232.625 39.83125Q230.57812 39.83125 229.46875 38.83125Q228.375 37.83125 228.375 36.26875Q228.375 35.346874 228.78125 34.596874Q229.20312 33.846874 229.875 33.39375Q230.54688 32.925 231.39062 32.690624Q232.01562 32.534374 233.26562 32.378124Q235.82812 32.065624 237.03125 31.64375Q237.04688 31.221874 237.04688 31.096874Q237.04688 29.815624 236.4375 29.284374Q235.64062 28.565624 234.04688 28.565624Q232.54688 28.565624 231.84375 29.096874Q231.14062 29.6125 230.79688 30.940624L228.73438 30.659374Q229.01562 29.33125 229.65625 28.51875Q230.29688 27.70625 231.51562 27.26875Q232.73438 26.815624 234.34375 26.815624Q235.9375 26.815624 236.9375 27.190624Q237.9375 27.565624 238.40625 28.14375Q238.875 28.70625 239.0625 29.58125Q239.15625 30.1125 239.15625 31.51875L239.15625 34.33125Q239.15625 37.26875 239.29688 38.05Q239.4375 38.83125 239.82812 39.55L237.625 39.55Q237.29688 38.89375 237.20312 38.01875ZM237.03125 33.3Q235.875 33.76875 233.57812 34.096874Q232.28125 34.284374 231.73438 34.51875Q231.20312 34.753124 230.90625 35.20625Q230.625 35.659374 230.625 36.20625Q230.625 37.05 231.25 37.6125Q231.89062 38.175 233.125 38.175Q234.34375 38.175 235.29688 37.64375Q236.25 37.1125 236.6875 36.190624Q237.03125 35.471874 237.03125 34.08125L237.03125 33.3ZM242.09375 24.8L242.09375 22.3625L244.20312 22.3625L244.20312 24.8L242.09375 24.8ZM242.09375 39.55L242.09375 27.096874L244.20312 27.096874L244.20312 39.55L242.09375 39.55ZM247.07812 39.55L247.07812 27.096874L248.98438 27.096874L248.98438 28.878124Q250.35938 26.815624 252.9375 26.815624Q254.0625 26.815624 255.0 27.221874Q255.95312 27.628124 256.42188 28.284374Q256.89062 28.940624 257.07812 29.846874Q257.20312 30.425 257.20312 31.89375L257.20312 39.55L255.09375 39.55L255.09375 31.971874Q255.09375 30.690624 254.84375 30.05Q254.59375 29.409374 253.96875 29.034374Q253.34375 28.64375 252.5 28.64375Q251.15625 28.64375 250.17188 29.503124Q249.1875 30.3625 249.1875 32.753124L249.1875 39.55L247.07812 39.55ZM265.6875 37.659374L266.0 39.51875Q265.10938 39.721874 264.40625 39.721874Q263.25 39.721874 262.60938 39.3625Q261.98438 38.9875 261.71875 38.39375Q261.46875 37.8 261.46875 35.909374L261.46875 28.7375L259.92188 28.7375L259.92188 27.096874L261.46875 27.096874L261.46875 24.01875L263.5625 22.753124L263.5625 27.096874L265.6875 27.096874L265.6875 28.7375L263.5625 28.7375L263.5625 36.01875Q263.5625 36.925 263.67188 37.190624Q263.79688 37.440624 264.04688 37.596874Q264.29688 37.7375 264.76562 37.7375Q265.10938 37.7375 265.6875 37.659374ZM276.60938 35.534374L278.78125 35.815624Q278.26562 37.721874 276.875 38.784374Q275.48438 39.83125 273.3125 39.83125Q270.57812 39.83125 268.96875 38.159374Q267.375 36.471874 267.375 33.425Q267.375 30.284374 268.98438 28.55Q270.60938 26.815624 273.1875 26.815624Q275.6875 26.815624 277.26562 28.51875Q278.85938 30.221874 278.85938 33.3Q278.85938 33.4875 278.84375 33.8625L269.5625 33.8625Q269.67188 35.909374 270.71875 37.003124Q271.76562 38.096874 273.32812 38.096874Q274.48438 38.096874 275.29688 37.4875Q276.125 36.878124 276.60938 35.534374ZM269.67188 32.128124L276.625 32.128124Q276.48438 30.565624 275.82812 29.76875Q274.82812 28.55 273.21875 28.55Q271.76562 28.55 270.76562 29.534374Q269.78125 30.503124 269.67188 32.128124ZM281.0625 39.55L281.0625 27.096874L282.95312 27.096874L282.95312 28.9875Q283.6875 27.659374 284.29688 27.2375Q284.92188 26.815624 285.65625 26.815624Q286.71875 26.815624 287.82812 27.503124L287.09375 29.45625Q286.32812 29.003124 285.54688 29.003124Q284.85938 29.003124 284.29688 29.425Q283.75 29.83125 283.51562 30.565624Q283.17188 31.690624 283.17188 33.034374L283.17188 39.55L281.0625 39.55ZM297.60938 35.534374L299.78125 35.815624Q299.26562 37.721874 297.875 38.784374Q296.48438 39.83125 294.3125 39.83125Q291.57812 39.83125 289.96875 38.159374Q288.375 36.471874 288.375 33.425Q288.375 30.284374 289.98438 28.55Q291.60938 26.815624 294.1875 26.815624Q296.6875 26.815624 298.26562 28.51875Q299.85938 30.221874 299.85938 33.3Q299.85938 33.4875 299.84375 33.8625L290.5625 33.8625Q290.67188 35.909374 291.71875 37.003124Q292.76562 38.096874 294.32812 38.096874Q295.48438 38.096874 296.29688 37.4875Q297.125 36.878124 297.60938 35.534374ZM290.67188 32.128124L297.625 32.128124Q297.48438 30.565624 296.82812 29.76875Q295.82812 28.55 294.21875 28.55Q292.76562 28.55 291.76562 29.534374Q290.78125 30.503124 290.67188 32.128124ZM301.23438 35.83125L303.32812 35.503124Q303.5 36.753124 304.29688 37.425Q305.10938 38.096874 306.54688 38.096874Q308.0 38.096874 308.70312 37.503124Q309.40625 36.909374 309.40625 36.1125Q309.40625 35.39375 308.78125 34.9875Q308.35938 34.70625 306.625 34.26875Q304.3125 33.690624 303.40625 33.26875Q302.51562 32.83125 302.04688 32.08125Q301.59375 31.315624 301.59375 30.409374Q301.59375 29.58125 301.96875 28.878124Q302.35938 28.159374 303.01562 27.690624Q303.5 27.33125 304.34375 27.08125Q305.20312 26.815624 306.17188 26.815624Q307.64062 26.815624 308.75 27.2375Q309.85938 27.659374 310.375 28.39375Q310.90625 29.1125 311.10938 30.315624L309.04688 30.596874Q308.90625 29.628124 308.23438 29.096874Q307.5625 28.55 306.32812 28.55Q304.875 28.55 304.25 29.034374Q303.625 29.51875 303.625 30.159374Q303.625 30.565624 303.89062 30.89375Q304.14062 31.2375 304.70312 31.45625Q305.01562 31.58125 306.5625 32.003124Q308.79688 32.596874 309.67188 32.9875Q310.5625 33.3625 311.0625 34.096874Q311.57812 34.815624 311.57812 35.89375Q311.57812 36.940624 310.95312 37.878124Q310.34375 38.815624 309.1875 39.33125Q308.03125 39.83125 306.5625 39.83125Q304.14062 39.83125 302.85938 38.83125Q301.59375 37.815624 301.23438 35.83125ZM313.29688 33.33125Q313.29688 29.8625 315.21875 28.20625Q316.82812 26.815624 319.14062 26.815624Q321.70312 26.815624 323.32812 28.503124Q324.95312 30.190624 324.95312 33.14375Q324.95312 35.55 324.23438 36.925Q323.51562 38.3 322.14062 39.065624Q320.76562 39.83125 319.14062 39.83125Q316.51562 39.83125 314.90625 38.159374Q313.29688 36.471874 313.29688 33.33125ZM315.46875 33.33125Q315.46875 35.721874 316.5 36.909374Q317.54688 38.096874 319.14062 38.096874Q320.70312 38.096874 321.75 36.909374Q322.79688 35.70625 322.79688 33.253124Q322.79688 30.940624 321.73438 29.753124Q320.6875 28.565624 319.14062 28.565624Q317.54688 28.565624 316.5 29.753124Q315.46875 30.940624 315.46875 33.33125ZM329.375 39.55L325.57812 27.096874L327.75 27.096874L329.73438 34.284374L330.46875 36.95625Q330.51562 36.753124 331.10938 34.39375L333.09375 27.096874L335.26562 27.096874L337.125 34.315624L337.75 36.70625L338.46875 34.3L340.59375 27.096874L342.64062 27.096874L338.75 39.55L336.5625 39.55L334.57812 32.096874L334.10938 29.971874L331.57812 39.55L329.375 39.55ZM352.20312 38.01875Q351.03125 39.003124 349.9375 39.425Q348.85938 39.83125 347.625 39.83125Q345.57812 39.83125 344.46875 38.83125Q343.375 37.83125 343.375 36.26875Q343.375 35.346874 343.78125 34.596874Q344.20312 33.846874 344.875 33.39375Q345.54688 32.925 346.39062 32.690624Q347.01562 32.534374 348.26562 32.378124Q350.82812 32.065624 352.03125 31.64375Q352.04688 31.221874 352.04688 31.096874Q352.04688 29.815624 351.4375 29.284374Q350.64062 28.565624 349.04688 28.565624Q347.54688 28.565624 346.84375 29.096874Q346.14062 29.6125 345.79688 30.940624L343.73438 30.659374Q344.01562 29.33125 344.65625 28.51875Q345.29688 27.70625 346.51562 27.26875Q347.73438 26.815624 349.34375 26.815624Q350.9375 26.815624 351.9375 27.190624Q352.9375 27.565624 353.40625 28.14375Q353.875 28.70625 354.0625 29.58125Q354.15625 30.1125 354.15625 31.51875L354.15625 34.33125Q354.15625 37.26875 354.29688 38.05Q354.4375 38.83125 354.82812 39.55L352.625 39.55Q352.29688 38.89375 352.20312 38.01875ZM352.03125 33.3Q350.875 33.76875 348.57812 34.096874Q347.28125 34.284374 346.73438 34.51875Q346.20312 34.753124 345.90625 35.20625Q345.625 35.659374 345.625 36.20625Q345.625 37.05 346.25 37.6125Q346.89062 38.175 348.125 38.175Q349.34375 38.175 350.29688 37.64375Q351.25 37.1125 351.6875 36.190624Q352.03125 35.471874 352.03125 34.08125L352.03125 33.3ZM357.07812 39.55L357.07812 27.096874L358.98438 27.096874L358.98438 28.878124Q360.35938 26.815624 362.9375 26.815624Q364.0625 26.815624 365.0 27.221874Q365.95312 27.628124 366.42188 28.284374Q366.89062 28.940624 367.07812 29.846874Q367.20312 30.425 367.20312 31.89375L367.20312 39.55L365.09375 39.55L365.09375 31.971874Q365.09375 30.690624 364.84375 30.05Q364.59375 29.409374 363.96875 29.034374Q363.34375 28.64375 362.5 28.64375Q361.15625 28.64375 360.17188 29.503124Q359.1875 30.3625 359.1875 32.753124L359.1875 39.55L357.07812 39.55ZM371.09375 24.8L371.09375 22.3625L373.20312 22.3625L373.20312 24.8L371.09375 24.8ZM371.09375 39.55L371.09375 27.096874L373.20312 27.096874L373.20312 39.55L371.09375 39.55ZM384.60938 35.534374L386.78125 35.815624Q386.26562 37.721874 384.875 38.784374Q383.48438 39.83125 381.3125 39.83125Q378.57812 39.83125 376.96875 38.159374Q375.375 36.471874 375.375 33.425Q375.375 30.284374 376.98438 28.55Q378.60938 26.815624 381.1875 26.815624Q383.6875 26.815624 385.26562 28.51875Q386.85938 30.221874 386.85938 33.3Q386.85938 33.4875 386.84375 33.8625L377.5625 33.8625Q377.67188 35.909374 378.71875 37.003124Q379.76562 38.096874 381.32812 38.096874Q382.48438 38.096874 383.29688 37.4875Q384.125 36.878124 384.60938 35.534374ZM377.67188 32.128124L384.625 32.128124Q384.48438 30.565624 383.82812 29.76875Q382.82812 28.55 381.21875 28.55Q379.76562 28.55 378.76562 29.534374Q377.78125 30.503124 377.67188 32.128124Z" fill-rule="nonzero"/></svg>