<svg version="1.1" viewBox="0.0 0.0 600.0 371.0" fill="none" stroke="none" stroke-linecap="square" stroke-miterlimit="10" width="600" height="371" xmlns:xlink="http://www.w3.org/1999/xlink" xmlns="http://www.w3.org/2000/svg"><path fill="#ffffff" d="M0 0L600.0 0L600.0 371.0L0 371.0L0 0Z" fill-rule="nonzero"/><path stroke="#333333" stroke-width="1.0" stroke-linecap="butt" d="M88.5 305.5L581.5 305.5" fill-rule="nonzero"/><path stroke="#cccccc" stroke-width="1.0" stroke-linecap="butt" d="M88.5 234.5L581.5 234.5" fill-rule="nonzero"/><path stroke="#cccccc" stroke-width="1.0" stroke-linecap="butt" d="M88.5 162.5L581.5 162.5" fill-rule="nonzero"/><path stroke="#cccccc" stroke-width="1.0" stroke-linecap="butt" d="M88.5 90.5L581.5 90.5" fill-rule="nonzero"/><path stroke="#e6e6e6" stroke-width="1.0" stroke-linecap="butt" d="M88.5 270.5L581.5 270.5" fill-rule="nonzero"/><path stroke="#e6e6e6" stroke-width="1.0" stroke-linecap="butt" d="M88.5 198.5L581.5 198.5" fill-rule="nonzero"/><path stroke="#e6e6e6" stroke-width="1.0" stroke-linecap="butt" d="M88.5 126.5L581.5 126.5" fill-rule="nonzero"/><clipPath id="id_0"><path d="M88.55 90.916664L581.45 90.916664L581.45 305.85202L88.55 305.85202L88.55 90.916664Z" clip-rule="nonzero"/></clipPath><path stroke="#000000" stroke-width="2.0" stroke-linecap="butt" stroke-opacity="0.0" clip-path="url(#id_0)" d="M120.0 306.0L107.0 306.0L107.0 306.0C107.0 306.0 107.0 306.0 107.0 306.0L120.0 306.0C120.0 306.0 120.0 306.0 120.0 306.0Z" fill-rule="nonzero"/><path fill="#4285f4" clip-path="url(#id_0)" d="M120.0 306.0L107.0 306.0L107.0 306.0C107.0 306.0 107.0 306.0 107.0 306.0L120.0 306.0C120.0 306.0 120.0 306.0 120.0 306.0Z" fill-rule="nonzero"/><path stroke="#000000" stroke-width="2.0" stroke-linecap="butt" stroke-opacity="0.0" clip-path="url(#id_0)" d="M167.0 306.0L154.0 306.0L154.0 306.0C154.0 306.0 154.0 306.0 154.0 306.0L167.0 306.0C167.0 306.0 167.0 306.0 167.0 306.0Z" fill-rule="nonzero"/><path fill="#4285f4" clip-path="url(#id_0)" d="M167.0 306.0L154.0 306.0L154.0 306.0C154.0 306.0 154.0 306.0 154.0 306.0L167.0 306.0C167.0 306.0 167.0 306.0 167.0 306.0Z" fill-rule="nonzero"/><path stroke="#000000" stroke-width="2.0" stroke-linecap="butt" stroke-opacity="0.0" clip-path="url(#id_0)" d="M215.0 306.0L202.0 306.0L202.0 304.5C202.0 303.67157 202.67157 303.0 203.5 303.0L213.5 303.0C214.32843 303.0 215.0 303.67157 215.0 304.5Z" fill-rule="nonzero"/><path fill="#4285f4" clip-path="url(#id_0)" d="M215.0 306.0L202.0 306.0L202.0 304.5C202.0 303.67157 202.67157 303.0 203.5 303.0L213.5 303.0C214.32843 303.0 215.0 303.67157 215.0 304.5Z" fill-rule="nonzero"/><path stroke="#000000" stroke-width="2.0" stroke-linecap="butt" stroke-opacity="0.0" clip-path="url(#id_0)" d="M263.0 306.0L250.0 306.0L250.0 296.0C250.0 294.89542 250.89543 294.0 252.0 294.0L261.0 294.0C262.10458 294.0 263.0 294.89542 263.0 296.0Z" fill-rule="nonzero"/><path fill="#4285f4" clip-path="url(#id_0)" d="M263.0 306.0L250.0 306.0L250.0 296.0C250.0 294.89542 250.89543 294.0 252.0 294.0L261.0 294.0C262.10458 294.0 263.0 294.89542 263.0 296.0Z" fill-rule="nonzero"/><path stroke="#000000" stroke-width="2.0" stroke-linecap="butt" stroke-opacity="0.0" clip-path="url(#id_0)" d="M310.0 306.0L297.0 306.0L297.0 291.0C297.0 289.89542 297.89542 289.0 299.0 289.0L308.0 289.0C309.10458 289.0 310.0 289.89542 310.0 291.0Z" fill-rule="nonzero"/><path fill="#4285f4" clip-path="url(#id_0)" d="M310.0 306.0L297.0 306.0L297.0 291.0C297.0 289.89542 297.89542 289.0 299.0 289.0L308.0 289.0C309.10458 289.0 310.0 289.89542 310.0 291.0Z" fill-rule="nonzero"/><path stroke="#000000" stroke-width="2.0" stroke-linecap="butt" stroke-opacity="0.0" clip-path="url(#id_0)" d="M358.0 306.0L345.0 306.0L345.0 278.0C345.0 276.89542 345.89542 276.0 347.0 276.0L356.0 276.0C357.10458 276.0 358.0 276.89542 358.0 278.0Z" fill-rule="nonzero"/><path fill="#4285f4" clip-path="url(#id_0)" d="M358.0 306.0L345.0 306.0L345.0 278.0C345.0 276.89542 345.89542 276.0 347.0 276.0L356.0 276.0C357.10458 276.0 358.0 276.89542 358.0 278.0Z" fill-rule="nonzero"/><path stroke="#000000" stroke-width="2.0" stroke-linecap="butt" stroke-opacity="0.0" clip-path="url(#id_0)" d="M405.0 306.0L392.0 306.0L392.0 199.0C392.0 197.89543 392.89542 197.0 394.0 197.0L403.0 197.0C404.10458 197.0 405.0 197.89543 405.0 199.0Z" fill-rule="nonzero"/><path fill="#4285f4" clip-path="url(#id_0)" d="M405.0 306.0L392.0 306.0L392.0 199.0C392.0 197.89543 392.89542 197.0 394.0 197.0L403.0 197.0C404.10458 197.0 405.0 197.89543 405.0 199.0Z" fill-rule="nonzero"/><path stroke="#000000" stroke-width="2.0" stroke-linecap="butt" stroke-opacity="0.0" clip-path="url(#id_0)" d="M453.0 306.0L440.0 306.0L440.0 119.0C440.0 117.89543 440.89542 117.0 442.0 117.0L451.0 117.0C452.10458 117.0 453.0 117.89543 453.0 119.0Z" fill-rule="nonzero"/><path fill="#4285f4" clip-path="url(#id_0)" d="M453.0 306.0L440.0 306.0L440.0 119.0C440.0 117.89543 440.89542 117.0 442.0 117.0L451.0 117.0C452.10458 117.0 453.0 117.89543 453.0 119.0Z" fill-rule="nonzero"/><path stroke="#000000" stroke-width="2.0" stroke-linecap="butt" stroke-opacity="0.0" clip-path="url(#id_0)" d="M501.0 306.0L488.0 306.0L488.0 109.0C488.0 107.89543 488.89542 107.0 490.0 107.0L499.0 107.0C500.10458 107.0 501.0 107.89543 501.0 109.0Z" fill-rule="nonzero"/><path fill="#4285f4" clip-path="url(#id_0)" d="M501.0 306.0L488.0 306.0L488.0 109.0C488.0 107.89543 488.89542 107.0 490.0 107.0L499.0 107.0C500.10458 107.0 501.0 107.89543 501.0 109.0Z" fill-rule="nonzero"/><path stroke="#000000" stroke-width="2.0" stroke-linecap="butt" stroke-opacity="0.0" clip-path="url(#id_0)" d="M548.0 306.0L535.0 306.0L535.0 117.0C535.0 115.89543 535.89545 115.0 537.0 115.0L546.0 115.0C547.10455 115.0 548.0 115.89543 548.0 117.0Z" fill-rule="nonzero"/><path fill="#4285f4" clip-path="url(#id_0)" d="M548.0 306.0L535.0 306.0L535.0 117.0C535.0 115.89543 535.89545 115.0 537.0 115.0L546.0 115.0C547.10455 115.0 548.0 115.89543 548.0 117.0Z" fill-rule="nonzero"/><path stroke="#000000" stroke-width="2.0" stroke-linecap="butt" stroke-opacity="0.0" clip-path="url(#id_0)" d="M135.0 306.0L122.0 306.0L122.0 305.5C122.0 305.22385 122.223854 305.0 122.5 305.0L134.5 305.0C134.77614 305.0 135.0 305.22385 135.0 305.5Z" fill-rule="nonzero"/><path fill="#ea4335" clip-path="url(#id_0)" d="M135.0 306.0L122.0 306.0L122.0 305.5C122.0 305.22385 122.223854 305.0 122.5 305.0L134.5 305.0C134.77614 305.0 135.0 305.22385 135.0 305.5Z" fill-rule="nonzero"/><path stroke="#000000" stroke-width="2.0" stroke-linecap="butt" stroke-opacity="0.0" clip-path="url(#id_0)" d="M182.0 306.0L169.0 306.0L169.0 305.5C169.0 305.22385 169.22386 305.0 169.5 305.0L181.5 305.0C181.77614 305.0 182.0 305.22385 182.0 305.5Z" fill-rule="nonzero"/><path fill="#ea4335" clip-path="url(#id_0)" d="M182.0 306.0L169.0 306.0L169.0 305.5C169.0 305.22385 169.22386 305.0 169.5 305.0L181.5 305.0C181.77614 305.0 182.0 305.22385 182.0 305.5Z" fill-rule="nonzero"/><path stroke="#000000" stroke-width="2.0" stroke-linecap="butt" stroke-opacity="0.0" clip-path="url(#id_0)" d="M230.0 306.0L217.0 306.0L217.0 304.0C217.0 302.89542 217.89543 302.0 219.0 302.0L228.0 302.0C229.10457 302.0 230.0 302.89542 230.0 304.0Z" fill-rule="nonzero"/><path fill="#ea4335" clip-path="url(#id_0)" d="M230.0 306.0L217.0 306.0L217.0 304.0C217.0 302.89542 217.89543 302.0 219.0 302.0L228.0 302.0C229.10457 302.0 230.0 302.89542 230.0 304.0Z" fill-rule="nonzero"/><path stroke="#000000" stroke-width="2.0" stroke-linecap="butt" stroke-opacity="0.0" clip-path="url(#id_0)" d="M278.0 306.0L265.0 306.0L265.0 292.0C265.0 290.89542 265.89542 290.0 267.0 290.0L276.0 290.0C277.10458 290.0 278.0 290.89542 278.0 292.0Z" fill-rule="nonzero"/><path fill="#ea4335" clip-path="url(#id_0)" d="M278.0 306.0L265.0 306.0L265.0 292.0C265.0 290.89542 265.89542 290.0 267.0 290.0L276.0 290.0C277.10458 290.0 278.0 290.89542 278.0 292.0Z" fill-rule="nonzero"/><path stroke="#000000" stroke-width="2.0" stroke-linecap="butt" stroke-opacity="0.0" clip-path="url(#id_0)" d="M325.0 306.0L312.0 306.0L312.0 286.0C312.0 284.89542 312.89542 284.0 314.0 284.0L323.0 284.0C324.10458 284.0 325.0 284.89542 325.0 286.0Z" fill-rule="nonzero"/><path fill="#ea4335" clip-path="url(#id_0)" d="M325.0 306.0L312.0 306.0L312.0 286.0C312.0 284.89542 312.89542 284.0 314.0 284.0L323.0 284.0C324.10458 284.0 325.0 284.89542 325.0 286.0Z" fill-rule="nonzero"/><path stroke="#000000" stroke-width="2.0" stroke-linecap="butt" stroke-opacity="0.0" clip-path="url(#id_0)" d="M373.0 306.0L360.0 306.0L360.0 271.0C360.0 269.89542 360.89542 269.0 362.0 269.0L371.0 269.0C372.10458 269.0 373.0 269.89542 373.0 271.0Z" fill-rule="nonzero"/><path fill="#ea4335" clip-path="url(#id_0)" d="M373.0 306.0L360.0 306.0L360.0 271.0C360.0 269.89542 360.89542 269.0 362.0 269.0L371.0 269.0C372.10458 269.0 373.0 269.89542 373.0 271.0Z" fill-rule="nonzero"/><path stroke="#000000" stroke-width="2.0" stroke-linecap="butt" stroke-opacity="0.0" clip-path="url(#id_0)" d="M420.0 306.0L407.0 306.0L407.0 178.0C407.0 176.89543 407.89542 176.0 409.0 176.0L418.0 176.0C419.10458 176.0 420.0 176.89543 420.0 178.0Z" fill-rule="nonzero"/><path fill="#ea4335" clip-path="url(#id_0)" d="M420.0 306.0L407.0 306.0L407.0 178.0C407.0 176.89543 407.89542 176.0 409.0 176.0L418.0 176.0C419.10458 176.0 420.0 176.89543 420.0 178.0Z" fill-rule="nonzero"/><path stroke="#000000" stroke-width="2.0" stroke-linecap="butt" stroke-opacity="0.0" clip-path="url(#id_0)" d="M468.0 306.0L455.0 306.0L455.0 98.0C455.0 96.89543 455.89542 96.0 457.0 96.0L466.0 96.0C467.10458 96.0 468.0 96.89543 468.0 98.0Z" fill-rule="nonzero"/><path fill="#ea4335" clip-path="url(#id_0)" d="M468.0 306.0L455.0 306.0L455.0 98.0C455.0 96.89543 455.89542 96.0 457.0 96.0L466.0 96.0C467.10458 96.0 468.0 96.89543 468.0 98.0Z" fill-rule="nonzero"/><path stroke="#000000" stroke-width="2.0" stroke-linecap="butt" stroke-opacity="0.0" clip-path="url(#id_0)" d="M516.0 306.0L503.0 306.0L503.0 110.0C503.0 108.89543 503.89542 108.0 505.0 108.0L514.0 108.0C515.10455 108.0 516.0 108.89543 516.0 110.0Z" fill-rule="nonzero"/><path fill="#ea4335" clip-path="url(#id_0)" d="M516.0 306.0L503.0 306.0L503.0 110.0C503.0 108.89543 503.89542 108.0 505.0 108.0L514.0 108.0C515.10455 108.0 516.0 108.89543 516.0 110.0Z" fill-rule="nonzero"/><path stroke="#000000" stroke-width="2.0" stroke-linecap="butt" stroke-opacity="0.0" clip-path="url(#id_0)" d="M563.0 306.0L550.0 306.0L550.0 107.0C550.0 105.89543 550.89545 105.0 552.0 105.0L561.0 105.0C562.10455 105.0 563.0 105.89543 563.0 107.0Z" fill-rule="nonzero"/><path fill="#ea4335" clip-path="url(#id_0)" d="M563.0 306.0L550.0 306.0L550.0 107.0C550.0 105.89543 550.89545 105.0 552.0 105.0L561.0 105.0C562.10455 105.0 563.0 105.89543 563.0 107.0Z" fill-rule="nonzero"/><path fill="#000000" d="M36.73751 276.62082L25.253138 276.62082L25.253138 275.33957L26.331263 275.33957Q25.690638 274.88644 25.378138 274.32394Q25.065638 273.74582 25.065638 272.93332Q25.065638 271.87082 25.612513 271.05832Q26.159388 270.24582 27.159388 269.83957Q28.143763 269.4177 29.331263 269.4177Q30.612513 269.4177 31.628138 269.88644Q32.64376 270.33957 33.190636 271.21457Q33.73751 272.07394 33.73751 273.0427Q33.73751 273.74582 33.440636 274.30832Q33.14376 274.8552 32.690636 275.21457L36.73751 275.21457L36.73751 276.62082ZM29.440638 275.3552Q31.050013 275.3552 31.815638 274.71457Q32.58126 274.05832 32.58126 273.13644Q32.58126 272.19894 31.784388 271.52707Q30.987513 270.8552 29.331263 270.8552Q27.737513 270.8552 26.956263 271.51144Q26.159388 272.1677 26.159388 273.07394Q26.159388 273.96457 27.003138 274.6677Q27.846888 275.3552 29.440638 275.3552ZM29.393763 268.15207Q27.096888 268.15207 25.987513 266.87082Q25.065638 265.7927 25.065638 264.26144Q25.065638 262.5427 26.190638 261.46457Q27.300013 260.37082 29.284388 260.37082Q30.878138 260.37082 31.800013 260.8552Q32.721886 261.33957 33.23751 262.26144Q33.73751 263.1677 33.73751 264.26144Q33.73751 265.99582 32.628136 267.07394Q31.503138 268.15207 29.393763 268.15207ZM29.393763 266.69894Q30.987513 266.69894 31.784388 266.01144Q32.58126 265.30832 32.58126 264.26144Q32.58126 263.21457 31.784388 262.52707Q30.987513 261.82394 29.346888 261.82394Q27.815638 261.82394 27.018763 262.52707Q26.221888 263.21457 26.221888 264.26144Q26.221888 265.30832 27.018763 266.01144Q27.800013 266.69894 29.393763 266.69894ZM33.55001 259.37082L32.409386 259.37082L26.346888 254.08958Q26.393763 254.98021 26.393763 255.66771L26.393763 259.05832L25.253138 259.05832L25.253138 252.27708L26.175013 252.27708L31.440638 256.76144L32.409386 257.63644Q32.33126 256.68332 32.33126 255.85521L32.33126 252.02708L33.55001 252.02708L33.55001 259.37082ZM36.753136 251.68333L35.42501 251.83958Q35.55001 251.38646 35.55001 251.04271Q35.55001 250.57396 35.39376 250.29271Q35.23751 250.01146 34.95626 249.82396Q34.753136 249.69896 33.909386 249.40208Q33.80001 249.35521 33.565636 249.27708L25.253138 252.41771L25.253138 250.90208L30.050013 249.18333Q30.971888 248.83958 31.971888 248.57396Q31.003138 248.33958 30.081263 247.99583L25.253138 246.23021L25.253138 244.82396L33.690636 247.98021Q35.065636 248.48021 35.58126 248.76146Q36.26876 249.13646 36.596886 249.62083Q36.92501 250.10521 36.92501 250.77708Q36.92501 251.18333 36.753136 251.68333ZM32.284386 241.55833L33.534386 241.35521Q33.659386 241.94896 33.659386 242.41771Q33.659386 243.18333 33.42501 243.60521Q33.17501 244.02708 32.784386 244.19896Q32.378136 244.37083 31.112513 244.37083L26.346888 244.37083L26.346888 245.40208L25.253138 245.40208L25.253138 244.37083L23.190638 244.37083L22.346888 242.96458L25.253138 242.96458L25.253138 241.55833L26.346888 241.55833L26.346888 242.96458L31.190638 242.96458Q31.800013 242.96458 31.971888 242.90208Q32.14376 242.82396 32.253136 242.65208Q32.346886 242.48021 32.346886 242.16771Q32.346886 241.93333 32.284386 241.55833ZM36.753136 240.68333L35.42501 240.83958Q35.55001 240.38646 35.55001 240.04271Q35.55001 239.57396 35.39376 239.29271Q35.23751 239.01146 34.95626 238.82396Q34.753136 238.69896 33.909386 238.40208Q33.80001 238.35521 33.565636 238.27708L25.253138 241.41771L25.253138 239.90208L30.050013 238.18333Q30.971888 237.83958 31.971888 237.57396Q31.003138 237.33958 30.081263 236.99583L25.253138 235.23021L25.253138 233.82396L33.690636 236.98021Q35.065636 237.48021 35.58126 237.76146Q36.26876 238.13646 36.596886 238.62083Q36.92501 239.10521 36.92501 239.77708Q36.92501 240.18333 36.753136 240.68333ZM33.55001 232.08958L25.253138 234.63646L25.253138 233.18333L30.034388 231.85521L31.815638 231.37083Q31.690638 231.33958 30.112513 230.93333L25.253138 229.62083L25.253138 228.16771L30.065638 226.93333L31.643763 226.51146L30.050013 226.04271L25.253138 224.62083L25.253138 223.24583L33.55001 225.83958L33.55001 227.30833L28.581263 228.62083L27.159388 228.94896L33.55001 230.62083L33.55001 232.08958ZM33.55001 222.62083L25.253138 222.62083L25.253138 221.35521L26.425013 221.35521Q25.065638 220.44896 25.065638 218.71458Q25.065638 217.96458 25.331263 217.33958Q25.596888 216.71458 26.034388 216.40208Q26.471888 216.08958 27.081263 215.96458Q27.471888 215.88646 28.440638 215.88646L33.55001 215.88646L33.55001 217.29271L28.503138 217.29271Q27.643763 217.29271 27.221888 217.46458Q26.784388 217.62083 26.534388 218.04271Q26.284388 218.44896 26.284388 219.01146Q26.284388 219.91771 26.862513 220.57396Q27.425013 221.21458 29.018763 221.21458L33.55001 221.21458L33.55001 222.62083ZM30.878138 208.94896L31.050013 207.49583Q32.33126 207.83958 33.034386 208.77708Q33.73751 209.69896 33.73751 211.13646Q33.73751 212.96458 32.61251 214.02708Q31.487513 215.08958 29.471888 215.08958Q27.378138 215.08958 26.221888 214.01146Q25.065638 212.93333 25.065638 211.21458Q25.065638 209.55833 26.206263 208.51146Q27.331263 207.44896 29.378138 207.44896Q29.503138 207.44896 29.753138 207.44896L29.753138 213.63646Q31.128138 213.55833 31.862513 212.87083Q32.58126 212.16771 32.58126 211.13646Q32.58126 210.35521 32.17501 209.80833Q31.768763 209.26146 30.878138 208.94896ZM28.596888 213.55833L28.596888 208.93333Q27.550013 209.02708 27.034388 209.46458Q26.221888 210.13646 26.221888 211.19896Q26.221888 212.16771 26.878138 212.83958Q27.518763 213.49583 28.596888 213.55833ZM32.284386 198.55833L33.534386 198.35521Q33.659386 198.94896 33.659386 199.41771Q33.659386 200.18333 33.42501 200.60521Q33.17501 201.02708 32.784386 201.19896Q32.378136 201.37083 31.112513 201.37083L26.346888 201.37083L26.346888 202.40208L25.253138 202.40208L25.253138 201.37083L23.190638 201.37083L22.346888 199.96458L25.253138 199.96458L25.253138 198.55833L26.346888 198.55833L26.346888 199.96458L31.190638 199.96458Q31.800013 199.96458 31.971888 199.90208Q32.14376 199.82396 32.253136 199.65208Q32.346886 199.48021 32.346886 199.16771Q32.346886 198.93333 32.284386 198.55833ZM33.55001 196.08958L25.253138 198.63646L25.253138 197.18333L30.034388 195.85521L31.815638 195.37083Q31.690638 195.33958 30.112513 194.93333L25.253138 193.62083L25.253138 192.16771L30.065638 190.93333L31.643763 190.51146L30.050013 190.04271L25.253138 188.62083L25.253138 187.24583L33.55001 189.83958L33.55001 191.30833L28.581263 192.62083L27.159388 192.94896L33.55001 194.62083L33.55001 196.08958ZM30.878138 180.94896L31.050013 179.49583Q32.33126 179.83958 33.034386 180.77708Q33.73751 181.69896 33.73751 183.13646Q33.73751 184.96458 32.61251 186.02708Q31.487513 187.08958 29.471888 187.08958Q27.378138 187.08958 26.221888 186.01146Q25.065638 184.93333 25.065638 183.21458Q25.065638 181.55833 26.206263 180.51146Q27.331263 179.44896 29.378138 179.44896Q29.503138 179.44896 29.753138 179.44896L29.753138 185.63646Q31.128138 185.55833 31.862513 184.87083Q32.58126 184.16771 32.58126 183.13646Q32.58126 182.35521 32.17501 181.80833Q31.768763 181.26146 30.878138 180.94896ZM28.596888 185.55833L28.596888 180.93333Q27.550013 181.02708 27.034388 181.46458Q26.221888 182.13646 26.221888 183.19896Q26.221888 184.16771 26.878138 184.83958Q27.518763 185.49583 28.596888 185.55833ZM30.878138 171.94896L31.050013 170.49583Q32.33126 170.83958 33.034386 171.77708Q33.73751 172.69896 33.73751 174.13646Q33.73751 175.96458 32.61251 177.02708Q31.487513 178.08958 29.471888 178.08958Q27.378138 178.08958 26.221888 177.01146Q25.065638 175.93333 25.065638 174.21458Q25.065638 172.55833 26.206263 171.51146Q27.331263 170.44896 29.378138 170.44896Q29.503138 170.44896 29.753138 170.44896L29.753138 176.63646Q31.128138 176.55833 31.862513 175.87083Q32.58126 175.16771 32.58126 174.13646Q32.58126 173.35521 32.17501 172.80833Q31.768763 172.26146 30.878138 171.94896ZM28.596888 176.55833L28.596888 171.93333Q27.550013 172.02708 27.034388 172.46458Q26.221888 173.13646 26.221888 174.19896Q26.221888 175.16771 26.878138 175.83958Q27.518763 176.49583 28.596888 176.55833ZM32.284386 165.55833L33.534386 165.35521Q33.659386 165.94896 33.659386 166.41771Q33.659386 167.18333 33.42501 167.60521Q33.17501 168.02708 32.784386 168.19896Q32.378136 168.37083 31.112513 168.37083L26.346888 168.37083L26.346888 169.40208L25.253138 169.40208L25.253138 168.37083L23.190638 168.37083L22.346888 166.96458L25.253138 166.96458L25.253138 165.55833L26.346888 165.55833L26.346888 166.96458L31.190638 166.96458Q31.800013 166.96458 31.971888 166.90208Q32.14376 166.82396 32.253136 166.65208Q32.346886 166.48021 32.346886 166.16771Q32.346886 165.93333 32.284386 165.55833ZM36.753136 164.68333L35.42501 164.83958Q35.55001 164.38646 35.55001 164.04271Q35.55001 163.57396 35.39376 163.29271Q35.23751 163.01146 34.95626 162.82396Q34.753136 162.69896 33.909386 162.40208Q33.80001 162.35521 33.565636 162.27708L25.253138 165.41771L25.253138 163.90208L30.050013 162.18333Q30.971888 161.83958 31.971888 161.57396Q31.003138 161.33958 30.081263 160.99583L25.253138 159.23021L25.253138 157.82396L33.690636 160.98021Q35.065636 161.48021 35.58126 161.76146Q36.26876 162.13646 36.596886 162.62083Q36.92501 163.10521 36.92501 163.77708Q36.92501 164.18333 36.753136 164.68333Z" fill-rule="nonzero"/><path fill="#000000" d="M76.05 305.61765Q76.05 304.0864 76.3625 303.16452Q76.675 302.22702 77.28438 301.72702Q77.90938 301.22702 78.84688 301.22702Q79.53438 301.22702 80.05 301.50827Q80.58125 301.78952 80.925 302.32077Q81.26875 302.8364 81.45625 303.5864Q81.64375 304.3364 81.64375 305.61765Q81.64375 307.13327 81.33125 308.05515Q81.03438 308.97702 80.40938 309.49265Q79.8 309.99265 78.84688 309.99265Q77.6125 309.99265 76.89375 309.10202Q76.05 308.03952 76.05 305.61765ZM77.12813 305.61765Q77.12813 307.72702 77.62813 308.43015Q78.12813 309.13327 78.84688 309.13327Q79.58125 309.13327 80.06563 308.43015Q80.56563 307.72702 80.56563 305.61765Q80.56563 303.49265 80.06563 302.80515Q79.58125 302.10202 78.83125 302.10202Q78.1125 302.10202 77.675 302.7114Q77.12813 303.49265 77.12813 305.61765Z" fill-rule="nonzero"/><path fill="#000000" d="M74.59688 237.19128L74.59688 238.20691L68.90938 238.20691Q68.90938 237.83191 69.03438 237.47253Q69.25313 236.89441 69.72188 236.33191Q70.20625 235.76941 71.1125 235.03503Q72.51875 233.87878 73.00313 233.20691Q73.50313 232.53503 73.50313 231.94128Q73.50313 231.31628 73.05 230.89441Q72.59688 230.45691 71.87813 230.45691Q71.1125 230.45691 70.65938 230.91003Q70.20625 231.36316 70.19063 232.17566L69.1125 232.06628Q69.22188 230.84753 69.94063 230.22253Q70.675 229.58191 71.90938 229.58191Q73.14375 229.58191 73.8625 230.26941Q74.58125 230.95691 74.58125 231.97253Q74.58125 232.48816 74.3625 232.98816Q74.15938 233.47253 73.65938 234.03503Q73.175 234.58191 72.05 235.53503Q71.09688 236.33191 70.81563 236.62878Q70.55 236.91003 70.37813 237.19128L74.59688 237.19128ZM76.05 233.97253Q76.05 232.44128 76.3625 231.51941Q76.675 230.58191 77.28438 230.08191Q77.90938 229.58191 78.84688 229.58191Q79.53438 229.58191 80.05 229.86316Q80.58125 230.14441 80.925 230.67566Q81.26875 231.19128 81.45625 231.94128Q81.64375 232.69128 81.64375 233.97253Q81.64375 235.48816 81.33125 236.41003Q81.03438 237.33191 80.40938 237.84753Q79.8 238.34753 78.84688 238.34753Q77.6125 238.34753 76.89375 237.45691Q76.05 236.39441 76.05 233.97253ZM77.12813 233.97253Q77.12813 236.08191 77.62813 236.78503Q78.12813 237.48816 78.84688 237.48816Q79.58125 237.48816 80.06563 236.78503Q80.56563 236.08191 80.56563 233.97253Q80.56563 231.84753 80.06563 231.16003Q79.58125 230.45691 78.83125 230.45691Q78.1125 230.45691 77.675 231.06628Q77.12813 231.84753 77.12813 233.97253Z" fill-rule="nonzero"/><path fill="#000000" d="M72.425 166.56178L72.425 164.49928L68.70625 164.49928L68.70625 163.53053L72.62813 157.96803L73.4875 157.96803L73.4875 163.53053L74.64375 163.53053L74.64375 164.49928L73.4875 164.49928L73.4875 166.56178L72.425 166.56178ZM72.425 163.53053L72.425 159.67116L69.7375 163.53053L72.425 163.53053ZM76.05 162.32741Q76.05 160.79616 76.3625 159.87428Q76.675 158.93678 77.28438 158.43678Q77.90938 157.93678 78.84688 157.93678Q79.53438 157.93678 80.05 158.21803Q80.58125 158.49928 80.925 159.03053Q81.26875 159.54616 81.45625 160.29616Q81.64375 161.04616 81.64375 162.32741Q81.64375 163.84303 81.33125 164.76491Q81.03438 165.68678 80.40938 166.20241Q79.8 166.70241 78.84688 166.70241Q77.6125 166.70241 76.89375 165.81178Q76.05 164.74928 76.05 162.32741ZM77.12813 162.32741Q77.12813 164.43678 77.62813 165.13991Q78.12813 165.84303 78.84688 165.84303Q79.58125 165.84303 80.06563 165.13991Q80.56563 164.43678 80.56563 162.32741Q80.56563 160.20241 80.06563 159.51491Q79.58125 158.81178 78.83125 158.81178Q78.1125 158.81178 77.675 159.42116Q77.12813 160.20241 77.12813 162.32741Z" fill-rule="nonzero"/><path fill="#000000" d="M74.51875 88.43229L73.47188 88.510414Q73.33125 87.885414 73.08125 87.604164Q72.64375 87.15104 72.01875 87.15104Q71.51875 87.15104 71.12813 87.43229Q70.64375 87.80729 70.34688 88.510414Q70.06563 89.197914 70.05 90.479164Q70.425 89.90104 70.97188 89.61979Q71.53438 89.33854 72.14375 89.33854Q73.19063 89.33854 73.925 90.11979Q74.675 90.90104 74.675 92.11979Q74.675 92.93229 74.31563 93.635414Q73.97188 94.322914 73.3625 94.697914Q72.75313 95.05729 71.9875 95.05729Q70.65938 95.05729 69.83125 94.08854Q69.00313 93.11979 69.00313 90.90104Q69.00313 88.40104 69.925 87.27604Q70.72188 86.291664 72.08125 86.291664Q73.09688 86.291664 73.7375 86.86979Q74.39375 87.43229 74.51875 88.43229ZM70.22188 92.135414Q70.22188 92.68229 70.44063 93.18229Q70.675 93.666664 71.08125 93.93229Q71.50313 94.197914 71.97188 94.197914Q72.62813 94.197914 73.1125 93.666664Q73.59688 93.11979 73.59688 92.197914Q73.59688 91.30729 73.1125 90.791664Q72.64375 90.27604 71.925 90.27604Q71.20625 90.27604 70.70625 90.791664Q70.22188 91.30729 70.22188 92.135414ZM76.05 90.68229Q76.05 89.15104 76.3625 88.229164Q76.675 87.291664 77.28438 86.791664Q77.90938 86.291664 78.84688 86.291664Q79.53438 86.291664 80.05 86.572914Q80.58125 86.854164 80.925 87.385414Q81.26875 87.90104 81.45625 88.65104Q81.64375 89.40104 81.64375 90.68229Q81.64375 92.197914 81.33125 93.11979Q81.03438 94.041664 80.40938 94.55729Q79.8 95.05729 78.84688 95.05729Q77.6125 95.05729 76.89375 94.166664Q76.05 93.104164 76.05 90.68229ZM77.12813 90.68229Q77.12813 92.791664 77.62813 93.49479Q78.12813 94.197914 78.84688 94.197914Q79.58125 94.197914 80.06563 93.49479Q80.56563 92.791664 80.56563 90.68229Q80.56563 88.55729 80.06563 87.86979Q79.58125 87.166664 78.83125 87.166664Q78.1125 87.166664 77.675 87.77604Q77.12813 88.55729 77.12813 90.68229Z" fill-rule="nonzero"/><path fill="#000000" d="M100.09011 350.16293L100.9298 351.00262L96.24522 355.68723Q95.92481 355.38892 95.736984 354.9801Q95.44972 354.3172 95.37238 353.46646Q95.30609 352.60468 95.438675 351.25674Q95.6486 349.14648 95.49392 348.19632Q95.35029 347.23508 94.8531 346.73788Q94.333824 346.21863 93.604614 346.24072Q92.88646 346.25177 92.30089 346.83734Q91.67112 347.4671 91.66007 348.22946Q91.66007 348.98074 92.33404 349.65472L91.33967 350.4502Q90.433685 349.36746 90.511024 348.25156Q90.58836 347.11356 91.59378 346.10812Q92.6213 345.08063 93.77035 345.05853Q94.93044 345.02536 95.770134 345.86505Q96.20103 346.29596 96.433044 346.88153Q96.67611 347.45605 96.72031 348.31784Q96.77555 349.16858 96.63192 350.9032Q96.49934 352.3395 96.52143 352.80356Q96.53248 353.25653 96.62087 353.6322L100.09011 350.16293ZM98.52122 346.42853Q97.26169 345.169 96.75345 344.15253Q96.24522 343.11398 96.34466 342.19696Q96.433044 341.26886 97.20644 340.49548Q97.78097 339.92096 98.44388 339.72208Q99.10679 339.5232 99.813896 339.6779Q100.53205 339.8215 101.30545 340.28555Q102.07885 340.74957 103.13951 341.81024Q104.38799 343.05875 104.896225 344.0752Q105.404465 345.09167 105.31607 346.01974Q105.227684 346.9478 104.44324 347.73227Q103.42677 348.74872 102.100945 348.59406Q100.50996 348.41727 98.52122 346.42853ZM99.41615 345.5336Q101.16182 347.27927 102.14514 347.445Q103.12846 347.61075 103.72508 347.0141Q104.332756 346.40643 104.16702 345.42313Q103.99025 344.42874 102.25562 342.69412Q100.49891 340.9374 99.51559 340.7717Q98.532265 340.60596 97.91355 341.22467Q97.316925 341.8213 97.4716 342.68307Q97.67048 343.78793 99.41615 345.5336ZM110.95083 340.9816L110.077995 341.85443L104.531624 336.30807Q104.52058 336.91574 104.31065 337.7444Q104.10073 338.55093 103.84662 339.09232L103.00693 338.25262Q103.39362 337.1809 103.44887 336.15338Q103.51516 335.11484 103.272095 334.4298L103.83557 333.86633L110.95083 340.9816ZM107.22747 332.39688L106.38778 331.5572L110.98397 326.961L111.65793 327.63498Q111.69108 329.03815 112.22141 330.8943Q112.75174 332.75046 113.65772 334.38562Q114.28749 335.52362 115.27081 336.66162L114.37588 337.55655Q113.54724 336.7058 112.6744 335.21426Q111.812614 333.71167 111.30438 332.0323Q110.79615 330.3308 110.70776 328.9166L107.22747 332.39688ZM120.386284 335.47943L119.756516 334.84967L125.52385 329.08234L126.15362 329.7121L120.386284 335.47943ZM127.92139 324.01105L127.04855 324.88388L121.50218 319.33752Q121.491135 319.9452 121.28121 320.77383Q121.07129 321.58038 120.81718 322.12173L119.977486 321.28207Q120.36418 320.21036 120.419426 319.18283Q120.48572 318.1443 120.24265 317.45926L120.80612 316.89578L127.92139 324.01105Z" fill-rule="nonzero"/><path fill="#000000" d="M147.7133 350.16293L148.553 351.00262L143.86841 355.68723Q143.548 355.38892 143.36018 354.9801Q143.07292 354.3172 142.99557 353.46646Q142.92929 352.60468 143.06186 351.25674Q143.27179 349.14648 143.11711 348.1963Q142.97348 347.23508 142.47629 346.73788Q141.95702 346.21863 141.22781 346.24072Q140.50966 346.25177 139.92407 346.83734Q139.29431 347.4671 139.28326 348.22946Q139.28326 348.98074 139.95723 349.65472L138.96286 350.4502Q138.05687 349.36746 138.13422 348.25156Q138.21155 347.11356 139.21698 346.10812Q140.24449 345.08063 141.39354 345.05853Q142.55363 345.02536 143.39333 345.86505Q143.82422 346.29596 144.05623 346.88153Q144.2993 347.45605 144.34349 348.31784Q144.39874 349.16858 144.25511 350.9032Q144.12253 352.3395 144.14462 352.80356Q144.15567 353.25653 144.24406 353.6322L147.7133 350.16293ZM146.14441 346.42853Q144.88487 345.169 144.37665 344.15253Q143.86841 343.11398 143.96785 342.19693Q144.05623 341.26886 144.82964 340.49548Q145.40416 339.92096 146.06706 339.72208Q146.72998 339.5232 147.43709 339.6779Q148.15524 339.8215 148.92863 340.28555Q149.70204 340.74957 150.7627 341.81024Q152.01118 343.05875 152.51942 344.0752Q153.02765 345.09167 152.93927 346.01974Q152.85088 346.9478 152.06642 347.73227Q151.04996 348.74872 149.72414 348.59406Q148.13315 348.41727 146.14441 346.42853ZM147.03934 345.5336Q148.785 347.27927 149.76833 347.445Q150.75165 347.61072 151.34827 347.0141Q151.95595 346.40643 151.79022 345.42313Q151.61343 344.42874 149.87881 342.69412Q148.1221 340.9374 147.13878 340.77167Q146.15546 340.60596 145.53674 341.22467Q144.94012 341.8213 145.0948 342.68307Q145.29367 343.78793 147.03934 345.5336ZM158.57402 340.9816L157.70119 341.85443L152.15482 336.30807Q152.14377 336.91574 151.93385 337.7444Q151.72392 338.55093 151.4698 339.09232L150.63011 338.25262Q151.01682 337.1809 151.07207 336.15338Q151.13835 335.11484 150.89528 334.4298L151.45876 333.86633L158.57402 340.9816ZM154.85066 332.39688L154.01097 331.5572L158.60716 326.961L159.28113 327.63498Q159.31427 329.03812 159.8446 330.8943Q160.37494 332.75043 161.28091 334.38562Q161.91068 335.52362 162.894 336.66162L161.99907 337.55655Q161.17043 336.7058 160.29759 335.21426Q159.4358 333.71167 158.92757 332.0323Q158.41934 330.3308 158.33095 328.9166L154.85066 332.39688ZM168.00948 335.47943L167.37971 334.84967L173.14705 329.08234L173.77681 329.7121L168.00948 335.47943ZM175.99757 321.87866L176.83727 322.71835L172.15268 327.40295Q171.83228 327.10464 171.64445 326.69583Q171.3572 326.03293 171.27985 325.1822Q171.21356 324.3204 171.34613 322.97247Q171.55606 320.8622 171.40138 319.91202Q171.25775 318.9508 170.76056 318.4536Q170.24129 317.93436 169.51208 317.95645Q168.79393 317.9675 168.20834 318.55307Q167.57858 319.18283 167.56754 319.9452Q167.56754 320.69647 168.2415 321.37045L167.24713 322.16592Q166.34114 321.0832 166.41849 319.9673Q166.49582 318.82928 167.50125 317.82385Q168.52876 316.79636 169.67781 316.77426Q170.8379 316.7411 171.6776 317.58078Q172.10849 318.0117 172.3405 318.59726Q172.58357 319.17178 172.62776 320.03357Q172.68301 320.8843 172.53938 322.61893Q172.4068 324.05524 172.4289 324.5193Q172.43994 324.97226 172.52834 325.34793L175.99757 321.87866Z" fill-rule="nonzero"/><path fill="#000000" d="M195.33649 350.16293L196.17618 351.00262L191.4916 355.68723Q191.17119 355.38892 190.98337 354.9801Q190.6961 354.3172 190.61876 353.46646Q190.55247 352.60468 190.68506 351.25674Q190.89497 349.14648 190.7403 348.19632Q190.59666 347.23508 190.09947 346.73788Q189.5802 346.21863 188.851 346.24072Q188.13284 346.25177 187.54727 346.83734Q186.9175 347.4671 186.90645 348.22946Q186.90645 348.98074 187.58041 349.65472L186.58604 350.4502Q185.68005 349.36746 185.7574 348.25156Q185.83475 347.11356 186.84016 346.10812Q187.86768 345.08063 189.01672 345.05853Q190.17682 345.02536 191.01651 345.86505Q191.4474 346.29596 191.67941 346.88153Q191.92249 347.45605 191.96667 348.31784Q192.02193 349.16858 191.8783 350.9032Q191.74571 352.3395 191.7678 352.80356Q191.77885 353.25653 191.86725 353.6322L195.33649 350.16293ZM193.7676 346.42853Q192.50806 345.169 191.99983 344.15253Q191.4916 343.11398 191.59103 342.19696Q191.67941 341.26886 192.45282 340.49548Q193.02734 339.92096 193.69026 339.72208Q194.35316 339.5232 195.06027 339.6779Q195.77843 339.8215 196.55183 340.28555Q197.32523 340.7496 198.38588 341.81024Q199.63437 343.05875 200.14261 344.0752Q200.65083 345.09167 200.56245 346.01974Q200.47406 346.9478 199.68962 347.73227Q198.67314 348.74875 197.34732 348.59406Q195.75633 348.41727 193.7676 346.42853ZM194.66252 345.5336Q196.4082 347.27927 197.39151 347.445Q198.37483 347.61075 198.97147 347.0141Q199.57913 346.40643 199.4134 345.42313Q199.23662 344.42874 197.502 342.69412Q195.74529 340.9374 194.76196 340.7717Q193.77864 340.60596 193.15993 341.22467Q192.56331 341.8213 192.71799 342.68307Q192.91685 343.78793 194.66252 345.5336ZM206.1972 340.9816L205.32437 341.85443L199.778 336.30807Q199.76695 336.91574 199.55704 337.7444Q199.3471 338.55093 199.09299 339.09232L198.2533 338.25262Q198.64 337.1809 198.69525 336.15338Q198.76154 335.11484 198.51846 334.4298L199.08194 333.86633L206.1972 340.9816ZM206.06462 333.4244Q205.32437 333.7669 204.69461 333.66748Q204.07588 333.55698 203.55661 333.03772Q202.7832 332.2643 202.81635 331.1926Q202.8495 330.0988 203.76653 329.18176Q204.69461 328.2537 205.79945 328.2316Q206.91536 328.19846 207.68877 328.97183Q208.1749 329.45798 208.27434 330.08774Q208.38481 330.70645 208.05336 331.43567Q208.91515 330.9937 209.73274 331.1263Q210.55034 331.25888 211.21324 331.9218Q212.11923 332.8278 212.09712 334.0873Q212.07503 335.34686 211.02542 336.39645Q209.97581 337.44608 208.70523 337.47922Q207.43465 337.49026 206.50656 336.5622Q205.82155 335.87717 205.71107 335.0596Q205.58954 334.23096 206.06462 333.4244ZM204.42944 332.12067Q204.92662 332.61786 205.56744 332.61786Q206.20825 332.61786 206.72754 332.09857Q207.23576 331.59033 207.24681 330.96057Q207.24681 330.31976 206.78278 329.8557Q206.3077 329.38065 205.65582 329.3917Q204.99292 329.3917 204.49573 329.8889Q203.99855 330.38605 203.9875 331.03793Q203.97646 331.6677 204.42944 332.12067ZM207.41255 335.6783Q207.7882 336.05396 208.31853 336.23074Q208.83781 336.39645 209.36813 336.2418Q209.90952 336.07605 210.31831 335.66727Q210.93703 335.04855 210.93703 334.25305Q210.94807 333.4465 210.32936 332.8278Q209.6996 332.19803 208.87096 332.20908Q208.04231 332.19803 207.41255 332.8278Q206.79382 333.4465 206.79382 334.2641Q206.80487 335.07065 207.41255 335.6783ZM215.63266 335.47943L215.0029 334.84967L220.77023 329.08234L221.40001 329.7121L215.63266 335.47943ZM223.16777 324.01105L222.29494 324.88388L216.74857 319.33752Q216.73752 319.9452 216.52759 320.77383Q216.31767 321.58035 216.06355 322.12173L215.22386 321.28204Q215.61057 320.21036 215.6658 319.18283Q215.7321 318.14426 215.48903 317.45926L216.0525 316.89578L223.16777 324.01105Z" fill-rule="nonzero"/><path fill="#000000" d="M242.95967 350.16296L243.79936 351.00266L239.11478 355.68723Q238.79437 355.38892 238.60655 354.9801Q238.31929 354.3172 238.24194 353.46646Q238.17566 352.60468 238.30824 351.25674Q238.51816 349.14648 238.36348 348.19632Q238.21985 347.23508 237.72266 346.7379Q237.20338 346.21863 236.47418 346.24072Q235.75603 346.25177 235.17046 346.83734Q234.54068 347.4671 234.52963 348.22946Q234.52963 348.98074 235.2036 349.65472L234.20923 350.45023Q233.30325 349.36746 233.38058 348.25156Q233.45793 347.11356 234.46335 346.10812Q235.49086 345.08063 236.63991 345.05853Q237.8 345.0254 238.6397 345.86508Q239.07059 346.29596 239.30261 346.88153Q239.54567 347.45605 239.58987 348.31784Q239.64511 349.16858 239.50148 350.9032Q239.3689 352.3395 239.39099 352.80356Q239.40204 353.25653 239.49043 353.6322L242.95967 350.16296ZM241.39078 346.42853Q240.13124 345.169 239.62302 344.15256Q239.11478 343.11398 239.21422 342.19696Q239.30261 341.26886 240.076 340.49548Q240.65053 339.92096 241.31345 339.72208Q241.97635 339.5232 242.68346 339.6779Q243.40161 339.8215 244.17502 340.28555Q244.94841 340.7496 246.00906 341.81024Q247.25755 343.05875 247.7658 344.0752Q248.27402 345.09167 248.18564 346.01974Q248.09724 346.9478 247.3128 347.73227Q246.29634 348.74875 244.9705 348.59406Q243.37952 348.41727 241.39078 346.42853ZM242.2857 345.5336Q244.03139 347.27927 245.01471 347.445Q245.99802 347.61075 246.59465 347.01413Q247.20232 346.40643 247.03659 345.42313Q246.8598 344.42874 245.12518 342.69412Q243.36847 340.9374 242.38515 340.7717Q241.40182 340.60596 240.78311 341.22467Q240.1865 341.8213 240.34117 342.68307Q240.54004 343.78793 242.2857 345.5336ZM253.82039 340.9816L252.94756 341.85443L247.40118 336.30807Q247.39014 336.91574 247.18022 337.7444Q246.97029 338.55093 246.71617 339.09232L245.8765 338.25262Q246.26318 337.1809 246.31844 336.1534Q246.38472 335.11484 246.14165 334.4298L246.70512 333.86636L253.82039 340.9816ZM253.6878 333.4244Q252.94756 333.7669 252.3178 333.66748Q251.69907 333.55698 251.1798 333.03772Q250.40639 332.2643 250.43954 331.1926Q250.47269 330.0988 251.38971 329.18176Q252.3178 328.2537 253.42264 328.2316Q254.53854 328.19846 255.31195 328.97183Q255.79808 329.45798 255.89752 330.08774Q256.008 330.70645 255.67654 331.43567Q256.53833 330.9937 257.35593 331.1263Q258.17352 331.25888 258.83643 331.9218Q259.7424 332.8278 259.7203 334.0873Q259.6982 335.34686 258.6486 336.39645Q257.599 337.44608 256.3284 337.47922Q255.05783 337.49026 254.12975 336.5622Q253.44475 335.8772 253.33426 335.0596Q253.21272 334.23096 253.6878 333.4244ZM252.05263 332.12067Q252.5498 332.61786 253.19063 332.61786Q253.83144 332.61786 254.35072 332.09857Q254.85895 331.59036 254.87001 330.96057Q254.87001 330.31976 254.40596 329.8557Q253.93088 329.38065 253.279 329.3917Q252.6161 329.3917 252.11891 329.8889Q251.62173 330.38605 251.61069 331.03793Q251.59964 331.6677 252.05263 332.12067ZM255.03574 335.6783Q255.41138 336.05396 255.94171 336.23074Q256.461 336.39645 256.99133 336.2418Q257.5327 336.07605 257.9415 335.66727Q258.5602 335.04855 258.5602 334.25305Q258.57126 333.4465 257.95255 332.8278Q257.32278 332.19803 256.49414 332.20908Q255.6655 332.19803 255.03574 332.8278Q254.417 333.4465 254.417 334.2641Q254.42805 335.07065 255.03574 335.6783ZM263.25586 335.47943L262.62607 334.84967L268.39343 329.08234L269.0232 329.7121L263.25586 335.47943ZM271.24396 321.8787L272.08365 322.71838L267.39905 327.40295Q267.07864 327.10464 266.8908 326.69583Q266.60355 326.03293 266.5262 325.1822Q266.45993 324.3204 266.5925 322.97247Q266.80243 320.8622 266.64774 319.91205Q266.50412 318.9508 266.00693 318.45364Q265.48764 317.93436 264.75845 317.95645Q264.04028 317.9675 263.4547 318.55307Q262.82495 319.18283 262.8139 319.9452Q262.8139 320.69647 263.48785 321.37045L262.4935 322.16595Q261.58752 321.0832 261.66486 319.9673Q261.7422 318.82928 262.74762 317.82385Q263.77512 316.79636 264.92416 316.77426Q266.0843 316.74112 266.92395 317.5808Q267.35486 318.0117 267.58688 318.59726Q267.82996 319.17178 267.87415 320.03357Q267.92938 320.8843 267.78574 322.61893Q267.65317 324.05524 267.67526 324.5193Q267.6863 324.97226 267.7747 325.34793L271.24396 321.8787Z" fill-rule="nonzero"/><path fill="#000000" d="M290.58286 350.16293L291.42255 351.00262L286.73798 355.68723Q286.41757 355.38892 286.22974 354.9801Q285.94247 354.3172 285.86514 353.46646Q285.79886 352.60468 285.93143 351.25674Q286.14136 349.14648 285.98666 348.1963Q285.84305 347.23508 285.34586 346.73788Q284.82657 346.21863 284.09738 346.24072Q283.3792 346.25177 282.79364 346.83734Q282.16388 347.4671 282.15283 348.22946Q282.15283 348.98074 282.82678 349.65472L281.83243 350.4502Q280.92645 349.36746 281.00378 348.25156Q281.08112 347.11356 282.08655 346.10812Q283.11404 345.08063 284.2631 345.0585Q285.4232 345.02536 286.26288 345.86505Q286.6938 346.29596 286.9258 346.88153Q287.16888 347.45605 287.21307 348.31784Q287.2683 349.16858 287.12466 350.9032Q286.9921 352.3395 287.0142 352.80356Q287.02524 353.25653 287.11362 353.63217L290.58286 350.16293ZM289.01398 346.42853Q287.75446 345.169 287.24622 344.15253Q286.73798 343.11398 286.8374 342.19693Q286.9258 341.26886 287.6992 340.49545Q288.2737 339.92093 288.93665 339.72208Q289.59955 339.5232 290.30667 339.6779Q291.0248 339.8215 291.79822 340.28555Q292.5716 340.74957 293.63226 341.81024Q294.88077 343.05872 295.38898 344.0752Q295.89722 345.09167 295.80884 346.01974Q295.72043 346.9478 294.936 347.73227Q293.91953 348.74872 292.59372 348.59406Q291.00272 348.41727 289.01398 346.42853ZM289.9089 345.5336Q291.65457 347.27927 292.6379 347.445Q293.62122 347.61072 294.21783 347.0141Q294.8255 346.40643 294.6598 345.42313Q294.483 344.42874 292.74838 342.69412Q290.99167 340.9374 290.00833 340.77167Q289.02502 340.60596 288.4063 341.22467Q287.8097 341.8213 287.96436 342.68307Q288.16324 343.78793 289.9089 345.5336ZM301.44357 340.9816L300.57074 341.85443L295.02438 336.30807Q295.01334 336.91574 294.8034 337.7444Q294.5935 338.55093 294.3394 339.09232L293.4997 338.25262Q293.88638 337.1809 293.94162 336.15338Q294.0079 335.11484 293.76486 334.4298L294.32834 333.86633L301.44357 340.9816ZM302.31644 336.8384L303.07877 335.92136Q303.7638 336.4075 304.32727 336.37436Q304.9018 336.33017 305.3658 335.86612Q305.76358 335.46838 305.8851 334.9933Q306.00662 334.4961 305.8851 333.99893Q305.77463 333.4907 305.3879 332.83884Q305.00122 332.18695 304.45984 331.64557Q304.4046 331.59033 304.272 331.47986Q304.43774 332.1538 304.2499 332.87198Q304.05106 333.57907 303.52072 334.1094Q302.63684 334.9933 301.38834 334.96014Q300.13986 334.927 299.1013 333.88843Q298.01852 332.8057 297.99643 331.52405Q297.97433 330.22034 298.93558 329.2591Q299.62057 328.5741 300.57074 328.3752Q301.5099 328.16528 302.50424 328.56305Q303.48758 328.94974 304.7913 330.25348Q306.15027 331.61243 306.6585 332.7173Q307.1778 333.8111 307.01205 334.81653Q306.8463 335.82193 306.0619 336.60638Q305.23325 337.43503 304.23886 337.5013Q303.25555 337.55655 302.31644 336.8384ZM302.7473 330.15402Q301.996 329.40274 301.1563 329.35852Q300.31665 329.31433 299.76422 329.86676Q299.17865 330.45233 299.22284 331.3583Q299.26703 332.2643 300.0183 333.0156Q300.6923 333.68958 301.53198 333.71167Q302.36063 333.72272 302.95724 333.1261Q303.5649 332.51843 303.53177 331.71188Q303.48758 330.8943 302.7473 330.15402ZM310.87906 335.47943L310.24927 334.84967L316.0166 329.08234L316.6464 329.7121L310.87906 335.47943ZM318.41415 324.01105L317.54132 324.88388L311.99493 319.3375Q311.9839 319.9452 311.774 320.7738Q311.56406 321.58035 311.30994 322.12173L310.47025 321.28204Q310.85693 320.21033 310.9122 319.18283Q310.9785 318.14426 310.7354 317.45926L311.2989 316.89578L318.41415 324.01105Z" fill-rule="nonzero"/><path fill="#000000" d="M338.20605 350.16296L339.04575 351.00266L334.36115 355.68723Q334.04074 355.38892 333.8529 354.98013Q333.56564 354.3172 333.4883 353.46646Q333.42203 352.60468 333.5546 351.25677Q333.76453 349.14648 333.60986 348.19632Q333.46622 347.2351 332.96902 346.7379Q332.44977 346.21863 331.72055 346.24072Q331.00238 346.25177 330.4168 346.83734Q329.78705 347.4671 329.776 348.22946Q329.776 348.98077 330.44998 349.65472L329.4556 350.45023Q328.54962 349.36746 328.62695 348.25156Q328.70428 347.11356 329.70972 346.10815Q330.73724 345.08063 331.8863 345.05853Q333.0464 345.0254 333.88608 345.86508Q334.31696 346.29596 334.54898 346.88153Q334.79205 347.45605 334.83624 348.31784Q334.89148 349.16858 334.74786 350.9032Q334.61526 352.3395 334.63736 352.80356Q334.6484 353.25656 334.73682 353.6322L338.20605 350.16296ZM336.63715 346.42856Q335.37762 345.169 334.8694 344.15256Q334.36115 343.11398 334.4606 342.19696Q334.54898 341.2689 335.3224 340.49548Q335.8969 339.92096 336.5598 339.72208Q337.22272 339.52322 337.92984 339.6779Q338.64798 339.82153 339.4214 340.28555Q340.1948 340.7496 341.25543 341.81027Q342.50394 343.05875 343.01215 344.0752Q343.5204 345.09167 343.432 346.01974Q343.34363 346.94785 342.55917 347.73227Q341.5427 348.74875 340.2169 348.59406Q338.6259 348.4173 336.63715 346.42856ZM337.53207 345.53363Q339.27774 347.2793 340.26108 347.445Q341.2444 347.61075 341.841 347.01413Q342.4487 346.40646 342.28296 345.42313Q342.10617 344.42877 340.37155 342.69415Q338.61484 340.9374 337.63153 340.7717Q336.6482 340.60596 336.02948 341.22467Q335.43286 341.82132 335.58752 342.6831Q335.7864 343.78793 337.53207 345.53363ZM349.06677 340.98163L348.19394 341.85446L342.64755 336.30807Q342.6365 336.91574 342.42657 337.7444Q342.21667 338.55093 341.96255 339.09232L341.12286 338.25262Q341.50955 337.1809 341.5648 336.1534Q341.6311 335.11484 341.38803 334.42984L341.9515 333.86636L349.06677 340.98163ZM349.9396 336.8384L350.70193 335.9214Q351.38696 336.40753 351.95044 336.37436Q352.52496 336.33017 352.98898 335.86615Q353.38675 335.46838 353.50827 334.99332Q353.62982 334.49612 353.50827 333.99893Q353.3978 333.4907 353.01108 332.83884Q352.6244 332.18698 352.083 331.6456Q352.02777 331.59036 351.8952 331.47986Q352.0609 332.15384 351.87308 332.87198Q351.67422 333.5791 351.1439 334.10944Q350.26 334.99332 349.0115 334.96017Q347.76303 334.927 346.72446 333.88846Q345.64172 332.8057 345.61963 331.52408Q345.59753 330.22034 346.55875 329.25912Q347.24374 328.5741 348.19394 328.3752Q349.13306 328.1653 350.1274 328.56305Q351.11075 328.94977 352.41446 330.25348Q353.77344 331.61246 354.28168 332.71732Q354.80096 333.81113 354.63522 334.81653Q354.4695 335.82196 353.68506 336.60638Q352.8564 337.43503 351.86203 337.5013Q350.87872 337.55658 349.9396 336.8384ZM350.37048 330.15405Q349.6192 329.40274 348.7795 329.35855Q347.93982 329.31436 347.3874 329.8668Q346.80182 330.45236 346.846 331.35834Q346.8902 332.2643 347.6415 333.01562Q348.31546 333.68958 349.15515 333.71167Q349.9838 333.72272 350.5804 333.1261Q351.18808 332.51843 351.15494 331.71188Q351.11075 330.8943 350.37048 330.15405ZM358.50223 335.47943L357.87244 334.84967L363.6398 329.08234L364.26956 329.7121L358.50223 335.47943ZM366.49033 321.8787L367.33002 322.71838L362.64542 327.40295Q362.325 327.10464 362.13718 326.69586Q361.8499 326.03293 361.77258 325.1822Q361.7063 324.3204 361.83887 322.9725Q362.0488 320.8622 361.89413 319.91205Q361.7505 318.95084 361.2533 318.45364Q360.73404 317.93436 360.00482 317.95645Q359.28665 317.9675 358.70108 318.55307Q358.07132 319.18283 358.06027 319.9452Q358.06027 320.6965 358.73425 321.37045L357.73987 322.16595Q356.8339 321.0832 356.91122 319.9673Q356.98856 318.82928 357.994 317.82388Q359.0215 316.79636 360.17056 316.77426Q361.33066 316.74112 362.17035 317.5808Q362.60123 318.0117 362.83325 318.59726Q363.07632 319.17178 363.1205 320.03357Q363.17575 320.8843 363.03214 322.61893Q362.89954 324.05524 362.92163 324.5193Q362.93268 324.9723 363.0211 325.34793L366.49033 321.8787Z" fill-rule="nonzero"/><path fill="#000000" d="M385.82925 350.16296L386.6689 351.00262L381.98434 355.68723Q381.66394 355.38892 381.4761 354.9801Q381.18884 354.3172 381.1115 353.46646Q381.04523 352.60468 381.1778 351.25674Q381.38773 349.14648 381.23303 348.19632Q381.08942 347.23508 380.59222 346.7379Q380.07294 346.21863 379.34375 346.24072Q378.62558 346.25177 378.04 346.83734Q377.41025 347.4671 377.3992 348.22946Q377.3992 348.98074 378.07315 349.65472L377.0788 350.45023Q376.17282 349.36746 376.25015 348.25156Q376.32748 347.11356 377.33292 346.10812Q378.3604 345.08063 379.50946 345.05853Q380.66956 345.0254 381.50925 345.86505Q381.94016 346.29596 382.17218 346.88153Q382.41525 347.45605 382.45944 348.31784Q382.51468 349.16858 382.37103 350.9032Q382.23846 352.3395 382.26056 352.80356Q382.2716 353.25653 382.36 353.6322L385.82925 350.16296ZM384.26035 346.42853Q383.00082 345.169 382.49258 344.15253Q381.98434 343.11398 382.08377 342.19696Q382.17218 341.26886 382.94556 340.49548Q383.52008 339.92096 384.183 339.72208Q384.84592 339.5232 385.55304 339.6779Q386.27118 339.8215 387.0446 340.28555Q387.818 340.7496 388.87863 341.81024Q390.12714 343.05875 390.63535 344.0752Q391.1436 345.09167 391.0552 346.01974Q390.96683 346.9478 390.18237 347.73227Q389.1659 348.74875 387.8401 348.59406Q386.24908 348.41727 384.26035 346.42853ZM385.15527 345.5336Q386.90094 347.27927 387.88428 347.445Q388.86758 347.61075 389.4642 347.0141Q390.07187 346.40643 389.90616 345.42313Q389.72937 344.42874 387.99475 342.69412Q386.23804 340.9374 385.25473 340.7717Q384.2714 340.60596 383.65268 341.22467Q383.05606 341.8213 383.21072 342.68307Q383.4096 343.78793 385.15527 345.5336ZM397.14294 338.84924L397.98264 339.68893L393.29807 344.3735Q392.97766 344.0752 392.78983 343.6664Q392.50256 343.00348 392.42523 342.15274Q392.35892 341.29095 392.49152 339.94305Q392.70145 337.83276 392.54675 336.8826Q392.40314 335.9214 391.90594 335.4242Q391.38666 334.9049 390.65744 334.927Q389.9393 334.93805 389.35373 335.52362Q388.72397 336.15338 388.71292 336.91574Q388.71292 337.66705 389.38687 338.341L388.39252 339.1365Q387.4865 338.05374 387.56387 336.93784Q387.6412 335.79984 388.6466 334.79443Q389.67413 333.7669 390.82318 333.7448Q391.98328 333.71167 392.82297 334.55136Q393.25388 334.98224 393.48587 335.5678Q393.72894 336.14233 393.77313 337.00412Q393.8284 337.85486 393.68475 339.58948Q393.5522 341.02582 393.57428 341.48984Q393.58533 341.94284 393.6737 342.31848L397.14294 338.84924ZM395.57407 335.11484Q394.3145 333.8553 393.80627 332.83884Q393.29807 331.80026 393.3975 330.88324Q393.48587 329.95517 394.25928 329.18176Q394.8338 328.60724 395.4967 328.40836Q396.15964 328.2095 396.86673 328.36417Q397.5849 328.5078 398.35828 328.97183Q399.13168 329.43588 400.19235 330.49655Q401.44083 331.74503 401.94907 332.7615Q402.4573 333.77795 402.3689 334.70602Q402.28052 335.63412 401.49606 336.41855Q400.4796 337.43503 399.15378 337.28033Q397.5628 337.10358 395.57407 335.11484ZM396.469 334.2199Q398.21466 335.96558 399.19797 336.1313Q400.1813 336.29703 400.77792 335.7004Q401.3856 335.09274 401.21985 334.1094Q401.0431 333.11505 399.30847 331.38043Q397.55176 329.62372 396.56842 329.45798Q395.5851 329.29224 394.9664 329.91098Q394.36975 330.5076 394.52444 331.3694Q394.72333 332.47424 396.469 334.2199ZM406.12543 335.47943L405.49564 334.84967L411.263 329.08234L411.89276 329.7121L406.12543 335.47943ZM413.66052 324.01105L412.7877 324.88388L407.2413 319.33752Q407.23026 319.9452 407.02036 320.77383Q406.81042 321.58035 406.5563 322.12173L405.7166 321.28204Q406.10333 320.21036 406.15857 319.18283Q406.22485 318.14426 405.98178 317.45926L406.54526 316.89578L413.66052 324.01105Z" fill-rule="nonzero"/><path fill="#000000" d="M433.45242 350.16293L434.2921 351.00262L429.60754 355.68723Q429.28714 355.38892 429.0993 354.9801Q428.81204 354.3172 428.7347 353.46646Q428.66843 352.60468 428.801 351.25674Q429.01093 349.14648 428.85623 348.1963Q428.71262 347.23508 428.21542 346.73788Q427.69614 346.2186 426.96695 346.24072Q426.24878 346.25177 425.6632 346.83734Q425.03345 347.4671 425.0224 348.22943Q425.0224 348.98074 425.69635 349.6547L424.702 350.4502Q423.79602 349.36743 423.87335 348.25156Q423.95068 347.11356 424.95612 346.10812Q425.9836 345.0806 427.13266 345.0585Q428.29276 345.02536 429.13245 345.86505Q429.56335 346.29596 429.79538 346.88153Q430.03842 347.45605 430.08264 348.31784Q430.13788 349.16858 429.99423 350.9032Q429.86166 352.3395 429.88376 352.80353Q429.8948 353.25653 429.9832 353.63217L433.45242 350.16293ZM431.88354 346.42853Q430.62402 345.169 430.11578 344.15253Q429.60754 343.11398 429.70697 342.19693Q429.79538 341.26886 430.56876 340.49545Q431.14328 339.92093 431.8062 339.72208Q432.46912 339.5232 433.1762 339.6779Q433.89438 339.8215 434.6678 340.28555Q435.44116 340.74957 436.50183 341.81024Q437.7503 343.05872 438.25854 344.0752Q438.76678 345.09164 438.6784 346.01974Q438.59 346.9478 437.80557 347.73227Q436.7891 348.74872 435.46326 348.59406Q433.87228 348.41727 431.88354 346.42853ZM432.77847 345.5336Q434.52414 347.27927 435.50748 347.445Q436.49078 347.61072 437.0874 347.0141Q437.69507 346.40643 437.52936 345.42313Q437.35257 344.42874 435.61795 342.69412Q433.86124 340.9374 432.8779 340.77167Q431.8946 340.60596 431.27588 341.22467Q430.67926 341.8213 430.83392 342.68307Q431.0328 343.78793 432.77847 345.5336ZM444.76614 338.84924L445.60583 339.68893L440.92126 344.3735Q440.60083 344.0752 440.41302 343.6664Q440.12576 343.00348 440.04843 342.15274Q439.98212 341.29095 440.11472 339.94302Q440.32462 337.83276 440.16995 336.8826Q440.0263 335.92136 439.52914 335.4242Q439.00986 334.9049 438.28064 334.927Q437.5625 334.93805 436.97693 335.52362Q436.34717 336.15338 436.33612 336.91574Q436.33612 337.66705 437.01007 338.341L436.0157 339.1365Q435.1097 338.05374 435.18707 336.93784Q435.2644 335.79984 436.2698 334.7944Q437.29733 333.7669 438.44638 333.7448Q439.60648 333.71167 440.44617 334.55136Q440.87704 334.98224 441.10907 335.5678Q441.35214 336.14233 441.39633 337.00412Q441.45157 337.85486 441.30795 339.58948Q441.17535 341.0258 441.19748 341.48984Q441.20853 341.9428 441.2969 342.31848L444.76614 338.84924ZM443.19727 335.11484Q441.9377 333.8553 441.42947 332.83884Q440.92126 331.80026 441.0207 330.88324Q441.10907 329.95517 441.88248 329.18176Q442.457 328.60724 443.1199 328.40836Q443.78284 328.20947 444.48993 328.36417Q445.2081 328.50778 445.98148 328.97183Q446.75488 329.43588 447.81555 330.49652Q449.06403 331.74503 449.57227 332.76147Q450.0805 333.77795 449.9921 334.70602Q449.90372 335.6341 449.11926 336.41855Q448.1028 337.43503 446.77698 337.28033Q445.186 337.10358 443.19727 335.11484ZM444.0922 334.21988Q445.83786 335.96558 446.82117 336.1313Q447.8045 336.29703 448.40112 335.7004Q449.0088 335.0927 448.84305 334.1094Q448.6663 333.11505 446.93167 331.38043Q445.17493 329.6237 444.19162 329.45798Q443.2083 329.29224 442.58957 329.91095Q441.99295 330.50757 442.14764 331.36935Q442.34653 332.4742 444.0922 334.21988ZM453.7486 335.47943L453.11884 334.84967L458.88617 329.0823L459.51596 329.7121L453.7486 335.47943ZM461.7367 321.87866L462.5764 322.71835L457.8918 327.40295Q457.5714 327.10464 457.38358 326.69583Q457.0963 326.03293 457.01898 325.1822Q456.9527 324.3204 457.08527 322.97247Q457.2952 320.8622 457.1405 319.91202Q456.9969 318.9508 456.4997 318.4536Q455.9804 317.93433 455.25122 317.95645Q454.53305 317.9675 453.94748 318.55307Q453.31772 319.18283 453.30667 319.94516Q453.30667 320.69647 453.98062 321.37042L452.98627 322.16592Q452.0803 321.08316 452.15762 319.9673Q452.23495 318.82928 453.2404 317.82385Q454.26788 316.79633 455.41693 316.77423Q456.57703 316.7411 457.41672 317.58078Q457.84763 318.0117 458.07965 318.59726Q458.3227 319.17178 458.3669 320.03357Q458.42215 320.8843 458.2785 322.61893Q458.14594 324.05524 458.16803 324.51926Q458.17908 324.97226 458.26746 325.3479L461.7367 321.87866Z" fill-rule="nonzero"/><path fill="#000000" d="M481.07562 350.16296L481.9153 351.00266L477.2307 355.68723Q476.9103 355.38892 476.72247 354.98013Q476.4352 354.3172 476.35788 353.46646Q476.2916 352.60468 476.42416 351.25677Q476.6341 349.14648 476.47943 348.19632Q476.3358 347.23508 475.8386 346.7379Q475.3193 346.21863 474.59012 346.24072Q473.87195 346.25177 473.28638 346.83734Q472.65662 347.4671 472.64557 348.22946Q472.64557 348.98077 473.31952 349.65472L472.32516 350.45023Q471.4192 349.36746 471.49652 348.25156Q471.57385 347.11356 472.57928 346.10815Q473.60678 345.08063 474.75586 345.05853Q475.91595 345.0254 476.75565 345.86508Q477.18652 346.29596 477.41855 346.88153Q477.66162 347.45605 477.7058 348.31784Q477.76105 349.16858 477.61743 350.9032Q477.48483 352.3395 477.50693 352.80356Q477.51797 353.25656 477.60635 353.6322L481.07562 350.16296ZM479.5067 346.42856Q478.2472 345.169 477.73895 344.15256Q477.2307 343.11398 477.33017 342.19696Q477.41855 341.2689 478.19196 340.49548Q478.76648 339.92096 479.42938 339.72208Q480.0923 339.5232 480.7994 339.6779Q481.51755 339.8215 482.29095 340.28555Q483.06436 340.7496 484.125 341.81024Q485.3735 343.05875 485.8817 344.0752Q486.38995 345.09167 486.30157 346.01974Q486.2132 346.9478 485.42874 347.73227Q484.41226 348.74875 483.08646 348.59406Q481.49545 348.4173 479.5067 346.42856ZM480.40164 345.5336Q482.1473 347.2793 483.13065 347.445Q484.11395 347.61075 484.71057 347.01413Q485.31824 346.40646 485.15253 345.42313Q484.97574 344.42877 483.24112 342.69415Q481.4844 340.9374 480.5011 340.7717Q479.51776 340.60596 478.89905 341.22467Q478.30243 341.8213 478.4571 342.6831Q478.65598 343.78793 480.40164 345.5336ZM492.3893 338.84924L493.229 339.68893L488.54443 344.3735Q488.22403 344.0752 488.0362 343.6664Q487.74893 343.0035 487.6716 342.15277Q487.6053 341.291 487.73788 339.94305Q487.9478 337.8328 487.79312 336.8826Q487.6495 335.9214 487.1523 335.4242Q486.63303 334.9049 485.90384 334.927Q485.18567 334.93805 484.6001 335.52362Q483.97034 336.1534 483.9593 336.91574Q483.9593 337.66705 484.63324 338.341L483.6389 339.1365Q482.73288 338.05374 482.81024 336.93784Q482.88757 335.79984 483.89297 334.79443Q484.9205 333.7669 486.06955 333.7448Q487.22964 333.71167 488.06934 334.55136Q488.50024 334.98227 488.73224 335.56784Q488.9753 336.14236 489.0195 337.00415Q489.07477 337.8549 488.93112 339.5895Q488.79855 341.02582 488.82065 341.48984Q488.8317 341.94284 488.92007 342.31848L492.3893 338.84924ZM497.59317 335.32477L496.72034 336.1976L491.17398 330.6512Q491.16293 331.2589 490.953 332.08752Q490.74307 332.89407 490.48898 333.43546L489.6493 332.59576Q490.03598 331.52405 490.09122 330.49655Q490.1575 329.45798 489.91446 328.77298L490.47794 328.2095L497.59317 335.32477ZM501.3718 335.47943L500.742 334.84967L506.50934 329.08237L507.1391 329.71213L501.3718 335.47943ZM508.90686 324.01108L508.03403 324.8839L502.48767 319.33755Q502.47662 319.94522 502.2667 320.77386Q502.05676 321.58038 501.80264 322.12177L500.96298 321.28207Q501.34967 320.2104 501.4049 319.18286Q501.4712 318.1443 501.22812 317.4593L501.7916 316.8958L508.90686 324.01108Z" fill-rule="nonzero"/><path fill="#000000" d="M528.6988 350.16293L529.5385 351.00262L524.85394 355.68723Q524.5335 355.38892 524.3457 354.9801Q524.0584 354.3172 523.9811 353.46646Q523.9148 352.60468 524.04736 351.25674Q524.25726 349.14648 524.1026 348.19632Q523.959 347.23508 523.4618 346.73788Q522.9425 346.21863 522.2133 346.24072Q521.4952 346.25177 520.9096 346.83734Q520.27985 347.4671 520.2688 348.22946Q520.2688 348.98074 520.94275 349.65472L519.94836 350.4502Q519.04236 349.36746 519.1197 348.25156Q519.1971 347.11356 520.20245 346.10812Q521.23 345.08063 522.379 345.05853Q523.5391 345.02536 524.37885 345.86505Q524.8097 346.29596 525.04175 346.88153Q525.2848 347.45605 525.329 348.31784Q525.3842 349.16858 525.2406 350.9032Q525.10803 352.3395 525.1301 352.80356Q525.1412 353.25653 525.22955 353.6322L528.6988 350.16293ZM527.12994 346.42853Q525.87036 345.169 525.3621 344.15253Q524.85394 343.11398 524.95337 342.19696Q525.04175 341.26886 525.8151 340.49548Q526.38965 339.92096 527.05255 339.72208Q527.7155 339.5232 528.4226 339.6779Q529.14075 339.8215 529.9141 340.28555Q530.68756 340.74957 531.7482 341.81024Q532.9967 343.05875 533.50494 344.0752Q534.0132 345.09167 533.92474 346.01974Q533.83636 346.9478 533.05194 347.73227Q532.03546 348.74872 530.70966 348.59406Q529.11865 348.41727 527.12994 346.42853ZM528.02484 345.5336Q529.7705 347.27927 530.75385 347.445Q531.7372 347.61075 532.3338 347.0141Q532.94147 346.40643 532.7757 345.42313Q532.59894 344.42874 530.8643 342.69412Q529.1076 340.9374 528.12427 340.7717Q527.141 340.60596 526.5222 341.22467Q525.9256 341.8213 526.0803 342.68307Q526.2792 343.78793 528.02484 345.5336ZM540.0125 338.84924L540.85223 339.68893L536.1676 344.3735Q535.8472 344.0752 535.65936 343.6664Q535.37213 343.00348 535.2948 342.15274Q535.2285 341.29095 535.3611 339.94305Q535.571 337.83276 535.4163 336.8826Q535.2727 335.9214 534.7755 335.4242Q534.2562 334.9049 533.52704 334.927Q532.80884 334.93805 532.22327 335.52362Q531.5935 336.15338 531.58246 336.91574Q531.58246 337.66705 532.2564 338.341L531.2621 339.1365Q530.3561 338.05374 530.4334 336.93784Q530.51074 335.79984 531.5162 334.79443Q532.5437 333.7669 533.69275 333.7448Q534.85284 333.71167 535.69257 334.55136Q536.1234 334.98224 536.35547 335.5678Q536.5985 336.14233 536.6427 337.00412Q536.69794 337.85486 536.5543 339.58948Q536.42175 341.0258 536.44385 341.48984Q536.4549 341.94284 536.5433 342.31848L540.0125 338.84924ZM545.2164 335.32477L544.34357 336.1976L538.7972 330.6512Q538.78613 331.25888 538.57623 332.08752Q538.3663 332.89407 538.1122 333.43546L537.27246 332.59576Q537.6592 331.52405 537.7144 330.49655Q537.7807 329.45798 537.53766 328.77298L538.10114 328.2095L545.2164 335.32477ZM548.995 335.47943L548.36523 334.84967L554.13257 329.08234L554.7623 329.7121L548.995 335.47943ZM556.9831 321.87866L557.82275 322.71835L553.1382 327.40295Q552.81775 327.10464 552.62994 326.69583Q552.3427 326.03293 552.2654 325.1822Q552.19904 324.3204 552.33167 322.97247Q552.54156 320.8622 552.3869 319.91205Q552.2432 318.9508 551.7461 318.4536Q551.2268 317.93436 550.49756 317.95645Q549.7794 317.9675 549.19385 318.55307Q548.5641 319.18283 548.55304 319.9452Q548.55304 320.69647 549.227 321.37045L548.2326 322.16592Q547.32666 321.0832 547.404 319.9673Q547.4813 318.82928 548.48676 317.82385Q549.5143 316.79636 550.6633 316.77426Q551.8234 316.7411 552.6631 317.58078Q553.094 318.0117 553.326 318.59726Q553.5691 319.17178 553.6133 320.03357Q553.6685 320.8843 553.5249 322.61893Q553.3923 324.05524 553.4144 324.5193Q553.4255 324.97226 553.51385 325.34793L556.9831 321.87866Z" fill-rule="nonzero"/><path fill="#4285f4" d="M210.0 102.916664C210.0 102.36438 210.44771 101.916664 211.0 101.916664L221.0 101.916664C221.55229 101.916664 222.0 102.36438 222.0 102.916664L222.0 112.916664C222.0 113.46895 221.55229 113.916664 221.0 113.916664L211.0 113.916664C210.44771 113.916664 210.0 113.46895 210.0 112.916664Z" fill-rule="nonzero"/><path stroke="#ffffff" stroke-width="3.0" stroke-linejoin="round" stroke-linecap="round" d="M233.9375 112.916664L230.0625 102.90104L231.5 102.90104L234.10938 110.18229Q234.42188 111.05729 234.625 111.822914Q234.85938 110.99479 235.17188 110.18229L237.875 102.90104L239.23438 102.90104L235.3125 112.916664L233.9375 112.916664ZM244.65625 112.02604Q243.98438 112.604164 243.34375 112.854164Q242.71875 113.08854 241.98438 113.08854Q240.79688 113.08854 240.14062 112.510414Q239.5 111.916664 239.5 110.99479Q239.5 110.46354 239.73438 110.02604Q239.98438 109.58854 240.375 109.322914Q240.78125 109.05729 241.26562 108.916664Q241.625 108.822914 242.35938 108.729164Q243.85938 108.55729 244.5625 108.30729Q244.5625 108.05729 244.5625 107.99479Q244.5625 107.229164 244.21875 106.93229Q243.75 106.510414 242.8125 106.510414Q241.95312 106.510414 241.53125 106.822914Q241.125 107.11979 240.92188 107.885414L239.71875 107.729164Q239.875 106.947914 240.25 106.479164Q240.64062 106.010414 241.34375 105.760414Q242.0625 105.49479 243.0 105.49479Q243.92188 105.49479 244.5 105.71354Q245.07812 105.93229 245.34375 106.260414Q245.625 106.58854 245.73438 107.104164Q245.79688 107.416664 245.79688 108.229164L245.79688 109.86979Q245.79688 111.58854 245.875 112.041664Q245.95312 112.49479 246.1875 112.916664L244.90625 112.916664Q244.71875 112.52604 244.65625 112.02604ZM244.5625 109.27604Q243.89062 109.541664 242.54688 109.74479Q241.79688 109.854164 241.46875 109.99479Q241.15625 110.11979 240.98438 110.385414Q240.8125 110.65104 240.8125 110.96354Q240.8125 111.46354 241.1875 111.791664Q241.5625 112.11979 242.28125 112.11979Q243.0 112.11979 243.54688 111.80729Q244.09375 111.49479 244.35938 110.947914Q244.5625 110.541664 244.5625 109.729164L244.5625 109.27604ZM252.64062 112.916664L252.64062 111.99479Q251.9375 113.08854 250.60938 113.08854Q249.73438 113.08854 249.0 112.604164Q248.28125 112.11979 247.875 111.260414Q247.48438 110.40104 247.48438 109.291664Q247.48438 108.21354 247.84375 107.322914Q248.20312 106.43229 248.92188 105.96354Q249.65625 105.49479 250.54688 105.49479Q251.20312 105.49479 251.71875 105.77604Q252.23438 106.041664 252.54688 106.49479L252.54688 102.90104L253.78125 102.90104L253.78125 112.916664L252.64062 112.916664ZM248.75 109.291664Q248.75 110.68229 249.32812 111.385414Q249.92188 112.072914 250.71875 112.072914Q251.53125 112.072914 252.09375 111.416664Q252.65625 110.74479 252.65625 109.40104Q252.65625 107.90104 252.07812 107.21354Q251.5 106.510414 250.67188 106.510414Q249.84375 106.510414 249.29688 107.18229Q248.75 107.854164 248.75 109.291664ZM260.89062 110.572914L262.17188 110.729164Q261.85938 111.854164 261.04688 112.479164Q260.23438 113.08854 258.96875 113.08854Q257.375 113.08854 256.4375 112.104164Q255.51562 111.11979 255.51562 109.354164Q255.51562 107.510414 256.45312 106.510414Q257.40625 105.49479 258.90625 105.49479Q260.35938 105.49479 261.28125 106.49479Q262.20312 107.479164 262.20312 109.27604Q262.20312 109.385414 262.20312 109.604164L256.78125 109.604164Q256.85938 110.791664 257.45312 111.43229Q258.0625 112.072914 258.98438 112.072914Q259.65625 112.072914 260.125 111.71354Q260.60938 111.354164 260.89062 110.572914ZM256.85938 108.58854L260.90625 108.58854Q260.82812 107.666664 260.4375 107.21354Q259.85938 106.510414 258.92188 106.510414Q258.0625 106.510414 257.48438 107.072914Q256.92188 107.635414 256.85938 108.58854ZM263.90625 112.916664L263.90625 105.65104L265.01562 105.65104L265.01562 106.760414Q265.4375 105.979164 265.79688 105.74479Q266.15625 105.49479 266.59375 105.49479Q267.21875 105.49479 267.85938 105.885414L267.4375 107.02604Q266.98438 106.760414 266.53125 106.760414Q266.125 106.760414 265.79688 107.010414Q265.48438 107.24479 265.34375 107.68229Q265.14062 108.33854 265.14062 109.11979L265.14062 112.916664L263.90625 112.916664Z" fill-rule="nonzero"/><path fill="#1a1a1a" d="M233.9375 112.916664L230.0625 102.90104L231.5 102.90104L234.10938 110.18229Q234.42188 111.05729 234.625 111.822914Q234.85938 110.99479 235.17188 110.18229L237.875 102.90104L239.23438 102.90104L235.3125 112.916664L233.9375 112.916664ZM244.65625 112.02604Q243.98438 112.604164 243.34375 112.854164Q242.71875 113.08854 241.98438 113.08854Q240.79688 113.08854 240.14062 112.510414Q239.5 111.916664 239.5 110.99479Q239.5 110.46354 239.73438 110.02604Q239.98438 109.58854 240.375 109.322914Q240.78125 109.05729 241.26562 108.916664Q241.625 108.822914 242.35938 108.729164Q243.85938 108.55729 244.5625 108.30729Q244.5625 108.05729 244.5625 107.99479Q244.5625 107.229164 244.21875 106.93229Q243.75 106.510414 242.8125 106.510414Q241.95312 106.510414 241.53125 106.822914Q241.125 107.11979 240.92188 107.885414L239.71875 107.729164Q239.875 106.947914 240.25 106.479164Q240.64062 106.010414 241.34375 105.760414Q242.0625 105.49479 243.0 105.49479Q243.92188 105.49479 244.5 105.71354Q245.07812 105.93229 245.34375 106.260414Q245.625 106.58854 245.73438 107.104164Q245.79688 107.416664 245.79688 108.229164L245.79688 109.86979Q245.79688 111.58854 245.875 112.041664Q245.95312 112.49479 246.1875 112.916664L244.90625 112.916664Q244.71875 112.52604 244.65625 112.02604ZM244.5625 109.27604Q243.89062 109.541664 242.54688 109.74479Q241.79688 109.854164 241.46875 109.99479Q241.15625 110.11979 240.98438 110.385414Q240.8125 110.65104 240.8125 110.96354Q240.8125 111.46354 241.1875 111.791664Q241.5625 112.11979 242.28125 112.11979Q243.0 112.11979 243.54688 111.80729Q244.09375 111.49479 244.35938 110.947914Q244.5625 110.541664 244.5625 109.729164L244.5625 109.27604ZM252.64062 112.916664L252.64062 111.99479Q251.9375 113.08854 250.60938 113.08854Q249.73438 113.08854 249.0 112.604164Q248.28125 112.11979 247.875 111.260414Q247.48438 110.40104 247.48438 109.291664Q247.48438 108.21354 247.84375 107.322914Q248.20312 106.43229 248.92188 105.96354Q249.65625 105.49479 250.54688 105.49479Q251.20312 105.49479 251.71875 105.77604Q252.23438 106.041664 252.54688 106.49479L252.54688 102.90104L253.78125 102.90104L253.78125 112.916664L252.64062 112.916664ZM248.75 109.291664Q248.75 110.68229 249.32812 111.385414Q249.92188 112.072914 250.71875 112.072914Q251.53125 112.072914 252.09375 111.416664Q252.65625 110.74479 252.65625 109.40104Q252.65625 107.90104 252.07812 107.21354Q251.5 106.510414 250.67188 106.510414Q249.84375 106.510414 249.29688 107.18229Q248.75 107.854164 248.75 109.291664ZM260.89062 110.572914L262.17188 110.729164Q261.85938 111.854164 261.04688 112.479164Q260.23438 113.08854 258.96875 113.08854Q257.375 113.08854 256.4375 112.104164Q255.51562 111.11979 255.51562 109.354164Q255.51562 107.510414 256.45312 106.510414Q257.40625 105.49479 258.90625 105.49479Q260.35938 105.49479 261.28125 106.49479Q262.20312 107.479164 262.20312 109.27604Q262.20312 109.385414 262.20312 109.604164L256.78125 109.604164Q256.85938 110.791664 257.45312 111.43229Q258.0625 112.072914 258.98438 112.072914Q259.65625 112.072914 260.125 111.71354Q260.60938 111.354164 260.89062 110.572914ZM256.85938 108.58854L260.90625 108.58854Q260.82812 107.666664 260.4375 107.21354Q259.85938 106.510414 258.92188 106.510414Q258.0625 106.510414 257.48438 107.072914Q256.92188 107.635414 256.85938 108.58854ZM263.90625 112.916664L263.90625 105.65104L265.01562 105.65104L265.01562 106.760414Q265.4375 105.979164 265.79688 105.74479Q266.15625 105.49479 266.59375 105.49479Q267.21875 105.49479 267.85938 105.885414L267.4375 107.02604Q266.98438 106.760414 266.53125 106.760414Q266.125 106.760414 265.79688 107.010414Q265.48438 107.24479 265.34375 107.68229Q265.14062 108.33854 265.14062 109.11979L265.14062 112.916664L263.90625 112.916664Z" fill-rule="nonzero"/><path fill="#ea4335" d="M284.0 102.916664C284.0 102.36438 284.44772 101.916664 285.0 101.916664L295.0 101.916664C295.55228 101.916664 296.0 102.36438 296.0 102.916664L296.0 112.916664C296.0 113.46895 295.55228 113.916664 295.0 113.916664L285.0 113.916664C284.44772 113.916664 284.0 113.46895 284.0 112.916664Z" fill-rule="nonzero"/><path stroke="#ffffff" stroke-width="3.0" stroke-linejoin="round" stroke-linecap="round" d="M307.625 112.916664L307.625 104.072914L304.32812 104.072914L304.32812 102.90104L312.26562 102.90104L312.26562 104.072914L308.95312 104.072914L308.95312 112.916664L307.625 112.916664ZM318.89062 110.572914L320.17188 110.729164Q319.85938 111.854164 319.04688 112.479164Q318.23438 113.08854 316.96875 113.08854Q315.375 113.08854 314.4375 112.104164Q313.51562 111.11979 313.51562 109.354164Q313.51562 107.510414 314.45312 106.510414Q315.40625 105.49479 316.90625 105.49479Q318.35938 105.49479 319.28125 106.49479Q320.20312 107.479164 320.20312 109.27604Q320.20312 109.385414 320.20312 109.604164L314.78125 109.604164Q314.85938 110.791664 315.45312 111.43229Q316.0625 112.072914 316.98438 112.072914Q317.65625 112.072914 318.125 111.71354Q318.60938 111.354164 318.89062 110.572914ZM314.85938 108.58854L318.90625 108.58854Q318.82812 107.666664 318.4375 107.21354Q317.85938 106.510414 316.92188 106.510414Q316.0625 106.510414 315.48438 107.072914Q314.92188 107.635414 314.85938 108.58854ZM321.10938 112.916664L323.75 109.135414L321.29688 105.65104L322.84375 105.65104L323.95312 107.354164Q324.26562 107.83854 324.45312 108.166664Q324.76562 107.71354 325.01562 107.36979L326.23438 105.65104L327.70312 105.65104L325.20312 109.072914L327.89062 112.916664L326.39062 112.916664L324.89062 110.666664L324.5 110.05729L322.59375 112.916664L321.10938 112.916664ZM330.60938 111.822914L330.78125 112.90104Q330.26562 113.010414 329.85938 113.010414Q329.1875 113.010414 328.8125 112.80729Q328.45312 112.58854 328.29688 112.24479Q328.15625 111.90104 328.15625 110.791664L328.15625 106.61979L327.25 106.61979L327.25 105.65104L328.15625 105.65104L328.15625 103.854164L329.375 103.11979L329.375 105.65104L330.60938 105.65104L330.60938 106.61979L329.375 106.61979L329.375 110.854164Q329.375 111.385414 329.4375 111.541664Q329.5 111.68229 329.64062 111.77604Q329.79688 111.86979 330.0625 111.86979Q330.28125 111.86979 330.60938 111.822914ZM338.04688 111.729164L338.04688 112.916664L331.42188 112.916664Q331.40625 112.479164 331.5625 112.05729Q331.82812 111.385414 332.375 110.729164Q332.9375 110.072914 333.98438 109.21354Q335.625 107.86979 336.1875 107.08854Q336.76562 106.30729 336.76562 105.604164Q336.76562 104.86979 336.23438 104.36979Q335.71875 103.86979 334.89062 103.86979Q334.0 103.86979 333.45312 104.40104Q332.92188 104.93229 332.92188 105.885414L331.65625 105.74479Q331.78125 104.33854 332.625 103.604164Q333.48438 102.854164 334.90625 102.854164Q336.35938 102.854164 337.1875 103.65104Q338.03125 104.447914 338.03125 105.635414Q338.03125 106.24479 337.78125 106.822914Q337.54688 107.40104 336.96875 108.041664Q336.40625 108.68229 335.07812 109.80729Q333.96875 110.729164 333.65625 111.072914Q333.34375 111.40104 333.14062 111.729164L338.04688 111.729164ZM340.10938 112.916664L340.10938 102.90104L347.35938 102.90104L347.35938 104.072914L341.4375 104.072914L341.4375 107.15104L346.98438 107.15104L346.98438 108.322914L341.4375 108.322914L341.4375 111.729164L347.59375 111.729164L347.59375 112.916664L340.10938 112.916664ZM348.92188 112.916664L348.92188 105.65104L350.03125 105.65104L350.03125 106.68229Q350.35938 106.135414 350.92188 105.822914Q351.5 105.49479 352.21875 105.49479Q353.03125 105.49479 353.54688 105.83854Q354.0625 106.166664 354.28125 106.760414Q355.14062 105.49479 356.51562 105.49479Q357.59375 105.49479 358.17188 106.08854Q358.76562 106.68229 358.76562 107.93229L358.76562 112.916664L357.53125 112.916664L357.53125 108.33854Q357.53125 107.604164 357.40625 107.27604Q357.29688 106.947914 356.98438 106.760414Q356.67188 106.55729 356.25 106.55729Q355.48438 106.55729 354.96875 107.072914Q354.46875 107.572914 354.46875 108.697914L354.46875 112.916664L353.23438 112.916664L353.23438 108.197914Q353.23438 107.385414 352.9375 106.979164Q352.64062 106.55729 351.95312 106.55729Q351.4375 106.55729 350.98438 106.83854Q350.54688 107.104164 350.34375 107.635414Q350.15625 108.15104 350.15625 109.15104L350.15625 112.916664L348.92188 112.916664ZM359.46875 109.291664Q359.46875 107.27604 360.59375 106.291664Q361.51562 105.49479 362.875 105.49479Q364.35938 105.49479 365.3125 106.479164Q366.26562 107.447914 366.26562 109.18229Q366.26562 110.58854 365.84375 111.40104Q365.42188 112.197914 364.60938 112.65104Q363.8125 113.08854 362.875 113.08854Q361.34375 113.08854 360.40625 112.104164Q359.46875 111.11979 359.46875 109.291664ZM360.73438 109.291664Q360.73438 110.68229 361.34375 111.385414Q361.95312 112.072914 362.875 112.072914Q363.78125 112.072914 364.39062 111.36979Q365.0 110.666664 365.0 109.24479Q365.0 107.90104 364.39062 107.21354Q363.78125 106.510414 362.875 106.510414Q361.95312 106.510414 361.34375 107.197914Q360.73438 107.885414 360.73438 109.291664ZM370.60938 111.822914L370.78125 112.90104Q370.26562 113.010414 369.85938 113.010414Q369.1875 113.010414 368.8125 112.80729Q368.45312 112.58854 368.29688 112.24479Q368.15625 111.90104 368.15625 110.791664L368.15625 106.61979L367.25 106.61979L367.25 105.65104L368.15625 105.65104L368.15625 103.854164L369.375 103.11979L369.375 105.65104L370.60938 105.65104L370.60938 106.61979L369.375 106.61979L369.375 110.854164Q369.375 111.385414 369.4375 111.541664Q369.5 111.68229 369.64062 111.77604Q369.79688 111.86979 370.0625 111.86979Q370.28125 111.86979 370.60938 111.822914ZM371.9375 104.30729L371.9375 102.90104L373.15625 102.90104L373.15625 104.30729L371.9375 104.30729ZM371.9375 112.916664L371.9375 105.65104L373.15625 105.65104L373.15625 112.916664L371.9375 112.916664ZM374.46875 109.291664Q374.46875 107.27604 375.59375 106.291664Q376.51562 105.49479 377.875 105.49479Q379.35938 105.49479 380.3125 106.479164Q381.26562 107.447914 381.26562 109.18229Q381.26562 110.58854 380.84375 111.40104Q380.42188 112.197914 379.60938 112.65104Q378.8125 113.08854 377.875 113.08854Q376.34375 113.08854 375.40625 112.104164Q374.46875 111.11979 374.46875 109.291664ZM375.73438 109.291664Q375.73438 110.68229 376.34375 111.385414Q376.95312 112.072914 377.875 112.072914Q378.78125 112.072914 379.39062 111.36979Q380.0 110.666664 380.0 109.24479Q380.0 107.90104 379.39062 107.21354Q378.78125 106.510414 377.875 106.510414Q376.95312 106.510414 376.34375 107.197914Q375.73438 107.885414 375.73438 109.291664ZM382.92188 112.916664L382.92188 105.65104L384.03125 105.65104L384.03125 106.68229Q384.82812 105.49479 386.34375 105.49479Q387.0 105.49479 387.54688 105.729164Q388.09375 105.96354 388.35938 106.354164Q388.64062 106.729164 388.75 107.260414Q388.82812 107.604164 388.82812 108.447914L388.82812 112.916664L387.59375 112.916664L387.59375 108.49479Q387.59375 107.74479 387.45312 107.385414Q387.3125 107.010414 386.9375 106.791664Q386.57812 106.55729 386.07812 106.55729Q385.29688 106.55729 384.71875 107.05729Q384.15625 107.55729 384.15625 108.947914L384.15625 112.916664L382.92188 112.916664Z" fill-rule="nonzero"/><path fill="#1a1a1a" d="M307.625 112.916664L307.625 104.072914L304.32812 104.072914L304.32812 102.90104L312.26562 102.90104L312.26562 104.072914L308.95312 104.072914L308.95312 112.916664L307.625 112.916664ZM318.89062 110.572914L320.17188 110.729164Q319.85938 111.854164 319.04688 112.479164Q318.23438 113.08854 316.96875 113.08854Q315.375 113.08854 314.4375 112.104164Q313.51562 111.11979 313.51562 109.354164Q313.51562 107.510414 314.45312 106.510414Q315.40625 105.49479 316.90625 105.49479Q318.35938 105.49479 319.28125 106.49479Q320.20312 107.479164 320.20312 109.27604Q320.20312 109.385414 320.20312 109.604164L314.78125 109.604164Q314.85938 110.791664 315.45312 111.43229Q316.0625 112.072914 316.98438 112.072914Q317.65625 112.072914 318.125 111.71354Q318.60938 111.354164 318.89062 110.572914ZM314.85938 108.58854L318.90625 108.58854Q318.82812 107.666664 318.4375 107.21354Q317.85938 106.510414 316.92188 106.510414Q316.0625 106.510414 315.48438 107.072914Q314.92188 107.635414 314.85938 108.58854ZM321.10938 112.916664L323.75 109.135414L321.29688 105.65104L322.84375 105.65104L323.95312 107.354164Q324.26562 107.83854 324.45312 108.166664Q324.76562 107.71354 325.01562 107.36979L326.23438 105.65104L327.70312 105.65104L325.20312 109.072914L327.89062 112.916664L326.39062 112.916664L324.89062 110.666664L324.5 110.05729L322.59375 112.916664L321.10938 112.916664ZM330.60938 111.822914L330.78125 112.90104Q330.26562 113.010414 329.85938 113.010414Q329.1875 113.010414 328.8125 112.80729Q328.45312 112.58854 328.29688 112.24479Q328.15625 111.90104 328.15625 110.791664L328.15625 106.61979L327.25 106.61979L327.25 105.65104L328.15625 105.65104L328.15625 103.854164L329.375 103.11979L329.375 105.65104L330.60938 105.65104L330.60938 106.61979L329.375 106.61979L329.375 110.854164Q329.375 111.385414 329.4375 111.541664Q329.5 111.68229 329.64062 111.77604Q329.79688 111.86979 330.0625 111.86979Q330.28125 111.86979 330.60938 111.822914ZM338.04688 111.729164L338.04688 112.916664L331.42188 112.916664Q331.40625 112.479164 331.5625 112.05729Q331.82812 111.385414 332.375 110.729164Q332.9375 110.072914 333.98438 109.21354Q335.625 107.86979 336.1875 107.08854Q336.76562 106.30729 336.76562 105.604164Q336.76562 104.86979 336.23438 104.36979Q335.71875 103.86979 334.89062 103.86979Q334.0 103.86979 333.45312 104.40104Q332.92188 104.93229 332.92188 105.885414L331.65625 105.74479Q331.78125 104.33854 332.625 103.604164Q333.48438 102.854164 334.90625 102.854164Q336.35938 102.854164 337.1875 103.65104Q338.03125 104.447914 338.03125 105.635414Q338.03125 106.24479 337.78125 106.822914Q337.54688 107.40104 336.96875 108.041664Q336.40625 108.68229 335.07812 109.80729Q333.96875 110.729164 333.65625 111.072914Q333.34375 111.40104 333.14062 111.729164L338.04688 111.729164ZM340.10938 112.916664L340.10938 102.90104L347.35938 102.90104L347.35938 104.072914L341.4375 104.072914L341.4375 107.15104L346.98438 107.15104L346.98438 108.322914L341.4375 108.322914L341.4375 111.729164L347.59375 111.729164L347.59375 112.916664L340.10938 112.916664ZM348.92188 112.916664L348.92188 105.65104L350.03125 105.65104L350.03125 106.68229Q350.35938 106.135414 350.92188 105.822914Q351.5 105.49479 352.21875 105.49479Q353.03125 105.49479 353.54688 105.83854Q354.0625 106.166664 354.28125 106.760414Q355.14062 105.49479 356.51562 105.49479Q357.59375 105.49479 358.17188 106.08854Q358.76562 106.68229 358.76562 107.93229L358.76562 112.916664L357.53125 112.916664L357.53125 108.33854Q357.53125 107.604164 357.40625 107.27604Q357.29688 106.947914 356.98438 106.760414Q356.67188 106.55729 356.25 106.55729Q355.48438 106.55729 354.96875 107.072914Q354.46875 107.572914 354.46875 108.697914L354.46875 112.916664L353.23438 112.916664L353.23438 108.197914Q353.23438 107.385414 352.9375 106.979164Q352.64062 106.55729 351.95312 106.55729Q351.4375 106.55729 350.98438 106.83854Q350.54688 107.104164 350.34375 107.635414Q350.15625 108.15104 350.15625 109.15104L350.15625 112.916664L348.92188 112.916664ZM359.46875 109.291664Q359.46875 107.27604 360.59375 106.291664Q361.51562 105.49479 362.875 105.49479Q364.35938 105.49479 365.3125 106.479164Q366.26562 107.447914 366.26562 109.18229Q366.26562 110.58854 365.84375 111.40104Q365.42188 112.197914 364.60938 112.65104Q363.8125 113.08854 362.875 113.08854Q361.34375 113.08854 360.40625 112.104164Q359.46875 111.11979 359.46875 109.291664ZM360.73438 109.291664Q360.73438 110.68229 361.34375 111.385414Q361.95312 112.072914 362.875 112.072914Q363.78125 112.072914 364.39062 111.36979Q365.0 110.666664 365.0 109.24479Q365.0 107.90104 364.39062 107.21354Q363.78125 106.510414 362.875 106.510414Q361.95312 106.510414 361.34375 107.197914Q360.73438 107.885414 360.73438 109.291664ZM370.60938 111.822914L370.78125 112.90104Q370.26562 113.010414 369.85938 113.010414Q369.1875 113.010414 368.8125 112.80729Q368.45312 112.58854 368.29688 112.24479Q368.15625 111.90104 368.15625 110.791664L368.15625 106.61979L367.25 106.61979L367.25 105.65104L368.15625 105.65104L368.15625 103.854164L369.375 103.11979L369.375 105.65104L370.60938 105.65104L370.60938 106.61979L369.375 106.61979L369.375 110.854164Q369.375 111.385414 369.4375 111.541664Q369.5 111.68229 369.64062 111.77604Q369.79688 111.86979 370.0625 111.86979Q370.28125 111.86979 370.60938 111.822914ZM371.9375 104.30729L371.9375 102.90104L373.15625 102.90104L373.15625 104.30729L371.9375 104.30729ZM371.9375 112.916664L371.9375 105.65104L373.15625 105.65104L373.15625 112.916664L371.9375 112.916664ZM374.46875 109.291664Q374.46875 107.27604 375.59375 106.291664Q376.51562 105.49479 377.875 105.49479Q379.35938 105.49479 380.3125 106.479164Q381.26562 107.447914 381.26562 109.18229Q381.26562 110.58854 380.84375 111.40104Q380.42188 112.197914 379.60938 112.65104Q378.8125 113.08854 377.875 113.08854Q376.34375 113.08854 375.40625 112.104164Q374.46875 111.11979 374.46875 109.291664ZM375.73438 109.291664Q375.73438 110.68229 376.34375 111.385414Q376.95312 112.072914 377.875 112.072914Q378.78125 112.072914 379.39062 111.36979Q380.0 110.666664 380.0 109.24479Q380.0 107.90104 379.39062 107.21354Q378.78125 106.510414 377.875 106.510414Q376.95312 106.510414 376.34375 107.197914Q375.73438 107.885414 375.73438 109.291664ZM382.92188 112.916664L382.92188 105.65104L384.03125 105.65104L384.03125 106.68229Q384.82812 105.49479 386.34375 105.49479Q387.0 105.49479 387.54688 105.729164Q388.09375 105.96354 388.35938 106.354164Q388.64062 106.729164 388.75 107.260414Q388.82812 107.604164 388.82812 108.447914L388.82812 112.916664L387.59375 112.916664L387.59375 108.49479Q387.59375 107.74479 387.45312 107.385414Q387.3125 107.010414 386.9375 106.791664Q386.57812 106.55729 386.07812 106.55729Q385.29688 106.55729 384.71875 107.05729Q384.15625 107.55729 384.15625 108.947914L384.15625 112.916664L382.92188 112.916664Z" fill-rule="nonzero"/><path fill="#999999" d="M266.26562 68.55L264.04688 61.284378L265.3125 61.284378L266.46875 65.4875L266.90625 67.03438Q266.92188 66.925 267.28125 65.53438L268.4375 61.284378L269.6875 61.284378L270.78125 65.50313L271.14062 66.89375L271.5625 65.4875L272.8125 61.284378L274.0 61.284378L271.73438 68.55L270.45312 68.55L269.29688 64.20625L269.01562 62.971878L267.54688 68.55L266.26562 68.55ZM280.60938 67.45625L280.78125 68.53438Q280.26562 68.64375 279.85938 68.64375Q279.1875 68.64375 278.8125 68.44063Q278.45312 68.22188 278.29688 67.87813Q278.15625 67.53438 278.15625 66.425L278.15625 62.253128L277.25 62.253128L277.25 61.284378L278.15625 61.284378L278.15625 59.487503L279.375 58.753128L279.375 61.284378L280.60938 61.284378L280.60938 62.253128L279.375 62.253128L279.375 66.4875Q279.375 67.01875 279.4375 67.175Q279.5 67.31563 279.64062 67.40938Q279.79688 67.50313 280.0625 67.50313Q280.28125 67.50313 280.60938 67.45625ZM281.875 71.34688L281.73438 70.19063Q282.14062 70.3 282.4375 70.3Q282.84375 70.3 283.09375 70.15938Q283.34375 70.03438 283.5 69.78438Q283.60938 69.59688 283.875 68.8625Q283.90625 68.76875 283.98438 68.56563L281.21875 61.284378L282.54688 61.284378L284.0625 65.4875Q284.35938 66.3 284.59375 67.175Q284.79688 66.33125 285.09375 65.51875L286.64062 61.284378L287.875 61.284378L285.10938 68.675Q284.67188 69.8625 284.42188 70.31563Q284.09375 70.925 283.67188 71.20625Q283.25 71.50313 282.65625 71.50313Q282.3125 71.50313 281.875 71.34688ZM288.4375 66.37813L289.64062 66.19063Q289.75 66.925 290.21875 67.31563Q290.6875 67.70625 291.53125 67.70625Q292.375 67.70625 292.78125 67.3625Q293.20312 67.01875 293.20312 66.55Q293.20312 66.12813 292.82812 65.89375Q292.57812 65.72188 291.57812 65.47188Q290.21875 65.12813 289.6875 64.87813Q289.17188 64.62813 288.90625 64.19063Q288.64062 63.753128 288.64062 63.221878Q288.64062 62.737503 288.85938 62.331253Q289.07812 61.909378 289.46875 61.628128Q289.75 61.425003 290.23438 61.284378Q290.73438 61.128128 291.3125 61.128128Q292.15625 61.128128 292.79688 61.378128Q293.45312 61.612503 293.76562 62.034378Q294.07812 62.456253 294.1875 63.159378L292.98438 63.331253Q292.90625 62.768753 292.5 62.456253Q292.10938 62.143753 291.39062 62.143753Q290.54688 62.143753 290.1875 62.425003Q289.82812 62.690628 289.82812 63.081253Q289.82812 63.315628 289.96875 63.503128Q290.125 63.706253 290.45312 63.831253Q290.625 63.893753 291.53125 64.14375Q292.84375 64.50313 293.35938 64.72188Q293.875 64.94063 294.15625 65.3625Q294.45312 65.78438 294.45312 66.40938Q294.45312 67.03438 294.09375 67.58125Q293.75 68.1125 293.0625 68.425Q292.39062 68.72188 291.53125 68.72188Q290.125 68.72188 289.375 68.12813Q288.64062 67.53438 288.4375 66.37813ZM295.9375 59.940628L295.9375 58.534378L297.15625 58.534378L297.15625 59.940628L295.9375 59.940628ZM295.9375 68.55L295.9375 61.284378L297.15625 61.284378L297.15625 68.55L295.9375 68.55ZM303.65625 67.65938Q302.98438 68.2375 302.34375 68.4875Q301.71875 68.72188 300.98438 68.72188Q299.79688 68.72188 299.14062 68.14375Q298.5 67.55 298.5 66.62813Q298.5 66.09688 298.73438 65.65938Q298.98438 65.22188 299.375 64.95625Q299.78125 64.69063 300.26562 64.55Q300.625 64.45625 301.35938 64.3625Q302.85938 64.19063 303.5625 63.940628Q303.5625 63.690628 303.5625 63.628128Q303.5625 62.862503 303.21875 62.565628Q302.75 62.143753 301.8125 62.143753Q300.95312 62.143753 300.53125 62.456253Q300.125 62.753128 299.92188 63.518753L298.71875 63.362503Q298.875 62.581253 299.25 62.112503Q299.64062 61.643753 300.34375 61.393753Q301.0625 61.128128 302.0 61.128128Q302.92188 61.128128 303.5 61.346878Q304.07812 61.565628 304.34375 61.893753Q304.625 62.221878 304.73438 62.737503Q304.79688 63.050003 304.79688 63.862503L304.79688 65.50313Q304.79688 67.22188 304.875 67.675Q304.95312 68.12813 305.1875 68.55L303.90625 68.55Q303.71875 68.15938 303.65625 67.65938ZM303.5625 64.90938Q302.89062 65.175 301.54688 65.37813Q300.79688 65.4875 300.46875 65.62813Q300.15625 65.75313 299.98438 66.01875Q299.8125 66.28438 299.8125 66.59688Q299.8125 67.09688 300.1875 67.425Q300.5625 67.75313 301.28125 67.75313Q302.0 67.75313 302.54688 67.44063Q303.09375 67.12813 303.35938 66.58125Q303.5625 66.175 303.5625 65.3625L303.5625 64.90938ZM304.9375 68.55Q304.54688 68.78438 304.32812 69.12813Q304.10938 69.4875 304.10938 69.8625Q304.10938 70.14375 304.26562 70.33125Q304.4375 70.53438 304.78125 70.53438Q304.9375 70.53438 305.09375 70.4875Q305.26562 70.45625 305.40625 70.37813L305.40625 71.25313Q304.90625 71.4875 304.48438 71.4875Q304.125 71.4875 303.85938 71.37813Q303.60938 71.28438 303.4375 71.1125Q303.26562 70.94063 303.17188 70.70625Q303.09375 70.4875 303.09375 70.2375Q303.09375 69.8 303.32812 69.34688Q303.57812 68.90938 304.03125 68.55L304.9375 68.55ZM311.65625 65.89375L312.875 66.05Q312.67188 67.3 311.84375 68.01875Q311.03125 68.72188 309.84375 68.72188Q308.35938 68.72188 307.45312 67.75313Q306.54688 66.76875 306.54688 64.94063Q306.54688 63.768753 306.9375 62.893753Q307.32812 62.003128 308.125 61.565628Q308.92188 61.128128 309.85938 61.128128Q311.03125 61.128128 311.78125 61.721878Q312.54688 62.315628 312.75 63.425003L311.5625 63.612503Q311.39062 62.878128 310.95312 62.518753Q310.51562 62.143753 309.90625 62.143753Q308.96875 62.143753 308.39062 62.815628Q307.8125 63.471878 307.8125 64.90938Q307.8125 66.37813 308.375 67.05Q308.9375 67.70625 309.82812 67.70625Q310.5625 67.70625 311.04688 67.26875Q311.53125 66.81563 311.65625 65.89375ZM318.65625 67.65938Q317.98438 68.2375 317.34375 68.4875Q316.71875 68.72188 315.98438 68.72188Q314.79688 68.72188 314.14062 68.14375Q313.5 67.55 313.5 66.62813Q313.5 66.09688 313.73438 65.65938Q313.98438 65.22188 314.375 64.95625Q314.78125 64.69063 315.26562 64.55Q315.625 64.45625 316.35938 64.3625Q317.85938 64.19063 318.5625 63.940628Q318.5625 63.690628 318.5625 63.628128Q318.5625 62.862503 318.21875 62.565628Q317.75 62.143753 316.8125 62.143753Q315.95312 62.143753 315.53125 62.456253Q315.125 62.753128 314.92188 63.518753L313.71875 63.362503Q313.875 62.581253 314.25 62.112503Q314.64062 61.643753 315.34375 61.393753Q316.0625 61.128128 317.0 61.128128Q317.92188 61.128128 318.5 61.346878Q319.07812 61.565628 319.34375 61.893753Q319.625 62.221878 319.73438 62.737503Q319.79688 63.050003 319.79688 63.862503L319.79688 65.50313Q319.79688 67.22188 319.875 67.675Q319.95312 68.12813 320.1875 68.55L318.90625 68.55Q318.71875 68.15938 318.65625 67.65938ZM318.5625 64.90938Q317.89062 65.175 316.54688 65.37813Q315.79688 65.4875 315.46875 65.62813Q315.15625 65.75313 314.98438 66.01875Q314.8125 66.28438 314.8125 66.59688Q314.8125 67.09688 315.1875 67.425Q315.5625 67.75313 316.28125 67.75313Q317.0 67.75313 317.54688 67.44063Q318.09375 67.12813 318.35938 66.58125Q318.5625 66.175 318.5625 65.3625L318.5625 64.90938ZM326.65625 65.89375L327.875 66.05Q327.67188 67.3 326.84375 68.01875Q326.03125 68.72188 324.84375 68.72188Q323.35938 68.72188 322.45312 67.75313Q321.54688 66.76875 321.54688 64.94063Q321.54688 63.768753 321.9375 62.893753Q322.32812 62.003128 323.125 61.565628Q323.92188 61.128128 324.85938 61.128128Q326.03125 61.128128 326.78125 61.721878Q327.54688 62.315628 327.75 63.425003L326.5625 63.612503Q326.39062 62.878128 325.95312 62.518753Q325.51562 62.143753 324.90625 62.143753Q323.96875 62.143753 323.39062 62.815628Q322.8125 63.471878 322.8125 64.90938Q322.8125 66.37813 323.375 67.05Q323.9375 67.70625 324.82812 67.70625Q325.5625 67.70625 326.04688 67.26875Q326.53125 66.81563 326.65625 65.89375ZM328.92188 68.55L328.92188 58.534378L330.15625 58.534378L330.15625 62.128128Q331.01562 61.128128 332.32812 61.128128Q333.14062 61.128128 333.73438 61.456253Q334.32812 61.768753 334.57812 62.331253Q334.84375 62.878128 334.84375 63.956253L334.84375 68.55L333.60938 68.55L333.60938 63.956253Q333.60938 63.018753 333.20312 62.612503Q332.8125 62.190628 332.07812 62.190628Q331.53125 62.190628 331.04688 62.471878Q330.5625 62.753128 330.35938 63.237503Q330.15625 63.721878 330.15625 64.58125L330.15625 68.55L328.92188 68.55Z" fill-rule="nonzero"/><path fill="#757575" d="M205.85938 40.55L205.85938 23.3625L212.32812 23.3625Q214.04688 23.3625 214.95312 23.534374Q216.21875 23.7375 217.0625 24.33125Q217.92188 24.925 218.4375 26.003124Q218.96875 27.065624 218.96875 28.33125Q218.96875 30.534374 217.5625 32.05Q216.17188 33.565624 212.53125 33.565624L208.125 33.565624L208.125 40.55L205.85938 40.55ZM208.125 31.534374L212.5625 31.534374Q214.76562 31.534374 215.6875 30.721874Q216.625 29.89375 216.625 28.409374Q216.625 27.33125 216.07812 26.565624Q215.53125 25.8 214.64062 25.55Q214.0625 25.39375 212.51562 25.39375L208.125 25.39375L208.125 31.534374ZM220.79688 34.33125Q220.79688 30.8625 222.71875 29.20625Q224.32812 27.815624 226.64062 27.815624Q229.20312 27.815624 230.82812 29.503124Q232.45312 31.190624 232.45312 34.14375Q232.45312 36.55 231.73438 37.925Q231.01562 39.3 229.64062 40.065624Q228.26562 40.83125 226.64062 40.83125Q224.01562 40.83125 222.40625 39.159374Q220.79688 37.471874 220.79688 34.33125ZM222.96875 34.33125Q222.96875 36.721874 224.0 37.909374Q225.04688 39.096874 226.64062 39.096874Q228.20312 39.096874 229.25 37.909374Q230.29688 36.70625 230.29688 34.253124Q230.29688 31.940624 229.23438 30.753124Q228.1875 29.565624 226.64062 29.565624Q225.04688 29.565624 224.0 30.753124Q222.96875 31.940624 222.96875 34.33125ZM233.46875 40.55L233.46875 38.83125L241.39062 29.7375Q240.04688 29.815624 239.01562 29.815624L233.9375 29.815624L233.9375 28.096874L244.10938 28.096874L244.10938 29.503124L237.375 37.39375L236.07812 38.83125Q237.48438 38.7375 238.73438 38.7375L244.48438 38.7375L244.48438 40.55L233.46875 40.55ZM246.48438 45.346874L246.25 43.3625Q246.95312 43.55 247.46875 43.55Q248.17188 43.55 248.59375 43.315624Q249.01562 43.08125 249.28125 42.659374Q249.48438 42.346874 249.92188 41.096874Q249.98438 40.909374 250.10938 40.58125L245.39062 28.096874L247.65625 28.096874L250.25 35.315624Q250.75 36.675 251.15625 38.190624Q251.51562 36.7375 252.01562 35.3625L254.6875 28.096874L256.79688 28.096874L252.0625 40.76875Q251.29688 42.815624 250.875 43.58125Q250.3125 44.628124 249.57812 45.1125Q248.85938 45.596874 247.84375 45.596874Q247.23438 45.596874 246.48438 45.346874ZM263.1875 38.659374L263.5 40.51875Q262.60938 40.721874 261.90625 40.721874Q260.75 40.721874 260.10938 40.3625Q259.48438 39.9875 259.21875 39.39375Q258.96875 38.8 258.96875 36.909374L258.96875 29.7375L257.42188 29.7375L257.42188 28.096874L258.96875 28.096874L258.96875 25.01875L261.0625 23.753124L261.0625 28.096874L263.1875 28.096874L263.1875 29.7375L261.0625 29.7375L261.0625 37.01875Q261.0625 37.925 261.17188 38.190624Q261.29688 38.440624 261.54688 38.596874Q261.79688 38.7375 262.26562 38.7375Q262.60938 38.7375 263.1875 38.659374ZM265.48438 45.346874L265.25 43.3625Q265.95312 43.55 266.46875 43.55Q267.17188 43.55 267.59375 43.315624Q268.01562 43.08125 268.28125 42.659374Q268.48438 42.346874 268.92188 41.096874Q268.98438 40.909374 269.10938 40.58125L264.39062 28.096874L266.65625 28.096874L269.25 35.315624Q269.75 36.675 270.15625 38.190624Q270.51562 36.7375 271.01562 35.3625L273.6875 28.096874L275.79688 28.096874L271.0625 40.76875Q270.29688 42.815624 269.875 43.58125Q269.3125 44.628124 268.57812 45.1125Q267.85938 45.596874 266.84375 45.596874Q266.23438 45.596874 265.48438 45.346874ZM279.875 40.55L276.07812 28.096874L278.25 28.096874L280.23438 35.284374L280.96875 37.95625Q281.01562 37.753124 281.60938 35.39375L283.59375 28.096874L285.76562 28.096874L287.625 35.315624L288.25 37.70625L288.96875 35.3L291.09375 28.096874L293.14062 28.096874L289.25 40.55L287.0625 40.55L285.07812 33.096874L284.60938 30.971874L282.07812 40.55L279.875 40.55ZM294.57812 40.55L294.57812 28.096874L296.48438 28.096874L296.48438 29.878124Q297.85938 27.815624 300.4375 27.815624Q301.5625 27.815624 302.5 28.221874Q303.45312 28.628124 303.92188 29.284374Q304.39062 29.940624 304.57812 30.846874Q304.70312 31.425 304.70312 32.89375L304.70312 40.55L302.59375 40.55L302.59375 32.971874Q302.59375 31.690624 302.34375 31.05Q302.09375 30.409374 301.46875 30.034374Q300.84375 29.64375 300.0 29.64375Q298.65625 29.64375 297.67188 30.503124Q296.6875 31.3625 296.6875 33.753124L296.6875 40.55L294.57812 40.55ZM317.10938 36.534374L319.28125 36.815624Q318.76562 38.721874 317.375 39.784374Q315.98438 40.83125 313.8125 40.83125Q311.07812 40.83125 309.46875 39.159374Q307.875 37.471874 307.875 34.425Q307.875 31.284374 309.48438 29.55Q311.10938 27.815624 313.6875 27.815624Q316.1875 27.815624 317.76562 29.51875Q319.35938 31.221874 319.35938 34.3Q319.35938 34.4875 319.34375 34.8625L310.0625 34.8625Q310.17188 36.909374 311.21875 38.003124Q312.26562 39.096874 313.82812 39.096874Q314.98438 39.096874 315.79688 38.4875Q316.625 37.878124 317.10938 36.534374ZM310.17188 33.128124L317.125 33.128124Q316.98438 31.565624 316.32812 30.76875Q315.32812 29.55 313.71875 29.55Q312.26562 29.55 311.26562 30.534374Q310.28125 31.503124 310.17188 33.128124ZM333.1875 38.659374L333.5 40.51875Q332.60938 40.721874 331.90625 40.721874Q330.75 40.721874 330.10938 40.3625Q329.48438 39.9875 329.21875 39.39375Q328.96875 38.8 328.96875 36.909374L328.96875 29.7375L327.42188 29.7375L327.42188 28.096874L328.96875 28.096874L328.96875 25.01875L331.0625 23.753124L331.0625 28.096874L333.1875 28.096874L333.1875 29.7375L331.0625 29.7375L331.0625 37.01875Q331.0625 37.925 331.17188 38.190624Q331.29688 38.440624 331.54688 38.596874Q331.79688 38.7375 332.26562 38.7375Q332.60938 38.7375 333.1875 38.659374ZM337.875 40.55L334.07812 28.096874L336.25 28.096874L338.23438 35.284374L338.96875 37.95625Q339.01562 37.753124 339.60938 35.39375L341.59375 28.096874L343.76562 28.096874L345.625 35.315624L346.25 37.70625L346.96875 35.3L349.09375 28.096874L351.14062 28.096874L347.25 40.55L345.0625 40.55L343.07812 33.096874L342.60938 30.971874L340.07812 40.55L337.875 40.55ZM361.10938 36.534374L363.28125 36.815624Q362.76562 38.721874 361.375 39.784374Q359.98438 40.83125 357.8125 40.83125Q355.07812 40.83125 353.46875 39.159374Q351.875 37.471874 351.875 34.425Q351.875 31.284374 353.48438 29.55Q355.10938 27.815624 357.6875 27.815624Q360.1875 27.815624 361.76562 29.51875Q363.35938 31.221874 363.35938 34.3Q363.35938 34.4875 363.34375 34.8625L354.0625 34.8625Q354.17188 36.909374 355.21875 38.003124Q356.26562 39.096874 357.82812 39.096874Q358.98438 39.096874 359.79688 38.4875Q360.625 37.878124 361.10938 36.534374ZM354.17188 33.128124L361.125 33.128124Q360.98438 31.565624 360.32812 30.76875Q359.32812 29.55 357.71875 29.55Q356.26562 29.55 355.26562 30.534374Q354.28125 31.503124 354.17188 33.128124ZM374.10938 36.534374L376.28125 36.815624Q375.76562 38.721874 374.375 39.784374Q372.98438 40.83125 370.8125 40.83125Q368.07812 40.83125 366.46875 39.159374Q364.875 37.471874 364.875 34.425Q364.875 31.284374 366.48438 29.55Q368.10938 27.815624 370.6875 27.815624Q373.1875 27.815624 374.76562 29.51875Q376.35938 31.221874 376.35938 34.3Q376.35938 34.4875 376.34375 34.8625L367.0625 34.8625Q367.17188 36.909374 368.21875 38.003124Q369.26562 39.096874 370.82812 39.096874Q371.98438 39.096874 372.79688 38.4875Q373.625 37.878124 374.10938 36.534374ZM367.17188 33.128124L374.125 33.128124Q373.98438 31.565624 373.32812 30.76875Q372.32812 29.55 370.71875 29.55Q369.26562 29.55 368.26562 30.534374Q367.28125 31.503124 367.17188 33.128124ZM383.1875 38.659374L383.5 40.51875Q382.60938 40.721874 381.90625 40.721874Q380.75 40.721874 380.10938 40.3625Q379.48438 39.9875 379.21875 39.39375Q378.96875 38.8 378.96875 36.909374L378.96875 29.7375L377.42188 29.7375L377.42188 28.096874L378.96875 28.096874L378.96875 25.01875L381.0625 23.753124L381.0625 28.096874L383.1875 28.096874L383.1875 29.7375L381.0625 29.7375L381.0625 37.01875Q381.0625 37.925 381.17188 38.190624Q381.29688 38.440624 381.54688 38.596874Q381.79688 38.7375 382.26562 38.7375Q382.60938 38.7375 383.1875 38.659374ZM385.48438 45.346874L385.25 43.3625Q385.95312 43.55 386.46875 43.55Q387.17188 43.55 387.59375 43.315624Q388.01562 43.08125 388.28125 42.659374Q388.48438 42.346874 388.92188 41.096874Q388.98438 40.909374 389.10938 40.58125L384.39062 28.096874L386.65625 28.096874L389.25 35.315624Q389.75 36.675 390.15625 38.190624Q390.51562 36.7375 391.01562 35.3625L393.6875 28.096874L395.79688 28.096874L391.0625 40.76875Q390.29688 42.815624 389.875 43.58125Q389.3125 44.628124 388.57812 45.1125Q387.85938 45.596874 386.84375 45.596874Q386.23438 45.596874 385.48438 45.346874Z" fill-rule="nonzero"/></svg>