<svg version="1.1" viewBox="0.0 0.0 600.0 371.0" fill="none" stroke="none" stroke-linecap="square" stroke-miterlimit="10" width="600" height="371" xmlns:xlink="http://www.w3.org/1999/xlink" xmlns="http://www.w3.org/2000/svg"><path fill="#ffffff" d="M0 0L600.0 0L600.0 371.0L0 371.0L0 0Z" fill-rule="nonzero"/><path stroke="#333333" stroke-width="1.0" stroke-linecap="butt" d="M56.5 297.5L581.5 297.5" fill-rule="nonzero"/><path stroke="#cccccc" stroke-width="1.0" stroke-linecap="butt" d="M56.5 244.5L581.5 244.5" fill-rule="nonzero"/><path stroke="#cccccc" stroke-width="1.0" stroke-linecap="butt" d="M56.5 191.5L581.5 191.5" fill-rule="nonzero"/><path stroke="#cccccc" stroke-width="1.0" stroke-linecap="butt" d="M56.5 138.5L581.5 138.5" fill-rule="nonzero"/><path stroke="#cccccc" stroke-width="1.0" stroke-linecap="butt" d="M56.5 85.5L581.5 85.5" fill-rule="nonzero"/><path stroke="#e6e6e6" stroke-width="1.0" stroke-linecap="butt" d="M56.5 270.5L581.5 270.5" fill-rule="nonzero"/><path stroke="#e6e6e6" stroke-width="1.0" stroke-linecap="butt" d="M56.5 217.5L581.5 217.5" fill-rule="nonzero"/><path stroke="#e6e6e6" stroke-width="1.0" stroke-linecap="butt" d="M56.5 164.5L581.5 164.5" fill-rule="nonzero"/><path stroke="#e6e6e6" stroke-width="1.0" stroke-linecap="butt" d="M56.5 111.5L581.5 111.5" fill-rule="nonzero"/><clipPath id="id_0"><path d="M56.55 85.416664L581.45 85.416664L581.45 297.08334L56.55 297.08334L56.55 85.416664Z" clip-rule="nonzero"/></clipPath><path stroke="#000000" stroke-width="2.0" stroke-linecap="butt" stroke-opacity="0.0" clip-path="url(#id_0)" d="M280.0 297.0L135.0 297.0L135.0 184.0L280.0 184.0Z" fill-rule="nonzero"/><path fill="#4285f4" clip-path="url(#id_0)" d="M280.0 297.0L135.0 297.0L135.0 184.0L280.0 184.0Z" fill-rule="nonzero"/><path stroke="#000000" stroke-width="2.0" stroke-linecap="butt" stroke-opacity="0.0" clip-path="url(#id_0)" d="M504.0 297.0L359.0 297.0L359.0 180.0L504.0 180.0Z" fill-rule="nonzero"/><path fill="#4285f4" clip-path="url(#id_0)" d="M504.0 297.0L359.0 297.0L359.0 180.0L504.0 180.0Z" fill-rule="nonzero"/><path stroke="#000000" stroke-width="2.0" stroke-linecap="butt" stroke-opacity="0.0" clip-path="url(#id_0)" d="M280.0 184.0L135.0 184.0L135.0 87.0C135.0 85.89543 135.89543 85.0 137.0 85.0L278.0 85.0C279.10458 85.0 280.0 85.89543 280.0 87.0Z" fill-rule="nonzero"/><path fill="#ea4335" clip-path="url(#id_0)" d="M280.0 184.0L135.0 184.0L135.0 87.0C135.0 85.89543 135.89543 85.0 137.0 85.0L278.0 85.0C279.10458 85.0 280.0 85.89543 280.0 87.0Z" fill-rule="nonzero"/><path stroke="#000000" stroke-width="2.0" stroke-linecap="butt" stroke-opacity="0.0" clip-path="url(#id_0)" d="M504.0 180.0L359.0 180.0L359.0 87.0C359.0 85.89543 359.89542 85.0 361.0 85.0L502.0 85.0C503.10458 85.0 504.0 85.89543 504.0 87.0Z" fill-rule="nonzero"/><path fill="#ea4335" clip-path="url(#id_0)" d="M504.0 180.0L359.0 180.0L359.0 87.0C359.0 85.89543 359.89542 85.0 361.0 85.0L502.0 85.0C503.10458 85.0 504.0 85.89543 504.0 87.0Z" fill-rule="nonzero"/><path fill="#000000" d="M33.05 296.84897Q33.05 295.31772 33.3625 294.39584Q33.675 293.45834 34.284374 292.95834Q34.909374 292.45834 35.846874 292.45834Q36.534374 292.45834 37.05 292.7396Q37.58125 293.02084 37.925 293.5521Q38.26875 294.06772 38.45625 294.81772Q38.64375 295.56772 38.64375 296.84897Q38.64375 298.3646 38.33125 299.28647Q38.034374 300.20834 37.409374 300.72397Q36.8 301.22397 35.846874 301.22397Q34.6125 301.22397 33.89375 300.33334Q33.05 299.27084 33.05 296.84897ZM34.128124 296.84897Q34.128124 298.95834 34.628124 299.66147Q35.128124 300.3646 35.846874 300.3646Q36.58125 300.3646 37.065624 299.66147Q37.565624 298.95834 37.565624 296.84897Q37.565624 294.72397 37.065624 294.03647Q36.58125 293.33334 35.83125 293.33334Q35.1125 293.33334 34.675 293.94272Q34.128124 294.72397 34.128124 296.84897ZM40.253124 294.5521Q40.253124 293.63022 40.70625 292.9896Q41.175 292.34897 42.05 292.34897Q42.8625 292.34897 43.39375 292.9271Q43.925 293.50522 43.925 294.6146Q43.925 295.70834 43.378124 296.3021Q42.846874 296.88022 42.065624 296.88022Q41.284374 296.88022 40.76875 296.3021Q40.253124 295.72397 40.253124 294.5521ZM42.08125 293.06772Q41.690624 293.06772 41.425 293.41147Q41.175 293.75522 41.175 294.66147Q41.175 295.4896 41.425 295.83334Q41.690624 296.16147 42.08125 296.16147Q42.4875 296.16147 42.7375 295.81772Q43.003124 295.47397 43.003124 294.58334Q43.003124 293.7396 42.7375 293.41147Q42.471874 293.06772 42.08125 293.06772ZM42.08125 301.39584L46.784374 292.34897L47.64375 292.34897L42.95625 301.39584L42.08125 301.39584ZM45.8 299.06772Q45.8 298.14584 46.253124 297.50522Q46.721874 296.8646 47.6125 296.8646Q48.425 296.8646 48.95625 297.44272Q49.4875 298.00522 49.4875 299.13022Q49.4875 300.22397 48.940624 300.81772Q48.409374 301.39584 47.6125 301.39584Q46.846874 301.39584 46.315624 300.81772Q45.8 300.2396 45.8 299.06772ZM47.64375 297.58334Q47.2375 297.58334 46.971874 297.9271Q46.721874 298.27084 46.721874 299.1771Q46.721874 299.9896 46.9875 300.33334Q47.253124 300.6771 47.64375 300.6771Q48.034374 300.6771 48.3 300.33334Q48.565624 299.9896 48.565624 299.08334Q48.565624 298.25522 48.3 297.9271Q48.034374 297.58334 47.64375 297.58334Z" fill-rule="nonzero"/><path fill="#000000" d="M31.596874 247.15105L31.596874 248.16667L25.909374 248.16667Q25.909374 247.79167 26.034374 247.4323Q26.253124 246.85417 26.721874 246.29167Q27.20625 245.72917 28.1125 244.9948Q29.51875 243.83855 30.003124 243.16667Q30.503124 242.4948 30.503124 241.90105Q30.503124 241.27605 30.05 240.85417Q29.596874 240.41667 28.878124 240.41667Q28.1125 240.41667 27.659374 240.8698Q27.20625 241.32292 27.190624 242.13542L26.1125 242.02605Q26.221874 240.8073 26.940624 240.1823Q27.675 239.54167 28.909374 239.54167Q30.14375 239.54167 30.8625 240.22917Q31.58125 240.91667 31.58125 241.9323Q31.58125 242.44792 31.3625 242.94792Q31.159374 243.4323 30.659374 243.9948Q30.175 244.54167 29.05 245.4948Q28.096874 246.29167 27.815624 246.58855Q27.55 246.8698 27.378124 247.15105L31.596874 247.15105ZM33.05 245.91667L34.159374 245.82292Q34.284374 246.63542 34.721874 247.04167Q35.175 247.44792 35.815624 247.44792Q36.565624 247.44792 37.096874 246.8698Q37.628124 246.29167 37.628124 245.35417Q37.628124 244.44792 37.1125 243.9323Q36.6125 243.40105 35.784374 243.40105Q35.284374 243.40105 34.8625 243.63542Q34.45625 243.8698 34.221874 244.22917L33.2375 244.10417L34.065624 239.69792L38.346874 239.69792L38.346874 240.69792L34.909374 240.69792L34.45625 243.01042Q35.221874 242.46355 36.065624 242.46355Q37.190624 242.46355 37.95625 243.2448Q38.7375 244.02605 38.7375 245.26042Q38.7375 246.41667 38.065624 247.27605Q37.2375 248.3073 35.815624 248.3073Q34.64375 248.3073 33.89375 247.65105Q33.159374 246.9948 33.05 245.91667ZM40.253124 241.63542Q40.253124 240.71355 40.70625 240.07292Q41.175 239.4323 42.05 239.4323Q42.8625 239.4323 43.39375 240.01042Q43.925 240.58855 43.925 241.69792Q43.925 242.79167 43.378124 243.38542Q42.846874 243.96355 42.065624 243.96355Q41.284374 243.96355 40.76875 243.38542Q40.253124 242.8073 40.253124 241.63542ZM42.08125 240.15105Q41.690624 240.15105 41.425 240.4948Q41.175 240.83855 41.175 241.7448Q41.175 242.57292 41.425 242.91667Q41.690624 243.2448 42.08125 243.2448Q42.4875 243.2448 42.7375 242.90105Q43.003124 242.5573 43.003124 241.66667Q43.003124 240.82292 42.7375 240.4948Q42.471874 240.15105 42.08125 240.15105ZM42.08125 248.47917L46.784374 239.4323L47.64375 239.4323L42.95625 248.47917L42.08125 248.47917ZM45.8 246.15105Q45.8 245.22917 46.253124 244.58855Q46.721874 243.94792 47.6125 243.94792Q48.425 243.94792 48.95625 244.52605Q49.4875 245.08855 49.4875 246.21355Q49.4875 247.3073 48.940624 247.90105Q48.409374 248.47917 47.6125 248.47917Q46.846874 248.47917 46.315624 247.90105Q45.8 247.32292 45.8 246.15105ZM47.64375 244.66667Q47.2375 244.66667 46.971874 245.01042Q46.721874 245.35417 46.721874 246.26042Q46.721874 247.07292 46.9875 247.41667Q47.253124 247.76042 47.64375 247.76042Q48.034374 247.76042 48.3 247.41667Q48.565624 247.07292 48.565624 246.16667Q48.565624 245.33855 48.3 245.01042Q48.034374 244.66667 47.64375 244.66667Z" fill-rule="nonzero"/><path fill="#000000" d="M26.05 193.0L27.159374 192.90625Q27.284374 193.71875 27.721874 194.125Q28.175 194.53125 28.815624 194.53125Q29.565624 194.53125 30.096874 193.95312Q30.628124 193.375 30.628124 192.4375Q30.628124 191.53125 30.1125 191.01562Q29.6125 190.48438 28.784374 190.48438Q28.284374 190.48438 27.8625 190.71875Q27.45625 190.95312 27.221874 191.3125L26.2375 191.1875L27.065624 186.78125L31.346874 186.78125L31.346874 187.78125L27.909374 187.78125L27.45625 190.09375Q28.221874 189.54688 29.065624 189.54688Q30.190624 189.54688 30.95625 190.32812Q31.7375 191.10938 31.7375 192.34375Q31.7375 193.5 31.065624 194.35938Q30.2375 195.39062 28.815624 195.39062Q27.64375 195.39062 26.89375 194.73438Q26.159374 194.07812 26.05 193.0ZM33.05 191.01562Q33.05 189.48438 33.3625 188.5625Q33.675 187.625 34.284374 187.125Q34.909374 186.625 35.846874 186.625Q36.534374 186.625 37.05 186.90625Q37.58125 187.1875 37.925 187.71875Q38.26875 188.23438 38.45625 188.98438Q38.64375 189.73438 38.64375 191.01562Q38.64375 192.53125 38.33125 193.45312Q38.034374 194.375 37.409374 194.89062Q36.8 195.39062 35.846874 195.39062Q34.6125 195.39062 33.89375 194.5Q33.05 193.4375 33.05 191.01562ZM34.128124 191.01562Q34.128124 193.125 34.628124 193.82812Q35.128124 194.53125 35.846874 194.53125Q36.58125 194.53125 37.065624 193.82812Q37.565624 193.125 37.565624 191.01562Q37.565624 188.89062 37.065624 188.20312Q36.58125 187.5 35.83125 187.5Q35.1125 187.5 34.675 188.10938Q34.128124 188.89062 34.128124 191.01562ZM40.253124 188.71875Q40.253124 187.79688 40.70625 187.15625Q41.175 186.51562 42.05 186.51562Q42.8625 186.51562 43.39375 187.09375Q43.925 187.67188 43.925 188.78125Q43.925 189.875 43.378124 190.46875Q42.846874 191.04688 42.065624 191.04688Q41.284374 191.04688 40.76875 190.46875Q40.253124 189.89062 40.253124 188.71875ZM42.08125 187.23438Q41.690624 187.23438 41.425 187.57812Q41.175 187.92188 41.175 188.82812Q41.175 189.65625 41.425 190.0Q41.690624 190.32812 42.08125 190.32812Q42.4875 190.32812 42.7375 189.98438Q43.003124 189.64062 43.003124 188.75Q43.003124 187.90625 42.7375 187.57812Q42.471874 187.23438 42.08125 187.23438ZM42.08125 195.5625L46.784374 186.51562L47.64375 186.51562L42.95625 195.5625L42.08125 195.5625ZM45.8 193.23438Q45.8 192.3125 46.253124 191.67188Q46.721874 191.03125 47.6125 191.03125Q48.425 191.03125 48.95625 191.60938Q49.4875 192.17188 49.4875 193.29688Q49.4875 194.39062 48.940624 194.98438Q48.409374 195.5625 47.6125 195.5625Q46.846874 195.5625 46.315624 194.98438Q45.8 194.40625 45.8 193.23438ZM47.64375 191.75Q47.2375 191.75 46.971874 192.09375Q46.721874 192.4375 46.721874 193.34375Q46.721874 194.15625 46.9875 194.5Q47.253124 194.84375 47.64375 194.84375Q48.034374 194.84375 48.3 194.5Q48.565624 194.15625 48.565624 193.25Q48.565624 192.42188 48.3 192.09375Q48.034374 191.75 47.64375 191.75Z" fill-rule="nonzero"/><path fill="#000000" d="M26.1125 134.86458L26.1125 133.84895L31.675 133.84895L31.675 134.67708Q30.8625 135.55208 30.05 137.0052Q29.253124 138.4427 28.815624 139.97395Q28.4875 141.05208 28.409374 142.33333L27.315624 142.33333Q27.33125 141.3177 27.70625 139.8802Q28.096874 138.4427 28.8 137.11458Q29.51875 135.78645 30.33125 134.86458L26.1125 134.86458ZM33.05 140.08333L34.159374 139.98958Q34.284374 140.80208 34.721874 141.20833Q35.175 141.61458 35.815624 141.61458Q36.565624 141.61458 37.096874 141.03645Q37.628124 140.45833 37.628124 139.52083Q37.628124 138.61458 37.1125 138.09895Q36.6125 137.5677 35.784374 137.5677Q35.284374 137.5677 34.8625 137.80208Q34.45625 138.03645 34.221874 138.39583L33.2375 138.27083L34.065624 133.86458L38.346874 133.86458L38.346874 134.86458L34.909374 134.86458L34.45625 137.17708Q35.221874 136.6302 36.065624 136.6302Q37.190624 136.6302 37.95625 137.41145Q38.7375 138.1927 38.7375 139.42708Q38.7375 140.58333 38.065624 141.4427Q37.2375 142.47395 35.815624 142.47395Q34.64375 142.47395 33.89375 141.8177Q33.159374 141.16145 33.05 140.08333ZM40.253124 135.80208Q40.253124 134.8802 40.70625 134.23958Q41.175 133.59895 42.05 133.59895Q42.8625 133.59895 43.39375 134.17708Q43.925 134.7552 43.925 135.86458Q43.925 136.95833 43.378124 137.55208Q42.846874 138.1302 42.065624 138.1302Q41.284374 138.1302 40.76875 137.55208Q40.253124 136.97395 40.253124 135.80208ZM42.08125 134.3177Q41.690624 134.3177 41.425 134.66145Q41.175 135.0052 41.175 135.91145Q41.175 136.73958 41.425 137.08333Q41.690624 137.41145 42.08125 137.41145Q42.4875 137.41145 42.7375 137.0677Q43.003124 136.72395 43.003124 135.83333Q43.003124 134.98958 42.7375 134.66145Q42.471874 134.3177 42.08125 134.3177ZM42.08125 142.64583L46.784374 133.59895L47.64375 133.59895L42.95625 142.64583L42.08125 142.64583ZM45.8 140.3177Q45.8 139.39583 46.253124 138.7552Q46.721874 138.11458 47.6125 138.11458Q48.425 138.11458 48.95625 138.6927Q49.4875 139.2552 49.4875 140.3802Q49.4875 141.47395 48.940624 142.0677Q48.409374 142.64583 47.6125 142.64583Q46.846874 142.64583 46.315624 142.0677Q45.8 141.48958 45.8 140.3177ZM47.64375 138.83333Q47.2375 138.83333 46.971874 139.17708Q46.721874 139.52083 46.721874 140.42708Q46.721874 141.23958 46.9875 141.58333Q47.253124 141.92708 47.64375 141.92708Q48.034374 141.92708 48.3 141.58333Q48.565624 141.23958 48.565624 140.33333Q48.565624 139.5052 48.3 139.17708Q48.034374 138.83333 47.64375 138.83333Z" fill-rule="nonzero"/><path fill="#000000" d="M23.01875 89.416664L21.971874 89.416664L21.971874 82.697914Q21.58125 83.05729 20.95625 83.43229Q20.346874 83.791664 19.8625 83.96354L19.8625 82.947914Q20.7375 82.52604 21.39375 81.947914Q22.065624 81.354164 22.346874 80.791664L23.01875 80.791664L23.01875 89.416664ZM26.05 85.18229Q26.05 83.65104 26.3625 82.729164Q26.675 81.791664 27.284374 81.291664Q27.909374 80.791664 28.846874 80.791664Q29.534374 80.791664 30.05 81.072914Q30.58125 81.354164 30.925 81.885414Q31.26875 82.40104 31.45625 83.15104Q31.64375 83.90104 31.64375 85.18229Q31.64375 86.697914 31.33125 87.61979Q31.034374 88.541664 30.409374 89.05729Q29.8 89.55729 28.846874 89.55729Q27.6125 89.55729 26.89375 88.666664Q26.05 87.604164 26.05 85.18229ZM27.128124 85.18229Q27.128124 87.291664 27.628124 87.99479Q28.128124 88.697914 28.846874 88.697914Q29.58125 88.697914 30.065624 87.99479Q30.565624 87.291664 30.565624 85.18229Q30.565624 83.05729 30.065624 82.36979Q29.58125 81.666664 28.83125 81.666664Q28.1125 81.666664 27.675 82.27604Q27.128124 83.05729 27.128124 85.18229ZM33.05 85.18229Q33.05 83.65104 33.3625 82.729164Q33.675 81.791664 34.284374 81.291664Q34.909374 80.791664 35.846874 80.791664Q36.534374 80.791664 37.05 81.072914Q37.58125 81.354164 37.925 81.885414Q38.26875 82.40104 38.45625 83.15104Q38.64375 83.90104 38.64375 85.18229Q38.64375 86.697914 38.33125 87.61979Q38.034374 88.541664 37.409374 89.05729Q36.8 89.55729 35.846874 89.55729Q34.6125 89.55729 33.89375 88.666664Q33.05 87.604164 33.05 85.18229ZM34.128124 85.18229Q34.128124 87.291664 34.628124 87.99479Q35.128124 88.697914 35.846874 88.697914Q36.58125 88.697914 37.065624 87.99479Q37.565624 87.291664 37.565624 85.18229Q37.565624 83.05729 37.065624 82.36979Q36.58125 81.666664 35.83125 81.666664Q35.1125 81.666664 34.675 82.27604Q34.128124 83.05729 34.128124 85.18229ZM40.253124 82.885414Q40.253124 81.96354 40.70625 81.322914Q41.175 80.68229 42.05 80.68229Q42.8625 80.68229 43.39375 81.260414Q43.925 81.83854 43.925 82.947914Q43.925 84.041664 43.378124 84.635414Q42.846874 85.21354 42.065624 85.21354Q41.284374 85.21354 40.76875 84.635414Q40.253124 84.05729 40.253124 82.885414ZM42.08125 81.40104Q41.690624 81.40104 41.425 81.74479Q41.175 82.08854 41.175 82.99479Q41.175 83.822914 41.425 84.166664Q41.690624 84.49479 42.08125 84.49479Q42.4875 84.49479 42.7375 84.15104Q43.003124 83.80729 43.003124 82.916664Q43.003124 82.072914 42.7375 81.74479Q42.471874 81.40104 42.08125 81.40104ZM42.08125 89.729164L46.784374 80.68229L47.64375 80.68229L42.95625 89.729164L42.08125 89.729164ZM45.8 87.40104Q45.8 86.479164 46.253124 85.83854Q46.721874 85.197914 47.6125 85.197914Q48.425 85.197914 48.95625 85.77604Q49.4875 86.33854 49.4875 87.46354Q49.4875 88.55729 48.940624 89.15104Q48.409374 89.729164 47.6125 89.729164Q46.846874 89.729164 46.315624 89.15104Q45.8 88.572914 45.8 87.40104ZM47.64375 85.916664Q47.2375 85.916664 46.971874 86.260414Q46.721874 86.604164 46.721874 87.510414Q46.721874 88.322914 46.9875 88.666664Q47.253124 89.010414 47.64375 89.010414Q48.034374 89.010414 48.3 88.666664Q48.565624 88.322914 48.565624 87.416664Q48.565624 86.58854 48.3 86.260414Q48.034374 85.916664 47.64375 85.916664Z" fill-rule="nonzero"/><path fill="#000000" d="M185.58478 320.08334L185.58478 308.63022L190.6629 308.63022Q192.19415 308.63022 192.99103 308.94272Q193.7879 309.2396 194.25665 310.02084Q194.74103 310.8021 194.74103 311.75522Q194.74103 312.97397 193.94415 313.81772Q193.1629 314.64584 191.50665 314.8646Q192.11603 315.16147 192.42853 315.44272Q193.08478 316.0521 193.67853 316.95834L195.67853 320.08334L193.77228 320.08334L192.25665 317.69272Q191.58478 316.66147 191.14728 316.1146Q190.7254 315.56772 190.38165 315.34897Q190.05353 315.13022 189.69415 315.0521Q189.44415 314.9896 188.8504 314.9896L187.1004 314.9896L187.1004 320.08334L185.58478 320.08334ZM187.1004 313.6771L190.3504 313.6771Q191.39728 313.6771 191.9754 313.47397Q192.56915 313.25522 192.86603 312.78647Q193.17853 312.3021 193.17853 311.75522Q193.17853 310.94272 192.58478 310.4271Q191.99103 309.89584 190.7254 309.89584L187.1004 309.89584L187.1004 313.6771ZM202.05353 317.41147L203.50665 317.58334Q203.1629 318.8646 202.2254 319.56772Q201.30353 320.27084 199.86603 320.27084Q198.0379 320.27084 196.9754 319.14584Q195.9129 318.02084 195.9129 316.00522Q195.9129 313.91147 196.99103 312.75522Q198.06915 311.59897 199.7879 311.59897Q201.44415 311.59897 202.49103 312.7396Q203.55353 313.8646 203.55353 315.91147Q203.55353 316.03647 203.55353 316.28647L197.36603 316.28647Q197.44415 317.66147 198.13165 318.39584Q198.83478 319.1146 199.86603 319.1146Q200.64728 319.1146 201.19415 318.70834Q201.74103 318.3021 202.05353 317.41147ZM197.44415 315.13022L202.06915 315.13022Q201.9754 314.08334 201.5379 313.56772Q200.86603 312.75522 199.80353 312.75522Q198.83478 312.75522 198.1629 313.41147Q197.50665 314.0521 197.44415 315.13022ZM210.75665 320.08334L210.75665 319.03647Q209.9754 320.27084 208.44415 320.27084Q207.44415 320.27084 206.61603 319.72397Q205.7879 319.1771 205.31915 318.19272Q204.86603 317.20834 204.86603 315.94272Q204.86603 314.69272 205.27228 313.69272Q205.69415 312.6771 206.52228 312.14584Q207.3504 311.59897 208.38165 311.59897Q209.13165 311.59897 209.70978 311.91147Q210.30353 312.22397 210.6629 312.7396L210.6629 308.63022L212.06915 308.63022L212.06915 320.08334L210.75665 320.08334ZM206.31915 315.94272Q206.31915 317.53647 206.99103 318.33334Q207.6629 319.1146 208.56915 319.1146Q209.49103 319.1146 210.13165 318.3646Q210.7879 317.59897 210.7879 316.0521Q210.7879 314.34897 210.13165 313.5521Q209.4754 312.75522 208.50665 312.75522Q207.56915 312.75522 206.94415 313.52084Q206.31915 314.28647 206.31915 315.94272ZM219.75665 320.08334L219.75665 319.03647Q218.9754 320.27084 217.44415 320.27084Q216.44415 320.27084 215.61603 319.72397Q214.7879 319.1771 214.31915 318.19272Q213.86603 317.20834 213.86603 315.94272Q213.86603 314.69272 214.27228 313.69272Q214.69415 312.6771 215.52228 312.14584Q216.3504 311.59897 217.38165 311.59897Q218.13165 311.59897 218.70978 311.91147Q219.30353 312.22397 219.6629 312.7396L219.6629 308.63022L221.06915 308.63022L221.06915 320.08334L219.75665 320.08334ZM215.31915 315.94272Q215.31915 317.53647 215.99103 318.33334Q216.6629 319.1146 217.56915 319.1146Q218.49103 319.1146 219.13165 318.3646Q219.7879 317.59897 219.7879 316.0521Q219.7879 314.34897 219.13165 313.5521Q218.4754 312.75522 217.50665 312.75522Q216.56915 312.75522 215.94415 313.52084Q215.31915 314.28647 215.31915 315.94272ZM223.38165 310.2396L223.38165 308.63022L224.7879 308.63022L224.7879 310.2396L223.38165 310.2396ZM223.38165 320.08334L223.38165 311.78647L224.7879 311.78647L224.7879 320.08334L223.38165 320.08334ZM230.44415 318.81772L230.64728 320.06772Q230.05353 320.19272 229.58478 320.19272Q228.81915 320.19272 228.39728 319.95834Q227.9754 319.70834 227.80353 319.31772Q227.63165 318.91147 227.63165 317.64584L227.63165 312.88022L226.6004 312.88022L226.6004 311.78647L227.63165 311.78647L227.63165 309.72397L229.0379 308.88022L229.0379 311.78647L230.44415 311.78647L230.44415 312.88022L229.0379 312.88022L229.0379 317.72397Q229.0379 318.33334 229.1004 318.50522Q229.17853 318.6771 229.3504 318.78647Q229.52228 318.88022 229.83478 318.88022Q230.06915 318.88022 230.44415 318.81772Z" fill-rule="nonzero"/><path fill="#000000" d="M411.8371 320.08334L411.8371 309.97397L408.05585 309.97397L408.05585 308.63022L417.13397 308.63022L417.13397 309.97397L413.35272 309.97397L413.35272 320.08334L411.8371 320.08334ZM419.2746 320.08334L416.72772 311.78647L418.18085 311.78647L419.50897 316.56772L419.99335 318.34897Q420.0246 318.22397 420.43085 316.64584L421.74335 311.78647L423.19647 311.78647L424.43085 316.59897L424.85272 318.1771L425.32147 316.58334L426.74335 311.78647L428.11835 311.78647L425.5246 320.08334L424.05585 320.08334L422.74335 315.1146L422.41522 313.69272L420.74335 320.08334L419.2746 320.08334ZM428.74335 310.2396L428.74335 308.63022L430.1496 308.63022L430.1496 310.2396L428.74335 310.2396ZM428.74335 320.08334L428.74335 311.78647L430.1496 311.78647L430.1496 320.08334L428.74335 320.08334ZM435.80585 318.81772L436.00897 320.06772Q435.41522 320.19272 434.94647 320.19272Q434.18085 320.19272 433.75897 319.95834Q433.3371 319.70834 433.16522 319.31772Q432.99335 318.91147 432.99335 317.64584L432.99335 312.88022L431.9621 312.88022L431.9621 311.78647L432.99335 311.78647L432.99335 309.72397L434.3996 308.88022L434.3996 311.78647L435.80585 311.78647L435.80585 312.88022L434.3996 312.88022L434.3996 317.72397Q434.3996 318.33334 434.4621 318.50522Q434.54022 318.6771 434.7121 318.78647Q434.88397 318.88022 435.19647 318.88022Q435.43085 318.88022 435.80585 318.81772ZM439.80585 318.81772L440.00897 320.06772Q439.41522 320.19272 438.94647 320.19272Q438.18085 320.19272 437.75897 319.95834Q437.3371 319.70834 437.16522 319.31772Q436.99335 318.91147 436.99335 317.64584L436.99335 312.88022L435.9621 312.88022L435.9621 311.78647L436.99335 311.78647L436.99335 309.72397L438.3996 308.88022L438.3996 311.78647L439.80585 311.78647L439.80585 312.88022L438.3996 312.88022L438.3996 317.72397Q438.3996 318.33334 438.4621 318.50522Q438.54022 318.6771 438.7121 318.78647Q438.88397 318.88022 439.19647 318.88022Q439.43085 318.88022 439.80585 318.81772ZM446.41522 317.41147L447.86835 317.58334Q447.5246 318.8646 446.5871 319.56772Q445.66522 320.27084 444.22772 320.27084Q442.3996 320.27084 441.3371 319.14584Q440.2746 318.02084 440.2746 316.00522Q440.2746 313.91147 441.35272 312.75522Q442.43085 311.59897 444.1496 311.59897Q445.80585 311.59897 446.85272 312.7396Q447.91522 313.8646 447.91522 315.91147Q447.91522 316.03647 447.91522 316.28647L441.72772 316.28647Q441.80585 317.66147 442.49335 318.39584Q443.19647 319.1146 444.22772 319.1146Q445.00897 319.1146 445.55585 318.70834Q446.10272 318.3021 446.41522 317.41147ZM441.80585 315.13022L446.43085 315.13022Q446.3371 314.08334 445.8996 313.56772Q445.22772 312.75522 444.16522 312.75522Q443.19647 312.75522 442.5246 313.41147Q441.86835 314.0521 441.80585 315.13022ZM449.72772 320.08334L449.72772 311.78647L450.99335 311.78647L450.99335 313.03647Q451.47772 312.16147 451.88397 311.88022Q452.29022 311.59897 452.79022 311.59897Q453.49335 311.59897 454.22772 312.0521L453.74335 313.34897Q453.22772 313.0521 452.7121 313.0521Q452.25897 313.0521 451.88397 313.33334Q451.5246 313.59897 451.36835 314.09897Q451.13397 314.84897 451.13397 315.7396L451.13397 320.08334L449.72772 320.08334Z" fill-rule="nonzero"/><path fill="#ea4335" d="M205.5 339.45C205.5 338.8977 205.94771 338.45 206.5 338.45L216.5 338.45C217.05229 338.45 217.5 338.8977 217.5 339.45L217.5 349.45C217.5 350.0023 217.05229 350.45 216.5 350.45L206.5 350.45C205.94771 350.45 205.5 350.0023 205.5 349.45Z" fill-rule="nonzero"/><path fill="#1a1a1a" d="M226.42188 349.45L226.42188 342.1844L227.53125 342.1844L227.53125 343.21564Q228.32812 342.02814 229.84375 342.02814Q230.5 342.02814 231.04688 342.2625Q231.59375 342.4969 231.85938 342.8875Q232.14062 343.2625 232.25 343.79376Q232.32812 344.1375 232.32812 344.98126L232.32812 349.45L231.09375 349.45L231.09375 345.02814Q231.09375 344.27814 230.95312 343.91876Q230.8125 343.54376 230.4375 343.325Q230.07812 343.09064 229.57812 343.09064Q228.79688 343.09064 228.21875 343.59064Q227.65625 344.09064 227.65625 345.48126L227.65625 349.45L226.42188 349.45ZM239.39062 347.10626L240.67188 347.2625Q240.35938 348.3875 239.54688 349.0125Q238.73438 349.6219 237.46875 349.6219Q235.875 349.6219 234.9375 348.6375Q234.01562 347.65314 234.01562 345.8875Q234.01562 344.04376 234.95312 343.04376Q235.90625 342.02814 237.40625 342.02814Q238.85938 342.02814 239.78125 343.02814Q240.70312 344.0125 240.70312 345.8094Q240.70312 345.91876 240.70312 346.1375L235.28125 346.1375Q235.35938 347.325 235.95312 347.96564Q236.5625 348.60626 237.48438 348.60626Q238.15625 348.60626 238.625 348.2469Q239.10938 347.8875 239.39062 347.10626ZM235.35938 345.1219L239.40625 345.1219Q239.32812 344.2 238.9375 343.7469Q238.35938 343.04376 237.42188 343.04376Q236.5625 343.04376 235.98438 343.60626Q235.42188 344.16876 235.35938 345.1219ZM242.20312 350.0594L243.39062 350.23126Q243.46875 350.77814 243.8125 351.04376Q244.26562 351.3719 245.0625 351.3719Q245.92188 351.3719 246.375 351.02814Q246.84375 350.7 247.01562 350.075Q247.10938 349.7 247.09375 348.4969Q246.29688 349.45 245.09375 349.45Q243.59375 349.45 242.76562 348.3719Q241.95312 347.29376 241.95312 345.77814Q241.95312 344.7469 242.32812 343.8719Q242.70312 342.98126 243.40625 342.5125Q244.125 342.02814 245.09375 342.02814Q246.375 342.02814 247.21875 343.0594L247.21875 342.1844L248.34375 342.1844L248.34375 348.46564Q248.34375 350.16876 248.0 350.8719Q247.65625 351.575 246.90625 351.98126Q246.15625 352.40314 245.0625 352.40314Q243.76562 352.40314 242.96875 351.8094Q242.17188 351.23126 242.20312 350.0594ZM243.21875 345.6844Q243.21875 347.1219 243.78125 347.77814Q244.34375 348.4344 245.20312 348.4344Q246.04688 348.4344 246.625 347.77814Q247.20312 347.1219 247.20312 345.73126Q247.20312 344.40314 246.60938 343.73126Q246.01562 343.04376 245.1875 343.04376Q244.35938 343.04376 243.78125 343.71564Q243.21875 344.3719 243.21875 345.6844ZM255.15625 348.5594Q254.48438 349.1375 253.84375 349.3875Q253.21875 349.6219 252.48438 349.6219Q251.29688 349.6219 250.64062 349.04376Q250.0 348.45 250.0 347.52814Q250.0 346.9969 250.23438 346.5594Q250.48438 346.1219 250.875 345.85626Q251.28125 345.59064 251.76562 345.45Q252.125 345.35626 252.85938 345.2625Q254.35938 345.09064 255.0625 344.84064Q255.0625 344.59064 255.0625 344.52814Q255.0625 343.7625 254.71875 343.46564Q254.25 343.04376 253.3125 343.04376Q252.45312 343.04376 252.03125 343.35626Q251.625 343.65314 251.42188 344.41876L250.21875 344.2625Q250.375 343.48126 250.75 343.0125Q251.14062 342.54376 251.84375 342.29376Q252.5625 342.02814 253.5 342.02814Q254.42188 342.02814 255.0 342.2469Q255.57812 342.46564 255.84375 342.79376Q256.125 343.1219 256.23438 343.6375Q256.29688 343.95 256.29688 344.7625L256.29688 346.40314Q256.29688 348.1219 256.375 348.575Q256.45312 349.02814 256.6875 349.45L255.40625 349.45Q255.21875 349.0594 255.15625 348.5594ZM255.0625 345.8094Q254.39062 346.075 253.04688 346.27814Q252.29688 346.3875 251.96875 346.52814Q251.65625 346.65314 251.48438 346.91876Q251.3125 347.1844 251.3125 347.4969Q251.3125 347.9969 251.6875 348.325Q252.0625 348.65314 252.78125 348.65314Q253.5 348.65314 254.04688 348.34064Q254.59375 348.02814 254.85938 347.48126Q255.0625 347.075 255.0625 346.2625L255.0625 345.8094ZM261.10938 348.35626L261.28125 349.4344Q260.76562 349.54376 260.35938 349.54376Q259.6875 349.54376 259.3125 349.34064Q258.95312 349.1219 258.79688 348.77814Q258.65625 348.4344 258.65625 347.325L258.65625 343.15314L257.75 343.15314L257.75 342.1844L258.65625 342.1844L258.65625 340.3875L259.875 339.65314L259.875 342.1844L261.10938 342.1844L261.10938 343.15314L259.875 343.15314L259.875 347.3875Q259.875 347.91876 259.9375 348.075Q260.0 348.21564 260.14062 348.3094Q260.29688 348.40314 260.5625 348.40314Q260.78125 348.40314 261.10938 348.35626ZM262.375 352.2469L262.23438 351.09064Q262.64062 351.2 262.9375 351.2Q263.34375 351.2 263.59375 351.0594Q263.84375 350.9344 264.0 350.6844Q264.10938 350.4969 264.375 349.7625Q264.40625 349.66876 264.48438 349.46564L261.71875 342.1844L263.04688 342.1844L264.5625 346.3875Q264.85938 347.2 265.09375 348.075Q265.29688 347.23126 265.59375 346.41876L267.14062 342.1844L268.375 342.1844L265.60938 349.575Q265.17188 350.7625 264.92188 351.21564Q264.59375 351.825 264.17188 352.10626Q263.75 352.40314 263.15625 352.40314Q262.8125 352.40314 262.375 352.2469ZM270.76562 349.45L268.54688 342.1844L269.8125 342.1844L270.96875 346.3875L271.40625 347.9344Q271.42188 347.825 271.78125 346.4344L272.9375 342.1844L274.1875 342.1844L275.28125 346.40314L275.64062 347.79376L276.0625 346.3875L277.3125 342.1844L278.5 342.1844L276.23438 349.45L274.95312 349.45L273.79688 345.10626L273.51562 343.8719L272.04688 349.45L270.76562 349.45ZM278.42188 349.45L278.42188 342.1844L279.53125 342.1844L279.53125 343.21564Q280.32812 342.02814 281.84375 342.02814Q282.5 342.02814 283.04688 342.2625Q283.59375 342.4969 283.85938 342.8875Q284.14062 343.2625 284.25 343.79376Q284.32812 344.1375 284.32812 344.98126L284.32812 349.45L283.09375 349.45L283.09375 345.02814Q283.09375 344.27814 282.95312 343.91876Q282.8125 343.54376 282.4375 343.325Q282.07812 343.09064 281.57812 343.09064Q280.79688 343.09064 280.21875 343.59064Q279.65625 344.09064 279.65625 345.48126L279.65625 349.45L278.42188 349.45ZM291.39062 347.10626L292.67188 347.2625Q292.35938 348.3875 291.54688 349.0125Q290.73438 349.6219 289.46875 349.6219Q287.875 349.6219 286.9375 348.6375Q286.01562 347.65314 286.01562 345.8875Q286.01562 344.04376 286.95312 343.04376Q287.90625 342.02814 289.40625 342.02814Q290.85938 342.02814 291.78125 343.02814Q292.70312 344.0125 292.70312 345.8094Q292.70312 345.91876 292.70312 346.1375L287.28125 346.1375Q287.35938 347.325 287.95312 347.96564Q288.5625 348.60626 289.48438 348.60626Q290.15625 348.60626 290.625 348.2469Q291.10938 347.8875 291.39062 347.10626ZM287.35938 345.1219L291.40625 345.1219Q291.32812 344.2 290.9375 343.7469Q290.35938 343.04376 289.42188 343.04376Q288.5625 343.04376 287.98438 343.60626Q287.42188 344.16876 287.35938 345.1219Z" fill-rule="nonzero"/><path fill="#4285f4" d="M309.5 339.45C309.5 338.8977 309.94772 338.45 310.5 338.45L320.5 338.45C321.05228 338.45 321.5 338.8977 321.5 339.45L321.5 349.45C321.5 350.0023 321.05228 350.45 320.5 350.45L310.5 350.45C309.94772 350.45 309.5 350.0023 309.5 349.45Z" fill-rule="nonzero"/><path fill="#1a1a1a" d="M330.42188 352.23126L330.42188 342.1844L331.54688 342.1844L331.54688 343.1375Q331.9375 342.575 332.4375 342.3094Q332.9375 342.02814 333.65625 342.02814Q334.57812 342.02814 335.28125 342.5125Q336.0 342.98126 336.35938 343.85626Q336.71875 344.73126 336.71875 345.7625Q336.71875 346.8719 336.3125 347.77814Q335.92188 348.66876 335.15625 349.15314Q334.40625 349.6219 333.5625 349.6219Q332.95312 349.6219 332.45312 349.35626Q331.96875 349.09064 331.65625 348.7L331.65625 352.23126L330.42188 352.23126ZM331.53125 345.85626Q331.53125 347.2625 332.09375 347.9344Q332.67188 348.60626 333.48438 348.60626Q334.29688 348.60626 334.875 347.91876Q335.46875 347.21564 335.46875 345.7625Q335.46875 344.3719 334.89062 343.6844Q334.32812 342.9969 333.53125 342.9969Q332.75 342.9969 332.14062 343.73126Q331.53125 344.46564 331.53125 345.85626ZM337.96875 345.825Q337.96875 343.8094 339.09375 342.825Q340.01562 342.02814 341.375 342.02814Q342.85938 342.02814 343.8125 343.0125Q344.76562 343.98126 344.76562 345.71564Q344.76562 347.1219 344.34375 347.9344Q343.92188 348.73126 343.10938 349.1844Q342.3125 349.6219 341.375 349.6219Q339.84375 349.6219 338.90625 348.6375Q337.96875 347.65314 337.96875 345.825ZM339.23438 345.825Q339.23438 347.21564 339.84375 347.91876Q340.45312 348.60626 341.375 348.60626Q342.28125 348.60626 342.89062 347.90314Q343.5 347.2 343.5 345.77814Q343.5 344.4344 342.89062 343.7469Q342.28125 343.04376 341.375 343.04376Q340.45312 343.04376 339.84375 343.73126Q339.23438 344.41876 339.23438 345.825ZM345.78125 349.45L345.78125 348.45L350.39062 343.15314Q349.60938 343.1844 349.0 343.1844L346.04688 343.1844L346.04688 342.1844L351.98438 342.1844L351.98438 342.9969L348.04688 347.60626L347.29688 348.45Q348.125 348.3875 348.84375 348.3875L352.20312 348.3875L352.20312 349.45L345.78125 349.45ZM352.375 352.2469L352.23438 351.09064Q352.64062 351.2 352.9375 351.2Q353.34375 351.2 353.59375 351.0594Q353.84375 350.9344 354.0 350.6844Q354.10938 350.4969 354.375 349.7625Q354.40625 349.66876 354.48438 349.46564L351.71875 342.1844L353.04688 342.1844L354.5625 346.3875Q354.85938 347.2 355.09375 348.075Q355.29688 347.23126 355.59375 346.41876L357.14062 342.1844L358.375 342.1844L355.60938 349.575Q355.17188 350.7625 354.92188 351.21564Q354.59375 351.825 354.17188 352.10626Q353.75 352.40314 353.15625 352.40314Q352.8125 352.40314 352.375 352.2469ZM362.10938 348.35626L362.28125 349.4344Q361.76562 349.54376 361.35938 349.54376Q360.6875 349.54376 360.3125 349.34064Q359.95312 349.1219 359.79688 348.77814Q359.65625 348.4344 359.65625 347.325L359.65625 343.15314L358.75 343.15314L358.75 342.1844L359.65625 342.1844L359.65625 340.3875L360.875 339.65314L360.875 342.1844L362.10938 342.1844L362.10938 343.15314L360.875 343.15314L360.875 347.3875Q360.875 347.91876 360.9375 348.075Q361.0 348.21564 361.14062 348.3094Q361.29688 348.40314 361.5625 348.40314Q361.78125 348.40314 362.10938 348.35626ZM363.375 352.2469L363.23438 351.09064Q363.64062 351.2 363.9375 351.2Q364.34375 351.2 364.59375 351.0594Q364.84375 350.9344 365.0 350.6844Q365.10938 350.4969 365.375 349.7625Q365.40625 349.66876 365.48438 349.46564L362.71875 342.1844L364.04688 342.1844L365.5625 346.3875Q365.85938 347.2 366.09375 348.075Q366.29688 347.23126 366.59375 346.41876L368.14062 342.1844L369.375 342.1844L366.60938 349.575Q366.17188 350.7625 365.92188 351.21564Q365.59375 351.825 365.17188 352.10626Q364.75 352.40314 364.15625 352.40314Q363.8125 352.40314 363.375 352.2469ZM371.76562 349.45L369.54688 342.1844L370.8125 342.1844L371.96875 346.3875L372.40625 347.9344Q372.42188 347.825 372.78125 346.4344L373.9375 342.1844L375.1875 342.1844L376.28125 346.40314L376.64062 347.79376L377.0625 346.3875L378.3125 342.1844L379.5 342.1844L377.23438 349.45L375.95312 349.45L374.79688 345.10626L374.51562 343.8719L373.04688 349.45L371.76562 349.45ZM379.42188 349.45L379.42188 342.1844L380.53125 342.1844L380.53125 343.21564Q381.32812 342.02814 382.84375 342.02814Q383.5 342.02814 384.04688 342.2625Q384.59375 342.4969 384.85938 342.8875Q385.14062 343.2625 385.25 343.79376Q385.32812 344.1375 385.32812 344.98126L385.32812 349.45L384.09375 349.45L384.09375 345.02814Q384.09375 344.27814 383.95312 343.91876Q383.8125 343.54376 383.4375 343.325Q383.07812 343.09064 382.57812 343.09064Q381.79688 343.09064 381.21875 343.59064Q380.65625 344.09064 380.65625 345.48126L380.65625 349.45L379.42188 349.45ZM392.39062 347.10626L393.67188 347.2625Q393.35938 348.3875 392.54688 349.0125Q391.73438 349.6219 390.46875 349.6219Q388.875 349.6219 387.9375 348.6375Q387.01562 347.65314 387.01562 345.8875Q387.01562 344.04376 387.95312 343.04376Q388.90625 342.02814 390.40625 342.02814Q391.85938 342.02814 392.78125 343.02814Q393.70312 344.0125 393.70312 345.8094Q393.70312 345.91876 393.70312 346.1375L388.28125 346.1375Q388.35938 347.325 388.95312 347.96564Q389.5625 348.60626 390.48438 348.60626Q391.15625 348.60626 391.625 348.2469Q392.10938 347.8875 392.39062 347.10626ZM388.35938 345.1219L392.40625 345.1219Q392.32812 344.2 391.9375 343.7469Q391.35938 343.04376 390.42188 343.04376Q389.5625 343.04376 388.98438 343.60626Q388.42188 344.16876 388.35938 345.1219Z" fill-rule="nonzero"/><path fill="#999999" d="M202.92188 63.05L202.92188 55.784374L204.03125 55.784374L204.03125 56.815624Q204.35938 56.26875 204.92188 55.95625Q205.5 55.628124 206.21875 55.628124Q207.03125 55.628124 207.54688 55.971874Q208.0625 56.3 208.28125 56.89375Q209.14062 55.628124 210.51562 55.628124Q211.59375 55.628124 212.17188 56.221874Q212.76562 56.815624 212.76562 58.065624L212.76562 63.05L211.53125 63.05L211.53125 58.471874Q211.53125 57.7375 211.40625 57.409374Q211.29688 57.08125 210.98438 56.89375Q210.67188 56.690624 210.25 56.690624Q209.48438 56.690624 208.96875 57.20625Q208.46875 57.70625 208.46875 58.83125L208.46875 63.05L207.23438 63.05L207.23438 58.33125Q207.23438 57.51875 206.9375 57.1125Q206.64062 56.690624 205.95312 56.690624Q205.4375 56.690624 204.98438 56.971874Q204.54688 57.2375 204.34375 57.76875Q204.15625 58.284374 204.15625 59.284374L204.15625 63.05L202.92188 63.05ZM213.9375 54.440624L213.9375 53.034374L215.15625 53.034374L215.15625 54.440624L213.9375 54.440624ZM213.9375 63.05L213.9375 55.784374L215.15625 55.784374L215.15625 63.05L213.9375 63.05ZM221.89062 60.70625L223.17188 60.8625Q222.85938 61.9875 222.04688 62.6125Q221.23438 63.221874 219.96875 63.221874Q218.375 63.221874 217.4375 62.2375Q216.51562 61.253124 216.51562 59.4875Q216.51562 57.64375 217.45312 56.64375Q218.40625 55.628124 219.90625 55.628124Q221.35938 55.628124 222.28125 56.628124Q223.20312 57.6125 223.20312 59.409374Q223.20312 59.51875 223.20312 59.7375L217.78125 59.7375Q217.85938 60.925 218.45312 61.565624Q219.0625 62.20625 219.98438 62.20625Q220.65625 62.20625 221.125 61.846874Q221.60938 61.4875 221.89062 60.70625ZM217.85938 58.721874L221.90625 58.721874Q221.82812 57.8 221.4375 57.346874Q220.85938 56.64375 219.92188 56.64375Q219.0625 56.64375 218.48438 57.20625Q217.92188 57.76875 217.85938 58.721874ZM221.03125 63.05Q220.64062 63.284374 220.42188 63.628124Q220.20312 63.9875 220.20312 64.3625Q220.20312 64.64375 220.35938 64.83125Q220.53125 65.03438 220.875 65.03438Q221.03125 65.03438 221.1875 64.9875Q221.35938 64.95625 221.5 64.87813L221.5 65.75313Q221.0 65.9875 220.57812 65.9875Q220.21875 65.9875 219.95312 65.87813Q219.70312 65.78438 219.53125 65.6125Q219.35938 65.44063 219.26562 65.20625Q219.1875 64.9875 219.1875 64.7375Q219.1875 64.3 219.42188 63.846874Q219.67188 63.409374 220.125 63.05L221.03125 63.05ZM229.64062 63.05L229.64062 62.128124Q228.9375 63.221874 227.60938 63.221874Q226.73438 63.221874 226.0 62.7375Q225.28125 62.253124 224.875 61.39375Q224.48438 60.534374 224.48438 59.425Q224.48438 58.346874 224.84375 57.45625Q225.20312 56.565624 225.92188 56.096874Q226.65625 55.628124 227.54688 55.628124Q228.20312 55.628124 228.71875 55.909374Q229.23438 56.175 229.54688 56.628124L229.54688 53.034374L230.78125 53.034374L230.78125 63.05L229.64062 63.05ZM225.75 59.425Q225.75 60.815624 226.32812 61.51875Q226.92188 62.20625 227.71875 62.20625Q228.53125 62.20625 229.09375 61.55Q229.65625 60.878124 229.65625 59.534374Q229.65625 58.034374 229.07812 57.346874Q228.5 56.64375 227.67188 56.64375Q226.84375 56.64375 226.29688 57.315624Q225.75 57.9875 225.75 59.425ZM232.28125 63.05L232.28125 62.05L236.89062 56.753124Q236.10938 56.784374 235.5 56.784374L232.54688 56.784374L232.54688 55.784374L238.48438 55.784374L238.48438 56.596874L234.54688 61.20625L233.79688 62.05Q234.625 61.9875 235.34375 61.9875L238.70312 61.9875L238.70312 63.05L232.28125 63.05ZM238.875 65.84688L238.73438 64.69063Q239.14062 64.8 239.4375 64.8Q239.84375 64.8 240.09375 64.65938Q240.34375 64.53438 240.5 64.28438Q240.60938 64.09688 240.875 63.3625Q240.90625 63.26875 240.98438 63.065624L238.21875 55.784374L239.54688 55.784374L241.0625 59.9875Q241.35938 60.8 241.59375 61.675Q241.79688 60.83125 242.09375 60.01875L243.64062 55.784374L244.875 55.784374L242.10938 63.175Q241.67188 64.3625 241.42188 64.81563Q241.09375 65.425 240.67188 65.70625Q240.25 66.00313 239.65625 66.00313Q239.3125 66.00313 238.875 65.84688ZM249.4375 60.878124L250.64062 60.690624Q250.75 61.425 251.21875 61.815624Q251.6875 62.20625 252.53125 62.20625Q253.375 62.20625 253.78125 61.8625Q254.20312 61.51875 254.20312 61.05Q254.20312 60.628124 253.82812 60.39375Q253.57812 60.221874 252.57812 59.971874Q251.21875 59.628124 250.6875 59.378124Q250.17188 59.128124 249.90625 58.690624Q249.64062 58.253124 249.64062 57.721874Q249.64062 57.2375 249.85938 56.83125Q250.07812 56.409374 250.46875 56.128124Q250.75 55.925 251.23438 55.784374Q251.73438 55.628124 252.3125 55.628124Q253.15625 55.628124 253.79688 55.878124Q254.45312 56.1125 254.76562 56.534374Q255.07812 56.95625 255.1875 57.659374L253.98438 57.83125Q253.90625 57.26875 253.5 56.95625Q253.10938 56.64375 252.39062 56.64375Q251.54688 56.64375 251.1875 56.925Q250.82812 57.190624 250.82812 57.58125Q250.82812 57.815624 250.96875 58.003124Q251.125 58.20625 251.45312 58.33125Q251.625 58.39375 252.53125 58.64375Q253.84375 59.003124 254.35938 59.221874Q254.875 59.440624 255.15625 59.8625Q255.45312 60.284374 255.45312 60.909374Q255.45312 61.534374 255.09375 62.08125Q254.75 62.6125 254.0625 62.925Q253.39062 63.221874 252.53125 63.221874Q251.125 63.221874 250.375 62.628124Q249.64062 62.034374 249.4375 60.878124ZM261.89062 60.70625L263.17188 60.8625Q262.85938 61.9875 262.04688 62.6125Q261.23438 63.221874 259.96875 63.221874Q258.375 63.221874 257.4375 62.2375Q256.51562 61.253124 256.51562 59.4875Q256.51562 57.64375 257.45312 56.64375Q258.40625 55.628124 259.90625 55.628124Q261.35938 55.628124 262.28125 56.628124Q263.20312 57.6125 263.20312 59.409374Q263.20312 59.51875 263.20312 59.7375L257.78125 59.7375Q257.85938 60.925 258.45312 61.565624Q259.0625 62.20625 259.98438 62.20625Q260.65625 62.20625 261.125 61.846874Q261.60938 61.4875 261.89062 60.70625ZM257.85938 58.721874L261.90625 58.721874Q261.82812 57.8 261.4375 57.346874Q260.85938 56.64375 259.92188 56.64375Q259.0625 56.64375 258.48438 57.20625Q257.92188 57.76875 257.85938 58.721874ZM264.90625 63.05L264.90625 55.784374L266.01562 55.784374L266.01562 56.89375Q266.4375 56.1125 266.79688 55.878124Q267.15625 55.628124 267.59375 55.628124Q268.21875 55.628124 268.85938 56.01875L268.4375 57.159374Q267.98438 56.89375 267.53125 56.89375Q267.125 56.89375 266.79688 57.14375Q266.48438 57.378124 266.34375 57.815624Q266.14062 58.471874 266.14062 59.253124L266.14062 63.05L264.90625 63.05ZM271.26562 63.05L269.04688 55.784374L270.3125 55.784374L271.46875 59.9875L271.90625 61.534374Q271.92188 61.425 272.28125 60.034374L273.4375 55.784374L274.6875 55.784374L275.78125 60.003124L276.14062 61.39375L276.5625 59.9875L277.8125 55.784374L279.0 55.784374L276.73438 63.05L275.45312 63.05L274.29688 58.70625L274.01562 57.471874L272.54688 63.05L271.26562 63.05ZM278.9375 54.440624L278.9375 53.034374L280.15625 53.034374L280.15625 54.440624L278.9375 54.440624ZM278.9375 63.05L278.9375 55.784374L280.15625 55.784374L280.15625 63.05L278.9375 63.05ZM281.4375 60.878124L282.64062 60.690624Q282.75 61.425 283.21875 61.815624Q283.6875 62.20625 284.53125 62.20625Q285.375 62.20625 285.78125 61.8625Q286.20312 61.51875 286.20312 61.05Q286.20312 60.628124 285.82812 60.39375Q285.57812 60.221874 284.57812 59.971874Q283.21875 59.628124 282.6875 59.378124Q282.17188 59.128124 281.90625 58.690624Q281.64062 58.253124 281.64062 57.721874Q281.64062 57.2375 281.85938 56.83125Q282.07812 56.409374 282.46875 56.128124Q282.75 55.925 283.23438 55.784374Q283.73438 55.628124 284.3125 55.628124Q285.15625 55.628124 285.79688 55.878124Q286.45312 56.1125 286.76562 56.534374Q287.07812 56.95625 287.1875 57.659374L285.98438 57.83125Q285.90625 57.26875 285.5 56.95625Q285.10938 56.64375 284.39062 56.64375Q283.54688 56.64375 283.1875 56.925Q282.82812 57.190624 282.82812 57.58125Q282.82812 57.815624 282.96875 58.003124Q283.125 58.20625 283.45312 58.33125Q283.625 58.39375 284.53125 58.64375Q285.84375 59.003124 286.35938 59.221874Q286.875 59.440624 287.15625 59.8625Q287.45312 60.284374 287.45312 60.909374Q287.45312 61.534374 287.09375 62.08125Q286.75 62.6125 286.0625 62.925Q285.39062 63.221874 284.53125 63.221874Q283.125 63.221874 282.375 62.628124Q281.64062 62.034374 281.4375 60.878124ZM293.65625 62.159374Q292.98438 62.7375 292.34375 62.9875Q291.71875 63.221874 290.98438 63.221874Q289.79688 63.221874 289.14062 62.64375Q288.5 62.05 288.5 61.128124Q288.5 60.596874 288.73438 60.159374Q288.98438 59.721874 289.375 59.45625Q289.78125 59.190624 290.26562 59.05Q290.625 58.95625 291.35938 58.8625Q292.85938 58.690624 293.5625 58.440624Q293.5625 58.190624 293.5625 58.128124Q293.5625 57.3625 293.21875 57.065624Q292.75 56.64375 291.8125 56.64375Q290.95312 56.64375 290.53125 56.95625Q290.125 57.253124 289.92188 58.01875L288.71875 57.8625Q288.875 57.08125 289.25 56.6125Q289.64062 56.14375 290.34375 55.89375Q291.0625 55.628124 292.0 55.628124Q292.92188 55.628124 293.5 55.846874Q294.07812 56.065624 294.34375 56.39375Q294.625 56.721874 294.73438 57.2375Q294.79688 57.55 294.79688 58.3625L294.79688 60.003124Q294.79688 61.721874 294.875 62.175Q294.95312 62.628124 295.1875 63.05L293.90625 63.05Q293.71875 62.659374 293.65625 62.159374ZM293.5625 59.409374Q292.89062 59.675 291.54688 59.878124Q290.79688 59.9875 290.46875 60.128124Q290.15625 60.253124 289.98438 60.51875Q289.8125 60.784374 289.8125 61.096874Q289.8125 61.596874 290.1875 61.925Q290.5625 62.253124 291.28125 62.253124Q292.0 62.253124 292.54688 61.940624Q293.09375 61.628124 293.35938 61.08125Q293.5625 60.675 293.5625 59.8625L293.5625 59.409374ZM296.92188 63.05L296.92188 55.784374L298.03125 55.784374L298.03125 56.815624Q298.35938 56.26875 298.92188 55.95625Q299.5 55.628124 300.21875 55.628124Q301.03125 55.628124 301.54688 55.971874Q302.0625 56.3 302.28125 56.89375Q303.14062 55.628124 304.51562 55.628124Q305.59375 55.628124 306.17188 56.221874Q306.76562 56.815624 306.76562 58.065624L306.76562 63.05L305.53125 63.05L305.53125 58.471874Q305.53125 57.7375 305.40625 57.409374Q305.29688 57.08125 304.98438 56.89375Q304.67188 56.690624 304.25 56.690624Q303.48438 56.690624 302.96875 57.20625Q302.46875 57.70625 302.46875 58.83125L302.46875 63.05L301.23438 63.05L301.23438 58.33125Q301.23438 57.51875 300.9375 57.1125Q300.64062 56.690624 299.95312 56.690624Q299.4375 56.690624 298.98438 56.971874Q298.54688 57.2375 298.34375 57.76875Q298.15625 58.284374 298.15625 59.284374L298.15625 63.05L296.92188 63.05ZM307.9375 54.440624L307.9375 53.034374L309.15625 53.034374L309.15625 54.440624L307.9375 54.440624ZM307.9375 63.05L307.9375 55.784374L309.15625 55.784374L309.15625 63.05L307.9375 63.05ZM316.26562 63.05L314.04688 55.784374L315.3125 55.784374L316.46875 59.9875L316.90625 61.534374Q316.92188 61.425 317.28125 60.034374L318.4375 55.784374L319.6875 55.784374L320.78125 60.003124L321.14062 61.39375L321.5625 59.9875L322.8125 55.784374L324.0 55.784374L321.73438 63.05L320.45312 63.05L319.29688 58.70625L319.01562 57.471874L317.54688 63.05L316.26562 63.05ZM327.92188 65.83125L327.92188 55.784374L329.04688 55.784374L329.04688 56.7375Q329.4375 56.175 329.9375 55.909374Q330.4375 55.628124 331.15625 55.628124Q332.07812 55.628124 332.78125 56.1125Q333.5 56.58125 333.85938 57.45625Q334.21875 58.33125 334.21875 59.3625Q334.21875 60.471874 333.8125 61.378124Q333.42188 62.26875 332.65625 62.753124Q331.90625 63.221874 331.0625 63.221874Q330.45312 63.221874 329.95312 62.95625Q329.46875 62.690624 329.15625 62.3L329.15625 65.83125L327.92188 65.83125ZM329.03125 59.45625Q329.03125 60.8625 329.59375 61.534374Q330.17188 62.20625 330.98438 62.20625Q331.79688 62.20625 332.375 61.51875Q332.96875 60.815624 332.96875 59.3625Q332.96875 57.971874 332.39062 57.284374Q331.82812 56.596874 331.03125 56.596874Q330.25 56.596874 329.64062 57.33125Q329.03125 58.065624 329.03125 59.45625ZM335.90625 63.05L335.90625 55.784374L337.01562 55.784374L337.01562 56.89375Q337.4375 56.1125 337.79688 55.878124Q338.15625 55.628124 338.59375 55.628124Q339.21875 55.628124 339.85938 56.01875L339.4375 57.159374Q338.98438 56.89375 338.53125 56.89375Q338.125 56.89375 337.79688 57.14375Q337.48438 57.378124 337.34375 57.815624Q337.14062 58.471874 337.14062 59.253124L337.14062 63.05L335.90625 63.05ZM340.46875 59.425Q340.46875 57.409374 341.59375 56.425Q342.51562 55.628124 343.875 55.628124Q345.35938 55.628124 346.3125 56.6125Q347.26562 57.58125 347.26562 59.315624Q347.26562 60.721874 346.84375 61.534374Q346.42188 62.33125 345.60938 62.784374Q344.8125 63.221874 343.875 63.221874Q342.34375 63.221874 341.40625 62.2375Q340.46875 61.253124 340.46875 59.425ZM341.73438 59.425Q341.73438 60.815624 342.34375 61.51875Q342.95312 62.20625 343.875 62.20625Q344.78125 62.20625 345.39062 61.503124Q346.0 60.8 346.0 59.378124Q346.0 58.034374 345.39062 57.346874Q344.78125 56.64375 343.875 56.64375Q342.95312 56.64375 342.34375 57.33125Q341.73438 58.01875 341.73438 59.425ZM353.65625 60.39375L354.875 60.55Q354.67188 61.8 353.84375 62.51875Q353.03125 63.221874 351.84375 63.221874Q350.35938 63.221874 349.45312 62.253124Q348.54688 61.26875 348.54688 59.440624Q348.54688 58.26875 348.9375 57.39375Q349.32812 56.503124 350.125 56.065624Q350.92188 55.628124 351.85938 55.628124Q353.03125 55.628124 353.78125 56.221874Q354.54688 56.815624 354.75 57.925L353.5625 58.1125Q353.39062 57.378124 352.95312 57.01875Q352.51562 56.64375 351.90625 56.64375Q350.96875 56.64375 350.39062 57.315624Q349.8125 57.971874 349.8125 59.409374Q349.8125 60.878124 350.375 61.55Q350.9375 62.20625 351.82812 62.20625Q352.5625 62.20625 353.04688 61.76875Q353.53125 61.315624 353.65625 60.39375ZM360.89062 60.70625L362.17188 60.8625Q361.85938 61.9875 361.04688 62.6125Q360.23438 63.221874 358.96875 63.221874Q357.375 63.221874 356.4375 62.2375Q355.51562 61.253124 355.51562 59.4875Q355.51562 57.64375 356.45312 56.64375Q357.40625 55.628124 358.90625 55.628124Q360.35938 55.628124 361.28125 56.628124Q362.20312 57.6125 362.20312 59.409374Q362.20312 59.51875 362.20312 59.7375L356.78125 59.7375Q356.85938 60.925 357.45312 61.565624Q358.0625 62.20625 358.98438 62.20625Q359.65625 62.20625 360.125 61.846874Q360.60938 61.4875 360.89062 60.70625ZM356.85938 58.721874L360.90625 58.721874Q360.82812 57.8 360.4375 57.346874Q359.85938 56.64375 358.92188 56.64375Q358.0625 56.64375 357.48438 57.20625Q356.92188 57.76875 356.85938 58.721874ZM363.92188 63.05L363.92188 55.784374L365.03125 55.784374L365.03125 56.815624Q365.82812 55.628124 367.34375 55.628124Q368.0 55.628124 368.54688 55.8625Q369.09375 56.096874 369.35938 56.4875Q369.64062 56.8625 369.75 57.39375Q369.82812 57.7375 369.82812 58.58125L369.82812 63.05L368.59375 63.05L368.59375 58.628124Q368.59375 57.878124 368.45312 57.51875Q368.3125 57.14375 367.9375 56.925Q367.57812 56.690624 367.07812 56.690624Q366.29688 56.690624 365.71875 57.190624Q365.15625 57.690624 365.15625 59.08125L365.15625 63.05L363.92188 63.05ZM374.60938 61.95625L374.78125 63.034374Q374.26562 63.14375 373.85938 63.14375Q373.1875 63.14375 372.8125 62.940624Q372.45312 62.721874 372.29688 62.378124Q372.15625 62.034374 372.15625 60.925L372.15625 56.753124L371.25 56.753124L371.25 55.784374L372.15625 55.784374L372.15625 53.9875L373.375 53.253124L373.375 55.784374L374.60938 55.784374L374.60938 56.753124L373.375 56.753124L373.375 60.9875Q373.375 61.51875 373.4375 61.675Q373.5 61.815624 373.64062 61.909374Q373.79688 62.003124 374.0625 62.003124Q374.28125 62.003124 374.60938 61.95625ZM380.65625 62.159374Q379.98438 62.7375 379.34375 62.9875Q378.71875 63.221874 377.98438 63.221874Q376.79688 63.221874 376.14062 62.64375Q375.5 62.05 375.5 61.128124Q375.5 60.596874 375.73438 60.159374Q375.98438 59.721874 376.375 59.45625Q376.78125 59.190624 377.26562 59.05Q377.625 58.95625 378.35938 58.8625Q379.85938 58.690624 380.5625 58.440624Q380.5625 58.190624 380.5625 58.128124Q380.5625 57.3625 380.21875 57.065624Q379.75 56.64375 378.8125 56.64375Q377.95312 56.64375 377.53125 56.95625Q377.125 57.253124 376.92188 58.01875L375.71875 57.8625Q375.875 57.08125 376.25 56.6125Q376.64062 56.14375 377.34375 55.89375Q378.0625 55.628124 379.0 55.628124Q379.92188 55.628124 380.5 55.846874Q381.07812 56.065624 381.34375 56.39375Q381.625 56.721874 381.73438 57.2375Q381.79688 57.55 381.79688 58.3625L381.79688 60.003124Q381.79688 61.721874 381.875 62.175Q381.95312 62.628124 382.1875 63.05L380.90625 63.05Q380.71875 62.659374 380.65625 62.159374ZM380.5625 59.409374Q379.89062 59.675 378.54688 59.878124Q377.79688 59.9875 377.46875 60.128124Q377.15625 60.253124 376.98438 60.51875Q376.8125 60.784374 376.8125 61.096874Q376.8125 61.596874 377.1875 61.925Q377.5625 62.253124 378.28125 62.253124Q379.0 62.253124 379.54688 61.940624Q380.09375 61.628124 380.35938 61.08125Q380.5625 60.675 380.5625 59.8625L380.5625 59.409374ZM388.65625 60.39375L389.875 60.55Q389.67188 61.8 388.84375 62.51875Q388.03125 63.221874 386.84375 63.221874Q385.35938 63.221874 384.45312 62.253124Q383.54688 61.26875 383.54688 59.440624Q383.54688 58.26875 383.9375 57.39375Q384.32812 56.503124 385.125 56.065624Q385.92188 55.628124 386.85938 55.628124Q388.03125 55.628124 388.78125 56.221874Q389.54688 56.815624 389.75 57.925L388.5625 58.1125Q388.39062 57.378124 387.95312 57.01875Q387.51562 56.64375 386.90625 56.64375Q385.96875 56.64375 385.39062 57.315624Q384.8125 57.971874 384.8125 59.409374Q384.8125 60.878124 385.375 61.55Q385.9375 62.20625 386.82812 62.20625Q387.5625 62.20625 388.04688 61.76875Q388.53125 61.315624 388.65625 60.39375ZM390.92188 63.05L390.92188 53.034374L392.15625 53.034374L392.15625 56.628124Q393.01562 55.628124 394.32812 55.628124Q395.14062 55.628124 395.73438 55.95625Q396.32812 56.26875 396.57812 56.83125Q396.84375 57.378124 396.84375 58.45625L396.84375 63.05L395.60938 63.05L395.60938 58.45625Q395.60938 57.51875 395.20312 57.1125Q394.8125 56.690624 394.07812 56.690624Q393.53125 56.690624 393.04688 56.971874Q392.5625 57.253124 392.35938 57.7375Q392.15625 58.221874 392.15625 59.08125L392.15625 63.05L390.92188 63.05Z" fill-rule="nonzero"/><path fill="#757575" d="M204.54688 37.55L204.54688 23.2375L209.9375 23.2375Q211.375 23.2375 212.125 23.3625Q213.17188 23.55 213.89062 24.05Q214.60938 24.534374 215.03125 25.425Q215.46875 26.315624 215.46875 27.378124Q215.46875 29.20625 214.29688 30.471874Q213.14062 31.721874 210.10938 31.721874L206.4375 31.721874L206.4375 37.55L204.54688 37.55ZM206.4375 30.034374L210.14062 30.034374Q211.96875 30.034374 212.73438 29.3625Q213.51562 28.675 213.51562 27.425Q213.51562 26.534374 213.0625 25.89375Q212.60938 25.253124 211.875 25.05Q211.39062 24.925 210.09375 24.925L206.4375 24.925L206.4375 30.034374ZM216.67188 32.3625Q216.67188 29.4875 218.26562 28.096874Q219.60938 26.940624 221.53125 26.940624Q223.67188 26.940624 225.01562 28.346874Q226.375 29.753124 226.375 32.221874Q226.375 34.221874 225.78125 35.378124Q225.1875 36.51875 224.03125 37.159374Q222.89062 37.784374 221.53125 37.784374Q219.34375 37.784374 218.0 36.39375Q216.67188 34.9875 216.67188 32.3625ZM218.46875 32.3625Q218.46875 34.3625 219.32812 35.346874Q220.20312 36.33125 221.53125 36.33125Q222.84375 36.33125 223.70312 35.346874Q224.57812 34.346874 224.57812 32.3Q224.57812 30.378124 223.70312 29.39375Q222.82812 28.39375 221.53125 28.39375Q220.20312 28.39375 219.32812 29.39375Q218.46875 30.378124 218.46875 32.3625ZM228.29688 37.55L228.29688 27.175L229.875 27.175L229.875 28.753124Q230.48438 27.64375 231.0 27.3Q231.51562 26.940624 232.125 26.940624Q233.01562 26.940624 233.9375 27.503124L233.32812 29.14375Q232.6875 28.753124 232.04688 28.753124Q231.46875 28.753124 231.0 29.1125Q230.54688 29.45625 230.34375 30.065624Q230.0625 31.003124 230.0625 32.1125L230.0625 37.55L228.29688 37.55ZM234.67188 32.3625Q234.67188 29.4875 236.26562 28.096874Q237.60938 26.940624 239.53125 26.940624Q241.67188 26.940624 243.01562 28.346874Q244.375 29.753124 244.375 32.221874Q244.375 34.221874 243.78125 35.378124Q243.1875 36.51875 242.03125 37.159374Q240.89062 37.784374 239.53125 37.784374Q237.34375 37.784374 236.0 36.39375Q234.67188 34.9875 234.67188 32.3625ZM236.46875 32.3625Q236.46875 34.3625 237.32812 35.346874Q238.20312 36.33125 239.53125 36.33125Q240.84375 36.33125 241.70312 35.346874Q242.57812 34.346874 242.57812 32.3Q242.57812 30.378124 241.70312 29.39375Q240.82812 28.39375 239.53125 28.39375Q238.20312 28.39375 237.32812 29.39375Q236.46875 30.378124 236.46875 32.3625ZM238.5625 25.89375L239.85938 23.159374L242.15625 23.159374L240.01562 25.89375L238.5625 25.89375ZM248.23438 37.55L245.0625 27.175L246.875 27.175L248.53125 33.159374L249.14062 35.39375Q249.1875 35.221874 249.67188 33.253124L251.32812 27.175L253.14062 27.175L254.6875 33.190624L255.20312 35.175L255.79688 33.175L257.57812 27.175L259.28125 27.175L256.04688 37.55L254.21875 37.55L252.5625 31.33125L252.17188 29.565624L250.0625 37.55L248.23438 37.55ZM261.3125 37.55L261.3125 27.175L262.90625 27.175L262.90625 28.659374Q264.04688 26.940624 266.20312 26.940624Q267.14062 26.940624 267.92188 27.284374Q268.71875 27.6125 269.10938 28.159374Q269.5 28.70625 269.65625 29.45625Q269.75 29.95625 269.75 31.175L269.75 37.55L267.98438 37.55L267.98438 31.2375Q267.98438 30.159374 267.78125 29.628124Q267.57812 29.096874 267.04688 28.784374Q266.53125 28.471874 265.82812 28.471874Q264.70312 28.471874 263.89062 29.190624Q263.07812 29.89375 263.07812 31.878124L263.07812 37.55L261.3125 37.55ZM278.09375 36.26875Q277.10938 37.096874 276.20312 37.440624Q275.29688 37.784374 274.26562 37.784374Q272.5625 37.784374 271.64062 36.95625Q270.71875 36.1125 270.71875 34.815624Q270.71875 34.05 271.0625 33.425Q271.42188 32.8 271.98438 32.425Q272.54688 32.034374 273.25 31.83125Q273.76562 31.70625 274.8125 31.565624Q276.9375 31.315624 277.9375 30.971874Q277.95312 30.6125 277.95312 30.503124Q277.95312 29.440624 277.45312 28.9875Q276.78125 28.39375 275.45312 28.39375Q274.20312 28.39375 273.60938 28.83125Q273.03125 29.26875 272.75 30.378124L271.03125 30.14375Q271.26562 29.034374 271.79688 28.3625Q272.32812 27.675 273.34375 27.315624Q274.35938 26.940624 275.70312 26.940624Q277.03125 26.940624 277.85938 27.253124Q278.6875 27.565624 279.07812 28.05Q279.46875 28.51875 279.625 29.2375Q279.71875 29.690624 279.71875 30.8625L279.71875 33.20625Q279.71875 35.659374 279.82812 36.315624Q279.9375 36.95625 280.28125 37.55L278.4375 37.55Q278.17188 37.003124 278.09375 36.26875ZM277.9375 32.346874Q276.98438 32.7375 275.0625 33.003124Q273.98438 33.159374 273.53125 33.3625Q273.09375 33.55 272.84375 33.925Q272.59375 34.3 272.59375 34.76875Q272.59375 35.471874 273.125 35.940624Q273.65625 36.409374 274.6875 36.409374Q275.70312 36.409374 276.48438 35.971874Q277.28125 35.51875 277.65625 34.753124Q277.9375 34.14375 277.9375 32.9875L277.9375 32.346874ZM282.3125 37.55L282.3125 27.175L283.90625 27.175L283.90625 28.659374Q285.04688 26.940624 287.20312 26.940624Q288.14062 26.940624 288.92188 27.284374Q289.71875 27.6125 290.10938 28.159374Q290.5 28.70625 290.65625 29.45625Q290.75 29.95625 290.75 31.175L290.75 37.55L288.98438 37.55L288.98438 31.2375Q288.98438 30.159374 288.78125 29.628124Q288.57812 29.096874 288.04688 28.784374Q287.53125 28.471874 286.82812 28.471874Q285.70312 28.471874 284.89062 29.190624Q284.07812 29.89375 284.07812 31.878124L284.07812 37.55L282.3125 37.55ZM292.32812 25.253124L292.32812 23.2375L294.09375 23.2375L294.09375 25.253124L292.32812 25.253124ZM292.32812 37.55L292.32812 27.175L294.09375 27.175L294.09375 37.55L292.32812 37.55ZM303.42188 34.20625L305.23438 34.440624Q304.8125 36.01875 303.64062 36.909374Q302.48438 37.784374 300.67188 37.784374Q298.40625 37.784374 297.0625 36.39375Q295.73438 34.9875 295.73438 32.45625Q295.73438 29.83125 297.07812 28.39375Q298.42188 26.940624 300.57812 26.940624Q302.65625 26.940624 303.96875 28.3625Q305.29688 29.76875 305.29688 32.346874Q305.29688 32.503124 305.28125 32.815624L297.54688 32.815624Q297.64062 34.51875 298.51562 35.425Q299.39062 36.33125 300.6875 36.33125Q301.65625 36.33125 302.32812 35.83125Q303.01562 35.315624 303.42188 34.20625ZM297.64062 31.3625L303.4375 31.3625Q303.32812 30.065624 302.78125 29.409374Q301.9375 28.39375 300.59375 28.39375Q299.39062 28.39375 298.5625 29.20625Q297.73438 30.003124 297.64062 31.3625ZM313.3125 37.55L313.3125 27.175L314.90625 27.175L314.90625 28.659374Q316.04688 26.940624 318.20312 26.940624Q319.14062 26.940624 319.92188 27.284374Q320.71875 27.6125 321.10938 28.159374Q321.5 28.70625 321.65625 29.45625Q321.75 29.95625 321.75 31.175L321.75 37.55L319.98438 37.55L319.98438 31.2375Q319.98438 30.159374 319.78125 29.628124Q319.57812 29.096874 319.04688 28.784374Q318.53125 28.471874 317.82812 28.471874Q316.70312 28.471874 315.89062 29.190624Q315.07812 29.89375 315.07812 31.878124L315.07812 37.55L313.3125 37.55ZM330.09375 36.26875Q329.10938 37.096874 328.20312 37.440624Q327.29688 37.784374 326.26562 37.784374Q324.5625 37.784374 323.64062 36.95625Q322.71875 36.1125 322.71875 34.815624Q322.71875 34.05 323.0625 33.425Q323.42188 32.8 323.98438 32.425Q324.54688 32.034374 325.25 31.83125Q325.76562 31.70625 326.8125 31.565624Q328.9375 31.315624 329.9375 30.971874Q329.95312 30.6125 329.95312 30.503124Q329.95312 29.440624 329.45312 28.9875Q328.78125 28.39375 327.45312 28.39375Q326.20312 28.39375 325.60938 28.83125Q325.03125 29.26875 324.75 30.378124L323.03125 30.14375Q323.26562 29.034374 323.79688 28.3625Q324.32812 27.675 325.34375 27.315624Q326.35938 26.940624 327.70312 26.940624Q329.03125 26.940624 329.85938 27.253124Q330.6875 27.565624 331.07812 28.05Q331.46875 28.51875 331.625 29.2375Q331.71875 29.690624 331.71875 30.8625L331.71875 33.20625Q331.71875 35.659374 331.82812 36.315624Q331.9375 36.95625 332.28125 37.55L330.4375 37.55Q330.17188 37.003124 330.09375 36.26875ZM329.9375 32.346874Q328.98438 32.7375 327.0625 33.003124Q325.98438 33.159374 325.53125 33.3625Q325.09375 33.55 324.84375 33.925Q324.59375 34.3 324.59375 34.76875Q324.59375 35.471874 325.125 35.940624Q325.65625 36.409374 326.6875 36.409374Q327.70312 36.409374 328.48438 35.971874Q329.28125 35.51875 329.65625 34.753124Q329.9375 34.14375 329.9375 32.9875L329.9375 32.346874ZM333.60938 34.45625L335.35938 34.175Q335.5 35.221874 336.17188 35.784374Q336.84375 36.33125 338.04688 36.33125Q339.25 36.33125 339.82812 35.846874Q340.42188 35.346874 340.42188 34.690624Q340.42188 34.096874 339.90625 33.753124Q339.54688 33.51875 338.10938 33.159374Q336.17188 32.659374 335.42188 32.315624Q334.6875 31.95625 334.29688 31.33125Q333.90625 30.690624 333.90625 29.925Q333.90625 29.2375 334.21875 28.64375Q334.54688 28.05 335.09375 27.659374Q335.5 27.3625 336.20312 27.159374Q336.92188 26.940624 337.73438 26.940624Q338.95312 26.940624 339.875 27.3Q340.79688 27.64375 341.23438 28.253124Q341.67188 28.846874 341.84375 29.846874L340.125 30.08125Q340.0 29.284374 339.4375 28.846874Q338.875 28.39375 337.85938 28.39375Q336.64062 28.39375 336.125 28.8Q335.60938 29.190624 335.60938 29.721874Q335.60938 30.065624 335.82812 30.346874Q336.03125 30.628124 336.5 30.815624Q336.76562 30.909374 338.04688 31.253124Q339.92188 31.753124 340.65625 32.08125Q341.39062 32.39375 341.8125 33.003124Q342.23438 33.596874 342.23438 34.503124Q342.23438 35.378124 341.71875 36.159374Q341.20312 36.940624 340.23438 37.3625Q339.26562 37.784374 338.04688 37.784374Q336.03125 37.784374 334.96875 36.940624Q333.90625 36.096874 333.60938 34.45625ZM348.15625 35.971874L348.40625 37.534374Q347.67188 37.690624 347.07812 37.690624Q346.125 37.690624 345.59375 37.39375Q345.07812 37.08125 344.85938 36.596874Q344.64062 36.096874 344.64062 34.51875L344.64062 28.55L343.35938 28.55L343.35938 27.175L344.64062 27.175L344.64062 24.6125L346.39062 23.55L346.39062 27.175L348.15625 27.175L348.15625 28.55L346.39062 28.55L346.39062 34.6125Q346.39062 35.3625 346.48438 35.58125Q346.57812 35.784374 346.78125 35.925Q347.0 36.05 347.39062 36.05Q347.67188 36.05 348.15625 35.971874ZM350.29688 37.55L350.29688 27.175L351.875 27.175L351.875 28.753124Q352.48438 27.64375 353.0 27.3Q353.51562 26.940624 354.125 26.940624Q355.01562 26.940624 355.9375 27.503124L355.32812 29.14375Q354.6875 28.753124 354.04688 28.753124Q353.46875 28.753124 353.0 29.1125Q352.54688 29.45625 352.34375 30.065624Q352.0625 31.003124 352.0625 32.1125L352.0625 37.55L350.29688 37.55ZM356.67188 32.3625Q356.67188 29.4875 358.26562 28.096874Q359.60938 26.940624 361.53125 26.940624Q363.67188 26.940624 365.01562 28.346874Q366.375 29.753124 366.375 32.221874Q366.375 34.221874 365.78125 35.378124Q365.1875 36.51875 364.03125 37.159374Q362.89062 37.784374 361.53125 37.784374Q359.34375 37.784374 358.0 36.39375Q356.67188 34.9875 356.67188 32.3625ZM358.46875 32.3625Q358.46875 34.3625 359.32812 35.346874Q360.20312 36.33125 361.53125 36.33125Q362.84375 36.33125 363.70312 35.346874Q364.57812 34.346874 364.57812 32.3Q364.57812 30.378124 363.70312 29.39375Q362.82812 28.39375 361.53125 28.39375Q360.20312 28.39375 359.32812 29.39375Q358.46875 30.378124 358.46875 32.3625ZM368.3125 25.26875L368.3125 23.2375L370.0625 23.2375L370.0625 25.26875L368.3125 25.26875ZM366.07812 41.58125L366.40625 40.08125Q366.9375 40.221874 367.25 40.221874Q367.78125 40.221874 368.04688 39.8625Q368.3125 39.503124 368.3125 38.08125L368.3125 27.175L370.0625 27.175L370.0625 38.1125Q370.0625 40.034374 369.5625 40.784374Q368.9375 41.753124 367.45312 41.753124Q366.75 41.753124 366.07812 41.58125ZM371.67188 32.3625Q371.67188 29.4875 373.26562 28.096874Q374.60938 26.940624 376.53125 26.940624Q378.67188 26.940624 380.01562 28.346874Q381.375 29.753124 381.375 32.221874Q381.375 34.221874 380.78125 35.378124Q380.1875 36.51875 379.03125 37.159374Q377.89062 37.784374 376.53125 37.784374Q374.34375 37.784374 373.0 36.39375Q371.67188 34.9875 371.67188 32.3625ZM373.46875 32.3625Q373.46875 34.3625 374.32812 35.346874Q375.20312 36.33125 376.53125 36.33125Q377.84375 36.33125 378.70312 35.346874Q379.57812 34.346874 379.57812 32.3Q379.57812 30.378124 378.70312 29.39375Q377.82812 28.39375 376.53125 28.39375Q375.20312 28.39375 374.32812 29.39375Q373.46875 30.378124 373.46875 32.3625ZM375.5625 25.89375L376.85938 23.159374L379.15625 23.159374L377.01562 25.89375L375.5625 25.89375ZM385.23438 37.55L382.0625 27.175L383.875 27.175L385.53125 33.159374L386.14062 35.39375Q386.1875 35.221874 386.67188 33.253124L388.32812 27.175L390.14062 27.175L391.6875 33.190624L392.20312 35.175L392.79688 33.175L394.57812 27.175L396.28125 27.175L393.04688 37.55L391.21875 37.55L389.5625 31.33125L389.17188 29.565624L387.0625 37.55L385.23438 37.55Z" fill-rule="nonzero"/></svg>