<svg version="1.1" viewBox="0.0 0.0 600.0 371.0" fill="none" stroke="none" stroke-linecap="square" stroke-miterlimit="10" width="600" height="371" xmlns:xlink="http://www.w3.org/1999/xlink" xmlns="http://www.w3.org/2000/svg"><path fill="#ffffff" d="M0 0L600.0 0L600.0 371.0L0 371.0L0 0Z" fill-rule="nonzero"/><path stroke="#333333" stroke-width="1.0" stroke-linecap="butt" d="M99.5 279.5L581.5 279.5" fill-rule="nonzero"/><path stroke="#cccccc" stroke-width="1.0" stroke-linecap="butt" d="M99.5 230.5L581.5 230.5" fill-rule="nonzero"/><path stroke="#cccccc" stroke-width="1.0" stroke-linecap="butt" d="M99.5 182.5L581.5 182.5" fill-rule="nonzero"/><path stroke="#cccccc" stroke-width="1.0" stroke-linecap="butt" d="M99.5 133.5L581.5 133.5" fill-rule="nonzero"/><path stroke="#cccccc" stroke-width="1.0" stroke-linecap="butt" d="M99.5 85.5L581.5 85.5" fill-rule="nonzero"/><path stroke="#e6e6e6" stroke-width="1.0" stroke-linecap="butt" d="M99.5 255.5L581.5 255.5" fill-rule="nonzero"/><path stroke="#e6e6e6" stroke-width="1.0" stroke-linecap="butt" d="M99.5 206.5L581.5 206.5" fill-rule="nonzero"/><path stroke="#e6e6e6" stroke-width="1.0" stroke-linecap="butt" d="M99.5 158.5L581.5 158.5" fill-rule="nonzero"/><path stroke="#e6e6e6" stroke-width="1.0" stroke-linecap="butt" d="M99.5 109.5L581.5 109.5" fill-rule="nonzero"/><clipPath id="id_0"><path d="M99.55 85.416664L581.45 85.416664L581.45 279.48535L99.55 279.48535L99.55 85.416664Z" clip-rule="nonzero"/></clipPath><path stroke="#000000" stroke-width="2.0" stroke-linecap="butt" stroke-opacity="0.0" clip-path="url(#id_0)" d="M146.0 279.0L116.0 279.0L116.0 123.0L146.0 123.0Z" fill-rule="nonzero"/><path fill="#4285f4" clip-path="url(#id_0)" d="M146.0 279.0L116.0 279.0L116.0 123.0L146.0 123.0Z" fill-rule="nonzero"/><path stroke="#000000" stroke-width="2.0" stroke-linecap="butt" stroke-opacity="0.0" clip-path="url(#id_0)" d="M193.0 279.0L163.0 279.0L163.0 109.0L193.0 109.0Z" fill-rule="nonzero"/><path fill="#4285f4" clip-path="url(#id_0)" d="M193.0 279.0L163.0 279.0L163.0 109.0L193.0 109.0Z" fill-rule="nonzero"/><path stroke="#000000" stroke-width="2.0" stroke-linecap="butt" stroke-opacity="0.0" clip-path="url(#id_0)" d="M239.0 279.0L209.0 279.0L209.0 144.0L239.0 144.0Z" fill-rule="nonzero"/><path fill="#4285f4" clip-path="url(#id_0)" d="M239.0 279.0L209.0 279.0L209.0 144.0L239.0 144.0Z" fill-rule="nonzero"/><path stroke="#000000" stroke-width="2.0" stroke-linecap="butt" stroke-opacity="0.0" clip-path="url(#id_0)" d="M286.0 279.0L256.0 279.0L256.0 146.0L286.0 146.0Z" fill-rule="nonzero"/><path fill="#4285f4" clip-path="url(#id_0)" d="M286.0 279.0L256.0 279.0L256.0 146.0L286.0 146.0Z" fill-rule="nonzero"/><path stroke="#000000" stroke-width="2.0" stroke-linecap="butt" stroke-opacity="0.0" clip-path="url(#id_0)" d="M332.0 279.0L302.0 279.0L302.0 149.0L332.0 149.0Z" fill-rule="nonzero"/><path fill="#4285f4" clip-path="url(#id_0)" d="M332.0 279.0L302.0 279.0L302.0 149.0L332.0 149.0Z" fill-rule="nonzero"/><path stroke="#000000" stroke-width="2.0" stroke-linecap="butt" stroke-opacity="0.0" clip-path="url(#id_0)" d="M379.0 279.0L349.0 279.0L349.0 154.0L379.0 154.0Z" fill-rule="nonzero"/><path fill="#4285f4" clip-path="url(#id_0)" d="M379.0 279.0L349.0 279.0L349.0 154.0L379.0 154.0Z" fill-rule="nonzero"/><path stroke="#000000" stroke-width="2.0" stroke-linecap="butt" stroke-opacity="0.0" clip-path="url(#id_0)" d="M425.0 279.0L395.0 279.0L395.0 159.0L425.0 159.0Z" fill-rule="nonzero"/><path fill="#4285f4" clip-path="url(#id_0)" d="M425.0 279.0L395.0 279.0L395.0 159.0L425.0 159.0Z" fill-rule="nonzero"/><path stroke="#000000" stroke-width="2.0" stroke-linecap="butt" stroke-opacity="0.0" clip-path="url(#id_0)" d="M472.0 279.0L442.0 279.0L442.0 166.0L472.0 166.0Z" fill-rule="nonzero"/><path fill="#4285f4" clip-path="url(#id_0)" d="M472.0 279.0L442.0 279.0L442.0 166.0L472.0 166.0Z" fill-rule="nonzero"/><path stroke="#000000" stroke-width="2.0" stroke-linecap="butt" stroke-opacity="0.0" clip-path="url(#id_0)" d="M518.0 279.0L488.0 279.0L488.0 172.0L518.0 172.0Z" fill-rule="nonzero"/><path fill="#4285f4" clip-path="url(#id_0)" d="M518.0 279.0L488.0 279.0L488.0 172.0L518.0 172.0Z" fill-rule="nonzero"/><path stroke="#000000" stroke-width="2.0" stroke-linecap="butt" stroke-opacity="0.0" clip-path="url(#id_0)" d="M565.0 279.0L535.0 279.0L535.0 171.0L565.0 171.0Z" fill-rule="nonzero"/><path fill="#4285f4" clip-path="url(#id_0)" d="M565.0 279.0L535.0 279.0L535.0 171.0L565.0 171.0Z" fill-rule="nonzero"/><path stroke="#000000" stroke-width="2.0" stroke-linecap="butt" stroke-opacity="0.0" clip-path="url(#id_0)" d="M146.0 123.0L116.0 123.0L116.0 87.0C116.0 85.89543 116.89543 85.0 118.0 85.0L144.0 85.0C145.10457 85.0 146.0 85.89543 146.0 87.0Z" fill-rule="nonzero"/><path fill="#ea4335" clip-path="url(#id_0)" d="M146.0 123.0L116.0 123.0L116.0 87.0C116.0 85.89543 116.89543 85.0 118.0 85.0L144.0 85.0C145.10457 85.0 146.0 85.89543 146.0 87.0Z" fill-rule="nonzero"/><path stroke="#000000" stroke-width="2.0" stroke-linecap="butt" stroke-opacity="0.0" clip-path="url(#id_0)" d="M193.0 109.0L163.0 109.0L163.0 87.0C163.0 85.89543 163.89543 85.0 165.0 85.0L191.0 85.0C192.10457 85.0 193.0 85.89543 193.0 87.0Z" fill-rule="nonzero"/><path fill="#ea4335" clip-path="url(#id_0)" d="M193.0 109.0L163.0 109.0L163.0 87.0C163.0 85.89543 163.89543 85.0 165.0 85.0L191.0 85.0C192.10457 85.0 193.0 85.89543 193.0 87.0Z" fill-rule="nonzero"/><path stroke="#000000" stroke-width="2.0" stroke-linecap="butt" stroke-opacity="0.0" clip-path="url(#id_0)" d="M239.0 144.0L209.0 144.0L209.0 87.0C209.0 85.89543 209.89543 85.0 211.0 85.0L237.0 85.0C238.10457 85.0 239.0 85.89543 239.0 87.0Z" fill-rule="nonzero"/><path fill="#ea4335" clip-path="url(#id_0)" d="M239.0 144.0L209.0 144.0L209.0 87.0C209.0 85.89543 209.89543 85.0 211.0 85.0L237.0 85.0C238.10457 85.0 239.0 85.89543 239.0 87.0Z" fill-rule="nonzero"/><path stroke="#000000" stroke-width="2.0" stroke-linecap="butt" stroke-opacity="0.0" clip-path="url(#id_0)" d="M286.0 146.0L256.0 146.0L256.0 87.0C256.0 85.89543 256.89542 85.0 258.0 85.0L284.0 85.0C285.10458 85.0 286.0 85.89543 286.0 87.0Z" fill-rule="nonzero"/><path fill="#ea4335" clip-path="url(#id_0)" d="M286.0 146.0L256.0 146.0L256.0 87.0C256.0 85.89543 256.89542 85.0 258.0 85.0L284.0 85.0C285.10458 85.0 286.0 85.89543 286.0 87.0Z" fill-rule="nonzero"/><path stroke="#000000" stroke-width="2.0" stroke-linecap="butt" stroke-opacity="0.0" clip-path="url(#id_0)" d="M332.0 149.0L302.0 149.0L302.0 87.0C302.0 85.89543 302.89542 85.0 304.0 85.0L330.0 85.0C331.10458 85.0 332.0 85.89543 332.0 87.0Z" fill-rule="nonzero"/><path fill="#ea4335" clip-path="url(#id_0)" d="M332.0 149.0L302.0 149.0L302.0 87.0C302.0 85.89543 302.89542 85.0 304.0 85.0L330.0 85.0C331.10458 85.0 332.0 85.89543 332.0 87.0Z" fill-rule="nonzero"/><path stroke="#000000" stroke-width="2.0" stroke-linecap="butt" stroke-opacity="0.0" clip-path="url(#id_0)" d="M379.0 154.0L349.0 154.0L349.0 87.0C349.0 85.89543 349.89542 85.0 351.0 85.0L377.0 85.0C378.10458 85.0 379.0 85.89543 379.0 87.0Z" fill-rule="nonzero"/><path fill="#ea4335" clip-path="url(#id_0)" d="M379.0 154.0L349.0 154.0L349.0 87.0C349.0 85.89543 349.89542 85.0 351.0 85.0L377.0 85.0C378.10458 85.0 379.0 85.89543 379.0 87.0Z" fill-rule="nonzero"/><path stroke="#000000" stroke-width="2.0" stroke-linecap="butt" stroke-opacity="0.0" clip-path="url(#id_0)" d="M425.0 159.0L395.0 159.0L395.0 87.0C395.0 85.89543 395.89542 85.0 397.0 85.0L423.0 85.0C424.10458 85.0 425.0 85.89543 425.0 87.0Z" fill-rule="nonzero"/><path fill="#ea4335" clip-path="url(#id_0)" d="M425.0 159.0L395.0 159.0L395.0 87.0C395.0 85.89543 395.89542 85.0 397.0 85.0L423.0 85.0C424.10458 85.0 425.0 85.89543 425.0 87.0Z" fill-rule="nonzero"/><path stroke="#000000" stroke-width="2.0" stroke-linecap="butt" stroke-opacity="0.0" clip-path="url(#id_0)" d="M472.0 166.0L442.0 166.0L442.0 87.0C442.0 85.89543 442.89542 85.0 444.0 85.0L470.0 85.0C471.10458 85.0 472.0 85.89543 472.0 87.0Z" fill-rule="nonzero"/><path fill="#ea4335" clip-path="url(#id_0)" d="M472.0 166.0L442.0 166.0L442.0 87.0C442.0 85.89543 442.89542 85.0 444.0 85.0L470.0 85.0C471.10458 85.0 472.0 85.89543 472.0 87.0Z" fill-rule="nonzero"/><path stroke="#000000" stroke-width="2.0" stroke-linecap="butt" stroke-opacity="0.0" clip-path="url(#id_0)" d="M518.0 172.0L488.0 172.0L488.0 87.0C488.0 85.89543 488.89542 85.0 490.0 85.0L516.0 85.0C517.10455 85.0 518.0 85.89543 518.0 87.0Z" fill-rule="nonzero"/><path fill="#ea4335" clip-path="url(#id_0)" d="M518.0 172.0L488.0 172.0L488.0 87.0C488.0 85.89543 488.89542 85.0 490.0 85.0L516.0 85.0C517.10455 85.0 518.0 85.89543 518.0 87.0Z" fill-rule="nonzero"/><path stroke="#000000" stroke-width="2.0" stroke-linecap="butt" stroke-opacity="0.0" clip-path="url(#id_0)" d="M565.0 171.0L535.0 171.0L535.0 87.0C535.0 85.89543 535.89545 85.0 537.0 85.0L563.0 85.0C564.10455 85.0 565.0 85.89543 565.0 87.0Z" fill-rule="nonzero"/><path fill="#ea4335" clip-path="url(#id_0)" d="M565.0 171.0L535.0 171.0L535.0 87.0C535.0 85.89543 535.89545 85.0 537.0 85.0L563.0 85.0C564.10455 85.0 565.0 85.89543 565.0 87.0Z" fill-rule="nonzero"/><path fill="#000000" d="M36.73751 257.6875L25.253136 257.6875L25.253136 256.40625L26.33126 256.40625Q25.690636 255.95312 25.378136 255.39062Q25.065636 254.8125 25.065636 254.0Q25.065636 252.9375 25.61251 252.125Q26.159386 251.3125 27.159386 250.90625Q28.14376 250.48438 29.33126 250.48438Q30.61251 250.48438 31.628136 250.95312Q32.64376 251.40625 33.190636 252.28125Q33.73751 253.14062 33.73751 254.10938Q33.73751 254.8125 33.440636 255.375Q33.14376 255.92188 32.690636 256.28125L36.73751 256.28125L36.73751 257.6875ZM29.440636 256.42188Q31.05001 256.42188 31.815636 255.78125Q32.58126 255.125 32.58126 254.20312Q32.58126 253.26562 31.784386 252.59375Q30.98751 251.92188 29.33126 251.92188Q27.73751 251.92188 26.95626 252.57812Q26.159386 253.23438 26.159386 254.14062Q26.159386 255.03125 27.003136 255.73438Q27.846886 256.42188 29.440636 256.42188ZM33.55001 248.70312L25.253136 248.70312L25.253136 247.4375L26.503136 247.4375Q25.628136 246.95312 25.346886 246.54688Q25.065636 246.14062 25.065636 245.64062Q25.065636 244.9375 25.51876 244.20312L26.815636 244.6875Q26.51876 245.20312 26.51876 245.71875Q26.51876 246.17188 26.80001 246.54688Q27.065636 246.90625 27.565636 247.0625Q28.315636 247.29688 29.20626 247.29688L33.55001 247.29688L33.55001 248.70312ZM29.39376 244.21875Q27.096886 244.21875 25.98751 242.9375Q25.065636 241.85938 25.065636 240.32812Q25.065636 238.60938 26.190636 237.53125Q27.30001 236.4375 29.284386 236.4375Q30.878136 236.4375 31.80001 236.92188Q32.721886 237.40625 33.23751 238.32812Q33.73751 239.23438 33.73751 240.32812Q33.73751 242.0625 32.628136 243.14062Q31.503136 244.21875 29.39376 244.21875ZM29.39376 242.76562Q30.98751 242.76562 31.784386 242.07812Q32.58126 241.375 32.58126 240.32812Q32.58126 239.28125 31.784386 238.59375Q30.98751 237.89062 29.346886 237.89062Q27.815636 237.89062 27.01876 238.59375Q26.221886 239.28125 26.221886 240.32812Q26.221886 241.375 27.01876 242.07812Q27.80001 242.76562 29.39376 242.76562ZM30.503136 229.28125L30.690636 227.89062Q32.11251 228.125 32.92501 229.0625Q33.73751 229.98438 33.73751 231.34375Q33.73751 233.04688 32.628136 234.09375Q31.503136 235.125 29.42501 235.125Q28.08126 235.125 27.08126 234.6875Q26.065636 234.23438 25.565636 233.32812Q25.065636 232.40625 25.065636 231.34375Q25.065636 229.98438 25.753136 229.125Q26.42501 228.26562 27.690636 228.03125L27.89376 229.39062Q27.065636 229.59375 26.64376 230.09375Q26.221886 230.57812 26.221886 231.28125Q26.221886 232.34375 26.98751 233.01562Q27.73751 233.67188 29.39376 233.67188Q31.065636 233.67188 31.83126 233.03125Q32.58126 232.39062 32.58126 231.35938Q32.58126 230.53125 32.08126 229.98438Q31.565636 229.42188 30.503136 229.28125ZM30.878136 221.01562L31.05001 219.5625Q32.33126 219.90625 33.034386 220.84375Q33.73751 221.76562 33.73751 223.20312Q33.73751 225.03125 32.61251 226.09375Q31.48751 227.15625 29.471886 227.15625Q27.378136 227.15625 26.221886 226.07812Q25.065636 225.0 25.065636 223.28125Q25.065636 221.625 26.20626 220.57812Q27.33126 219.51562 29.378136 219.51562Q29.503136 219.51562 29.753136 219.51562L29.753136 225.70312Q31.128136 225.625 31.86251 224.9375Q32.58126 224.23438 32.58126 223.20312Q32.58126 222.42188 32.17501 221.875Q31.76876 221.32812 30.878136 221.01562ZM28.596886 225.625L28.596886 221.0Q27.55001 221.09375 27.034386 221.53125Q26.221886 222.20312 26.221886 223.26562Q26.221886 224.23438 26.878136 224.90625Q27.51876 225.5625 28.596886 225.625ZM33.55001 217.6875L25.253136 217.6875L25.253136 216.42188L26.42501 216.42188Q25.065636 215.51562 25.065636 213.78125Q25.065636 213.03125 25.33126 212.40625Q25.596886 211.78125 26.034386 211.46875Q26.471886 211.15625 27.08126 211.03125Q27.471886 210.95312 28.440636 210.95312L33.55001 210.95312L33.55001 212.35938L28.503136 212.35938Q27.64376 212.35938 27.221886 212.53125Q26.784386 212.6875 26.534386 213.10938Q26.284386 213.51562 26.284386 214.07812Q26.284386 214.98438 26.86251 215.64062Q27.42501 216.28125 29.01876 216.28125L33.55001 216.28125L33.55001 217.6875ZM32.284386 206.625L33.534386 206.42188Q33.659386 207.01562 33.659386 207.48438Q33.659386 208.25 33.42501 208.67188Q33.17501 209.09375 32.784386 209.26562Q32.378136 209.4375 31.11251 209.4375L26.346886 209.4375L26.346886 210.46875L25.253136 210.46875L25.253136 209.4375L23.190636 209.4375L22.346886 208.03125L25.253136 208.03125L25.253136 206.625L26.346886 206.625L26.346886 208.03125L31.190636 208.03125Q31.80001 208.03125 31.971886 207.96875Q32.14376 207.89062 32.253136 207.71875Q32.346886 207.54688 32.346886 207.23438Q32.346886 207.0 32.284386 206.625ZM32.284386 198.625L33.534386 198.42188Q33.659386 199.01562 33.659386 199.48438Q33.659386 200.25 33.42501 200.67188Q33.17501 201.09375 32.784386 201.26562Q32.378136 201.4375 31.11251 201.4375L26.346886 201.4375L26.346886 202.46875L25.253136 202.46875L25.253136 201.4375L23.190636 201.4375L22.346886 200.03125L25.253136 200.03125L25.253136 198.625L26.346886 198.625L26.346886 200.03125L31.190636 200.03125Q31.80001 200.03125 31.971886 199.96875Q32.14376 199.89062 32.253136 199.71875Q32.346886 199.54688 32.346886 199.23438Q32.346886 199.0 32.284386 198.625ZM33.55001 196.15625L25.253136 198.70312L25.253136 197.25L30.034386 195.92188L31.815636 195.4375Q31.690636 195.40625 30.11251 195.0L25.253136 193.6875L25.253136 192.23438L30.065636 191.0L31.64376 190.57812L30.05001 190.10938L25.253136 188.6875L25.253136 187.3125L33.55001 189.90625L33.55001 191.375L28.58126 192.6875L27.159386 193.01562L33.55001 194.6875L33.55001 196.15625ZM30.878136 181.01562L31.05001 179.5625Q32.33126 179.90625 33.034386 180.84375Q33.73751 181.76562 33.73751 183.20312Q33.73751 185.03125 32.61251 186.09375Q31.48751 187.15625 29.471886 187.15625Q27.378136 187.15625 26.221886 186.07812Q25.065636 185.0 25.065636 183.28125Q25.065636 181.625 26.20626 180.57812Q27.33126 179.51562 29.378136 179.51562Q29.503136 179.51562 29.753136 179.51562L29.753136 185.70312Q31.128136 185.625 31.86251 184.9375Q32.58126 184.23438 32.58126 183.20312Q32.58126 182.42188 32.17501 181.875Q31.76876 181.32812 30.878136 181.01562ZM28.596886 185.625L28.596886 181.0Q27.55001 181.09375 27.034386 181.53125Q26.221886 182.20312 26.221886 183.26562Q26.221886 184.23438 26.878136 184.90625Q27.51876 185.5625 28.596886 185.625ZM30.878136 172.01562L31.05001 170.5625Q32.33126 170.90625 33.034386 171.84375Q33.73751 172.76562 33.73751 174.20312Q33.73751 176.03125 32.61251 177.09375Q31.48751 178.15625 29.471886 178.15625Q27.378136 178.15625 26.221886 177.07812Q25.065636 176.0 25.065636 174.28125Q25.065636 172.625 26.20626 171.57812Q27.33126 170.51562 29.378136 170.51562Q29.503136 170.51562 29.753136 170.51562L29.753136 176.70312Q31.128136 176.625 31.86251 175.9375Q32.58126 175.23438 32.58126 174.20312Q32.58126 173.42188 32.17501 172.875Q31.76876 172.32812 30.878136 172.01562ZM28.596886 176.625L28.596886 172.0Q27.55001 172.09375 27.034386 172.53125Q26.221886 173.20312 26.221886 174.26562Q26.221886 175.23438 26.878136 175.90625Q27.51876 176.5625 28.596886 176.625ZM32.284386 165.625L33.534386 165.42188Q33.659386 166.01562 33.659386 166.48438Q33.659386 167.25 33.42501 167.67188Q33.17501 168.09375 32.784386 168.26562Q32.378136 168.4375 31.11251 168.4375L26.346886 168.4375L26.346886 169.46875L25.253136 169.46875L25.253136 168.4375L23.190636 168.4375L22.346886 167.03125L25.253136 167.03125L25.253136 165.625L26.346886 165.625L26.346886 167.03125L31.190636 167.03125Q31.80001 167.03125 31.971886 166.96875Q32.14376 166.89062 32.253136 166.71875Q32.346886 166.54688 32.346886 166.23438Q32.346886 166.0 32.284386 165.625ZM29.39376 165.21875Q27.096886 165.21875 25.98751 163.9375Q25.065636 162.85938 25.065636 161.32812Q25.065636 159.60938 26.190636 158.53125Q27.30001 157.4375 29.284386 157.4375Q30.878136 157.4375 31.80001 157.92188Q32.721886 158.40625 33.23751 159.32812Q33.73751 160.23438 33.73751 161.32812Q33.73751 163.0625 32.628136 164.14062Q31.503136 165.21875 29.39376 165.21875ZM29.39376 163.76562Q30.98751 163.76562 31.784386 163.07812Q32.58126 162.375 32.58126 161.32812Q32.58126 160.28125 31.784386 159.59375Q30.98751 158.89062 29.346886 158.89062Q27.815636 158.89062 27.01876 159.59375Q26.221886 160.28125 26.221886 161.32812Q26.221886 162.375 27.01876 163.07812Q27.80001 163.76562 29.39376 163.76562ZM24.221886 162.10938L22.034386 161.0625L22.034386 159.21875L24.221886 160.9375L24.221886 162.10938ZM33.55001 154.15625L25.253136 156.70312L25.253136 155.25L30.034386 153.92188L31.815636 153.4375Q31.690636 153.40625 30.11251 153.0L25.253136 151.6875L25.253136 150.23438L30.065636 149.0L31.64376 148.57812L30.05001 148.10938L25.253136 146.6875L25.253136 145.3125L33.55001 147.90625L33.55001 149.375L28.58126 150.6875L27.159386 151.01562L33.55001 152.6875L33.55001 154.15625Z" fill-rule="nonzero"/><path fill="#000000" d="M76.05 279.25098Q76.05 277.71973 76.3625 276.79785Q76.675 275.86035 77.28438 275.36035Q77.90938 274.86035 78.84688 274.86035Q79.53438 274.86035 80.05 275.1416Q80.58125 275.42285 80.925 275.9541Q81.26875 276.46973 81.45625 277.21973Q81.64375 277.96973 81.64375 279.25098Q81.64375 280.7666 81.33125 281.68848Q81.03438 282.61035 80.40938 283.12598Q79.8 283.62598 78.84688 283.62598Q77.6125 283.62598 76.89375 282.73535Q76.05 281.67285 76.05 279.25098ZM77.12813 279.25098Q77.12813 281.36035 77.62813 282.06348Q78.12813 282.7666 78.84688 282.7666Q79.58125 282.7666 80.06563 282.06348Q80.56563 281.36035 80.56563 279.25098Q80.56563 277.12598 80.06563 276.43848Q79.58125 275.73535 78.83125 275.73535Q78.1125 275.73535 77.675 276.34473Q77.12813 277.12598 77.12813 279.25098ZM83.25313 276.9541Q83.25313 276.03223 83.70625 275.3916Q84.175 274.75098 85.05 274.75098Q85.8625 274.75098 86.39375 275.3291Q86.925 275.90723 86.925 277.0166Q86.925 278.11035 86.37813 278.7041Q85.84688 279.28223 85.06563 279.28223Q84.28438 279.28223 83.76875 278.7041Q83.25313 278.12598 83.25313 276.9541ZM85.08125 275.46973Q84.69063 275.46973 84.425 275.81348Q84.175 276.15723 84.175 277.06348Q84.175 277.8916 84.425 278.23535Q84.69063 278.56348 85.08125 278.56348Q85.4875 278.56348 85.7375 278.21973Q86.00313 277.87598 86.00313 276.98535Q86.00313 276.1416 85.7375 275.81348Q85.47188 275.46973 85.08125 275.46973ZM85.08125 283.79785L89.78438 274.75098L90.64375 274.75098L85.95625 283.79785L85.08125 283.79785ZM88.8 281.46973Q88.8 280.54785 89.25313 279.90723Q89.72188 279.2666 90.6125 279.2666Q91.425 279.2666 91.95625 279.84473Q92.4875 280.40723 92.4875 281.53223Q92.4875 282.62598 91.94063 283.21973Q91.40938 283.79785 90.6125 283.79785Q89.84688 283.79785 89.31563 283.21973Q88.8 282.6416 88.8 281.46973ZM90.64375 279.98535Q90.2375 279.98535 89.97188 280.3291Q89.72188 280.67285 89.72188 281.5791Q89.72188 282.3916 89.9875 282.73535Q90.25313 283.0791 90.64375 283.0791Q91.03438 283.0791 91.3 282.73535Q91.56563 282.3916 91.56563 281.48535Q91.56563 280.65723 91.3 280.3291Q91.03438 279.98535 90.64375 279.98535Z" fill-rule="nonzero"/><path fill="#000000" d="M74.59688 233.95256L74.59688 234.96819L68.90938 234.96819Q68.90938 234.59319 69.03438 234.23381Q69.25313 233.65569 69.72188 233.09319Q70.20625 232.53069 71.1125 231.79631Q72.51875 230.64006 73.00313 229.96819Q73.50313 229.29631 73.50313 228.70256Q73.50313 228.07756 73.05 227.65569Q72.59688 227.21819 71.87813 227.21819Q71.1125 227.21819 70.65938 227.67131Q70.20625 228.12444 70.19063 228.93694L69.1125 228.82756Q69.22188 227.60881 69.94063 226.98381Q70.675 226.34319 71.90938 226.34319Q73.14375 226.34319 73.8625 227.03069Q74.58125 227.71819 74.58125 228.73381Q74.58125 229.24944 74.3625 229.74944Q74.15938 230.23381 73.65938 230.79631Q73.175 231.34319 72.05 232.29631Q71.09688 233.09319 70.81563 233.39006Q70.55 233.67131 70.37813 233.95256L74.59688 233.95256ZM76.05 232.71819L77.15938 232.62444Q77.28438 233.43694 77.72188 233.84319Q78.175 234.24944 78.81563 234.24944Q79.56563 234.24944 80.09688 233.67131Q80.62813 233.09319 80.62813 232.15569Q80.62813 231.24944 80.1125 230.73381Q79.6125 230.20256 78.78438 230.20256Q78.28438 230.20256 77.8625 230.43694Q77.45625 230.67131 77.22188 231.03069L76.2375 230.90569L77.06563 226.49944L81.34688 226.49944L81.34688 227.49944L77.90938 227.49944L77.45625 229.81194Q78.22188 229.26506 79.06563 229.26506Q80.19063 229.26506 80.95625 230.04631Q81.7375 230.82756 81.7375 232.06194Q81.7375 233.21819 81.06563 234.07756Q80.2375 235.10881 78.81563 235.10881Q77.64375 235.10881 76.89375 234.45256Q76.15938 233.79631 76.05 232.71819ZM83.25313 228.43694Q83.25313 227.51506 83.70625 226.87444Q84.175 226.23381 85.05 226.23381Q85.8625 226.23381 86.39375 226.81194Q86.925 227.39006 86.925 228.49944Q86.925 229.59319 86.37813 230.18694Q85.84688 230.76506 85.06563 230.76506Q84.28438 230.76506 83.76875 230.18694Q83.25313 229.60881 83.25313 228.43694ZM85.08125 226.95256Q84.69063 226.95256 84.425 227.29631Q84.175 227.64006 84.175 228.54631Q84.175 229.37444 84.425 229.71819Q84.69063 230.04631 85.08125 230.04631Q85.4875 230.04631 85.7375 229.70256Q86.00313 229.35881 86.00313 228.46819Q86.00313 227.62444 85.7375 227.29631Q85.47188 226.95256 85.08125 226.95256ZM85.08125 235.28069L89.78438 226.23381L90.64375 226.23381L85.95625 235.28069L85.08125 235.28069ZM88.8 232.95256Q88.8 232.03069 89.25313 231.39006Q89.72188 230.74944 90.6125 230.74944Q91.425 230.74944 91.95625 231.32756Q92.4875 231.89006 92.4875 233.01506Q92.4875 234.10881 91.94063 234.70256Q91.40938 235.28069 90.6125 235.28069Q89.84688 235.28069 89.31563 234.70256Q88.8 234.12444 88.8 232.95256ZM90.64375 231.46819Q90.2375 231.46819 89.97188 231.81194Q89.72188 232.15569 89.72188 233.06194Q89.72188 233.87444 89.9875 234.21819Q90.25313 234.56194 90.64375 234.56194Q91.03438 234.56194 91.3 234.21819Q91.56563 233.87444 91.56563 232.96819Q91.56563 232.14006 91.3 231.81194Q91.03438 231.46819 90.64375 231.46819Z" fill-rule="nonzero"/><path fill="#000000" d="M69.05 184.201L70.15938 184.10725Q70.28438 184.91975 70.72188 185.326Q71.175 185.73225 71.81563 185.73225Q72.56563 185.73225 73.09688 185.15413Q73.62813 184.576 73.62813 183.6385Q73.62813 182.73225 73.1125 182.21663Q72.6125 181.68538 71.78438 181.68538Q71.28438 181.68538 70.8625 181.91975Q70.45625 182.15413 70.22188 182.5135L69.2375 182.3885L70.06563 177.98225L74.34688 177.98225L74.34688 178.98225L70.90938 178.98225L70.45625 181.29475Q71.22188 180.74788 72.06563 180.74788Q73.19063 180.74788 73.95625 181.52913Q74.7375 182.31038 74.7375 183.54475Q74.7375 184.701 74.06563 185.56038Q73.2375 186.59163 71.81563 186.59163Q70.64375 186.59163 69.89375 185.93538Q69.15938 185.27913 69.05 184.201ZM76.05 182.21663Q76.05 180.68538 76.3625 179.7635Q76.675 178.826 77.28438 178.326Q77.90938 177.826 78.84688 177.826Q79.53438 177.826 80.05 178.10725Q80.58125 178.3885 80.925 178.91975Q81.26875 179.43538 81.45625 180.18538Q81.64375 180.93538 81.64375 182.21663Q81.64375 183.73225 81.33125 184.65413Q81.03438 185.576 80.40938 186.09163Q79.8 186.59163 78.84688 186.59163Q77.6125 186.59163 76.89375 185.701Q76.05 184.6385 76.05 182.21663ZM77.12813 182.21663Q77.12813 184.326 77.62813 185.02913Q78.12813 185.73225 78.84688 185.73225Q79.58125 185.73225 80.06563 185.02913Q80.56563 184.326 80.56563 182.21663Q80.56563 180.09163 80.06563 179.40413Q79.58125 178.701 78.83125 178.701Q78.1125 178.701 77.675 179.31038Q77.12813 180.09163 77.12813 182.21663ZM83.25313 179.91975Q83.25313 178.99788 83.70625 178.35725Q84.175 177.71663 85.05 177.71663Q85.8625 177.71663 86.39375 178.29475Q86.925 178.87288 86.925 179.98225Q86.925 181.076 86.37813 181.66975Q85.84688 182.24788 85.06563 182.24788Q84.28438 182.24788 83.76875 181.66975Q83.25313 181.09163 83.25313 179.91975ZM85.08125 178.43538Q84.69063 178.43538 84.425 178.77913Q84.175 179.12288 84.175 180.02913Q84.175 180.85725 84.425 181.201Q84.69063 181.52913 85.08125 181.52913Q85.4875 181.52913 85.7375 181.18538Q86.00313 180.84163 86.00313 179.951Q86.00313 179.10725 85.7375 178.77913Q85.47188 178.43538 85.08125 178.43538ZM85.08125 186.7635L89.78438 177.71663L90.64375 177.71663L85.95625 186.7635L85.08125 186.7635ZM88.8 184.43538Q88.8 183.5135 89.25313 182.87288Q89.72188 182.23225 90.6125 182.23225Q91.425 182.23225 91.95625 182.81038Q92.4875 183.37288 92.4875 184.49788Q92.4875 185.59163 91.94063 186.18538Q91.40938 186.7635 90.6125 186.7635Q89.84688 186.7635 89.31563 186.18538Q88.8 185.60725 88.8 184.43538ZM90.64375 182.951Q90.2375 182.951 89.97188 183.29475Q89.72188 183.6385 89.72188 184.54475Q89.72188 185.35725 89.9875 185.701Q90.25313 186.04475 90.64375 186.04475Q91.03438 186.04475 91.3 185.701Q91.56563 185.35725 91.56563 184.451Q91.56563 183.62288 91.3 183.29475Q91.03438 182.951 90.64375 182.951Z" fill-rule="nonzero"/><path fill="#000000" d="M69.1125 130.46509L69.1125 129.44946L74.675 129.44946L74.675 130.27759Q73.8625 131.15259 73.05 132.60571Q72.25313 134.04321 71.81563 135.57446Q71.4875 136.65259 71.40938 137.93384L70.31563 137.93384Q70.33125 136.91821 70.70625 135.48071Q71.09688 134.04321 71.8 132.71509Q72.51875 131.38696 73.33125 130.46509L69.1125 130.46509ZM76.05 135.68384L77.15938 135.59009Q77.28438 136.40259 77.72188 136.80884Q78.175 137.21509 78.81563 137.21509Q79.56563 137.21509 80.09688 136.63696Q80.62813 136.05884 80.62813 135.12134Q80.62813 134.21509 80.1125 133.69946Q79.6125 133.16821 78.78438 133.16821Q78.28438 133.16821 77.8625 133.40259Q77.45625 133.63696 77.22188 133.99634L76.2375 133.87134L77.06563 129.46509L81.34688 129.46509L81.34688 130.46509L77.90938 130.46509L77.45625 132.77759Q78.22188 132.23071 79.06563 132.23071Q80.19063 132.23071 80.95625 133.01196Q81.7375 133.79321 81.7375 135.02759Q81.7375 136.18384 81.06563 137.04321Q80.2375 138.07446 78.81563 138.07446Q77.64375 138.07446 76.89375 137.41821Q76.15938 136.76196 76.05 135.68384ZM83.25313 131.40259Q83.25313 130.48071 83.70625 129.84009Q84.175 129.19946 85.05 129.19946Q85.8625 129.19946 86.39375 129.77759Q86.925 130.35571 86.925 131.46509Q86.925 132.55884 86.37813 133.15259Q85.84688 133.73071 85.06563 133.73071Q84.28438 133.73071 83.76875 133.15259Q83.25313 132.57446 83.25313 131.40259ZM85.08125 129.91821Q84.69063 129.91821 84.425 130.26196Q84.175 130.60571 84.175 131.51196Q84.175 132.34009 84.425 132.68384Q84.69063 133.01196 85.08125 133.01196Q85.4875 133.01196 85.7375 132.66821Q86.00313 132.32446 86.00313 131.43384Q86.00313 130.59009 85.7375 130.26196Q85.47188 129.91821 85.08125 129.91821ZM85.08125 138.24634L89.78438 129.19946L90.64375 129.19946L85.95625 138.24634L85.08125 138.24634ZM88.8 135.91821Q88.8 134.99634 89.25313 134.35571Q89.72188 133.71509 90.6125 133.71509Q91.425 133.71509 91.95625 134.29321Q92.4875 134.85571 92.4875 135.98071Q92.4875 137.07446 91.94063 137.66821Q91.40938 138.24634 90.6125 138.24634Q89.84688 138.24634 89.31563 137.66821Q88.8 137.09009 88.8 135.91821ZM90.64375 134.43384Q90.2375 134.43384 89.97188 134.77759Q89.72188 135.12134 89.72188 136.02759Q89.72188 136.84009 89.9875 137.18384Q90.25313 137.52759 90.64375 137.52759Q91.03438 137.52759 91.3 137.18384Q91.56563 136.84009 91.56563 135.93384Q91.56563 135.10571 91.3 134.77759Q91.03438 134.43384 90.64375 134.43384Z" fill-rule="nonzero"/><path fill="#000000" d="M66.01875 89.416664L64.97188 89.416664L64.97188 82.697914Q64.58125 83.05729 63.95625 83.43229Q63.346874 83.791664 62.8625 83.96354L62.8625 82.947914Q63.7375 82.52604 64.39375 81.947914Q65.06563 81.354164 65.34688 80.791664L66.01875 80.791664L66.01875 89.416664ZM69.05 85.18229Q69.05 83.65104 69.3625 82.729164Q69.675 81.791664 70.28438 81.291664Q70.90938 80.791664 71.84688 80.791664Q72.53438 80.791664 73.05 81.072914Q73.58125 81.354164 73.925 81.885414Q74.26875 82.40104 74.45625 83.15104Q74.64375 83.90104 74.64375 85.18229Q74.64375 86.697914 74.33125 87.61979Q74.03438 88.541664 73.40938 89.05729Q72.8 89.55729 71.84688 89.55729Q70.6125 89.55729 69.89375 88.666664Q69.05 87.604164 69.05 85.18229ZM70.12813 85.18229Q70.12813 87.291664 70.62813 87.99479Q71.12813 88.697914 71.84688 88.697914Q72.58125 88.697914 73.06563 87.99479Q73.56563 87.291664 73.56563 85.18229Q73.56563 83.05729 73.06563 82.36979Q72.58125 81.666664 71.83125 81.666664Q71.1125 81.666664 70.675 82.27604Q70.12813 83.05729 70.12813 85.18229ZM76.05 85.18229Q76.05 83.65104 76.3625 82.729164Q76.675 81.791664 77.28438 81.291664Q77.90938 80.791664 78.84688 80.791664Q79.53438 80.791664 80.05 81.072914Q80.58125 81.354164 80.925 81.885414Q81.26875 82.40104 81.45625 83.15104Q81.64375 83.90104 81.64375 85.18229Q81.64375 86.697914 81.33125 87.61979Q81.03438 88.541664 80.40938 89.05729Q79.8 89.55729 78.84688 89.55729Q77.6125 89.55729 76.89375 88.666664Q76.05 87.604164 76.05 85.18229ZM77.12813 85.18229Q77.12813 87.291664 77.62813 87.99479Q78.12813 88.697914 78.84688 88.697914Q79.58125 88.697914 80.06563 87.99479Q80.56563 87.291664 80.56563 85.18229Q80.56563 83.05729 80.06563 82.36979Q79.58125 81.666664 78.83125 81.666664Q78.1125 81.666664 77.675 82.27604Q77.12813 83.05729 77.12813 85.18229ZM83.25313 82.885414Q83.25313 81.96354 83.70625 81.322914Q84.175 80.68229 85.05 80.68229Q85.8625 80.68229 86.39375 81.260414Q86.925 81.83854 86.925 82.947914Q86.925 84.041664 86.37813 84.635414Q85.84688 85.21354 85.06563 85.21354Q84.28438 85.21354 83.76875 84.635414Q83.25313 84.05729 83.25313 82.885414ZM85.08125 81.40104Q84.69063 81.40104 84.425 81.74479Q84.175 82.08854 84.175 82.99479Q84.175 83.822914 84.425 84.166664Q84.69063 84.49479 85.08125 84.49479Q85.4875 84.49479 85.7375 84.15104Q86.00313 83.80729 86.00313 82.916664Q86.00313 82.072914 85.7375 81.74479Q85.47188 81.40104 85.08125 81.40104ZM85.08125 89.729164L89.78438 80.68229L90.64375 80.68229L85.95625 89.729164L85.08125 89.729164ZM88.8 87.40104Q88.8 86.479164 89.25313 85.83854Q89.72188 85.197914 90.6125 85.197914Q91.425 85.197914 91.95625 85.77604Q92.4875 86.33854 92.4875 87.46354Q92.4875 88.55729 91.94063 89.15104Q91.40938 89.729164 90.6125 89.729164Q89.84688 89.729164 89.31563 89.15104Q88.8 88.572914 88.8 87.40104ZM90.64375 85.916664Q90.2375 85.916664 89.97188 86.260414Q89.72188 86.604164 89.72188 87.510414Q89.72188 88.322914 89.9875 88.666664Q90.25313 89.010414 90.64375 89.010414Q91.03438 89.010414 91.3 88.666664Q91.56563 88.322914 91.56563 87.416664Q91.56563 86.58854 91.3 86.260414Q91.03438 85.916664 90.64375 85.916664Z" fill-rule="nonzero"/><path fill="#000000" d="M110.372734 323.7963L111.212425 324.636L106.52784 329.32056Q106.207436 329.02225 106.01961 328.61346Q105.732346 327.95056 105.65501 327.09982Q105.588715 326.23804 105.7213 324.8901Q105.93122 322.77982 105.77654 321.82965Q105.63291 320.86844 105.13573 320.37125Q104.61645 319.85196 103.88724 319.87405Q103.16908 319.8851 102.58351 320.47067Q101.95374 321.10046 101.942696 321.8628Q101.942696 322.6141 102.61666 323.28806L101.62229 324.08356Q100.71631 323.0008 100.79365 321.8849Q100.87099 320.7469 101.8764 319.7415Q102.90392 318.71396 104.05297 318.69186Q105.213066 318.65872 106.05276 319.4984Q106.48365 319.9293 106.71567 320.51486Q106.95873 321.0894 107.00293 321.9512Q107.058174 322.8019 106.91454 324.53656Q106.78196 325.97287 106.804054 326.4369Q106.8151 326.8899 106.903496 327.26553L110.372734 323.7963ZM108.80384 320.0619Q107.54431 318.80234 107.03607 317.7859Q106.52784 316.7473 106.62728 315.8303Q106.71567 314.90222 107.48907 314.1288Q108.06359 313.5543 108.7265 313.3554Q109.38941 313.15656 110.09652 313.31122Q110.814674 313.45486 111.58807 313.91888Q112.36147 314.38293 113.422134 315.4436Q114.670616 316.69208 115.17885 317.70856Q115.68709 318.725 115.598694 319.65308Q115.51031 320.58118 114.72586 321.3656Q113.7094 322.38208 112.38357 322.2274Q110.79258 322.05063 108.80384 320.0619ZM109.69878 319.16696Q111.44444 320.91263 112.427765 321.07834Q113.41109 321.24408 114.007706 320.64746Q114.61538 320.0398 114.449646 319.05646Q114.27287 318.0621 112.538246 316.32748Q110.78153 314.57077 109.79821 314.40503Q108.81489 314.23932 108.196175 314.85803Q107.59955 315.45465 107.754234 316.31644Q107.9531 317.4213 109.69878 319.16696ZM121.23345 314.61496L120.36062 315.4878L114.81425 309.9414Q114.8032 310.5491 114.59328 311.37772Q114.383354 312.18427 114.12924 312.72565L113.28955 311.88596Q113.67625 310.81427 113.73149 309.78674Q113.79778 308.74817 113.55472 308.06317L114.118195 307.4997L121.23345 314.61496ZM117.510086 306.03024L116.6704 305.19055L121.266594 300.59436L121.94055 301.2683Q121.9737 302.67148 122.50403 304.52765Q123.03436 306.3838 123.94034 308.01898Q124.57011 309.15698 125.55343 310.29498L124.65849 311.1899Q123.82986 310.33917 122.95702 308.84763Q122.09524 307.34503 121.587 305.66565Q121.078766 303.96417 120.99038 302.54996L117.510086 306.03024ZM130.6689 309.1128L130.03914 308.48303L135.80647 302.71567L136.43625 303.34546L130.6689 309.1128ZM138.20401 297.6444L137.33118 298.51724L131.7848 292.97086Q131.77376 293.57852 131.56384 294.40717Q131.35391 295.2137 131.0998 295.7551L130.2601 294.9154Q130.6468 293.8437 130.70206 292.8162Q130.76834 291.77762 130.52527 291.09262L131.08875 290.52914L138.20401 297.6444Z" fill-rule="nonzero"/><path fill="#000000" d="M156.93312 323.7963L157.77281 324.636L153.08823 329.32056Q152.76782 329.02225 152.58 328.61346Q152.29274 327.95053 152.2154 327.09982Q152.14911 326.23804 152.2817 324.8901Q152.49161 322.77982 152.33693 321.82965Q152.1933 320.86844 151.6961 320.37125Q151.17683 319.85196 150.44763 319.87405Q149.72948 319.8851 149.1439 320.47067Q148.51413 321.10046 148.50308 321.8628Q148.50308 322.6141 149.17705 323.28806L148.18268 324.08356Q147.27669 323.0008 147.35403 321.8849Q147.43138 320.7469 148.4368 319.7415Q149.46431 318.71396 150.61336 318.69186Q151.77345 318.65872 152.61314 319.4984Q153.04404 319.9293 153.27605 320.51486Q153.51912 321.0894 153.56331 321.95117Q153.61856 322.8019 153.47493 324.53656Q153.34235 325.97287 153.36444 326.4369Q153.37549 326.8899 153.46388 327.26553L156.93312 323.7963ZM155.36423 320.0619Q154.10469 318.80234 153.59647 317.7859Q153.08823 316.7473 153.18767 315.8303Q153.27605 314.90222 154.04945 314.1288Q154.62398 313.5543 155.2869 313.3554Q155.9498 313.15656 156.6569 313.31122Q157.37506 313.45486 158.14847 313.91888Q158.92186 314.38293 159.98251 315.4436Q161.231 316.69208 161.73924 317.70856Q162.24747 318.725 162.15909 319.65308Q162.0707 320.58118 161.28625 321.3656Q160.26978 322.38208 158.94395 322.2274Q157.35297 322.05063 155.36423 320.0619ZM156.25916 319.16696Q158.00484 320.91263 158.98814 321.07834Q159.97147 321.24408 160.5681 320.64746Q161.17577 320.0398 161.01004 319.05646Q160.83325 318.0621 159.09863 316.32748Q157.34192 314.57077 156.3586 314.40503Q155.37527 314.23932 154.75656 314.85803Q154.15994 315.45465 154.31462 316.31644Q154.51349 317.4213 156.25916 319.16696ZM167.79384 314.61496L166.921 315.4878L161.37463 309.9414Q161.36359 310.5491 161.15367 311.37772Q160.94374 312.18427 160.68962 312.72565L159.84995 311.88596Q160.23663 310.81427 160.29189 309.78674Q160.35817 308.74817 160.1151 308.06317L160.67857 307.4997L167.79384 314.61496ZM164.07048 306.03024L163.23079 305.19055L167.82698 300.59436L168.50095 301.2683Q168.53409 302.67148 169.06442 304.52765Q169.59476 306.3838 170.50073 308.01898Q171.1305 309.15698 172.11382 310.29498L171.21889 311.1899Q170.39024 310.33917 169.51741 308.84763Q168.65562 307.345 168.1474 305.66562Q167.63916 303.96417 167.55077 302.54996L164.07048 306.03024ZM177.2293 309.1128L176.59953 308.483L182.36687 302.71567L182.99664 303.34543L177.2293 309.1128ZM185.21739 295.51202L186.05708 296.3517L181.3725 301.0363Q181.0521 300.73798 180.86427 300.3292Q180.57701 299.66626 180.49966 298.81555Q180.43338 297.95377 180.56596 296.60583Q180.77588 294.49554 180.6212 293.54538Q180.47757 292.58417 179.98038 292.08698Q179.4611 291.5677 178.7319 291.58978Q178.01375 291.60083 177.42818 292.1864Q176.7984 292.8162 176.78735 293.57852Q176.78735 294.32983 177.46132 295.00378L176.46695 295.7993Q175.56096 294.71652 175.6383 293.60062Q175.71565 292.46262 176.72107 291.4572Q177.74858 290.4297 178.89763 290.4076Q180.05772 290.37445 180.89742 291.21414Q181.32831 291.64502 181.56032 292.2306Q181.80339 292.8051 181.84758 293.6669Q181.90283 294.51764 181.7592 296.2523Q181.62662 297.6886 181.64871 298.15262Q181.65976 298.60562 181.74815 298.98126L185.21739 295.51202Z" fill-rule="nonzero"/><path fill="#000000" d="M203.49352 323.7963L204.3332 324.636L199.64862 329.32056Q199.32822 329.02225 199.14038 328.61346Q198.85312 327.95053 198.77579 327.0998Q198.70949 326.238 198.84207 324.8901Q199.052 322.77982 198.89732 321.82965Q198.7537 320.86844 198.2565 320.37125Q197.73723 319.85196 197.00803 319.87405Q196.28987 319.8851 195.70428 320.47067Q195.07452 321.10043 195.06348 321.8628Q195.06348 322.6141 195.73744 323.28806L194.74307 324.08356Q193.83708 323.0008 193.91443 321.8849Q193.99176 320.7469 194.99718 319.7415Q196.0247 318.71396 197.17375 318.69186Q198.33385 318.65872 199.17354 319.4984Q199.60443 319.9293 199.83644 320.51486Q200.07951 321.0894 200.1237 321.95117Q200.17896 322.8019 200.03532 324.53653Q199.90274 325.97284 199.92484 326.4369Q199.93588 326.8899 200.02428 327.26553L203.49352 323.7963ZM201.92462 320.0619Q200.66508 318.80234 200.15686 317.7859Q199.64862 316.7473 199.74806 315.8303Q199.83644 314.90222 200.60985 314.1288Q201.18437 313.5543 201.84727 313.3554Q202.5102 313.15656 203.2173 313.31122Q203.93546 313.45486 204.70885 313.91888Q205.48225 314.38293 206.54291 315.4436Q207.7914 316.69208 208.29964 317.70853Q208.80786 318.725 208.71948 319.65308Q208.63109 320.58118 207.84663 321.3656Q206.83017 322.38208 205.50435 322.2274Q203.91336 322.05063 201.92462 320.0619ZM202.81955 319.16696Q204.56522 320.91263 205.54854 321.07834Q206.53186 321.24408 207.12848 320.64746Q207.73616 320.0398 207.57042 319.05646Q207.39365 318.0621 205.65903 316.32748Q203.90231 314.57074 202.91899 314.40503Q201.93567 314.2393 201.31696 314.858Q200.72034 315.45465 200.87502 316.31644Q201.07388 317.42126 202.81955 319.16696ZM214.35423 314.61496L213.4814 315.4878L207.93503 309.9414Q207.92398 310.54907 207.71405 311.37772Q207.50414 312.18427 207.25002 312.72565L206.41032 311.88596Q206.79703 310.81424 206.85226 309.78674Q206.91856 308.74817 206.67549 308.06317L207.23897 307.4997L214.35423 314.61496ZM214.22165 307.05774Q213.4814 307.40024 212.85162 307.3008Q212.23291 307.19034 211.71362 306.67105Q210.94023 305.89764 210.97337 304.82593Q211.00653 303.73215 211.92355 302.8151Q212.85162 301.88702 213.95648 301.86493Q215.07239 301.8318 215.84578 302.6052Q216.33192 303.0913 216.43137 303.7211Q216.54184 304.3398 216.21039 305.069Q217.07217 304.62708 217.88977 304.75964Q218.70735 304.89224 219.37027 305.55515Q220.27625 306.46112 220.25415 307.72067Q220.23206 308.9802 219.18245 310.02982Q218.13283 311.0794 216.86226 311.11255Q215.59167 311.1236 214.66359 310.19553Q213.97858 309.51053 213.8681 308.69293Q213.74657 307.8643 214.22165 307.05774ZM212.58647 305.75403Q213.08365 306.2512 213.72447 306.2512Q214.36528 306.2512 214.88457 305.73193Q215.39279 305.2237 215.40384 304.59393Q215.40384 303.9531 214.9398 303.48907Q214.46472 303.01398 213.81285 303.02502Q213.14995 303.02502 212.65276 303.52222Q212.15558 304.0194 212.14452 304.67126Q212.13347 305.30103 212.58647 305.75403ZM215.56956 309.31165Q215.94522 309.6873 216.47556 309.86407Q216.99483 310.02982 217.52516 309.87512Q218.06654 309.70938 218.47534 309.3006Q219.09406 308.6819 219.09406 307.88638Q219.1051 307.07983 218.48639 306.46112Q217.85661 305.83136 217.02798 305.8424Q216.19934 305.83136 215.56956 306.46112Q214.95085 307.07983 214.95085 307.89743Q214.9619 308.70398 215.56956 309.31165ZM223.78969 309.11276L223.15993 308.483L228.92726 302.71567L229.55702 303.34543L223.78969 309.11276ZM231.3248 297.64438L230.45197 298.5172L224.9056 292.97086Q224.89455 293.57852 224.68462 294.40717Q224.4747 295.2137 224.22058 295.7551L223.38089 294.9154Q223.7676 293.8437 223.82283 292.81616Q223.88913 291.77762 223.64606 291.0926L224.20953 290.5291L231.3248 297.64438Z" fill-rule="nonzero"/><path fill="#000000" d="M250.0539 323.7963L250.89359 324.636L246.209 329.32056Q245.8886 329.02225 245.70078 328.61346Q245.41351 327.95053 245.33617 327.09982Q245.26988 326.238 245.40247 324.8901Q245.61238 322.77982 245.4577 321.82965Q245.31407 320.86844 244.81688 320.37125Q244.2976 319.85196 243.5684 319.87405Q242.85025 319.8851 242.26468 320.47067Q241.6349 321.10046 241.62386 321.8628Q241.62386 322.6141 242.29782 323.28806L241.30345 324.08356Q240.39746 323.0008 240.47481 321.8849Q240.55215 320.7469 241.55757 319.7415Q242.58508 318.71396 243.73413 318.69186Q244.89423 318.65872 245.73392 319.4984Q246.16481 319.9293 246.39682 320.51486Q246.6399 321.0894 246.68408 321.95117Q246.73933 322.8019 246.5957 324.53656Q246.46312 325.97287 246.48521 326.4369Q246.49626 326.8899 246.58466 327.26553L250.0539 323.7963ZM248.485 320.0619Q247.22546 318.80234 246.71724 317.7859Q246.209 316.7473 246.30844 315.8303Q246.39684 314.9022 247.17024 314.1288Q247.74477 313.5543 248.40767 313.3554Q249.07059 313.15652 249.7777 313.31122Q250.49585 313.45483 251.26924 313.91888Q252.04265 314.38293 253.1033 315.44357Q254.35179 316.69208 254.86002 317.70853Q255.36826 318.725 255.27986 319.65308Q255.19148 320.58115 254.40703 321.3656Q253.39056 322.38208 252.06473 322.2274Q250.47374 322.05063 248.485 320.0619ZM249.37993 319.16696Q251.12561 320.91263 252.10893 321.07834Q253.09225 321.24408 253.68887 320.64746Q254.29654 320.03976 254.13081 319.05646Q253.95404 318.0621 252.21942 316.32745Q250.4627 314.57074 249.47939 314.40503Q248.49606 314.2393 247.87735 314.858Q247.28072 315.45462 247.4354 316.3164Q247.63426 317.4213 249.37993 319.16696ZM260.9146 314.61493L260.04178 315.4878L254.49542 309.9414Q254.48438 310.54907 254.27444 311.37772Q254.06453 312.18427 253.81041 312.72565L252.97072 311.88596Q253.35742 310.81424 253.41266 309.78674Q253.47896 308.74817 253.23589 308.06317L253.79936 307.4997L260.9146 314.61493ZM260.78204 307.05774Q260.04178 307.40024 259.41202 307.3008Q258.7933 307.1903 258.27402 306.67105Q257.5006 305.89764 257.53378 304.82593Q257.56693 303.73212 258.48395 302.8151Q259.41202 301.88702 260.51688 301.86493Q261.63278 301.8318 262.4062 302.60516Q262.8923 303.0913 262.99176 303.72107Q263.10223 304.33978 262.77078 305.069Q263.63257 304.62704 264.45016 304.75964Q265.26776 304.8922 265.93066 305.55515Q266.83664 306.46112 266.81454 307.72064Q266.79245 308.9802 265.74283 310.0298Q264.69324 311.0794 263.42264 311.11255Q262.15207 311.1236 261.22397 310.19553Q260.53897 309.51053 260.4285 308.69293Q260.30695 307.8643 260.78204 307.05774ZM259.14685 305.754Q259.64404 306.2512 260.28485 306.2512Q260.92566 306.2512 261.44495 305.7319Q261.9532 305.2237 261.96423 304.5939Q261.96423 303.9531 261.50018 303.48907Q261.02512 303.01398 260.37326 303.02502Q259.71033 303.02502 259.21313 303.52222Q258.71597 304.01938 258.70493 304.67126Q258.69388 305.30103 259.14685 305.754ZM262.12997 309.31165Q262.5056 309.6873 263.03595 309.86407Q263.55524 310.0298 264.08557 309.87512Q264.62692 309.70938 265.03574 309.3006Q265.65445 308.6819 265.65445 307.88638Q265.6655 307.07983 265.04678 306.46112Q264.41702 305.83136 263.58838 305.8424Q262.75974 305.83136 262.12997 306.46112Q261.51123 307.07983 261.51123 307.89743Q261.5223 308.70398 262.12997 309.31165ZM270.35007 309.11276L269.7203 308.483L275.48764 302.71567L276.11743 303.34543L270.35007 309.11276ZM278.33817 295.51202L279.17786 296.3517L274.4933 301.0363Q274.17288 300.73798 273.98505 300.32916Q273.69778 299.66626 273.62045 298.81552Q273.55417 297.95374 273.68674 296.6058Q273.89667 294.49554 273.74197 293.54538Q273.59836 292.58414 273.10117 292.08698Q272.58188 291.5677 271.8527 291.58978Q271.13452 291.60083 270.54895 292.1864Q269.9192 292.81616 269.90814 293.57852Q269.90814 294.3298 270.5821 295.00378L269.58774 295.7993Q268.68176 294.71652 268.7591 293.60062Q268.83643 292.46262 269.84186 291.45718Q270.86935 290.4297 272.0184 290.4076Q273.1785 290.37445 274.0182 291.21414Q274.4491 291.64502 274.68112 292.2306Q274.92416 292.8051 274.96838 293.6669Q275.02362 294.51764 274.87997 296.25226Q274.7474 297.68857 274.7695 298.15262Q274.78055 298.6056 274.86893 298.98126L278.33817 295.51202Z" fill-rule="nonzero"/><path fill="#000000" d="M296.6143 323.7963L297.45398 324.636L292.76938 329.32056Q292.44897 329.02225 292.26114 328.61346Q291.97388 327.95056 291.89655 327.09982Q291.83026 326.23804 291.96283 324.8901Q292.17276 322.77985 292.0181 321.82965Q291.87445 320.86844 291.37726 320.37125Q290.85797 319.85196 290.12878 319.87405Q289.4106 319.8851 288.82504 320.47067Q288.19528 321.10046 288.18423 321.8628Q288.18423 322.6141 288.8582 323.28806L287.86383 324.08356Q286.95786 323.0008 287.0352 321.8849Q287.11252 320.7469 288.11795 319.7415Q289.14545 318.71396 290.2945 318.69186Q291.45462 318.65872 292.29428 319.4984Q292.7252 319.92932 292.9572 320.5149Q293.2003 321.08942 293.24448 321.9512Q293.2997 322.80194 293.1561 324.53656Q293.0235 325.97287 293.0456 326.4369Q293.05664 326.8899 293.14502 327.26553L296.6143 323.7963ZM295.04538 320.0619Q293.78586 318.80237 293.27762 317.7859Q292.76938 316.7473 292.86884 315.8303Q292.9572 314.90222 293.73062 314.1288Q294.30515 313.5543 294.96805 313.35544Q295.63095 313.15656 296.33807 313.31122Q297.0562 313.45486 297.82962 313.9189Q298.60303 314.38293 299.66367 315.4436Q300.91217 316.69208 301.42038 317.70856Q301.92862 318.725 301.84024 319.6531Q301.75186 320.58118 300.9674 321.36563Q299.95093 322.38208 298.62512 322.22742Q297.03412 322.05063 295.04538 320.0619ZM295.9403 319.16696Q297.68597 320.91263 298.6693 321.07837Q299.65262 321.24408 300.24924 320.64746Q300.8569 320.0398 300.6912 319.0565Q300.5144 318.0621 298.7798 316.32748Q297.02307 314.57077 296.03976 314.40503Q295.05643 314.23932 294.4377 314.85803Q293.8411 315.45465 293.99576 316.31644Q294.19464 317.4213 295.9403 319.16696ZM307.475 314.61496L306.60217 315.4878L301.0558 309.94144Q301.04474 310.5491 300.8348 311.37775Q300.6249 312.18427 300.3708 312.72565L299.5311 311.88596Q299.9178 310.81427 299.97302 309.78674Q300.03934 308.74817 299.79626 308.06317L300.35974 307.4997L307.475 314.61496ZM308.34784 310.47174L309.11017 309.55472Q309.7952 310.04086 310.35867 310.00772Q310.9332 309.96353 311.39722 309.49948Q311.79498 309.10175 311.9165 308.62665Q312.03806 308.12946 311.9165 307.6323Q311.80603 307.12405 311.4193 306.47217Q311.03262 305.8203 310.49124 305.27893Q310.436 305.2237 310.30344 305.11322Q310.46915 305.78717 310.2813 306.50534Q310.08246 307.21243 309.55212 307.74277Q308.66824 308.62665 307.41974 308.5935Q306.17126 308.56036 305.1327 307.5218Q304.04996 306.43903 304.02786 305.1574Q304.00574 303.85367 304.96698 302.89246Q305.65198 302.20746 306.60217 302.00858Q307.5413 301.79865 308.53564 302.1964Q309.51898 302.5831 310.8227 303.8868Q312.18167 305.2458 312.6899 306.35065Q313.2092 307.44446 313.04346 308.44986Q312.87775 309.4553 312.0933 310.23975Q311.26465 311.0684 310.27026 311.13467Q309.28696 311.1899 308.34784 310.47174ZM308.77872 303.78738Q308.02744 303.03607 307.18774 302.99188Q306.34805 302.9477 305.79562 303.50012Q305.21005 304.0857 305.25424 304.99167Q305.29843 305.89764 306.04974 306.64896Q306.7237 307.3229 307.5634 307.34503Q308.39203 307.35608 308.98865 306.75943Q309.5963 306.15176 309.56317 305.34525Q309.51898 304.52765 308.77872 303.78738ZM316.91046 309.1128L316.28067 308.48303L322.04803 302.71567L322.6778 303.34546L316.91046 309.1128ZM324.44556 297.6444L323.57272 298.51724L318.02637 292.97086Q318.01532 293.57852 317.8054 294.40717Q317.59546 295.2137 317.34134 295.7551L316.50165 294.9154Q316.88837 293.8437 316.9436 292.8162Q317.0099 291.77762 316.7668 291.09262L317.3303 290.52914L324.44556 297.6444Z" fill-rule="nonzero"/><path fill="#000000" d="M343.17468 323.7963L344.01434 324.636L339.32977 329.32056Q339.00937 329.02225 338.82153 328.61346Q338.53427 327.95053 338.45694 327.09982Q338.39066 326.238 338.52322 324.8901Q338.73315 322.77982 338.57846 321.82965Q338.43484 320.86844 337.93765 320.37125Q337.41837 319.85196 336.68918 319.87405Q335.971 319.8851 335.38544 320.47067Q334.75568 321.10046 334.74463 321.8628Q334.74463 322.6141 335.41858 323.28806L334.42422 324.08356Q333.51825 323.0008 333.59558 321.8849Q333.6729 320.7469 334.67834 319.7415Q335.70584 318.71396 336.8549 318.69186Q338.01498 318.65872 338.85468 319.4984Q339.28558 319.9293 339.5176 320.51486Q339.76068 321.0894 339.80487 321.95117Q339.8601 322.8019 339.71646 324.53656Q339.5839 325.97287 339.606 326.4369Q339.61703 326.8899 339.7054 327.26553L343.17468 323.7963ZM341.60577 320.0619Q340.34625 318.80234 339.838 317.7859Q339.32977 316.7473 339.4292 315.8303Q339.5176 314.90222 340.291 314.1288Q340.8655 313.5543 341.52844 313.3554Q342.19135 313.15656 342.89847 313.31122Q343.6166 313.45486 344.39 313.91888Q345.1634 314.38293 346.22406 315.4436Q347.47256 316.69208 347.98077 317.70856Q348.489 318.725 348.40063 319.65308Q348.31226 320.58118 347.5278 321.3656Q346.51132 322.38208 345.18552 322.2274Q343.5945 322.05063 341.60577 320.0619ZM342.5007 319.16696Q344.24637 320.91263 345.2297 321.07834Q346.213 321.24408 346.80963 320.64746Q347.4173 320.0398 347.2516 319.05646Q347.0748 318.0621 345.34018 316.32748Q343.58347 314.57077 342.60016 314.40503Q341.61682 314.2393 340.9981 314.85803Q340.4015 315.45465 340.55615 316.31644Q340.75504 317.4213 342.5007 319.16696ZM354.0354 314.61496L353.16254 315.4878L347.61618 309.9414Q347.60513 310.5491 347.3952 311.37772Q347.1853 312.18427 346.93118 312.72565L346.0915 311.88596Q346.47818 310.81427 346.53342 309.78674Q346.59973 308.74817 346.35666 308.06317L346.92014 307.4997L354.0354 314.61496ZM354.90823 310.47174L355.67056 309.55472Q356.3556 310.04086 356.91907 310.00772Q357.4936 309.96353 357.9576 309.49948Q358.35538 309.10175 358.4769 308.62665Q358.59845 308.12946 358.4769 307.63226Q358.36642 307.12405 357.9797 306.47217Q357.59302 305.8203 357.05164 305.27893Q356.9964 305.2237 356.8638 305.11322Q357.02954 305.78717 356.8417 306.5053Q356.64285 307.21243 356.11252 307.74277Q355.22864 308.62665 353.98013 308.5935Q352.73166 308.56036 351.69308 307.5218Q350.61035 306.43903 350.58823 305.1574Q350.56613 303.85367 351.52737 302.89246Q352.21237 302.20743 353.16254 302.00858Q354.10168 301.79865 355.09604 302.19638Q356.07938 302.5831 357.3831 303.8868Q358.74207 305.2458 359.2503 306.35065Q359.7696 307.44446 359.60385 308.44986Q359.4381 309.4553 358.6537 310.23972Q357.82504 311.06836 356.83066 311.13467Q355.84735 311.1899 354.90823 310.47174ZM355.3391 303.78738Q354.5878 303.03607 353.74814 302.99188Q352.90845 302.9477 352.35602 303.50012Q351.77045 304.0857 351.81464 304.99167Q351.85883 305.89764 352.61014 306.64896Q353.2841 307.3229 354.12378 307.345Q354.95242 307.35605 355.54904 306.75943Q356.1567 306.15176 356.12357 305.3452Q356.07938 304.52762 355.3391 303.78738ZM363.47086 309.1128L362.84106 308.483L368.60843 302.71567L369.2382 303.34543L363.47086 309.1128ZM371.45895 295.51202L372.2986 296.3517L367.61404 301.0363Q367.29364 300.73798 367.1058 300.3292Q366.81854 299.66626 366.7412 298.81555Q366.67493 297.95374 366.8075 296.60583Q367.01743 294.49554 366.86273 293.54538Q366.71912 292.58417 366.22192 292.08698Q365.70264 291.5677 364.97345 291.58978Q364.25528 291.60083 363.6697 292.1864Q363.03995 292.8162 363.0289 293.57852Q363.0289 294.32983 363.70285 295.00378L362.7085 295.7993Q361.80252 294.71652 361.87985 293.60062Q361.95718 292.46262 362.96262 291.4572Q363.9901 290.4297 365.13916 290.4076Q366.29926 290.37445 367.13895 291.21414Q367.56985 291.64502 367.80188 292.2306Q368.04495 292.8051 368.08914 293.6669Q368.14438 294.51764 368.00073 296.2523Q367.86816 297.6886 367.89026 298.15262Q367.9013 298.60562 367.9897 298.98126L371.45895 295.51202Z" fill-rule="nonzero"/><path fill="#000000" d="M389.73505 323.7963L390.57474 324.636L385.89017 329.32056Q385.56976 329.02225 385.38193 328.61346Q385.09467 327.95053 385.01733 327.0998Q384.95105 326.238 385.08362 324.8901Q385.29355 322.77982 385.13885 321.82965Q384.99524 320.86844 384.49805 320.37125Q383.97876 319.85196 383.24957 319.87405Q382.5314 319.8851 381.94583 320.47067Q381.31607 321.10043 381.30502 321.8628Q381.30502 322.6141 381.97897 323.28806L380.98462 324.08356Q380.07864 323.0008 380.15598 321.8849Q380.2333 320.7469 381.23874 319.7415Q382.26624 318.71396 383.41528 318.69186Q384.57538 318.65872 385.41507 319.4984Q385.84598 319.9293 386.078 320.51486Q386.32108 321.0894 386.36526 321.95117Q386.4205 322.8019 386.27686 324.53653Q386.1443 325.97284 386.16638 326.4369Q386.17743 326.8899 386.2658 327.26553L389.73505 323.7963ZM388.16617 320.0619Q386.90665 318.80234 386.3984 317.7859Q385.89017 316.7473 385.9896 315.8303Q386.078 314.90222 386.85138 314.1288Q387.4259 313.5543 388.08884 313.3554Q388.75174 313.15656 389.45883 313.31122Q390.177 313.45486 390.9504 313.91888Q391.7238 314.38293 392.78445 315.4436Q394.03296 316.69208 394.54117 317.70853Q395.0494 318.725 394.96103 319.65308Q394.87262 320.58118 394.0882 321.3656Q393.07172 322.38208 391.74588 322.2274Q390.1549 322.05063 388.16617 320.0619ZM389.0611 319.16696Q390.80676 320.91263 391.7901 321.07834Q392.7734 321.24408 393.37003 320.64746Q393.9777 320.0398 393.81198 319.05646Q393.6352 318.0621 391.90057 316.32748Q390.14386 314.57074 389.16052 314.40503Q388.17722 314.2393 387.5585 314.858Q386.96188 315.45465 387.11655 316.31644Q387.31543 317.42126 389.0611 319.16696ZM401.04877 312.48257L401.88846 313.32227L397.2039 318.00684Q396.88345 317.70853 396.69565 317.29974Q396.4084 316.63684 396.33105 315.7861Q396.26474 314.92432 396.39734 313.5764Q396.60727 311.46613 396.45258 310.51593Q396.30893 309.55472 395.81177 309.05753Q395.29248 308.53824 394.56326 308.56033Q393.84512 308.57138 393.25955 309.15698Q392.6298 309.78674 392.61874 310.54907Q392.61874 311.30038 393.2927 311.97433L392.2983 312.76984Q391.39233 311.68707 391.4697 310.57117Q391.54703 309.43317 392.55243 308.42776Q393.57996 307.40024 394.729 307.37814Q395.8891 307.345 396.7288 308.1847Q397.15967 308.6156 397.3917 309.20117Q397.63477 309.7757 397.67896 310.63748Q397.7342 311.48822 397.59058 313.22284Q397.45798 314.65915 397.4801 315.12317Q397.49115 315.57617 397.57953 315.9518L401.04877 312.48257ZM399.4799 308.74817Q398.22034 307.48865 397.7121 306.47217Q397.2039 305.4336 397.3033 304.51657Q397.3917 303.5885 398.1651 302.8151Q398.73962 302.24057 399.40253 302.04172Q400.06546 301.84283 400.77255 301.9975Q401.49072 302.14114 402.2641 302.6052Q403.0375 303.0692 404.09818 304.12988Q405.34665 305.37836 405.8549 306.39484Q406.36313 307.4113 406.27472 308.3394Q406.18634 309.26746 405.4019 310.0519Q404.38544 311.06836 403.0596 310.9137Q401.46863 310.7369 399.4799 308.74817ZM400.37482 307.85324Q402.12048 309.5989 403.1038 309.76465Q404.08713 309.93036 404.68375 309.33374Q405.2914 308.72607 405.12567 307.74277Q404.9489 306.74838 403.2143 305.01376Q401.45755 303.25705 400.47424 303.0913Q399.49094 302.9256 398.8722 303.5443Q398.27557 304.14093 398.43027 305.00272Q398.62915 306.10757 400.37482 307.85324ZM410.03125 309.11276L409.40146 308.483L415.1688 302.71567L415.79858 303.34543L410.03125 309.11276ZM417.56635 297.64438L416.6935 298.5172L411.14713 292.97086Q411.13608 293.57852 410.92618 294.40717Q410.71625 295.2137 410.46213 295.7551L409.62244 294.9154Q410.00912 293.8437 410.0644 292.81616Q410.13068 291.77762 409.8876 291.0926L410.45108 290.5291L417.56635 297.64438Z" fill-rule="nonzero"/><path fill="#000000" d="M436.29544 323.7963L437.13513 324.636L432.45053 329.3206Q432.13013 329.02228 431.9423 328.61346Q431.65503 327.95056 431.5777 327.09982Q431.5114 326.23804 431.64398 324.8901Q431.8539 322.77985 431.69925 321.82965Q431.5556 320.86844 431.0584 320.37125Q430.53915 319.85196 429.80994 319.87408Q429.09177 319.88513 428.5062 320.4707Q427.87643 321.10046 427.8654 321.86282Q427.8654 322.6141 428.53937 323.2881L427.54498 324.08356Q426.639 323.00082 426.71634 321.88492Q426.79367 320.74692 427.7991 319.7415Q428.82663 318.71396 429.97568 318.69186Q431.13577 318.65872 431.97546 319.4984Q432.40634 319.92932 432.63837 320.5149Q432.88144 321.08942 432.92563 321.9512Q432.98087 322.80194 432.83725 324.53656Q432.70465 325.97287 432.72675 326.43692Q432.7378 326.8899 432.8262 327.26553L436.29544 323.7963ZM434.72653 320.0619Q433.467 318.80237 432.95877 317.7859Q432.45053 316.74734 432.55 315.8303Q432.63837 314.90222 433.41177 314.1288Q433.9863 313.5543 434.6492 313.35544Q435.3121 313.15656 436.01923 313.31125Q436.73737 313.45486 437.51077 313.9189Q438.28418 314.38293 439.34482 315.4436Q440.59332 316.69208 441.10156 317.70856Q441.60977 318.72504 441.5214 319.6531Q441.433 320.58118 440.64856 321.36563Q439.63208 322.38208 438.30627 322.22742Q436.71527 322.05063 434.72653 320.0619ZM435.62146 319.16696Q437.36713 320.91263 438.35046 321.07837Q439.33377 321.24408 439.9304 320.64746Q440.5381 320.0398 440.37234 319.0565Q440.19556 318.0621 438.46094 316.32748Q436.70422 314.57077 435.72092 314.40503Q434.73758 314.23932 434.11887 314.85803Q433.52225 315.45465 433.67694 316.31644Q433.8758 317.4213 435.62146 319.16696ZM447.60913 312.4826L448.44882 313.3223L443.76425 318.00687Q443.44385 317.70856 443.256 317.29977Q442.96875 316.63684 442.89142 315.7861Q442.82513 314.92432 442.9577 313.57642Q443.16763 311.46613 443.01294 310.51596Q442.86932 309.55472 442.37213 309.05756Q441.85284 308.53827 441.12366 308.56036Q440.4055 308.5714 439.81992 309.15698Q439.19016 309.78674 439.1791 310.5491Q439.1791 311.3004 439.85306 311.97437L438.8587 312.76987Q437.9527 311.6871 438.03006 310.5712Q438.1074 309.4332 439.11282 308.42776Q440.14032 307.40027 441.28937 307.37817Q442.44946 307.34503 443.28915 308.18472Q443.72006 308.6156 443.95206 309.20117Q444.19513 309.7757 444.23932 310.63748Q444.2946 311.48822 444.15094 313.22284Q444.01837 314.65915 444.04047 315.1232Q444.0515 315.5762 444.1399 315.95184L447.60913 312.4826ZM446.04025 308.7482Q444.7807 307.48865 444.2725 306.4722Q443.76425 305.43362 443.86368 304.5166Q443.95206 303.58853 444.72546 302.81512Q445.3 302.2406 445.96292 302.04172Q446.62582 301.84283 447.33292 301.99753Q448.0511 302.14114 448.8245 302.6052Q449.59787 303.06924 450.65854 304.12988Q451.907 305.3784 452.41525 306.39484Q452.9235 307.41132 452.8351 308.3394Q452.7467 309.26746 451.96228 310.0519Q450.9458 311.0684 449.61996 310.9137Q448.029 310.73694 446.04025 308.7482ZM446.93518 307.85324Q448.68085 309.59894 449.66415 309.76465Q450.6475 309.9304 451.2441 309.33377Q451.85178 308.7261 451.68607 307.74277Q451.50928 306.7484 449.77466 305.0138Q448.01794 303.25705 447.0346 303.09134Q446.0513 302.9256 445.4326 303.5443Q444.83597 304.14093 444.99063 305.00275Q445.1895 306.10757 446.93518 307.85324ZM456.5916 309.1128L455.96185 308.48303L461.7292 302.71567L462.35895 303.34546L456.5916 309.1128ZM464.5797 295.51202L465.4194 296.3517L460.7348 301.03632Q460.4144 300.738 460.22656 300.3292Q459.9393 299.6663 459.86197 298.81555Q459.7957 297.95377 459.92825 296.60583Q460.13818 294.49557 459.98352 293.54538Q459.83987 292.58417 459.34268 292.08698Q458.82343 291.5677 458.0942 291.5898Q457.37604 291.60086 456.79047 292.18643Q456.1607 292.8162 456.14966 293.57855Q456.14966 294.32983 456.82364 295.0038L455.82925 295.7993Q454.92328 294.71655 455.0006 293.60065Q455.07794 292.46265 456.08337 291.4572Q457.1109 290.4297 458.25995 290.4076Q459.42004 290.37445 460.25974 291.21414Q460.6906 291.64505 460.92264 292.23062Q461.1657 292.80515 461.2099 293.66693Q461.26514 294.51767 461.12152 296.2523Q460.98892 297.6886 461.01102 298.15265Q461.02206 298.60562 461.11047 298.98126L464.5797 295.51202Z" fill-rule="nonzero"/><path fill="#000000" d="M482.85583 323.7963L483.69553 324.636L479.01093 329.32056Q478.69052 329.02225 478.5027 328.61346Q478.21542 327.95056 478.1381 327.09982Q478.0718 326.23804 478.20438 324.8901Q478.4143 322.77985 478.25964 321.82965Q478.116 320.86844 477.6188 320.37125Q477.09952 319.85196 476.37033 319.87405Q475.65216 319.8851 475.0666 320.47067Q474.43683 321.10046 474.42578 321.8628Q474.42578 322.6141 475.09973 323.28806L474.10538 324.08356Q473.1994 323.0008 473.27673 321.8849Q473.35406 320.7469 474.3595 319.7415Q475.387 318.71396 476.53604 318.69186Q477.69617 318.65872 478.53583 319.4984Q478.96674 319.92932 479.19876 320.5149Q479.44183 321.08942 479.48602 321.9512Q479.54126 322.80194 479.3976 324.53656Q479.26505 325.97287 479.28714 326.4369Q479.2982 326.8899 479.38657 327.26553L482.85583 323.7963ZM481.28693 320.0619Q480.0274 318.80237 479.51917 317.7859Q479.01093 316.7473 479.11035 315.8303Q479.19876 314.90222 479.97217 314.1288Q480.5467 313.5543 481.2096 313.35544Q481.8725 313.15656 482.57962 313.31122Q483.29776 313.45486 484.07117 313.9189Q484.84457 314.38293 485.9052 315.4436Q487.15372 316.69208 487.66193 317.70856Q488.17017 318.725 488.0818 319.6531Q487.9934 320.58118 487.20895 321.36563Q486.19247 322.38208 484.86667 322.22742Q483.27567 322.05063 481.28693 320.0619ZM482.18185 319.16696Q483.92752 320.91263 484.91086 321.07837Q485.89417 321.24408 486.49078 320.64746Q487.09845 320.0398 486.93274 319.0565Q486.75595 318.0621 485.02133 316.32748Q483.26462 314.57077 482.2813 314.40503Q481.29797 314.23932 480.67926 314.85803Q480.08264 315.45465 480.2373 316.31644Q480.4362 317.4213 482.18185 319.16696ZM494.16953 312.4826L495.00922 313.32227L490.32465 318.00687Q490.00424 317.70856 489.8164 317.29974Q489.52914 316.63684 489.4518 315.7861Q489.3855 314.92432 489.5181 313.5764Q489.72803 311.46613 489.57333 310.51596Q489.42972 309.55472 488.93253 309.05756Q488.41324 308.53827 487.68405 308.56036Q486.96588 308.5714 486.3803 309.15698Q485.75055 309.78674 485.7395 310.5491Q485.7395 311.30038 486.41345 311.97437L485.4191 312.76987Q484.5131 311.6871 484.59045 310.5712Q484.6678 309.4332 485.6732 308.42776Q486.7007 307.40027 487.84976 307.37817Q489.00986 307.34503 489.84955 308.1847Q490.28046 308.6156 490.51245 309.20117Q490.75552 309.7757 490.7997 310.63748Q490.85498 311.48822 490.71133 313.22284Q490.57877 314.65915 490.60086 315.1232Q490.6119 315.57617 490.7003 315.95184L494.16953 312.4826ZM499.37338 308.9581L498.50055 309.83093L492.9542 304.28458Q492.94315 304.89224 492.73322 305.7209Q492.5233 306.52744 492.2692 307.06882L491.4295 306.22913Q491.8162 305.1574 491.87143 304.12988Q491.9377 303.09134 491.69467 302.4063L492.25815 301.84283L499.37338 308.9581ZM503.152 309.1128L502.52222 308.48303L508.28955 302.7157L508.9193 303.34546L503.152 309.1128ZM510.68707 297.6444L509.81424 298.51724L504.26788 292.9709Q504.25684 293.57855 504.0469 294.4072Q503.83698 295.21375 503.58286 295.75513L502.7432 294.91544Q503.12988 293.84372 503.18512 292.8162Q503.2514 291.77765 503.00833 291.09262L503.5718 290.52914L510.68707 297.6444Z" fill-rule="nonzero"/><path fill="#000000" d="M529.4162 323.7963L530.2559 324.636L525.57135 329.32056Q525.2509 329.02225 525.0631 328.61346Q524.7758 327.95053 524.6985 327.0998Q524.6322 326.238 524.7648 324.8901Q524.9747 322.77982 524.82 321.82965Q524.6764 320.86844 524.1792 320.37125Q523.6599 319.85196 522.9307 319.87405Q522.2126 319.8851 521.627 320.47067Q520.99725 321.10043 520.9862 321.8628Q520.9862 322.6141 521.66016 323.28806L520.6658 324.08356Q519.75977 323.0008 519.83716 321.8849Q519.9145 320.7469 520.91986 319.7415Q521.9474 318.71396 523.09644 318.69186Q524.25653 318.65872 525.09625 319.4984Q525.5271 319.9293 525.75916 320.51486Q526.0022 321.0894 526.0464 321.95117Q526.1016 322.8019 525.958 324.53656Q525.82544 325.97287 525.84753 326.4369Q525.8586 326.8899 525.94696 327.26553L529.4162 323.7963ZM527.84735 320.0619Q526.58777 318.80234 526.0795 317.7859Q525.57135 316.7473 525.6708 315.8303Q525.75916 314.90222 526.53253 314.1288Q527.10706 313.5543 527.76996 313.3554Q528.4329 313.15656 529.14 313.31122Q529.85815 313.45486 530.63153 313.91888Q531.40497 314.38293 532.46564 315.4436Q533.7141 316.69208 534.22235 317.70856Q534.7306 318.725 534.64215 319.65308Q534.5538 320.58118 533.76935 321.3656Q532.75287 322.38208 531.42706 322.2274Q529.83606 322.05063 527.84735 320.0619ZM528.74225 319.16696Q530.4879 320.91263 531.47125 321.07834Q532.4546 321.24408 533.0512 320.64746Q533.6589 320.0398 533.4931 319.05646Q533.31635 318.0621 531.5817 316.32748Q529.825 314.57077 528.8417 314.40503Q527.8584 314.2393 527.2396 314.85803Q526.643 315.45465 526.7977 316.31644Q526.9966 317.4213 528.74225 319.16696ZM540.7299 312.48257L541.56964 313.32227L536.885 318.00687Q536.56464 317.70856 536.3768 317.29974Q536.08954 316.63684 536.0122 315.7861Q535.9459 314.92432 536.0785 313.5764Q536.2884 311.46613 536.1337 310.51593Q535.9901 309.55472 535.4929 309.05753Q534.97363 308.53827 534.24445 308.56036Q533.52625 308.5714 532.9407 309.15698Q532.3109 309.78674 532.29987 310.5491Q532.29987 311.30038 532.9738 311.97437L531.9795 312.76984Q531.0735 311.6871 531.1508 310.5712Q531.22815 309.4332 532.2336 308.42776Q533.2611 307.40027 534.41016 307.37814Q535.57025 307.345 536.41 308.1847Q536.8408 308.6156 537.0729 309.20117Q537.3159 309.7757 537.3601 310.63748Q537.41534 311.48822 537.2717 313.22284Q537.13916 314.65915 537.16125 315.1232Q537.1723 315.57617 537.2607 315.9518L540.7299 312.48257ZM545.9338 308.9581L545.061 309.83093L539.5146 304.28458Q539.50354 304.89224 539.29364 305.7209Q539.0837 306.5274 538.8296 307.0688L537.98987 306.2291Q538.3766 305.1574 538.4318 304.12988Q538.4981 303.0913 538.25507 302.4063L538.81854 301.84283L545.9338 308.9581ZM549.7124 309.1128L549.08264 308.483L554.85 302.71567L555.47974 303.34543L549.7124 309.1128ZM557.7005 295.51202L558.54016 296.3517L553.8556 301.0363Q553.53516 300.73798 553.34735 300.3292Q553.0601 299.66626 552.9828 298.81552Q552.91644 297.95374 553.0491 296.60583Q553.259 294.49554 553.1043 293.54538Q552.96063 292.58417 552.4635 292.08698Q551.9442 291.5677 551.21497 291.58978Q550.4968 291.60083 549.91125 292.1864Q549.2815 292.81616 549.27045 293.57852Q549.27045 294.32983 549.9444 295.00378L548.95 295.7993Q548.04407 294.71652 548.1214 293.60062Q548.1987 292.46262 549.20416 291.4572Q550.2317 290.4297 551.38074 290.4076Q552.54083 290.37445 553.3805 291.21414Q553.8114 291.64502 554.0434 292.2306Q554.2865 292.8051 554.3307 293.6669Q554.3859 294.51764 554.2423 296.2523Q554.1097 297.6886 554.13184 298.15262Q554.1429 298.60562 554.23126 298.98126L557.7005 295.51202Z" fill-rule="nonzero"/><path fill="#ea4335" d="M222.80833 341.45C222.80833 340.8977 223.25604 340.45 223.80833 340.45L233.80833 340.45C234.36061 340.45 234.80833 340.8977 234.80833 341.45L234.80833 351.45C234.80833 352.0023 234.36061 352.45 233.80833 352.45L223.80833 352.45C223.25604 352.45 222.80833 352.0023 222.80833 351.45Z" fill-rule="nonzero"/><path fill="#1a1a1a" d="M243.73021 351.45L243.73021 344.1844L244.83958 344.1844L244.83958 345.21564Q245.63646 344.02814 247.15208 344.02814Q247.80833 344.02814 248.35521 344.2625Q248.90208 344.4969 249.16771 344.8875Q249.44896 345.2625 249.55833 345.79376Q249.63646 346.1375 249.63646 346.98126L249.63646 351.45L248.40208 351.45L248.40208 347.02814Q248.40208 346.27814 248.26146 345.91876Q248.12083 345.54376 247.74583 345.325Q247.38646 345.09064 246.88646 345.09064Q246.10521 345.09064 245.52708 345.59064Q244.96458 346.09064 244.96458 347.48126L244.96458 351.45L243.73021 351.45ZM256.69897 349.10626L257.98022 349.2625Q257.66772 350.3875 256.85522 351.0125Q256.04272 351.6219 254.77708 351.6219Q253.18333 351.6219 252.24583 350.6375Q251.32396 349.65314 251.32396 347.8875Q251.32396 346.04376 252.26146 345.04376Q253.21458 344.02814 254.71458 344.02814Q256.16772 344.02814 257.0896 345.02814Q258.01147 346.0125 258.01147 347.8094Q258.01147 347.91876 258.01147 348.1375L252.58958 348.1375Q252.66771 349.325 253.26146 349.96564Q253.87083 350.60626 254.79271 350.60626Q255.46458 350.60626 255.93333 350.2469Q256.41772 349.8875 256.69897 349.10626ZM252.66771 347.1219L256.7146 347.1219Q256.63647 346.2 256.24585 345.7469Q255.66771 345.04376 254.73021 345.04376Q253.87083 345.04376 253.29271 345.60626Q252.73021 346.16876 252.66771 347.1219ZM259.51147 352.0594L260.69897 352.23126Q260.7771 352.77814 261.12085 353.04376Q261.57397 353.3719 262.37085 353.3719Q263.23022 353.3719 263.68335 353.02814Q264.1521 352.7 264.32397 352.075Q264.41772 351.7 264.4021 350.4969Q263.60522 351.45 262.4021 351.45Q260.9021 351.45 260.07397 350.3719Q259.26147 349.29376 259.26147 347.77814Q259.26147 346.7469 259.63647 345.8719Q260.01147 344.98126 260.7146 344.5125Q261.43335 344.02814 262.4021 344.02814Q263.68335 344.02814 264.5271 345.0594L264.5271 344.1844L265.6521 344.1844L265.6521 350.46564Q265.6521 352.16876 265.30835 352.8719Q264.9646 353.575 264.2146 353.98126Q263.4646 354.40314 262.37085 354.40314Q261.07397 354.40314 260.2771 353.8094Q259.48022 353.23126 259.51147 352.0594ZM260.5271 347.6844Q260.5271 349.1219 261.0896 349.77814Q261.6521 350.4344 262.51147 350.4344Q263.35522 350.4344 263.93335 349.77814Q264.51147 349.1219 264.51147 347.73126Q264.51147 346.40314 263.91772 345.73126Q263.32397 345.04376 262.49585 345.04376Q261.66772 345.04376 261.0896 345.71564Q260.5271 346.3719 260.5271 347.6844ZM272.4646 350.5594Q271.79272 351.1375 271.1521 351.3875Q270.5271 351.6219 269.79272 351.6219Q268.60522 351.6219 267.94897 351.04376Q267.30835 350.45 267.30835 349.52814Q267.30835 348.9969 267.54272 348.5594Q267.79272 348.1219 268.18335 347.85626Q268.5896 347.59064 269.07397 347.45Q269.43335 347.35626 270.16772 347.2625Q271.66772 347.09064 272.37085 346.84064Q272.37085 346.59064 272.37085 346.52814Q272.37085 345.7625 272.0271 345.46564Q271.55835 345.04376 270.62085 345.04376Q269.76147 345.04376 269.3396 345.35626Q268.93335 345.65314 268.73022 346.41876L267.5271 346.2625Q267.68335 345.48126 268.05835 345.0125Q268.44897 344.54376 269.1521 344.29376Q269.87085 344.02814 270.80835 344.02814Q271.73022 344.02814 272.30835 344.2469Q272.88647 344.46564 273.1521 344.79376Q273.43335 345.1219 273.54272 345.6375Q273.60522 345.95 273.60522 346.7625L273.60522 348.40314Q273.60522 350.1219 273.68335 350.575Q273.76147 351.02814 273.99585 351.45L272.7146 351.45Q272.5271 351.0594 272.4646 350.5594ZM272.37085 347.8094Q271.69897 348.075 270.35522 348.27814Q269.60522 348.3875 269.2771 348.52814Q268.9646 348.65314 268.79272 348.91876Q268.62085 349.1844 268.62085 349.4969Q268.62085 349.9969 268.99585 350.325Q269.37085 350.65314 270.0896 350.65314Q270.80835 350.65314 271.35522 350.34064Q271.9021 350.02814 272.16772 349.48126Q272.37085 349.075 272.37085 348.2625L272.37085 347.8094ZM278.41772 350.35626L278.5896 351.4344Q278.07397 351.54376 277.66772 351.54376Q276.99585 351.54376 276.62085 351.34064Q276.26147 351.1219 276.10522 350.77814Q275.9646 350.4344 275.9646 349.325L275.9646 345.15314L275.05835 345.15314L275.05835 344.1844L275.9646 344.1844L275.9646 342.3875L277.18335 341.65314L277.18335 344.1844L278.41772 344.1844L278.41772 345.15314L277.18335 345.15314L277.18335 349.3875Q277.18335 349.91876 277.24585 350.075Q277.30835 350.21564 277.44897 350.3094Q277.60522 350.40314 277.87085 350.40314Q278.0896 350.40314 278.41772 350.35626ZM279.68335 354.2469L279.54272 353.09064Q279.94897 353.2 280.24585 353.2Q280.6521 353.2 280.9021 353.0594Q281.1521 352.9344 281.30835 352.6844Q281.41772 352.4969 281.68335 351.7625Q281.7146 351.66876 281.79272 351.46564L279.0271 344.1844L280.35522 344.1844L281.87085 348.3875Q282.16772 349.2 282.4021 350.075Q282.60522 349.23126 282.9021 348.41876L284.44897 344.1844L285.68335 344.1844L282.91772 351.575Q282.48022 352.7625 282.23022 353.21564Q281.9021 353.825 281.48022 354.10626Q281.05835 354.40314 280.4646 354.40314Q280.12085 354.40314 279.68335 354.2469ZM288.07397 351.45L285.85522 344.1844L287.12085 344.1844L288.2771 348.3875L288.7146 349.9344Q288.73022 349.825 289.0896 348.4344L290.24585 344.1844L291.49585 344.1844L292.5896 348.40314L292.94897 349.79376L293.37085 348.3875L294.62085 344.1844L295.80835 344.1844L293.54272 351.45L292.26147 351.45L291.10522 347.10626L290.82397 345.8719L289.35522 351.45L288.07397 351.45ZM295.73022 351.45L295.73022 344.1844L296.8396 344.1844L296.8396 345.21564Q297.63647 344.02814 299.1521 344.02814Q299.80835 344.02814 300.35522 344.2625Q300.9021 344.4969 301.16772 344.8875Q301.44897 345.2625 301.55835 345.79376Q301.63647 346.1375 301.63647 346.98126L301.63647 351.45L300.4021 351.45L300.4021 347.02814Q300.4021 346.27814 300.26147 345.91876Q300.12085 345.54376 299.74585 345.325Q299.38647 345.09064 298.88647 345.09064Q298.10522 345.09064 297.5271 345.59064Q296.9646 346.09064 296.9646 347.48126L296.9646 351.45L295.73022 351.45ZM308.69897 349.10626L309.98022 349.2625Q309.66772 350.3875 308.85522 351.0125Q308.04272 351.6219 306.7771 351.6219Q305.18335 351.6219 304.24585 350.6375Q303.32397 349.65314 303.32397 347.8875Q303.32397 346.04376 304.26147 345.04376Q305.2146 344.02814 306.7146 344.02814Q308.16772 344.02814 309.0896 345.02814Q310.01147 346.0125 310.01147 347.8094Q310.01147 347.91876 310.01147 348.1375L304.5896 348.1375Q304.66772 349.325 305.26147 349.96564Q305.87085 350.60626 306.79272 350.60626Q307.4646 350.60626 307.93335 350.2469Q308.41772 349.8875 308.69897 349.10626ZM304.66772 347.1219L308.7146 347.1219Q308.63647 346.2 308.24585 345.7469Q307.66772 345.04376 306.73022 345.04376Q305.87085 345.04376 305.29272 345.60626Q304.73022 346.16876 304.66772 347.1219Z" fill-rule="nonzero"/><path fill="#4285f4" d="M326.80832 341.45C326.80832 340.8977 327.25604 340.45 327.80832 340.45L337.80832 340.45C338.36063 340.45 338.80832 340.8977 338.80832 341.45L338.80832 351.45C338.80832 352.0023 338.36063 352.45 337.80832 352.45L327.80832 352.45C327.25604 352.45 326.80832 352.0023 326.80832 351.45Z" fill-rule="nonzero"/><path fill="#1a1a1a" d="M347.7302 354.23126L347.7302 344.1844L348.8552 344.1844L348.8552 345.1375Q349.24582 344.575 349.74582 344.3094Q350.24582 344.02814 350.96457 344.02814Q351.88644 344.02814 352.58957 344.5125Q353.30832 344.98126 353.6677 345.85626Q354.02707 346.73126 354.02707 347.7625Q354.02707 348.8719 353.62082 349.77814Q353.2302 350.66876 352.46457 351.15314Q351.71457 351.6219 350.87082 351.6219Q350.26144 351.6219 349.76144 351.35626Q349.27707 351.09064 348.96457 350.7L348.96457 354.23126L347.7302 354.23126ZM348.83957 347.85626Q348.83957 349.2625 349.40207 349.9344Q349.9802 350.60626 350.7927 350.60626Q351.6052 350.60626 352.18332 349.91876Q352.77707 349.21564 352.77707 347.7625Q352.77707 346.3719 352.19894 345.6844Q351.63644 344.9969 350.83957 344.9969Q350.05832 344.9969 349.44894 345.73126Q348.83957 346.46564 348.83957 347.85626ZM355.27707 347.825Q355.27707 345.8094 356.40207 344.825Q357.32394 344.02814 358.68332 344.02814Q360.1677 344.02814 361.12082 345.0125Q362.07394 345.98126 362.07394 347.71564Q362.07394 349.1219 361.65207 349.9344Q361.2302 350.73126 360.4177 351.1844Q359.62082 351.6219 358.68332 351.6219Q357.15207 351.6219 356.21457 350.6375Q355.27707 349.65314 355.27707 347.825ZM356.5427 347.825Q356.5427 349.21564 357.15207 349.91876Q357.76144 350.60626 358.68332 350.60626Q359.58957 350.60626 360.19894 349.90314Q360.80832 349.2 360.80832 347.77814Q360.80832 346.4344 360.19894 345.7469Q359.58957 345.04376 358.68332 345.04376Q357.76144 345.04376 357.15207 345.73126Q356.5427 346.41876 356.5427 347.825ZM363.08957 351.45L363.08957 350.45L367.69894 345.15314Q366.9177 345.1844 366.30832 345.1844L363.3552 345.1844L363.3552 344.1844L369.2927 344.1844L369.2927 344.9969L365.3552 349.60626L364.6052 350.45Q365.43332 350.3875 366.15207 350.3875L369.51144 350.3875L369.51144 351.45L363.08957 351.45ZM369.68332 354.2469L369.5427 353.09064Q369.94894 353.2 370.24582 353.2Q370.65207 353.2 370.90207 353.0594Q371.15207 352.9344 371.30832 352.6844Q371.4177 352.4969 371.68332 351.7625Q371.71457 351.66876 371.7927 351.46564L369.02707 344.1844L370.3552 344.1844L371.87082 348.3875Q372.1677 349.2 372.40207 350.075Q372.6052 349.23126 372.90207 348.41876L374.44894 344.1844L375.68332 344.1844L372.9177 351.575Q372.4802 352.7625 372.2302 353.21564Q371.90207 353.825 371.4802 354.10626Q371.05832 354.40314 370.46457 354.40314Q370.12082 354.40314 369.68332 354.2469ZM379.4177 350.35626L379.58957 351.4344Q379.07394 351.54376 378.6677 351.54376Q377.99582 351.54376 377.62082 351.34064Q377.26144 351.1219 377.1052 350.77814Q376.96457 350.4344 376.96457 349.325L376.96457 345.15314L376.05832 345.15314L376.05832 344.1844L376.96457 344.1844L376.96457 342.3875L378.18332 341.65314L378.18332 344.1844L379.4177 344.1844L379.4177 345.15314L378.18332 345.15314L378.18332 349.3875Q378.18332 349.91876 378.24582 350.075Q378.30832 350.21564 378.44894 350.3094Q378.6052 350.40314 378.87082 350.40314Q379.08957 350.40314 379.4177 350.35626ZM380.68332 354.2469L380.5427 353.09064Q380.94894 353.2 381.24582 353.2Q381.65207 353.2 381.90207 353.0594Q382.15207 352.9344 382.30832 352.6844Q382.4177 352.4969 382.68332 351.7625Q382.71457 351.66876 382.7927 351.46564L380.02707 344.1844L381.3552 344.1844L382.87082 348.3875Q383.1677 349.2 383.40207 350.075Q383.6052 349.23126 383.90207 348.41876L385.44894 344.1844L386.68332 344.1844L383.9177 351.575Q383.4802 352.7625 383.2302 353.21564Q382.90207 353.825 382.4802 354.10626Q382.05832 354.40314 381.46457 354.40314Q381.12082 354.40314 380.68332 354.2469ZM389.07394 351.45L386.8552 344.1844L388.12082 344.1844L389.27707 348.3875L389.71457 349.9344Q389.7302 349.825 390.08957 348.4344L391.24582 344.1844L392.49582 344.1844L393.58957 348.40314L393.94894 349.79376L394.37082 348.3875L395.62082 344.1844L396.80832 344.1844L394.5427 351.45L393.26144 351.45L392.1052 347.10626L391.82394 345.8719L390.3552 351.45L389.07394 351.45ZM396.7302 351.45L396.7302 344.1844L397.83957 344.1844L397.83957 345.21564Q398.63644 344.02814 400.15207 344.02814Q400.80832 344.02814 401.3552 344.2625Q401.90207 344.4969 402.1677 344.8875Q402.44894 345.2625 402.55832 345.79376Q402.63644 346.1375 402.63644 346.98126L402.63644 351.45L401.40207 351.45L401.40207 347.02814Q401.40207 346.27814 401.26144 345.91876Q401.12082 345.54376 400.74582 345.325Q400.38644 345.09064 399.88644 345.09064Q399.1052 345.09064 398.52707 345.59064Q397.96457 346.09064 397.96457 347.48126L397.96457 351.45L396.7302 351.45ZM409.69894 349.10626L410.9802 349.2625Q410.6677 350.3875 409.8552 351.0125Q409.0427 351.6219 407.77707 351.6219Q406.18332 351.6219 405.24582 350.6375Q404.32394 349.65314 404.32394 347.8875Q404.32394 346.04376 405.26144 345.04376Q406.21457 344.02814 407.71457 344.02814Q409.1677 344.02814 410.08957 345.02814Q411.01144 346.0125 411.01144 347.8094Q411.01144 347.91876 411.01144 348.1375L405.58957 348.1375Q405.6677 349.325 406.26144 349.96564Q406.87082 350.60626 407.7927 350.60626Q408.46457 350.60626 408.93332 350.2469Q409.4177 349.8875 409.69894 349.10626ZM405.6677 347.1219L409.71457 347.1219Q409.63644 346.2 409.24582 345.7469Q408.6677 345.04376 407.7302 345.04376Q406.87082 345.04376 406.2927 345.60626Q405.7302 346.16876 405.6677 347.1219Z" fill-rule="nonzero"/><path fill="#999999" d="M260.26562 63.05L258.04688 55.784374L259.3125 55.784374L260.46875 59.9875L260.90625 61.534374Q260.92188 61.425 261.28125 60.034374L262.4375 55.784374L263.6875 55.784374L264.78125 60.003124L265.14062 61.39375L265.5625 59.9875L266.8125 55.784374L268.0 55.784374L265.73438 63.05L264.45312 63.05L263.29688 58.70625L263.01562 57.471874L261.54688 63.05L260.26562 63.05ZM271.92188 65.83125L271.92188 55.784374L273.04688 55.784374L273.04688 56.7375Q273.4375 56.175 273.9375 55.909374Q274.4375 55.628124 275.15625 55.628124Q276.07812 55.628124 276.78125 56.1125Q277.5 56.58125 277.85938 57.45625Q278.21875 58.33125 278.21875 59.3625Q278.21875 60.471874 277.8125 61.378124Q277.42188 62.26875 276.65625 62.753124Q275.90625 63.221874 275.0625 63.221874Q274.45312 63.221874 273.95312 62.95625Q273.46875 62.690624 273.15625 62.3L273.15625 65.83125L271.92188 65.83125ZM273.03125 59.45625Q273.03125 60.8625 273.59375 61.534374Q274.17188 62.20625 274.98438 62.20625Q275.79688 62.20625 276.375 61.51875Q276.96875 60.815624 276.96875 59.3625Q276.96875 57.971874 276.39062 57.284374Q275.82812 56.596874 275.03125 56.596874Q274.25 56.596874 273.64062 57.33125Q273.03125 58.065624 273.03125 59.45625ZM279.90625 63.05L279.90625 55.784374L281.01562 55.784374L281.01562 56.89375Q281.4375 56.1125 281.79688 55.878124Q282.15625 55.628124 282.59375 55.628124Q283.21875 55.628124 283.85938 56.01875L283.4375 57.159374Q282.98438 56.89375 282.53125 56.89375Q282.125 56.89375 281.79688 57.14375Q281.48438 57.378124 281.34375 57.815624Q281.14062 58.471874 281.14062 59.253124L281.14062 63.05L279.90625 63.05ZM284.46875 59.425Q284.46875 57.409374 285.59375 56.425Q286.51562 55.628124 287.875 55.628124Q289.35938 55.628124 290.3125 56.6125Q291.26562 57.58125 291.26562 59.315624Q291.26562 60.721874 290.84375 61.534374Q290.42188 62.33125 289.60938 62.784374Q288.8125 63.221874 287.875 63.221874Q286.34375 63.221874 285.40625 62.2375Q284.46875 61.253124 284.46875 59.425ZM285.73438 59.425Q285.73438 60.815624 286.34375 61.51875Q286.95312 62.20625 287.875 62.20625Q288.78125 62.20625 289.39062 61.503124Q290.0 60.8 290.0 59.378124Q290.0 58.034374 289.39062 57.346874Q288.78125 56.64375 287.875 56.64375Q286.95312 56.64375 286.34375 57.33125Q285.73438 58.01875 285.73438 59.425ZM297.65625 60.39375L298.875 60.55Q298.67188 61.8 297.84375 62.51875Q297.03125 63.221874 295.84375 63.221874Q294.35938 63.221874 293.45312 62.253124Q292.54688 61.26875 292.54688 59.440624Q292.54688 58.26875 292.9375 57.39375Q293.32812 56.503124 294.125 56.065624Q294.92188 55.628124 295.85938 55.628124Q297.03125 55.628124 297.78125 56.221874Q298.54688 56.815624 298.75 57.925L297.5625 58.1125Q297.39062 57.378124 296.95312 57.01875Q296.51562 56.64375 295.90625 56.64375Q294.96875 56.64375 294.39062 57.315624Q293.8125 57.971874 293.8125 59.409374Q293.8125 60.878124 294.375 61.55Q294.9375 62.20625 295.82812 62.20625Q296.5625 62.20625 297.04688 61.76875Q297.53125 61.315624 297.65625 60.39375ZM304.89062 60.70625L306.17188 60.8625Q305.85938 61.9875 305.04688 62.6125Q304.23438 63.221874 302.96875 63.221874Q301.375 63.221874 300.4375 62.2375Q299.51562 61.253124 299.51562 59.4875Q299.51562 57.64375 300.45312 56.64375Q301.40625 55.628124 302.90625 55.628124Q304.35938 55.628124 305.28125 56.628124Q306.20312 57.6125 306.20312 59.409374Q306.20312 59.51875 306.20312 59.7375L300.78125 59.7375Q300.85938 60.925 301.45312 61.565624Q302.0625 62.20625 302.98438 62.20625Q303.65625 62.20625 304.125 61.846874Q304.60938 61.4875 304.89062 60.70625ZM300.85938 58.721874L304.90625 58.721874Q304.82812 57.8 304.4375 57.346874Q303.85938 56.64375 302.92188 56.64375Q302.0625 56.64375 301.48438 57.20625Q300.92188 57.76875 300.85938 58.721874ZM307.92188 63.05L307.92188 55.784374L309.03125 55.784374L309.03125 56.815624Q309.82812 55.628124 311.34375 55.628124Q312.0 55.628124 312.54688 55.8625Q313.09375 56.096874 313.35938 56.4875Q313.64062 56.8625 313.75 57.39375Q313.82812 57.7375 313.82812 58.58125L313.82812 63.05L312.59375 63.05L312.59375 58.628124Q312.59375 57.878124 312.45312 57.51875Q312.3125 57.14375 311.9375 56.925Q311.57812 56.690624 311.07812 56.690624Q310.29688 56.690624 309.71875 57.190624Q309.15625 57.690624 309.15625 59.08125L309.15625 63.05L307.92188 63.05ZM318.60938 61.95625L318.78125 63.034374Q318.26562 63.14375 317.85938 63.14375Q317.1875 63.14375 316.8125 62.940624Q316.45312 62.721874 316.29688 62.378124Q316.15625 62.034374 316.15625 60.925L316.15625 56.753124L315.25 56.753124L315.25 55.784374L316.15625 55.784374L316.15625 53.9875L317.375 53.253124L317.375 55.784374L318.60938 55.784374L318.60938 56.753124L317.375 56.753124L317.375 60.9875Q317.375 61.51875 317.4375 61.675Q317.5 61.815624 317.64062 61.909374Q317.79688 62.003124 318.0625 62.003124Q318.28125 62.003124 318.60938 61.95625ZM324.65625 62.159374Q323.98438 62.7375 323.34375 62.9875Q322.71875 63.221874 321.98438 63.221874Q320.79688 63.221874 320.14062 62.64375Q319.5 62.05 319.5 61.128124Q319.5 60.596874 319.73438 60.159374Q319.98438 59.721874 320.375 59.45625Q320.78125 59.190624 321.26562 59.05Q321.625 58.95625 322.35938 58.8625Q323.85938 58.690624 324.5625 58.440624Q324.5625 58.190624 324.5625 58.128124Q324.5625 57.3625 324.21875 57.065624Q323.75 56.64375 322.8125 56.64375Q321.95312 56.64375 321.53125 56.95625Q321.125 57.253124 320.92188 58.01875L319.71875 57.8625Q319.875 57.08125 320.25 56.6125Q320.64062 56.14375 321.34375 55.89375Q322.0625 55.628124 323.0 55.628124Q323.92188 55.628124 324.5 55.846874Q325.07812 56.065624 325.34375 56.39375Q325.625 56.721874 325.73438 57.2375Q325.79688 57.55 325.79688 58.3625L325.79688 60.003124Q325.79688 61.721874 325.875 62.175Q325.95312 62.628124 326.1875 63.05L324.90625 63.05Q324.71875 62.659374 324.65625 62.159374ZM324.5625 59.409374Q323.89062 59.675 322.54688 59.878124Q321.79688 59.9875 321.46875 60.128124Q321.15625 60.253124 320.98438 60.51875Q320.8125 60.784374 320.8125 61.096874Q320.8125 61.596874 321.1875 61.925Q321.5625 62.253124 322.28125 62.253124Q323.0 62.253124 323.54688 61.940624Q324.09375 61.628124 324.35938 61.08125Q324.5625 60.675 324.5625 59.8625L324.5625 59.409374ZM332.65625 60.39375L333.875 60.55Q333.67188 61.8 332.84375 62.51875Q332.03125 63.221874 330.84375 63.221874Q329.35938 63.221874 328.45312 62.253124Q327.54688 61.26875 327.54688 59.440624Q327.54688 58.26875 327.9375 57.39375Q328.32812 56.503124 329.125 56.065624Q329.92188 55.628124 330.85938 55.628124Q332.03125 55.628124 332.78125 56.221874Q333.54688 56.815624 333.75 57.925L332.5625 58.1125Q332.39062 57.378124 331.95312 57.01875Q331.51562 56.64375 330.90625 56.64375Q329.96875 56.64375 329.39062 57.315624Q328.8125 57.971874 328.8125 59.409374Q328.8125 60.878124 329.375 61.55Q329.9375 62.20625 330.82812 62.20625Q331.5625 62.20625 332.04688 61.76875Q332.53125 61.315624 332.65625 60.39375ZM334.92188 63.05L334.92188 53.034374L336.15625 53.034374L336.15625 56.628124Q337.01562 55.628124 338.32812 55.628124Q339.14062 55.628124 339.73438 55.95625Q340.32812 56.26875 340.57812 56.83125Q340.84375 57.378124 340.84375 58.45625L340.84375 63.05L339.60938 63.05L339.60938 58.45625Q339.60938 57.51875 339.20312 57.1125Q338.8125 56.690624 338.07812 56.690624Q337.53125 56.690624 337.04688 56.971874Q336.5625 57.253124 336.35938 57.7375Q336.15625 58.221874 336.15625 59.08125L336.15625 63.05L334.92188 63.05Z" fill-rule="nonzero"/><path fill="#757575" d="M221.07812 37.55L221.07812 23.2375L227.42188 23.2375Q229.32812 23.2375 230.32812 23.628124Q231.32812 24.003124 231.92188 24.9875Q232.51562 25.95625 232.51562 27.14375Q232.51562 28.659374 231.53125 29.70625Q230.54688 30.753124 228.48438 31.034374Q229.23438 31.39375 229.625 31.753124Q230.45312 32.503124 231.20312 33.659374L233.6875 37.55L231.3125 37.55L229.40625 34.565624Q228.57812 33.284374 228.04688 32.596874Q227.51562 31.909374 227.07812 31.64375Q226.65625 31.3625 226.21875 31.253124Q225.89062 31.190624 225.17188 31.190624L222.96875 31.190624L222.96875 37.55L221.07812 37.55ZM222.96875 29.55L227.04688 29.55Q228.34375 29.55 229.0625 29.284374Q229.79688 29.01875 230.17188 28.425Q230.5625 27.83125 230.5625 27.14375Q230.5625 26.128124 229.82812 25.471874Q229.09375 24.815624 227.5 24.815624L222.96875 24.815624L222.96875 29.55ZM234.17188 32.3625Q234.17188 29.4875 235.76562 28.096874Q237.10938 26.940624 239.03125 26.940624Q241.17188 26.940624 242.51562 28.346874Q243.875 29.753124 243.875 32.221874Q243.875 34.221874 243.28125 35.378124Q242.6875 36.51875 241.53125 37.159374Q240.39062 37.784374 239.03125 37.784374Q236.84375 37.784374 235.5 36.39375Q234.17188 34.9875 234.17188 32.3625ZM235.96875 32.3625Q235.96875 34.3625 236.82812 35.346874Q237.70312 36.33125 239.03125 36.33125Q240.34375 36.33125 241.20312 35.346874Q242.07812 34.346874 242.07812 32.3Q242.07812 30.378124 241.20312 29.39375Q240.32812 28.39375 239.03125 28.39375Q237.70312 28.39375 236.82812 29.39375Q235.96875 30.378124 235.96875 32.3625ZM244.89062 37.55L244.89062 36.128124L251.5 28.55Q250.375 28.596874 249.51562 28.596874L245.28125 28.596874L245.28125 27.175L253.76562 27.175L253.76562 28.346874L248.14062 34.925L247.0625 36.128124Q248.23438 36.034374 249.28125 36.034374L254.07812 36.034374L254.07812 37.55L244.89062 37.55ZM254.82812 37.55L254.82812 23.2375L256.59375 23.2375L256.59375 31.39375L260.75 27.175L263.01562 27.175L259.0625 31.01875L263.42188 37.55L261.25 37.55L257.82812 32.253124L256.59375 33.440624L256.59375 37.55L254.82812 37.55ZM264.79688 31.940624L263.53125 33.01875L263.53125 31.471874L264.79688 30.39375L264.79688 23.2375L266.54688 23.2375L266.54688 28.909374L267.85938 27.8L267.85938 29.33125L266.54688 30.45625L266.54688 37.55L264.79688 37.55L264.79688 31.940624ZM275.59375 36.26875Q274.60938 37.096874 273.70312 37.440624Q272.79688 37.784374 271.76562 37.784374Q270.0625 37.784374 269.14062 36.95625Q268.21875 36.1125 268.21875 34.815624Q268.21875 34.05 268.5625 33.425Q268.92188 32.8 269.48438 32.425Q270.04688 32.034374 270.75 31.83125Q271.26562 31.70625 272.3125 31.565624Q274.4375 31.315624 275.4375 30.971874Q275.45312 30.6125 275.45312 30.503124Q275.45312 29.440624 274.95312 28.9875Q274.28125 28.39375 272.95312 28.39375Q271.70312 28.39375 271.10938 28.83125Q270.53125 29.26875 270.25 30.378124L268.53125 30.14375Q268.76562 29.034374 269.29688 28.3625Q269.82812 27.675 270.84375 27.315624Q271.85938 26.940624 273.20312 26.940624Q274.53125 26.940624 275.35938 27.253124Q276.1875 27.565624 276.57812 28.05Q276.96875 28.51875 277.125 29.2375Q277.21875 29.690624 277.21875 30.8625L277.21875 33.20625Q277.21875 35.659374 277.32812 36.315624Q277.4375 36.95625 277.78125 37.55L275.9375 37.55Q275.67188 37.003124 275.59375 36.26875ZM275.4375 32.346874Q274.48438 32.7375 272.5625 33.003124Q271.48438 33.159374 271.03125 33.3625Q270.59375 33.55 270.34375 33.925Q270.09375 34.3 270.09375 34.76875Q270.09375 35.471874 270.625 35.940624Q271.15625 36.409374 272.1875 36.409374Q273.20312 36.409374 273.98438 35.971874Q274.78125 35.51875 275.15625 34.753124Q275.4375 34.14375 275.4375 32.9875L275.4375 32.346874ZM286.54688 37.55L286.54688 36.2375Q285.5625 37.784374 283.64062 37.784374Q282.40625 37.784374 281.35938 37.096874Q280.32812 36.409374 279.75 35.190624Q279.1875 33.971874 279.1875 32.378124Q279.1875 30.815624 279.70312 29.55Q280.21875 28.284374 281.25 27.6125Q282.29688 26.940624 283.5625 26.940624Q284.5 26.940624 285.23438 27.346874Q285.96875 27.7375 286.4375 28.3625L286.4375 23.2375L288.17188 23.2375L288.17188 37.55L286.54688 37.55ZM280.98438 32.378124Q280.98438 34.3625 281.82812 35.346874Q282.67188 36.33125 283.8125 36.33125Q284.96875 36.33125 285.76562 35.39375Q286.57812 34.45625 286.57812 32.51875Q286.57812 30.39375 285.75 29.39375Q284.9375 28.39375 283.73438 28.39375Q282.5625 28.39375 281.76562 29.3625Q280.98438 30.315624 280.98438 32.378124ZM296.8125 37.55L296.8125 27.175L298.40625 27.175L298.40625 28.659374Q299.54688 26.940624 301.70312 26.940624Q302.64062 26.940624 303.42188 27.284374Q304.21875 27.6125 304.60938 28.159374Q305.0 28.70625 305.15625 29.45625Q305.25 29.95625 305.25 31.175L305.25 37.55L303.48438 37.55L303.48438 31.2375Q303.48438 30.159374 303.28125 29.628124Q303.07812 29.096874 302.54688 28.784374Q302.03125 28.471874 301.32812 28.471874Q300.20312 28.471874 299.39062 29.190624Q298.57812 29.89375 298.57812 31.878124L298.57812 37.55L296.8125 37.55ZM313.59375 36.26875Q312.60938 37.096874 311.70312 37.440624Q310.79688 37.784374 309.76562 37.784374Q308.0625 37.784374 307.14062 36.95625Q306.21875 36.1125 306.21875 34.815624Q306.21875 34.05 306.5625 33.425Q306.92188 32.8 307.48438 32.425Q308.04688 32.034374 308.75 31.83125Q309.26562 31.70625 310.3125 31.565624Q312.4375 31.315624 313.4375 30.971874Q313.45312 30.6125 313.45312 30.503124Q313.45312 29.440624 312.95312 28.9875Q312.28125 28.39375 310.95312 28.39375Q309.70312 28.39375 309.10938 28.83125Q308.53125 29.26875 308.25 30.378124L306.53125 30.14375Q306.76562 29.034374 307.29688 28.3625Q307.82812 27.675 308.84375 27.315624Q309.85938 26.940624 311.20312 26.940624Q312.53125 26.940624 313.35938 27.253124Q314.1875 27.565624 314.57812 28.05Q314.96875 28.51875 315.125 29.2375Q315.21875 29.690624 315.21875 30.8625L315.21875 33.20625Q315.21875 35.659374 315.32812 36.315624Q315.4375 36.95625 315.78125 37.55L313.9375 37.55Q313.67188 37.003124 313.59375 36.26875ZM313.4375 32.346874Q312.48438 32.7375 310.5625 33.003124Q309.48438 33.159374 309.03125 33.3625Q308.59375 33.55 308.34375 33.925Q308.09375 34.3 308.09375 34.76875Q308.09375 35.471874 308.625 35.940624Q309.15625 36.409374 310.1875 36.409374Q311.20312 36.409374 311.98438 35.971874Q312.78125 35.51875 313.15625 34.753124Q313.4375 34.14375 313.4375 32.9875L313.4375 32.346874ZM317.10938 34.45625L318.85938 34.175Q319.0 35.221874 319.67188 35.784374Q320.34375 36.33125 321.54688 36.33125Q322.75 36.33125 323.32812 35.846874Q323.92188 35.346874 323.92188 34.690624Q323.92188 34.096874 323.40625 33.753124Q323.04688 33.51875 321.60938 33.159374Q319.67188 32.659374 318.92188 32.315624Q318.1875 31.95625 317.79688 31.33125Q317.40625 30.690624 317.40625 29.925Q317.40625 29.2375 317.71875 28.64375Q318.04688 28.05 318.59375 27.659374Q319.0 27.3625 319.70312 27.159374Q320.42188 26.940624 321.23438 26.940624Q322.45312 26.940624 323.375 27.3Q324.29688 27.64375 324.73438 28.253124Q325.17188 28.846874 325.34375 29.846874L323.625 30.08125Q323.5 29.284374 322.9375 28.846874Q322.375 28.39375 321.35938 28.39375Q320.14062 28.39375 319.625 28.8Q319.10938 29.190624 319.10938 29.721874Q319.10938 30.065624 319.32812 30.346874Q319.53125 30.628124 320.0 30.815624Q320.26562 30.909374 321.54688 31.253124Q323.42188 31.753124 324.15625 32.08125Q324.89062 32.39375 325.3125 33.003124Q325.73438 33.596874 325.73438 34.503124Q325.73438 35.378124 325.21875 36.159374Q324.70312 36.940624 323.73438 37.3625Q322.76562 37.784374 321.54688 37.784374Q319.53125 37.784374 318.46875 36.940624Q317.40625 36.096874 317.10938 34.45625ZM331.65625 35.971874L331.90625 37.534374Q331.17188 37.690624 330.57812 37.690624Q329.625 37.690624 329.09375 37.39375Q328.57812 37.08125 328.35938 36.596874Q328.14062 36.096874 328.14062 34.51875L328.14062 28.55L326.85938 28.55L326.85938 27.175L328.14062 27.175L328.14062 24.6125L329.89062 23.55L329.89062 27.175L331.65625 27.175L331.65625 28.55L329.89062 28.55L329.89062 34.6125Q329.89062 35.3625 329.98438 35.58125Q330.07812 35.784374 330.28125 35.925Q330.5 36.05 330.89062 36.05Q331.17188 36.05 331.65625 35.971874ZM333.79688 37.55L333.79688 27.175L335.375 27.175L335.375 28.753124Q335.98438 27.64375 336.5 27.3Q337.01562 26.940624 337.625 26.940624Q338.51562 26.940624 339.4375 27.503124L338.82812 29.14375Q338.1875 28.753124 337.54688 28.753124Q336.96875 28.753124 336.5 29.1125Q336.04688 29.45625 335.84375 30.065624Q335.5625 31.003124 335.5625 32.1125L335.5625 37.55L333.79688 37.55ZM340.17188 32.3625Q340.17188 29.4875 341.76562 28.096874Q343.10938 26.940624 345.03125 26.940624Q347.17188 26.940624 348.51562 28.346874Q349.875 29.753124 349.875 32.221874Q349.875 34.221874 349.28125 35.378124Q348.6875 36.51875 347.53125 37.159374Q346.39062 37.784374 345.03125 37.784374Q342.84375 37.784374 341.5 36.39375Q340.17188 34.9875 340.17188 32.3625ZM341.96875 32.3625Q341.96875 34.3625 342.82812 35.346874Q343.70312 36.33125 345.03125 36.33125Q346.34375 36.33125 347.20312 35.346874Q348.07812 34.346874 348.07812 32.3Q348.07812 30.378124 347.20312 29.39375Q346.32812 28.39375 345.03125 28.39375Q343.70312 28.39375 342.82812 29.39375Q341.96875 30.378124 341.96875 32.3625ZM351.8125 25.26875L351.8125 23.2375L353.5625 23.2375L353.5625 25.26875L351.8125 25.26875ZM349.57812 41.58125L349.90625 40.08125Q350.4375 40.221874 350.75 40.221874Q351.28125 40.221874 351.54688 39.8625Q351.8125 39.503124 351.8125 38.08125L351.8125 27.175L353.5625 27.175L353.5625 38.1125Q353.5625 40.034374 353.0625 40.784374Q352.4375 41.753124 350.95312 41.753124Q350.25 41.753124 349.57812 41.58125ZM355.17188 32.3625Q355.17188 29.4875 356.76562 28.096874Q358.10938 26.940624 360.03125 26.940624Q362.17188 26.940624 363.51562 28.346874Q364.875 29.753124 364.875 32.221874Q364.875 34.221874 364.28125 35.378124Q363.6875 36.51875 362.53125 37.159374Q361.39062 37.784374 360.03125 37.784374Q357.84375 37.784374 356.5 36.39375Q355.17188 34.9875 355.17188 32.3625ZM356.96875 32.3625Q356.96875 34.3625 357.82812 35.346874Q358.70312 36.33125 360.03125 36.33125Q361.34375 36.33125 362.20312 35.346874Q363.07812 34.346874 363.07812 32.3Q363.07812 30.378124 362.20312 29.39375Q361.32812 28.39375 360.03125 28.39375Q358.70312 28.39375 357.82812 29.39375Q356.96875 30.378124 356.96875 32.3625ZM359.0625 25.89375L360.35938 23.159374L362.65625 23.159374L360.51562 25.89375L359.0625 25.89375ZM368.73438 37.55L365.5625 27.175L367.375 27.175L369.03125 33.159374L369.64062 35.39375Q369.6875 35.221874 370.17188 33.253124L371.82812 27.175L373.64062 27.175L375.1875 33.190624L375.70312 35.175L376.29688 33.175L378.07812 27.175L379.78125 27.175L376.54688 37.55L374.71875 37.55L373.0625 31.33125L372.67188 29.565624L370.5625 37.55L368.73438 37.55Z" fill-rule="nonzero"/></svg>