<svg version="1.1" viewBox="0.0 0.0 600.0 371.0" fill="none" stroke="none" stroke-linecap="square" stroke-miterlimit="10" width="600" height="371" xmlns:xlink="http://www.w3.org/1999/xlink" xmlns="http://www.w3.org/2000/svg"><path fill="#ffffff" d="M0 0L600.0 0L600.0 371.0L0 371.0L0 0Z" fill-rule="nonzero"/><path stroke="#333333" stroke-width="1.0" stroke-linecap="butt" d="M88.5 279.5L581.5 279.5" fill-rule="nonzero"/><path stroke="#cccccc" stroke-width="1.0" stroke-linecap="butt" d="M88.5 230.5L581.5 230.5" fill-rule="nonzero"/><path stroke="#cccccc" stroke-width="1.0" stroke-linecap="butt" d="M88.5 182.5L581.5 182.5" fill-rule="nonzero"/><path stroke="#cccccc" stroke-width="1.0" stroke-linecap="butt" d="M88.5 133.5L581.5 133.5" fill-rule="nonzero"/><path stroke="#cccccc" stroke-width="1.0" stroke-linecap="butt" d="M88.5 85.5L581.5 85.5" fill-rule="nonzero"/><path stroke="#e6e6e6" stroke-width="1.0" stroke-linecap="butt" d="M88.5 255.5L581.5 255.5" fill-rule="nonzero"/><path stroke="#e6e6e6" stroke-width="1.0" stroke-linecap="butt" d="M88.5 206.5L581.5 206.5" fill-rule="nonzero"/><path stroke="#e6e6e6" stroke-width="1.0" stroke-linecap="butt" d="M88.5 158.5L581.5 158.5" fill-rule="nonzero"/><path stroke="#e6e6e6" stroke-width="1.0" stroke-linecap="butt" d="M88.5 109.5L581.5 109.5" fill-rule="nonzero"/><clipPath id="id_0"><path d="M88.55 85.416664L581.45 85.416664L581.45 279.48535L88.55 279.48535L88.55 85.416664Z" clip-rule="nonzero"/></clipPath><path stroke="#000000" stroke-width="2.0" stroke-linecap="butt" stroke-opacity="0.0" clip-path="url(#id_0)" d="M137.0 279.0L106.0 279.0L106.0 279.0L137.0 279.0Z" fill-rule="nonzero"/><path fill="#4285f4" clip-path="url(#id_0)" d="M137.0 279.0L106.0 279.0L106.0 279.0L137.0 279.0Z" fill-rule="nonzero"/><path stroke="#000000" stroke-width="2.0" stroke-linecap="butt" stroke-opacity="0.0" clip-path="url(#id_0)" d="M184.0 279.0L153.0 279.0L153.0 279.0L184.0 279.0Z" fill-rule="nonzero"/><path fill="#4285f4" clip-path="url(#id_0)" d="M184.0 279.0L153.0 279.0L153.0 279.0L184.0 279.0Z" fill-rule="nonzero"/><path stroke="#000000" stroke-width="2.0" stroke-linecap="butt" stroke-opacity="0.0" clip-path="url(#id_0)" d="M232.0 279.0L201.0 279.0L201.0 277.0L232.0 277.0Z" fill-rule="nonzero"/><path fill="#4285f4" clip-path="url(#id_0)" d="M232.0 279.0L201.0 279.0L201.0 277.0L232.0 277.0Z" fill-rule="nonzero"/><path stroke="#000000" stroke-width="2.0" stroke-linecap="butt" stroke-opacity="0.0" clip-path="url(#id_0)" d="M280.0 279.0L249.0 279.0L249.0 271.0L280.0 271.0Z" fill-rule="nonzero"/><path fill="#4285f4" clip-path="url(#id_0)" d="M280.0 279.0L249.0 279.0L249.0 271.0L280.0 271.0Z" fill-rule="nonzero"/><path stroke="#000000" stroke-width="2.0" stroke-linecap="butt" stroke-opacity="0.0" clip-path="url(#id_0)" d="M327.0 279.0L296.0 279.0L296.0 268.0L327.0 268.0Z" fill-rule="nonzero"/><path fill="#4285f4" clip-path="url(#id_0)" d="M327.0 279.0L296.0 279.0L296.0 268.0L327.0 268.0Z" fill-rule="nonzero"/><path stroke="#000000" stroke-width="2.0" stroke-linecap="butt" stroke-opacity="0.0" clip-path="url(#id_0)" d="M375.0 279.0L344.0 279.0L344.0 259.0L375.0 259.0Z" fill-rule="nonzero"/><path fill="#4285f4" clip-path="url(#id_0)" d="M375.0 279.0L344.0 279.0L344.0 259.0L375.0 259.0Z" fill-rule="nonzero"/><path stroke="#000000" stroke-width="2.0" stroke-linecap="butt" stroke-opacity="0.0" clip-path="url(#id_0)" d="M422.0 279.0L391.0 279.0L391.0 209.0L422.0 209.0Z" fill-rule="nonzero"/><path fill="#4285f4" clip-path="url(#id_0)" d="M422.0 279.0L391.0 279.0L391.0 209.0L422.0 209.0Z" fill-rule="nonzero"/><path stroke="#000000" stroke-width="2.0" stroke-linecap="butt" stroke-opacity="0.0" clip-path="url(#id_0)" d="M470.0 279.0L439.0 279.0L439.0 166.0L470.0 166.0Z" fill-rule="nonzero"/><path fill="#4285f4" clip-path="url(#id_0)" d="M470.0 279.0L439.0 279.0L439.0 166.0L470.0 166.0Z" fill-rule="nonzero"/><path stroke="#000000" stroke-width="2.0" stroke-linecap="butt" stroke-opacity="0.0" clip-path="url(#id_0)" d="M518.0 279.0L487.0 279.0L487.0 172.0L518.0 172.0Z" fill-rule="nonzero"/><path fill="#4285f4" clip-path="url(#id_0)" d="M518.0 279.0L487.0 279.0L487.0 172.0L518.0 172.0Z" fill-rule="nonzero"/><path stroke="#000000" stroke-width="2.0" stroke-linecap="butt" stroke-opacity="0.0" clip-path="url(#id_0)" d="M565.0 279.0L534.0 279.0L534.0 171.0L565.0 171.0Z" fill-rule="nonzero"/><path fill="#4285f4" clip-path="url(#id_0)" d="M565.0 279.0L534.0 279.0L534.0 171.0L565.0 171.0Z" fill-rule="nonzero"/><path stroke="#000000" stroke-width="2.0" stroke-linecap="butt" stroke-opacity="0.0" clip-path="url(#id_0)" d="M137.0 279.0L106.0 279.0L106.0 279.0C106.0 279.0 106.0 279.0 106.0 279.0L137.0 279.0C137.0 279.0 137.0 279.0 137.0 279.0Z" fill-rule="nonzero"/><path fill="#ea4335" clip-path="url(#id_0)" d="M137.0 279.0L106.0 279.0L106.0 279.0C106.0 279.0 106.0 279.0 106.0 279.0L137.0 279.0C137.0 279.0 137.0 279.0 137.0 279.0Z" fill-rule="nonzero"/><path stroke="#000000" stroke-width="2.0" stroke-linecap="butt" stroke-opacity="0.0" clip-path="url(#id_0)" d="M184.0 279.0L153.0 279.0L153.0 279.0C153.0 279.0 153.0 279.0 153.0 279.0L184.0 279.0C184.0 279.0 184.0 279.0 184.0 279.0Z" fill-rule="nonzero"/><path fill="#ea4335" clip-path="url(#id_0)" d="M184.0 279.0L153.0 279.0L153.0 279.0C153.0 279.0 153.0 279.0 153.0 279.0L184.0 279.0C184.0 279.0 184.0 279.0 184.0 279.0Z" fill-rule="nonzero"/><path stroke="#000000" stroke-width="2.0" stroke-linecap="butt" stroke-opacity="0.0" clip-path="url(#id_0)" d="M232.0 277.0L201.0 277.0L201.0 276.5C201.0 276.22385 201.22386 276.0 201.5 276.0L231.5 276.0C231.77614 276.0 232.0 276.22385 232.0 276.5Z" fill-rule="nonzero"/><path fill="#ea4335" clip-path="url(#id_0)" d="M232.0 277.0L201.0 277.0L201.0 276.5C201.0 276.22385 201.22386 276.0 201.5 276.0L231.5 276.0C231.77614 276.0 232.0 276.22385 232.0 276.5Z" fill-rule="nonzero"/><path stroke="#000000" stroke-width="2.0" stroke-linecap="butt" stroke-opacity="0.0" clip-path="url(#id_0)" d="M280.0 271.0L249.0 271.0L249.0 269.0C249.0 267.89542 249.89543 267.0 251.0 267.0L278.0 267.0C279.10458 267.0 280.0 267.89542 280.0 269.0Z" fill-rule="nonzero"/><path fill="#ea4335" clip-path="url(#id_0)" d="M280.0 271.0L249.0 271.0L249.0 269.0C249.0 267.89542 249.89543 267.0 251.0 267.0L278.0 267.0C279.10458 267.0 280.0 267.89542 280.0 269.0Z" fill-rule="nonzero"/><path stroke="#000000" stroke-width="2.0" stroke-linecap="butt" stroke-opacity="0.0" clip-path="url(#id_0)" d="M327.0 268.0L296.0 268.0L296.0 264.0C296.0 262.89542 296.89542 262.0 298.0 262.0L325.0 262.0C326.10458 262.0 327.0 262.89542 327.0 264.0Z" fill-rule="nonzero"/><path fill="#ea4335" clip-path="url(#id_0)" d="M327.0 268.0L296.0 268.0L296.0 264.0C296.0 262.89542 296.89542 262.0 298.0 262.0L325.0 262.0C326.10458 262.0 327.0 262.89542 327.0 264.0Z" fill-rule="nonzero"/><path stroke="#000000" stroke-width="2.0" stroke-linecap="butt" stroke-opacity="0.0" clip-path="url(#id_0)" d="M375.0 259.0L344.0 259.0L344.0 250.0C344.0 248.89543 344.89542 248.0 346.0 248.0L373.0 248.0C374.10458 248.0 375.0 248.89543 375.0 250.0Z" fill-rule="nonzero"/><path fill="#ea4335" clip-path="url(#id_0)" d="M375.0 259.0L344.0 259.0L344.0 250.0C344.0 248.89543 344.89542 248.0 346.0 248.0L373.0 248.0C374.10458 248.0 375.0 248.89543 375.0 250.0Z" fill-rule="nonzero"/><path stroke="#000000" stroke-width="2.0" stroke-linecap="butt" stroke-opacity="0.0" clip-path="url(#id_0)" d="M422.0 209.0L391.0 209.0L391.0 168.0C391.0 166.89543 391.89542 166.0 393.0 166.0L420.0 166.0C421.10458 166.0 422.0 166.89543 422.0 168.0Z" fill-rule="nonzero"/><path fill="#ea4335" clip-path="url(#id_0)" d="M422.0 209.0L391.0 209.0L391.0 168.0C391.0 166.89543 391.89542 166.0 393.0 166.0L420.0 166.0C421.10458 166.0 422.0 166.89543 422.0 168.0Z" fill-rule="nonzero"/><path stroke="#000000" stroke-width="2.0" stroke-linecap="butt" stroke-opacity="0.0" clip-path="url(#id_0)" d="M470.0 166.0L439.0 166.0L439.0 87.0C439.0 85.89543 439.89542 85.0 441.0 85.0L468.0 85.0C469.10458 85.0 470.0 85.89543 470.0 87.0Z" fill-rule="nonzero"/><path fill="#ea4335" clip-path="url(#id_0)" d="M470.0 166.0L439.0 166.0L439.0 87.0C439.0 85.89543 439.89542 85.0 441.0 85.0L468.0 85.0C469.10458 85.0 470.0 85.89543 470.0 87.0Z" fill-rule="nonzero"/><path stroke="#000000" stroke-width="2.0" stroke-linecap="butt" stroke-opacity="0.0" clip-path="url(#id_0)" d="M518.0 172.0L487.0 172.0L487.0 87.0C487.0 85.89543 487.89542 85.0 489.0 85.0L516.0 85.0C517.10455 85.0 518.0 85.89543 518.0 87.0Z" fill-rule="nonzero"/><path fill="#ea4335" clip-path="url(#id_0)" d="M518.0 172.0L487.0 172.0L487.0 87.0C487.0 85.89543 487.89542 85.0 489.0 85.0L516.0 85.0C517.10455 85.0 518.0 85.89543 518.0 87.0Z" fill-rule="nonzero"/><path stroke="#000000" stroke-width="2.0" stroke-linecap="butt" stroke-opacity="0.0" clip-path="url(#id_0)" d="M565.0 171.0L534.0 171.0L534.0 87.0C534.0 85.89543 534.89545 85.0 536.0 85.0L563.0 85.0C564.10455 85.0 565.0 85.89543 565.0 87.0Z" fill-rule="nonzero"/><path fill="#ea4335" clip-path="url(#id_0)" d="M565.0 171.0L534.0 171.0L534.0 87.0C534.0 85.89543 534.89545 85.0 536.0 85.0L563.0 85.0C564.10455 85.0 565.0 85.89543 565.0 87.0Z" fill-rule="nonzero"/><path fill="#000000" d="M33.55001 245.21875L22.096886 245.21875L22.096886 243.8125L33.55001 243.8125L33.55001 245.21875ZM23.70626 242.1875L22.096886 242.1875L22.096886 240.78125L23.70626 240.78125L23.70626 242.1875ZM33.55001 242.1875L25.253136 242.1875L25.253136 240.78125L33.55001 240.78125L33.55001 242.1875ZM30.503136 232.78125L30.690636 231.39062Q32.11251 231.625 32.92501 232.5625Q33.73751 233.48438 33.73751 234.84375Q33.73751 236.54688 32.628136 237.59375Q31.503136 238.625 29.42501 238.625Q28.08126 238.625 27.08126 238.1875Q26.065636 237.73438 25.565636 236.82812Q25.065636 235.90625 25.065636 234.84375Q25.065636 233.48438 25.753136 232.625Q26.42501 231.76562 27.690636 231.53125L27.89376 232.89062Q27.065636 233.09375 26.64376 233.59375Q26.221886 234.07812 26.221886 234.78125Q26.221886 235.84375 26.98751 236.51562Q27.73751 237.17188 29.39376 237.17188Q31.065636 237.17188 31.83126 236.53125Q32.58126 235.89062 32.58126 234.85938Q32.58126 234.03125 32.08126 233.48438Q31.565636 232.92188 30.503136 232.78125ZM33.55001 230.9375L32.409386 230.9375L26.346886 225.65625Q26.39376 226.54688 26.39376 227.23438L26.39376 230.625L25.253136 230.625L25.253136 223.84375L26.17501 223.84375L31.440636 228.32812L32.409386 229.20312Q32.33126 228.25 32.33126 227.42188L32.33126 223.59375L33.55001 223.59375L33.55001 230.9375ZM33.55001 221.89062L33.55001 223.20312L22.096886 223.20312L22.096886 221.79688L26.17501 221.79688Q25.065636 220.90625 25.065636 219.51562Q25.065636 218.75 25.378136 218.07812Q25.67501 217.39062 26.23751 216.95312Q26.80001 216.5 27.596886 216.25Q28.378136 216.0 29.26876 216.0Q31.409386 216.0 32.58126 217.0625Q33.73751 218.10938 33.73751 219.59375Q33.73751 221.0625 32.503136 221.89062L33.55001 221.89062ZM29.33126 221.90625Q30.83126 221.90625 31.48751 221.5Q32.58126 220.84375 32.58126 219.70312Q32.58126 218.78125 31.784386 218.10938Q30.971886 217.4375 29.39376 217.4375Q27.76876 217.4375 27.003136 218.09375Q26.221886 218.73438 26.221886 219.64062Q26.221886 220.5625 27.01876 221.23438Q27.815636 221.90625 29.33126 221.90625ZM32.51876 208.78125Q33.190636 209.5625 33.471886 210.28125Q33.73751 211.0 33.73751 211.82812Q33.73751 213.20312 33.065636 213.9375Q32.39376 214.67188 31.36251 214.67188Q30.753136 214.67188 30.253136 214.39062Q29.73751 214.10938 29.440636 213.67188Q29.128136 213.21875 28.971886 212.65625Q28.86251 212.23438 28.76876 211.40625Q28.565636 209.70312 28.284386 208.89062Q27.98751 208.89062 27.909386 208.89062Q27.05001 208.89062 26.70626 209.28125Q26.221886 209.82812 26.221886 210.89062Q26.221886 211.875 26.58126 212.35938Q26.92501 212.82812 27.80001 213.04688L27.61251 214.42188Q26.73751 214.23438 26.190636 213.8125Q25.64376 213.375 25.36251 212.5625Q25.065636 211.75 25.065636 210.6875Q25.065636 209.625 25.315636 208.96875Q25.565636 208.29688 25.940636 207.98438Q26.315636 207.67188 26.89376 207.54688Q27.253136 207.46875 28.190636 207.46875L30.065636 207.46875Q32.034386 207.46875 32.55001 207.39062Q33.065636 207.29688 33.55001 207.03125L33.55001 208.5Q33.11251 208.71875 32.51876 208.78125ZM29.378136 208.89062Q29.690636 209.65625 29.909386 211.1875Q30.034386 212.0625 30.190636 212.42188Q30.346886 212.78125 30.659386 212.98438Q30.95626 213.17188 31.315636 213.17188Q31.878136 213.17188 32.253136 212.75Q32.628136 212.3125 32.628136 211.5Q32.628136 210.6875 32.284386 210.0625Q31.92501 209.42188 31.30001 209.125Q30.83126 208.89062 29.89376 208.89062L29.378136 208.89062ZM32.284386 198.125L33.534386 197.92188Q33.659386 198.51562 33.659386 198.98438Q33.659386 199.75 33.42501 200.17188Q33.17501 200.59375 32.784386 200.76562Q32.378136 200.9375 31.11251 200.9375L26.346886 200.9375L26.346886 201.96875L25.253136 201.96875L25.253136 200.9375L23.190636 200.9375L22.346886 199.53125L25.253136 199.53125L25.253136 198.125L26.346886 198.125L26.346886 199.53125L31.190636 199.53125Q31.80001 199.53125 31.971886 199.46875Q32.14376 199.39062 32.253136 199.21875Q32.346886 199.04688 32.346886 198.73438Q32.346886 198.5 32.284386 198.125ZM33.55001 195.65625L25.253136 198.20312L25.253136 196.75L30.034386 195.42188L31.815636 194.9375Q31.690636 194.90625 30.11251 194.5L25.253136 193.1875L25.253136 191.73438L30.065636 190.5L31.64376 190.07812L30.05001 189.60938L25.253136 188.1875L25.253136 186.8125L33.55001 189.40625L33.55001 190.875L28.58126 192.1875L27.159386 192.51562L33.55001 194.1875L33.55001 195.65625ZM30.878136 180.51562L31.05001 179.0625Q32.33126 179.40625 33.034386 180.34375Q33.73751 181.26562 33.73751 182.70312Q33.73751 184.53125 32.61251 185.59375Q31.48751 186.65625 29.471886 186.65625Q27.378136 186.65625 26.221886 185.57812Q25.065636 184.5 25.065636 182.78125Q25.065636 181.125 26.20626 180.07812Q27.33126 179.01562 29.378136 179.01562Q29.503136 179.01562 29.753136 179.01562L29.753136 185.20312Q31.128136 185.125 31.86251 184.4375Q32.58126 183.73438 32.58126 182.70312Q32.58126 181.92188 32.17501 181.375Q31.76876 180.82812 30.878136 180.51562ZM28.596886 185.125L28.596886 180.5Q27.55001 180.59375 27.034386 181.03125Q26.221886 181.70312 26.221886 182.76562Q26.221886 183.73438 26.878136 184.40625Q27.51876 185.0625 28.596886 185.125ZM30.878136 171.51562L31.05001 170.0625Q32.33126 170.40625 33.034386 171.34375Q33.73751 172.26562 33.73751 173.70312Q33.73751 175.53125 32.61251 176.59375Q31.48751 177.65625 29.471886 177.65625Q27.378136 177.65625 26.221886 176.57812Q25.065636 175.5 25.065636 173.78125Q25.065636 172.125 26.20626 171.07812Q27.33126 170.01562 29.378136 170.01562Q29.503136 170.01562 29.753136 170.01562L29.753136 176.20312Q31.128136 176.125 31.86251 175.4375Q32.58126 174.73438 32.58126 173.70312Q32.58126 172.92188 32.17501 172.375Q31.76876 171.82812 30.878136 171.51562ZM28.596886 176.125L28.596886 171.5Q27.55001 171.59375 27.034386 172.03125Q26.221886 172.70312 26.221886 173.76562Q26.221886 174.73438 26.878136 175.40625Q27.51876 176.0625 28.596886 176.125ZM32.284386 165.125L33.534386 164.92188Q33.659386 165.51562 33.659386 165.98438Q33.659386 166.75 33.42501 167.17188Q33.17501 167.59375 32.784386 167.76562Q32.378136 167.9375 31.11251 167.9375L26.346886 167.9375L26.346886 168.96875L25.253136 168.96875L25.253136 167.9375L23.190636 167.9375L22.346886 166.53125L25.253136 166.53125L25.253136 165.125L26.346886 165.125L26.346886 166.53125L31.190636 166.53125Q31.80001 166.53125 31.971886 166.46875Q32.14376 166.39062 32.253136 166.21875Q32.346886 166.04688 32.346886 165.73438Q32.346886 165.5 32.284386 165.125ZM36.753136 164.25L35.42501 164.40625Q35.55001 163.95312 35.55001 163.60938Q35.55001 163.14062 35.39376 162.85938Q35.23751 162.57812 34.95626 162.39062Q34.753136 162.26562 33.909386 161.96875Q33.80001 161.92188 33.565636 161.84375L25.253136 164.98438L25.253136 163.46875L30.05001 161.75Q30.971886 161.40625 31.971886 161.14062Q31.003136 160.90625 30.08126 160.5625L25.253136 158.79688L25.253136 157.39062L33.690636 160.54688Q35.065636 161.04688 35.58126 161.32812Q36.26876 161.70312 36.596886 162.1875Q36.92501 162.67188 36.92501 163.34375Q36.92501 163.75 36.753136 164.25Z" fill-rule="nonzero"/><path fill="#000000" d="M76.05 279.25098Q76.05 277.71973 76.3625 276.79785Q76.675 275.86035 77.28438 275.36035Q77.90938 274.86035 78.84688 274.86035Q79.53438 274.86035 80.05 275.1416Q80.58125 275.42285 80.925 275.9541Q81.26875 276.46973 81.45625 277.21973Q81.64375 277.96973 81.64375 279.25098Q81.64375 280.7666 81.33125 281.68848Q81.03438 282.61035 80.40938 283.12598Q79.8 283.62598 78.84688 283.62598Q77.6125 283.62598 76.89375 282.73535Q76.05 281.67285 76.05 279.25098ZM77.12813 279.25098Q77.12813 281.36035 77.62813 282.06348Q78.12813 282.7666 78.84688 282.7666Q79.58125 282.7666 80.06563 282.06348Q80.56563 281.36035 80.56563 279.25098Q80.56563 277.12598 80.06563 276.43848Q79.58125 275.73535 78.83125 275.73535Q78.1125 275.73535 77.675 276.34473Q77.12813 277.12598 77.12813 279.25098Z" fill-rule="nonzero"/><path fill="#000000" d="M74.59688 233.95256L74.59688 234.96819L68.90938 234.96819Q68.90938 234.59319 69.03438 234.23381Q69.25313 233.65569 69.72188 233.09319Q70.20625 232.53069 71.1125 231.79631Q72.51875 230.64006 73.00313 229.96819Q73.50313 229.29631 73.50313 228.70256Q73.50313 228.07756 73.05 227.65569Q72.59688 227.21819 71.87813 227.21819Q71.1125 227.21819 70.65938 227.67131Q70.20625 228.12444 70.19063 228.93694L69.1125 228.82756Q69.22188 227.60881 69.94063 226.98381Q70.675 226.34319 71.90938 226.34319Q73.14375 226.34319 73.8625 227.03069Q74.58125 227.71819 74.58125 228.73381Q74.58125 229.24944 74.3625 229.74944Q74.15938 230.23381 73.65938 230.79631Q73.175 231.34319 72.05 232.29631Q71.09688 233.09319 70.81563 233.39006Q70.55 233.67131 70.37813 233.95256L74.59688 233.95256ZM76.05 232.71819L77.15938 232.62444Q77.28438 233.43694 77.72188 233.84319Q78.175 234.24944 78.81563 234.24944Q79.56563 234.24944 80.09688 233.67131Q80.62813 233.09319 80.62813 232.15569Q80.62813 231.24944 80.1125 230.73381Q79.6125 230.20256 78.78438 230.20256Q78.28438 230.20256 77.8625 230.43694Q77.45625 230.67131 77.22188 231.03069L76.2375 230.90569L77.06563 226.49944L81.34688 226.49944L81.34688 227.49944L77.90938 227.49944L77.45625 229.81194Q78.22188 229.26506 79.06563 229.26506Q80.19063 229.26506 80.95625 230.04631Q81.7375 230.82756 81.7375 232.06194Q81.7375 233.21819 81.06563 234.07756Q80.2375 235.10881 78.81563 235.10881Q77.64375 235.10881 76.89375 234.45256Q76.15938 233.79631 76.05 232.71819Z" fill-rule="nonzero"/><path fill="#000000" d="M69.05 184.201L70.15938 184.10725Q70.28438 184.91975 70.72188 185.326Q71.175 185.73225 71.81563 185.73225Q72.56563 185.73225 73.09688 185.15413Q73.62813 184.576 73.62813 183.6385Q73.62813 182.73225 73.1125 182.21663Q72.6125 181.68538 71.78438 181.68538Q71.28438 181.68538 70.8625 181.91975Q70.45625 182.15413 70.22188 182.5135L69.2375 182.3885L70.06563 177.98225L74.34688 177.98225L74.34688 178.98225L70.90938 178.98225L70.45625 181.29475Q71.22188 180.74788 72.06563 180.74788Q73.19063 180.74788 73.95625 181.52913Q74.7375 182.31038 74.7375 183.54475Q74.7375 184.701 74.06563 185.56038Q73.2375 186.59163 71.81563 186.59163Q70.64375 186.59163 69.89375 185.93538Q69.15938 185.27913 69.05 184.201ZM76.05 182.21663Q76.05 180.68538 76.3625 179.7635Q76.675 178.826 77.28438 178.326Q77.90938 177.826 78.84688 177.826Q79.53438 177.826 80.05 178.10725Q80.58125 178.3885 80.925 178.91975Q81.26875 179.43538 81.45625 180.18538Q81.64375 180.93538 81.64375 182.21663Q81.64375 183.73225 81.33125 184.65413Q81.03438 185.576 80.40938 186.09163Q79.8 186.59163 78.84688 186.59163Q77.6125 186.59163 76.89375 185.701Q76.05 184.6385 76.05 182.21663ZM77.12813 182.21663Q77.12813 184.326 77.62813 185.02913Q78.12813 185.73225 78.84688 185.73225Q79.58125 185.73225 80.06563 185.02913Q80.56563 184.326 80.56563 182.21663Q80.56563 180.09163 80.06563 179.40413Q79.58125 178.701 78.83125 178.701Q78.1125 178.701 77.675 179.31038Q77.12813 180.09163 77.12813 182.21663Z" fill-rule="nonzero"/><path fill="#000000" d="M69.1125 130.46509L69.1125 129.44946L74.675 129.44946L74.675 130.27759Q73.8625 131.15259 73.05 132.60571Q72.25313 134.04321 71.81563 135.57446Q71.4875 136.65259 71.40938 137.93384L70.31563 137.93384Q70.33125 136.91821 70.70625 135.48071Q71.09688 134.04321 71.8 132.71509Q72.51875 131.38696 73.33125 130.46509L69.1125 130.46509ZM76.05 135.68384L77.15938 135.59009Q77.28438 136.40259 77.72188 136.80884Q78.175 137.21509 78.81563 137.21509Q79.56563 137.21509 80.09688 136.63696Q80.62813 136.05884 80.62813 135.12134Q80.62813 134.21509 80.1125 133.69946Q79.6125 133.16821 78.78438 133.16821Q78.28438 133.16821 77.8625 133.40259Q77.45625 133.63696 77.22188 133.99634L76.2375 133.87134L77.06563 129.46509L81.34688 129.46509L81.34688 130.46509L77.90938 130.46509L77.45625 132.77759Q78.22188 132.23071 79.06563 132.23071Q80.19063 132.23071 80.95625 133.01196Q81.7375 133.79321 81.7375 135.02759Q81.7375 136.18384 81.06563 137.04321Q80.2375 138.07446 78.81563 138.07446Q77.64375 138.07446 76.89375 137.41821Q76.15938 136.76196 76.05 135.68384Z" fill-rule="nonzero"/><path fill="#000000" d="M66.01875 89.416664L64.97188 89.416664L64.97188 82.697914Q64.58125 83.05729 63.95625 83.43229Q63.346874 83.791664 62.8625 83.96354L62.8625 82.947914Q63.7375 82.52604 64.39375 81.947914Q65.06563 81.354164 65.34688 80.791664L66.01875 80.791664L66.01875 89.416664ZM69.05 85.18229Q69.05 83.65104 69.3625 82.729164Q69.675 81.791664 70.28438 81.291664Q70.90938 80.791664 71.84688 80.791664Q72.53438 80.791664 73.05 81.072914Q73.58125 81.354164 73.925 81.885414Q74.26875 82.40104 74.45625 83.15104Q74.64375 83.90104 74.64375 85.18229Q74.64375 86.697914 74.33125 87.61979Q74.03438 88.541664 73.40938 89.05729Q72.8 89.55729 71.84688 89.55729Q70.6125 89.55729 69.89375 88.666664Q69.05 87.604164 69.05 85.18229ZM70.12813 85.18229Q70.12813 87.291664 70.62813 87.99479Q71.12813 88.697914 71.84688 88.697914Q72.58125 88.697914 73.06563 87.99479Q73.56563 87.291664 73.56563 85.18229Q73.56563 83.05729 73.06563 82.36979Q72.58125 81.666664 71.83125 81.666664Q71.1125 81.666664 70.675 82.27604Q70.12813 83.05729 70.12813 85.18229ZM76.05 85.18229Q76.05 83.65104 76.3625 82.729164Q76.675 81.791664 77.28438 81.291664Q77.90938 80.791664 78.84688 80.791664Q79.53438 80.791664 80.05 81.072914Q80.58125 81.354164 80.925 81.885414Q81.26875 82.40104 81.45625 83.15104Q81.64375 83.90104 81.64375 85.18229Q81.64375 86.697914 81.33125 87.61979Q81.03438 88.541664 80.40938 89.05729Q79.8 89.55729 78.84688 89.55729Q77.6125 89.55729 76.89375 88.666664Q76.05 87.604164 76.05 85.18229ZM77.12813 85.18229Q77.12813 87.291664 77.62813 87.99479Q78.12813 88.697914 78.84688 88.697914Q79.58125 88.697914 80.06563 87.99479Q80.56563 87.291664 80.56563 85.18229Q80.56563 83.05729 80.06563 82.36979Q79.58125 81.666664 78.83125 81.666664Q78.1125 81.666664 77.675 82.27604Q77.12813 83.05729 77.12813 85.18229Z" fill-rule="nonzero"/><path fill="#000000" d="M100.090126 323.7963L100.92982 324.636L96.24523 329.32056Q95.92483 329.02225 95.737 328.61346Q95.44974 327.95053 95.3724 327.09982Q95.30611 326.238 95.43869 324.8901Q95.64861 322.77982 95.493935 321.82965Q95.3503 320.86844 94.85312 320.37125Q94.33384 319.85196 93.60463 319.87405Q92.886475 319.8851 92.3009 320.47067Q91.671135 321.10046 91.66009 321.8628Q91.66009 322.6141 92.33405 323.28806L91.33968 324.08356Q90.4337 323.0008 90.51104 321.8849Q90.58838 320.7469 91.593796 319.7415Q92.621315 318.71396 93.77036 318.69186Q94.93046 318.65872 95.77015 319.4984Q96.20104 319.9293 96.43306 320.51486Q96.676125 321.0894 96.72032 321.95117Q96.775566 322.8019 96.631935 324.53656Q96.49935 325.97287 96.52145 326.4369Q96.53249 326.8899 96.62089 327.26553L100.090126 323.7963ZM98.52123 320.0619Q97.2617 318.80234 96.75346 317.7859Q96.24523 316.7473 96.34467 315.8303Q96.43306 314.90222 97.20646 314.1288Q97.78098 313.5543 98.44389 313.3554Q99.106804 313.15656 99.81391 313.31122Q100.53207 313.45486 101.305466 313.91888Q102.078865 314.38293 103.13953 315.4436Q104.38801 316.69208 104.89624 317.70856Q105.40448 318.725 105.316086 319.65308Q105.2277 320.58118 104.44325 321.3656Q103.42679 322.38208 102.10096 322.2274Q100.50997 322.05063 98.52123 320.0619ZM99.41617 319.16696Q101.161835 320.91263 102.14516 321.07834Q103.12848 321.24408 103.7251 320.64746Q104.33277 320.0398 104.16704 319.05646Q103.990265 318.0621 102.25564 316.32748Q100.498924 314.57077 99.5156 314.40503Q98.53228 314.2393 97.91357 314.85803Q97.31694 315.45465 97.47162 316.31644Q97.670494 317.4213 99.41617 319.16696ZM110.95084 314.61496L110.07801 315.4878L104.53164 309.9414Q104.52059 310.5491 104.31067 311.37772Q104.100746 312.18427 103.846634 312.72565L103.00694 311.88596Q103.39364 310.81427 103.44888 309.78674Q103.515175 308.74817 103.27211 308.06317L103.83559 307.4997L110.95084 314.61496ZM107.227486 306.03024L106.387794 305.19055L110.98399 300.59436L111.65795 301.2683Q111.6911 302.67148 112.22143 304.52765Q112.751755 306.3838 113.65774 308.01898Q114.287506 309.15698 115.27083 310.29498L114.37589 311.1899Q113.54726 310.33917 112.674416 308.84763Q111.81263 307.345 111.3044 305.66562Q110.796165 303.96417 110.70778 302.54996L107.227486 306.03024ZM120.3863 309.1128L119.75653 308.483L125.52388 302.71567L126.15365 303.34543L120.3863 309.1128ZM127.92142 297.64438L127.04858 298.5172L121.50221 292.97086Q121.49116 293.57852 121.28124 294.40717Q121.07132 295.2137 120.8172 295.7551L119.97751 294.9154Q120.36421 293.8437 120.41945 292.81616Q120.48574 291.77762 120.242676 291.0926L120.80615 290.5291L127.92142 297.64438Z" fill-rule="nonzero"/><path fill="#000000" d="M147.71332 323.7963L148.55301 324.636L143.86842 329.32056Q143.54802 329.02225 143.3602 328.61346Q143.07294 327.95053 142.99559 327.0998Q142.9293 326.238 143.06187 324.8901Q143.2718 322.77982 143.11713 321.82965Q142.9735 320.86844 142.4763 320.37125Q141.95703 319.85196 141.22783 319.87405Q140.50967 319.8851 139.92409 320.47067Q139.29433 321.10043 139.28328 321.8628Q139.28328 322.6141 139.95724 323.28806L138.96288 324.08356Q138.05688 323.0008 138.13423 321.8849Q138.21156 320.7469 139.217 319.7415Q140.2445 318.71396 141.39355 318.69186Q142.55365 318.65872 143.39334 319.4984Q143.82423 319.9293 144.05624 320.51486Q144.29932 321.0894 144.3435 321.95117Q144.39876 322.8019 144.25513 324.53653Q144.12254 325.97284 144.14464 326.4369Q144.15569 326.8899 144.24408 327.26553L147.71332 323.7963ZM146.14442 320.0619Q144.88489 318.80234 144.37666 317.7859Q143.86842 316.7473 143.96786 315.8303Q144.05624 314.90222 144.82965 314.1288Q145.40417 313.5543 146.06708 313.3554Q146.73 313.15656 147.4371 313.31122Q148.15526 313.45486 148.92867 313.91888Q149.70206 314.38293 150.76271 315.4436Q152.0112 316.69208 152.51944 317.70856Q153.02766 318.725 152.93929 319.65308Q152.85089 320.58118 152.06644 321.3656Q151.04997 322.38208 149.72415 322.2274Q148.13316 322.05063 146.14442 320.0619ZM147.03935 319.16696Q148.78503 320.91263 149.76834 321.07834Q150.75166 321.24408 151.34828 320.64746Q151.95596 320.0398 151.79024 319.05646Q151.61345 318.0621 149.87883 316.32748Q148.12212 314.57077 147.1388 314.40503Q146.15547 314.2393 145.53676 314.85803Q144.94014 315.45465 145.09482 316.31644Q145.29369 317.4213 147.03935 319.16696ZM158.57404 314.61496L157.7012 315.4878L152.15483 309.9414Q152.14378 310.54907 151.93387 311.37772Q151.72394 312.18427 151.46982 312.72565L150.63013 311.88596Q151.01683 310.81424 151.07208 309.78674Q151.13837 308.74817 150.8953 308.06317L151.45877 307.4997L158.57404 314.61496ZM154.85068 306.03024L154.01099 305.19055L158.60718 300.59436L159.28114 301.2683Q159.31429 302.67148 159.84462 304.52762Q160.37495 306.3838 161.28093 308.01898Q161.91069 309.15698 162.89401 310.29498L161.99908 311.1899Q161.17044 310.33917 160.2976 308.84763Q159.43582 307.345 158.9276 305.66562Q158.41936 303.96414 158.33096 302.54996L154.85068 306.03024ZM168.00949 309.11276L167.37973 308.483L173.14706 302.71567L173.77682 303.34543L168.00949 309.11276ZM175.99759 295.51202L176.83728 296.3517L172.1527 301.0363Q171.83229 300.73798 171.64447 300.3292Q171.35721 299.66626 171.27986 298.81552Q171.21358 297.95374 171.34615 296.60583Q171.55608 294.49554 171.4014 293.54538Q171.25777 292.58417 170.76057 292.08698Q170.2413 291.5677 169.5121 291.58978Q168.79395 291.60083 168.20836 292.1864Q167.5786 292.81616 167.56755 293.57852Q167.56755 294.32983 168.24152 295.00378L167.24715 295.7993Q166.34116 294.71652 166.4185 293.60062Q166.49583 292.46262 167.50127 291.4572Q168.52878 290.4297 169.67783 290.4076Q170.83792 290.37445 171.67761 291.21414Q172.1085 291.64502 172.34052 292.2306Q172.58359 292.8051 172.62778 293.6669Q172.68303 294.51764 172.5394 296.25226Q172.40681 297.68857 172.42891 298.15262Q172.43996 298.60562 172.52835 298.98126L175.99759 295.51202Z" fill-rule="nonzero"/><path fill="#000000" d="M195.3365 323.7963L196.1762 324.636L191.49161 329.32056Q191.1712 329.02225 190.98338 328.61346Q190.69612 327.95056 190.61877 327.09982Q190.55249 326.23804 190.68507 324.8901Q190.89499 322.77982 190.74031 321.82965Q190.59668 320.86844 190.09949 320.37125Q189.58022 319.85196 188.85101 319.87405Q188.13286 319.8851 187.54729 320.47067Q186.91751 321.10046 186.90646 321.8628Q186.90646 322.6141 187.58043 323.28806L186.58606 324.08356Q185.68007 323.0008 185.75742 321.8849Q185.83476 320.7469 186.84018 319.7415Q187.86769 318.71396 189.01674 318.69186Q190.17683 318.65872 191.01653 319.4984Q191.44742 319.9293 191.67943 320.51486Q191.9225 321.0894 191.9667 321.9512Q192.02194 322.8019 191.87831 324.53656Q191.74573 325.97287 191.76782 326.4369Q191.77887 326.8899 191.86726 327.26553L195.3365 323.7963ZM193.76761 320.0619Q192.50807 318.80234 191.99985 317.7859Q191.49161 316.7473 191.59105 315.8303Q191.67943 314.90222 192.45284 314.1288Q193.02736 313.5543 193.69028 313.3554Q194.35318 313.15656 195.06029 313.31122Q195.77844 313.45486 196.55185 313.91888Q197.32524 314.38293 198.3859 315.4436Q199.63438 316.69208 200.14262 317.70856Q200.65085 318.725 200.56247 319.65308Q200.47408 320.58118 199.68964 321.3656Q198.67316 322.38208 197.34734 322.2274Q195.75635 322.05063 193.76761 320.0619ZM194.66254 319.16696Q196.40822 320.91263 197.39153 321.07834Q198.37485 321.24408 198.97148 320.64746Q199.57915 320.0398 199.41342 319.05646Q199.23663 318.0621 197.50201 316.32748Q195.7453 314.57077 194.76198 314.40503Q193.77866 314.23932 193.15994 314.85803Q192.56332 315.45465 192.718 316.31644Q192.91687 317.4213 194.66254 319.16696ZM206.19722 314.61496L205.32439 315.4878L199.77802 309.9414Q199.76697 310.5491 199.55705 311.37772Q199.34712 312.18427 199.093 312.72565L198.25333 311.88596Q198.64001 310.81427 198.69527 309.78674Q198.76155 308.74817 198.51848 308.06317L199.08195 307.4997L206.19722 314.61496ZM206.06464 307.05774Q205.32439 307.40027 204.69463 307.3008Q204.0759 307.19034 203.55663 306.67105Q202.78322 305.89764 202.81636 304.82596Q202.84952 303.73215 203.76654 302.81512Q204.69463 301.88702 205.79947 301.86493Q206.91537 301.8318 207.68878 302.6052Q208.17491 303.0913 208.27435 303.7211Q208.38483 304.3398 208.05338 305.069Q208.91516 304.62708 209.73276 304.75964Q210.55035 304.89224 211.21326 305.55515Q212.11925 306.46112 212.09714 307.72067Q212.07504 308.9802 211.02544 310.02982Q209.97583 311.0794 208.70525 311.11258Q207.43466 311.12363 206.50658 310.19553Q205.82156 309.51053 205.71109 308.69293Q205.58955 307.8643 206.06464 307.05774ZM204.42946 305.75403Q204.92664 306.25122 205.56746 306.25122Q206.20827 306.25122 206.72755 305.73193Q207.23578 305.2237 207.24683 304.59393Q207.24683 303.95312 206.78279 303.48907Q206.30771 303.01398 205.65584 303.02502Q204.99294 303.02502 204.49574 303.52222Q203.99857 304.0194 203.98752 304.67126Q203.97647 305.30103 204.42946 305.75403ZM207.41257 309.31165Q207.78821 309.68732 208.31854 309.86407Q208.83783 310.02982 209.36815 309.87512Q209.90953 309.7094 210.31833 309.3006Q210.93704 308.6819 210.93704 307.88638Q210.94809 307.07983 210.32938 306.46112Q209.69962 305.83136 208.87097 305.8424Q208.04233 305.83136 207.41257 306.46112Q206.79384 307.07983 206.79384 307.89743Q206.80489 308.70398 207.41257 309.31165ZM215.63268 309.1128L215.00291 308.483L220.77025 302.71567L221.40002 303.34543L215.63268 309.1128ZM223.16779 297.64438L222.29495 298.5172L216.74858 292.97086Q216.73753 293.57852 216.5276 294.40717Q216.31769 295.2137 216.06357 295.7551L215.22388 294.9154Q215.61058 293.8437 215.66582 292.8162Q215.73212 291.77762 215.48904 291.0926L216.05252 290.52914L223.16779 297.64438Z" fill-rule="nonzero"/><path fill="#000000" d="M242.95969 323.7963L243.79938 324.636L239.11479 329.32056Q238.79439 329.02225 238.60657 328.61346Q238.3193 327.95056 238.24196 327.09982Q238.17567 326.23804 238.30826 324.8901Q238.51817 322.77985 238.3635 321.82965Q238.21986 320.86844 237.72269 320.37125Q237.2034 319.85196 236.4742 319.87405Q235.75604 319.8851 235.17047 320.47067Q234.5407 321.10046 234.52965 321.8628Q234.52965 322.6141 235.20361 323.28806L234.20924 324.08356Q233.30327 323.0008 233.3806 321.8849Q233.45795 320.7469 234.46336 319.7415Q235.49088 318.71396 236.63992 318.69186Q237.80002 318.65872 238.63971 319.4984Q239.0706 319.92932 239.30263 320.5149Q239.54568 321.08942 239.58989 321.9512Q239.64513 322.80194 239.5015 324.53656Q239.36891 325.97287 239.391 326.4369Q239.40205 326.8899 239.49045 327.26553L242.95969 323.7963ZM241.3908 320.0619Q240.13126 318.80237 239.62303 317.7859Q239.11479 316.7473 239.21423 315.8303Q239.30263 314.90222 240.07602 314.1288Q240.65054 313.5543 241.31346 313.35544Q241.97636 313.15656 242.68347 313.31122Q243.40163 313.45486 244.17503 313.91888Q244.94843 314.38293 246.0091 315.4436Q247.25757 316.69208 247.76581 317.70856Q248.27403 318.725 248.18565 319.6531Q248.09726 320.58118 247.31282 321.36563Q246.29636 322.38208 244.97052 322.22742Q243.37953 322.05063 241.3908 320.0619ZM242.28572 319.16696Q244.0314 320.91263 245.01472 321.07837Q245.99803 321.24408 246.59467 320.64746Q247.20233 320.0398 247.0366 319.05646Q246.85982 318.0621 245.1252 316.32748Q243.36848 314.57077 242.38516 314.40503Q241.40184 314.23932 240.78313 314.85803Q240.18651 315.45465 240.34119 316.31644Q240.54005 317.4213 242.28572 319.16696ZM253.82039 314.61496L252.94756 315.4878L247.4012 309.94144Q247.39014 310.5491 247.18022 311.37775Q246.9703 312.1843 246.71619 312.72568L245.8765 311.886Q246.2632 310.81427 246.31844 309.78674Q246.38472 308.7482 246.14166 308.06317L246.70514 307.4997L253.82039 314.61496ZM253.68782 307.05777Q252.94756 307.40027 252.3178 307.30084Q251.69908 307.19034 251.1798 306.67105Q250.4064 305.89767 250.43954 304.82596Q250.47269 303.73215 251.38971 302.81512Q252.3178 301.88705 253.42265 301.86496Q254.53856 301.83182 255.31195 302.6052Q255.79808 303.09134 255.89752 303.7211Q256.008 304.3398 255.67654 305.06903Q256.53833 304.62708 257.35593 304.75967Q258.17352 304.89224 258.83643 305.55518Q259.7424 306.46115 259.7203 307.72067Q259.6982 308.98022 258.64862 310.02982Q257.599 311.07944 256.32843 311.11258Q255.05783 311.12363 254.12976 310.19556Q253.44475 309.51053 253.33426 308.69296Q253.21272 307.86432 253.68782 307.05777ZM252.05263 305.75403Q252.54982 306.25122 253.19063 306.25122Q253.83145 306.25122 254.35072 305.73193Q254.85896 305.2237 254.87001 304.59393Q254.87001 303.95312 254.40598 303.48907Q253.93088 303.014 253.27902 303.02505Q252.6161 303.02505 252.11893 303.52222Q251.62173 304.0194 251.61069 304.67126Q251.59964 305.30106 252.05263 305.75403ZM255.03574 309.31168Q255.41139 309.68732 255.94171 309.8641Q256.461 310.02982 256.99133 309.87515Q257.5327 309.7094 257.9415 309.30063Q258.5602 308.68192 258.5602 307.8864Q258.57126 307.07986 257.95255 306.46115Q257.32278 305.8314 256.49414 305.84244Q255.6655 305.8314 255.03574 306.46115Q254.41702 307.07986 254.41702 307.89746Q254.42807 308.704 255.03574 309.31168ZM263.25586 309.1128L262.6261 308.48303L268.39343 302.7157L269.0232 303.34546L263.25586 309.1128ZM271.24396 295.51202L272.08365 296.3517L267.39905 301.03632Q267.07864 300.738 266.8908 300.3292Q266.60355 299.6663 266.5262 298.81555Q266.45993 297.95377 266.5925 296.60583Q266.80243 294.49557 266.64777 293.5454Q266.50412 292.58417 266.00693 292.08698Q265.48767 291.56772 264.75845 291.5898Q264.0403 291.60086 263.4547 292.18643Q262.82495 292.8162 262.8139 293.57855Q262.8139 294.32983 263.48788 295.0038L262.4935 295.7993Q261.58752 294.71655 261.66486 293.60065Q261.7422 292.46265 262.74762 291.4572Q263.77515 290.42972 264.9242 290.40762Q266.0843 290.37445 266.92398 291.21414Q267.35486 291.64505 267.58688 292.23062Q267.82996 292.80515 267.87415 293.66693Q267.92938 294.51767 267.78577 296.2523Q267.65317 297.6886 267.67526 298.15265Q267.6863 298.60562 267.77472 298.9813L271.24396 295.51202Z" fill-rule="nonzero"/><path fill="#000000" d="M290.5829 323.7963L291.42258 324.636L286.73798 329.32056Q286.41757 329.02225 286.22974 328.61346Q285.94247 327.95056 285.86514 327.09982Q285.79886 326.23804 285.93143 324.8901Q286.14136 322.77985 285.9867 321.82965Q285.84305 320.86844 285.34586 320.37125Q284.82657 319.85196 284.09738 319.87405Q283.3792 319.8851 282.79364 320.4707Q282.16388 321.10046 282.15283 321.8628Q282.15283 322.6141 282.82678 323.28806L281.83243 324.08356Q280.92645 323.0008 281.00378 321.8849Q281.08112 320.7469 282.08655 319.7415Q283.11404 318.71396 284.26312 318.69186Q285.42322 318.65872 286.2629 319.4984Q286.6938 319.92932 286.9258 320.5149Q287.16888 321.08942 287.21307 321.9512Q287.2683 322.80194 287.1247 324.53656Q286.9921 325.97287 287.0142 326.4369Q287.02524 326.8899 287.11362 327.26553L290.5829 323.7963ZM289.01398 320.0619Q287.75446 318.80237 287.24622 317.7859Q286.73798 316.7473 286.83743 315.8303Q286.9258 314.90222 287.69922 314.1288Q288.27374 313.5543 288.93665 313.35544Q289.59955 313.15656 290.30667 313.31122Q291.0248 313.45486 291.79822 313.9189Q292.57162 314.38293 293.63226 315.4436Q294.88077 316.69208 295.38898 317.70856Q295.89722 318.725 295.80884 319.6531Q295.72046 320.58118 294.936 321.36563Q293.91953 322.38208 292.59372 322.22742Q291.00272 322.05063 289.01398 320.0619ZM289.9089 319.16696Q291.65457 320.91263 292.6379 321.07837Q293.62122 321.24408 294.21783 320.64746Q294.8255 320.0398 294.6598 319.0565Q294.483 318.0621 292.74838 316.32748Q290.99167 314.57077 290.00836 314.40503Q289.02502 314.23932 288.4063 314.85803Q287.8097 315.45465 287.96436 316.31644Q288.16324 317.4213 289.9089 319.16696ZM301.4436 314.61496L300.57077 315.4878L295.02438 309.94144Q295.01334 310.5491 294.8034 311.37775Q294.5935 312.1843 294.3394 312.72565L293.4997 311.88596Q293.88638 310.81427 293.94162 309.78674Q294.00793 308.74817 293.76486 308.06317L294.32834 307.4997L301.4436 314.61496ZM302.31644 310.47177L303.07877 309.55472Q303.7638 310.04086 304.32727 310.00772Q304.9018 309.96353 305.3658 309.49948Q305.76358 309.10175 305.8851 308.62665Q306.00665 308.12946 305.8851 307.6323Q305.77463 307.12405 305.3879 306.4722Q305.00122 305.8203 304.45984 305.27893Q304.4046 305.2237 304.27203 305.11322Q304.43774 305.78717 304.2499 306.50534Q304.05106 307.21243 303.52072 307.74277Q302.63684 308.62665 301.38834 308.5935Q300.13986 308.56036 299.1013 307.5218Q298.01855 306.43903 297.99646 305.1574Q297.97433 303.85367 298.93558 302.89246Q299.62057 302.20746 300.57077 302.00858Q301.5099 301.79865 302.50424 302.1964Q303.48758 302.5831 304.7913 303.8868Q306.15027 305.2458 306.6585 306.35065Q307.1778 307.44446 307.01205 308.44986Q306.84634 309.4553 306.0619 310.23975Q305.23325 311.0684 304.23886 311.13467Q303.25555 311.1899 302.31644 310.47177ZM302.7473 303.78738Q301.99603 303.03607 301.15634 302.99188Q300.31665 302.9477 299.76422 303.50012Q299.17865 304.0857 299.22284 304.99167Q299.26703 305.89767 300.01834 306.64896Q300.6923 307.3229 301.53198 307.34503Q302.36063 307.35608 302.95724 306.75946Q303.5649 306.15176 303.53177 305.34525Q303.48758 304.52765 302.7473 303.78738ZM310.87906 309.1128L310.24927 308.48303L316.01663 302.71567L316.6464 303.34546L310.87906 309.1128ZM318.41415 297.6444L317.54132 298.51724L311.99496 292.97086Q311.98392 293.57852 311.774 294.40717Q311.56406 295.2137 311.30994 295.7551L310.47025 294.9154Q310.85696 293.8437 310.9122 292.8162Q310.9785 291.77762 310.7354 291.09262L311.2989 290.52914L318.41415 297.6444Z" fill-rule="nonzero"/><path fill="#000000" d="M338.2061 323.7963L339.04575 324.636L334.36118 329.32056Q334.04077 329.02225 333.85294 328.61346Q333.56567 327.95053 333.48834 327.0998Q333.42206 326.238 333.55463 324.8901Q333.76456 322.77982 333.60986 321.82965Q333.46625 320.86844 332.96906 320.37125Q332.44977 319.85196 331.72058 319.87405Q331.0024 319.8851 330.41684 320.47067Q329.78708 321.10043 329.77603 321.8628Q329.77603 322.6141 330.44998 323.28806L329.45563 324.08356Q328.54965 323.0008 328.62698 321.8849Q328.7043 320.7469 329.70975 319.7415Q330.73724 318.71396 331.8863 318.69186Q333.0464 318.65872 333.88608 319.4984Q334.317 319.9293 334.549 320.51486Q334.79208 321.0894 334.83627 321.95117Q334.8915 322.8019 334.74786 324.53653Q334.6153 325.97287 334.6374 326.4369Q334.64844 326.8899 334.73682 327.26553L338.2061 323.7963ZM336.63718 320.0619Q335.37766 318.80234 334.86942 317.7859Q334.36118 316.7473 334.4606 315.8303Q334.549 314.90222 335.3224 314.1288Q335.8969 313.5543 336.55984 313.3554Q337.22275 313.15656 337.92987 313.31122Q338.648 313.45486 339.42142 313.91888Q340.1948 314.38293 341.25546 315.4436Q342.50397 316.69208 343.01218 317.70856Q343.52042 318.725 343.43204 319.65308Q343.34366 320.58118 342.5592 321.3656Q341.54272 322.38208 340.21692 322.2274Q338.62592 322.05063 336.63718 320.0619ZM337.5321 319.16696Q339.27777 320.91263 340.2611 321.07834Q341.24442 321.24408 341.84103 320.64746Q342.4487 320.0398 342.283 319.05646Q342.1062 318.0621 340.37158 316.32748Q338.61487 314.57077 337.63156 314.40503Q336.64822 314.2393 336.0295 314.85803Q335.4329 315.45465 335.58755 316.31644Q335.78644 317.4213 337.5321 319.16696ZM349.0668 314.61496L348.19394 315.4878L342.64758 309.9414Q342.63654 310.5491 342.4266 311.37772Q342.2167 312.18427 341.9626 312.72565L341.1229 311.88596Q341.50958 310.81424 341.56482 309.78674Q341.63113 308.74817 341.38806 308.06317L341.95154 307.4997L349.0668 314.61496ZM349.93964 310.47174L350.70197 309.55472Q351.387 310.04086 351.95047 310.00772Q352.525 309.9635 352.989 309.49948Q353.38678 309.1017 353.5083 308.62665Q353.62985 308.12946 353.5083 307.63226Q353.39783 307.12405 353.0111 306.47217Q352.62442 305.8203 352.08304 305.27893Q352.0278 305.2237 351.8952 305.11322Q352.06094 305.78717 351.8731 306.5053Q351.67426 307.21243 351.14392 307.74277Q350.26004 308.62665 349.01154 308.5935Q347.76306 308.56036 346.7245 307.5218Q345.64175 306.43903 345.61963 305.1574Q345.59753 303.85367 346.55878 302.89246Q347.24377 302.20743 348.19394 302.00858Q349.1331 301.79865 350.12744 302.19638Q351.11078 302.5831 352.4145 303.8868Q353.77347 305.2458 354.2817 306.35065Q354.801 307.44446 354.63525 308.44986Q354.4695 309.4553 353.6851 310.23972Q352.85645 311.06836 351.86206 311.13467Q350.87875 311.1899 349.93964 310.47174ZM350.3705 303.78738Q349.6192 303.03607 348.77954 302.99188Q347.93985 302.9477 347.38742 303.50012Q346.80185 304.0857 346.84604 304.99167Q346.89023 305.89764 347.64154 306.64896Q348.3155 307.3229 349.15518 307.345Q349.98383 307.35605 350.58044 306.75943Q351.1881 306.15176 351.15497 305.3452Q351.11078 304.52762 350.3705 303.78738ZM358.50226 309.1128L357.87247 308.483L363.63983 302.71567L364.2696 303.34543L358.50226 309.1128ZM366.49036 295.51202L367.33002 296.3517L362.64545 301.0363Q362.32504 300.73798 362.1372 300.3292Q361.84995 299.66626 361.7726 298.81552Q361.70633 297.95374 361.8389 296.60583Q362.04883 294.49554 361.89413 293.54538Q361.75052 292.58417 361.25333 292.08698Q360.73404 291.5677 360.00485 291.58978Q359.28668 291.60083 358.7011 292.1864Q358.07135 292.81616 358.0603 293.57852Q358.0603 294.32983 358.73425 295.00378L357.7399 295.7993Q356.83392 294.71652 356.91125 293.60062Q356.9886 292.46262 357.99402 291.4572Q359.0215 290.4297 360.17056 290.4076Q361.33066 290.37445 362.17035 291.21414Q362.60126 291.64502 362.83328 292.2306Q363.07635 292.8051 363.12054 293.6669Q363.17578 294.51764 363.03214 296.25226Q362.89957 297.6886 362.92166 298.15262Q362.9327 298.60562 363.0211 298.98126L366.49036 295.51202Z" fill-rule="nonzero"/><path fill="#000000" d="M385.82925 323.7963L386.66895 324.636L381.98438 329.32056Q381.66397 329.02225 381.47614 328.61346Q381.18887 327.95053 381.11154 327.0998Q381.04526 326.238 381.17783 324.89008Q381.38776 322.77982 381.23306 321.82965Q381.08945 320.8684 380.59225 320.37125Q380.07297 319.85196 379.34378 319.87405Q378.6256 319.8851 378.04004 320.47067Q377.41028 321.10043 377.39923 321.8628Q377.39923 322.6141 378.07318 323.28806L377.07883 324.08356Q376.17285 323.0008 376.25018 321.8849Q376.3275 320.7469 377.33295 319.74146Q378.36044 318.71396 379.5095 318.69186Q380.6696 318.65872 381.50928 319.4984Q381.9402 319.9293 382.1722 320.51486Q382.41525 321.0894 382.45947 321.95117Q382.5147 322.8019 382.37106 324.53653Q382.2385 325.97284 382.2606 326.4369Q382.27164 326.88986 382.36002 327.26553L385.82925 323.7963ZM384.26038 320.0619Q383.00085 318.80234 382.4926 317.7859Q381.98438 316.7473 382.0838 315.8303Q382.1722 314.90222 382.9456 314.1288Q383.5201 313.5543 384.18304 313.3554Q384.84595 313.15652 385.55304 313.31122Q386.2712 313.45483 387.04462 313.91888Q387.818 314.38293 388.87866 315.44357Q390.12714 316.69208 390.63538 317.70853Q391.14362 318.725 391.05524 319.65308Q390.96683 320.58115 390.1824 321.3656Q389.16592 322.38208 387.8401 322.2274Q386.2491 322.05063 384.26038 320.0619ZM385.1553 319.16693Q386.90097 320.91263 387.8843 321.07834Q388.8676 321.24408 389.46423 320.64746Q390.0719 320.03976 389.9062 319.05646Q389.7294 318.0621 387.99478 316.32748Q386.23807 314.57074 385.25473 314.40503Q384.27142 314.2393 383.6527 314.858Q383.0561 315.45462 383.21075 316.3164Q383.40964 317.42126 385.1553 319.16693ZM397.14297 312.48257L397.98267 313.32227L393.2981 318.00684Q392.97766 317.70853 392.78986 317.29974Q392.5026 316.63684 392.42526 315.7861Q392.35895 314.92432 392.49155 313.5764Q392.70145 311.4661 392.54678 310.51593Q392.40314 309.55472 391.90598 309.05753Q391.3867 308.53824 390.65747 308.56033Q389.93933 308.57138 389.35376 309.15695Q388.724 309.78674 388.71295 310.54907Q388.71295 311.30038 389.3869 311.97433L388.39252 312.76984Q387.48654 311.68707 387.56387 310.57117Q387.64124 309.43317 388.64664 308.42776Q389.67416 307.40024 390.8232 307.37814Q391.9833 307.345 392.823 308.1847Q393.25388 308.6156 393.4859 309.20117Q393.72897 309.7757 393.77316 310.63748Q393.8284 311.48822 393.68478 313.22284Q393.5522 314.65915 393.5743 315.12317Q393.58536 315.57617 393.67374 315.9518L397.14297 312.48257ZM395.5741 308.74817Q394.31454 307.48865 393.8063 306.47217Q393.2981 305.4336 393.39752 304.51657Q393.4859 303.5885 394.2593 302.8151Q394.83383 302.24057 395.49673 302.04172Q396.15967 301.84283 396.86676 301.9975Q397.58493 302.14114 398.3583 302.60516Q399.1317 303.0692 400.19238 304.12988Q401.44086 305.37836 401.9491 306.39484Q402.45734 307.4113 402.36893 308.3394Q402.28055 309.26746 401.4961 310.0519Q400.47964 311.06836 399.1538 310.9137Q397.5628 310.7369 395.5741 308.74817ZM396.46902 307.85324Q398.2147 309.5989 399.198 309.76465Q400.18134 309.93036 400.77795 309.33374Q401.38562 308.72607 401.21988 307.74274Q401.04312 306.74838 399.3085 305.01376Q397.55176 303.25705 396.56845 303.0913Q395.58514 302.9256 394.9664 303.5443Q394.36978 304.14093 394.52448 305.00272Q394.72336 306.10757 396.46902 307.85324ZM406.12543 309.11276L405.49567 308.483L411.263 302.71567L411.8928 303.34543L406.12543 309.11276ZM413.66055 297.64438L412.78772 298.5172L407.24133 292.97086Q407.2303 293.57852 407.0204 294.40717Q406.81046 295.2137 406.55634 295.75507L405.71664 294.9154Q406.10333 293.8437 406.1586 292.81616Q406.22488 291.77762 405.9818 291.0926L406.5453 290.5291L413.66055 297.64438Z" fill-rule="nonzero"/><path fill="#000000" d="M433.45245 323.7963L434.29214 324.636L429.60754 329.32056Q429.28714 329.02225 429.0993 328.61346Q428.81204 327.95056 428.7347 327.09982Q428.66843 326.23804 428.801 324.8901Q429.01093 322.77985 428.85626 321.82965Q428.71262 320.86844 428.21542 320.37125Q427.69614 319.85196 426.96695 319.87405Q426.24878 319.8851 425.6632 320.47067Q425.03345 321.10046 425.0224 321.8628Q425.0224 322.6141 425.69635 323.28806L424.702 324.08356Q423.79602 323.0008 423.87335 321.8849Q423.95068 320.7469 424.95612 319.7415Q425.9836 318.71396 427.13266 318.69186Q428.2928 318.65872 429.13245 319.4984Q429.56335 319.92932 429.79538 320.5149Q430.03845 321.08942 430.08264 321.9512Q430.13788 322.80194 429.99423 324.53656Q429.86166 325.97287 429.88376 326.4369Q429.8948 326.8899 429.9832 327.26553L433.45245 323.7963ZM431.88354 320.0619Q430.62402 318.80237 430.11578 317.7859Q429.60754 316.7473 429.70697 315.8303Q429.79538 314.90222 430.5688 314.1288Q431.1433 313.5543 431.8062 313.35544Q432.46912 313.15656 433.17624 313.31122Q433.89438 313.45486 434.6678 313.9189Q435.4412 314.38293 436.50183 315.4436Q437.75034 316.69208 438.25854 317.70856Q438.76678 318.725 438.6784 319.6531Q438.59003 320.58118 437.80557 321.36563Q436.7891 322.38208 435.4633 322.22742Q433.87228 322.05063 431.88354 320.0619ZM432.77847 319.16696Q434.52414 320.91263 435.50748 321.07837Q436.49078 321.24408 437.0874 320.64746Q437.69507 320.0398 437.52936 319.0565Q437.35257 318.0621 435.61795 316.32748Q433.86124 314.57077 432.87793 314.40503Q431.8946 314.23932 431.27588 314.85803Q430.67926 315.45465 430.83392 316.31644Q431.0328 317.4213 432.77847 319.16696ZM444.76614 312.48257L445.60583 313.32227L440.92126 318.00687Q440.60086 317.70856 440.41302 317.29974Q440.12576 316.63684 440.04843 315.7861Q439.98212 314.92432 440.11472 313.5764Q440.32465 311.46613 440.16995 310.51596Q440.02634 309.55472 439.52914 309.05756Q439.00986 308.53827 438.28067 308.56036Q437.5625 308.5714 436.97693 309.15698Q436.34717 309.78674 436.33612 310.5491Q436.33612 311.30038 437.01007 311.97437L436.01572 312.76987Q435.1097 311.6871 435.18707 310.5712Q435.2644 309.4332 436.2698 308.42776Q437.29733 307.40027 438.44638 307.37817Q439.60648 307.34503 440.44617 308.1847Q440.87708 308.6156 441.10907 309.20117Q441.35214 309.7757 441.39633 310.63748Q441.4516 311.48822 441.30795 313.22284Q441.17538 314.65915 441.19748 315.1232Q441.20853 315.57617 441.2969 315.95184L444.76614 312.48257ZM443.19727 308.74817Q441.9377 307.48865 441.4295 306.47217Q440.92126 305.43362 441.0207 304.5166Q441.10907 303.5885 441.88248 302.81512Q442.457 302.2406 443.1199 302.04172Q443.78284 301.84283 444.48993 301.99753Q445.2081 302.14114 445.98148 302.6052Q446.75488 303.06924 447.81555 304.12988Q449.06403 305.3784 449.57227 306.39484Q450.0805 307.41132 449.9921 308.3394Q449.90372 309.26746 449.11926 310.0519Q448.1028 311.0684 446.77698 310.9137Q445.186 310.7369 443.19727 308.74817ZM444.0922 307.85324Q445.83786 309.5989 446.82117 309.76465Q447.8045 309.9304 448.40112 309.33374Q449.0088 308.72607 448.84305 307.74277Q448.6663 306.74838 446.93167 305.01376Q445.17496 303.25705 444.19162 303.09134Q443.2083 302.9256 442.5896 303.5443Q441.99295 304.14093 442.14764 305.00272Q442.34653 306.10757 444.0922 307.85324ZM453.74863 309.1128L453.11884 308.483L458.8862 302.71567L459.51596 303.34546L453.74863 309.1128ZM461.73672 295.51202L462.57642 296.3517L457.8918 301.0363Q457.5714 300.73798 457.38358 300.3292Q457.0963 299.6663 457.01898 298.81555Q456.9527 297.95377 457.08527 296.60583Q457.2952 294.49557 457.14053 293.54538Q456.9969 292.58417 456.4997 292.08698Q455.9804 291.5677 455.25122 291.58978Q454.53305 291.60083 453.94748 292.1864Q453.31772 292.8162 453.30667 293.57852Q453.30667 294.32983 453.98062 295.00378L452.98627 295.7993Q452.0803 294.71652 452.15762 293.60062Q452.23495 292.46262 453.2404 291.4572Q454.26788 290.4297 455.41693 290.4076Q456.57706 290.37445 457.41672 291.21414Q457.84763 291.64505 458.07965 292.23062Q458.32272 292.80515 458.3669 293.66693Q458.42215 294.51767 458.2785 296.2523Q458.14594 297.6886 458.16803 298.15262Q458.17908 298.60562 458.26746 298.98126L461.73672 295.51202Z" fill-rule="nonzero"/><path fill="#000000" d="M481.07562 323.7963L481.9153 324.636L477.23074 329.32056Q476.91034 329.02225 476.7225 328.61346Q476.43524 327.95053 476.3579 327.0998Q476.29163 326.238 476.4242 324.8901Q476.63412 322.77982 476.47943 321.82965Q476.33582 320.86844 475.83862 320.37125Q475.31934 319.85196 474.59015 319.87405Q473.87198 319.8851 473.2864 320.47067Q472.65665 321.10043 472.6456 321.8628Q472.6456 322.6141 473.31955 323.28806L472.3252 324.08356Q471.41922 323.0008 471.49655 321.8849Q471.57388 320.7469 472.5793 319.7415Q473.6068 318.71396 474.75586 318.69186Q475.91595 318.65872 476.75565 319.4984Q477.18655 319.9293 477.41858 320.51486Q477.66165 321.0894 477.70584 321.95117Q477.76108 322.8019 477.61743 324.53653Q477.48486 325.97284 477.50696 326.4369Q477.518 326.8899 477.60638 327.26553L481.07562 323.7963ZM479.50674 320.0619Q478.24722 318.80234 477.73898 317.7859Q477.23074 316.7473 477.33017 315.8303Q477.41858 314.90222 478.19196 314.1288Q478.76648 313.5543 479.4294 313.3554Q480.09232 313.15656 480.79944 313.31122Q481.51758 313.45486 482.291 313.91888Q483.06436 314.38293 484.12503 315.4436Q485.37354 316.69208 485.88174 317.70856Q486.38998 318.725 486.3016 319.65308Q486.2132 320.58118 485.42877 321.3656Q484.4123 322.38208 483.0865 322.2274Q481.49548 322.05063 479.50674 320.0619ZM480.40167 319.16696Q482.14734 320.91263 483.13068 321.07834Q484.11398 321.24408 484.7106 320.64746Q485.31827 320.0398 485.15256 319.05646Q484.97577 318.0621 483.24115 316.32748Q481.48444 314.57077 480.5011 314.40503Q479.5178 314.2393 478.89908 314.85803Q478.30246 315.45465 478.45712 316.31644Q478.656 317.4213 480.40167 319.16696ZM492.38934 312.48257L493.22903 313.32227L488.54446 318.00687Q488.22406 317.70856 488.03622 317.29974Q487.74896 316.63684 487.67163 315.7861Q487.60532 314.92432 487.7379 313.5764Q487.94785 311.46613 487.79315 310.51593Q487.64954 309.55472 487.15234 309.05753Q486.63306 308.53824 485.90384 308.56036Q485.1857 308.5714 484.60013 309.15698Q483.97037 309.78674 483.95932 310.54907Q483.95932 311.30038 484.63327 311.97433L483.6389 312.76984Q482.7329 311.68707 482.81027 310.5712Q482.8876 309.4332 483.893 308.42776Q484.92053 307.40024 486.06958 307.37814Q487.22968 307.345 488.06937 308.1847Q488.50024 308.6156 488.73227 309.20117Q488.97534 309.7757 489.01953 310.63748Q489.07477 311.48822 488.93115 313.22284Q488.79858 314.65915 488.82068 315.12317Q488.83173 315.57617 488.9201 315.9518L492.38934 312.48257ZM497.5932 308.9581L496.72037 309.83093L491.174 304.28458Q491.16296 304.89224 490.95303 305.7209Q490.7431 306.5274 490.48898 307.0688L489.64932 306.2291Q490.036 305.1574 490.09125 304.12988Q490.15753 303.0913 489.91446 302.4063L490.47794 301.84283L497.5932 308.9581ZM501.37183 309.11276L500.74203 308.483L506.5094 302.71567L507.13916 303.34543L501.37183 309.11276ZM508.90692 297.64438L508.0341 298.5172L502.4877 292.97086Q502.47665 293.57852 502.26675 294.40717Q502.05682 295.2137 501.8027 295.7551L500.963 294.9154Q501.3497 293.8437 501.40497 292.81616Q501.47125 291.77762 501.22818 291.0926L501.79166 290.5291L508.90692 297.64438Z" fill-rule="nonzero"/><path fill="#000000" d="M528.6988 323.7963L529.5385 324.636L524.85394 329.3206Q524.5335 329.02228 524.3457 328.61346Q524.0584 327.95056 523.9811 327.09982Q523.9148 326.23804 524.04736 324.8901Q524.2573 322.77985 524.1026 321.82965Q523.959 320.86844 523.4618 320.37125Q522.9425 319.85196 522.2133 319.87408Q521.4952 319.88513 520.9096 320.4707Q520.27985 321.10046 520.2688 321.86282Q520.2688 322.6141 520.94275 323.2881L519.94836 324.08356Q519.04236 323.00082 519.11975 321.88492Q519.1971 320.74692 520.20245 319.7415Q521.23 318.714 522.379 318.69186Q523.5391 318.65872 524.37885 319.4984Q524.80975 319.92932 525.04175 320.5149Q525.2848 321.08942 525.329 321.9512Q525.3843 322.80194 525.2406 324.53656Q525.10803 325.97287 525.1301 326.43692Q525.1412 326.8899 525.22955 327.26553L528.6988 323.7963ZM527.12994 320.0619Q525.87036 318.80237 525.3622 317.7859Q524.85394 316.74734 524.95337 315.8303Q525.04175 314.90222 525.8151 314.1288Q526.38965 313.5543 527.05255 313.35544Q527.7155 313.15656 528.4226 313.31125Q529.14075 313.45486 529.9141 313.9189Q530.68756 314.38293 531.7482 315.4436Q532.9967 316.69208 533.50494 317.70856Q534.0132 318.72504 533.92474 319.6531Q533.83636 320.58118 533.05194 321.36563Q532.03546 322.38208 530.70966 322.22742Q529.11865 322.05063 527.12994 320.0619ZM528.02484 319.16696Q529.7705 320.91263 530.75385 321.07837Q531.7372 321.24408 532.3338 320.64746Q532.94147 320.0398 532.7757 319.0565Q532.59894 318.0621 530.8643 316.32748Q529.1076 314.57077 528.12427 314.40503Q527.141 314.23932 526.5223 314.85803Q525.9256 315.45465 526.0803 316.31644Q526.2792 317.4213 528.02484 319.16696ZM540.0125 312.4826L540.85223 313.3223L536.1676 318.00687Q535.8472 317.70856 535.6594 317.29977Q535.37213 316.63684 535.2948 315.7861Q535.2285 314.92432 535.3611 313.57642Q535.571 311.46613 535.4163 310.51596Q535.2727 309.55472 534.7755 309.05756Q534.2562 308.53827 533.52704 308.56036Q532.8089 308.5714 532.2233 309.15698Q531.5935 309.78674 531.58246 310.5491Q531.58246 311.3004 532.2565 311.97437L531.2621 312.76987Q530.3561 311.6871 530.4334 310.5712Q530.5108 309.4332 531.5162 308.42776Q532.5437 307.40027 533.69275 307.37817Q534.85284 307.34503 535.69257 308.18472Q536.1234 308.6156 536.35547 309.20117Q536.5985 309.7757 536.6427 310.63748Q536.69794 311.48822 536.5543 313.22284Q536.42175 314.65915 536.44385 315.1232Q536.4549 315.5762 536.5433 315.95184L540.0125 312.4826ZM545.2164 308.9581L544.34357 309.83093L538.7972 304.28458Q538.78613 304.89224 538.57623 305.7209Q538.3663 306.52744 538.1122 307.06882L537.27246 306.22913Q537.6592 305.1574 537.7144 304.12988Q537.7807 303.09134 537.53766 302.4063L538.10114 301.84283L545.2164 308.9581ZM548.995 309.1128L548.36523 308.48303L554.13257 302.7157L554.7623 303.34546L548.995 309.1128ZM556.9831 295.51202L557.82275 296.3517L553.1382 301.03632Q552.8178 300.738 552.62994 300.3292Q552.3427 299.6663 552.2654 298.81555Q552.19904 297.95377 552.33167 296.60583Q552.54156 294.49557 552.3869 293.54538Q552.2433 292.58417 551.7461 292.08698Q551.2268 291.5677 550.49756 291.5898Q549.7794 291.60086 549.19385 292.18643Q548.5641 292.8162 548.55304 293.57855Q548.55304 294.32983 549.227 295.0038L548.23267 295.7993Q547.32666 294.71655 547.404 293.60065Q547.4813 292.46265 548.48676 291.4572Q549.5143 290.42972 550.6633 290.4076Q551.8234 290.37445 552.6631 291.21414Q553.094 291.64505 553.326 292.23062Q553.5691 292.80515 553.6133 293.66693Q553.6685 294.51767 553.5249 296.2523Q553.39233 297.6886 553.4144 298.15265Q553.4255 298.60562 553.51385 298.98126L556.9831 295.51202Z" fill-rule="nonzero"/><path fill="#ea4335" d="M222.80833 341.45C222.80833 340.8977 223.25604 340.45 223.80833 340.45L233.80833 340.45C234.36061 340.45 234.80833 340.8977 234.80833 341.45L234.80833 351.45C234.80833 352.0023 234.36061 352.45 233.80833 352.45L223.80833 352.45C223.25604 352.45 222.80833 352.0023 222.80833 351.45Z" fill-rule="nonzero"/><path fill="#1a1a1a" d="M243.73021 351.45L243.73021 344.1844L244.83958 344.1844L244.83958 345.21564Q245.63646 344.02814 247.15208 344.02814Q247.80833 344.02814 248.35521 344.2625Q248.90208 344.4969 249.16771 344.8875Q249.44896 345.2625 249.55833 345.79376Q249.63646 346.1375 249.63646 346.98126L249.63646 351.45L248.40208 351.45L248.40208 347.02814Q248.40208 346.27814 248.26146 345.91876Q248.12083 345.54376 247.74583 345.325Q247.38646 345.09064 246.88646 345.09064Q246.10521 345.09064 245.52708 345.59064Q244.96458 346.09064 244.96458 347.48126L244.96458 351.45L243.73021 351.45ZM256.69897 349.10626L257.98022 349.2625Q257.66772 350.3875 256.85522 351.0125Q256.04272 351.6219 254.77708 351.6219Q253.18333 351.6219 252.24583 350.6375Q251.32396 349.65314 251.32396 347.8875Q251.32396 346.04376 252.26146 345.04376Q253.21458 344.02814 254.71458 344.02814Q256.16772 344.02814 257.0896 345.02814Q258.01147 346.0125 258.01147 347.8094Q258.01147 347.91876 258.01147 348.1375L252.58958 348.1375Q252.66771 349.325 253.26146 349.96564Q253.87083 350.60626 254.79271 350.60626Q255.46458 350.60626 255.93333 350.2469Q256.41772 349.8875 256.69897 349.10626ZM252.66771 347.1219L256.7146 347.1219Q256.63647 346.2 256.24585 345.7469Q255.66771 345.04376 254.73021 345.04376Q253.87083 345.04376 253.29271 345.60626Q252.73021 346.16876 252.66771 347.1219ZM259.51147 352.0594L260.69897 352.23126Q260.7771 352.77814 261.12085 353.04376Q261.57397 353.3719 262.37085 353.3719Q263.23022 353.3719 263.68335 353.02814Q264.1521 352.7 264.32397 352.075Q264.41772 351.7 264.4021 350.4969Q263.60522 351.45 262.4021 351.45Q260.9021 351.45 260.07397 350.3719Q259.26147 349.29376 259.26147 347.77814Q259.26147 346.7469 259.63647 345.8719Q260.01147 344.98126 260.7146 344.5125Q261.43335 344.02814 262.4021 344.02814Q263.68335 344.02814 264.5271 345.0594L264.5271 344.1844L265.6521 344.1844L265.6521 350.46564Q265.6521 352.16876 265.30835 352.8719Q264.9646 353.575 264.2146 353.98126Q263.4646 354.40314 262.37085 354.40314Q261.07397 354.40314 260.2771 353.8094Q259.48022 353.23126 259.51147 352.0594ZM260.5271 347.6844Q260.5271 349.1219 261.0896 349.77814Q261.6521 350.4344 262.51147 350.4344Q263.35522 350.4344 263.93335 349.77814Q264.51147 349.1219 264.51147 347.73126Q264.51147 346.40314 263.91772 345.73126Q263.32397 345.04376 262.49585 345.04376Q261.66772 345.04376 261.0896 345.71564Q260.5271 346.3719 260.5271 347.6844ZM272.4646 350.5594Q271.79272 351.1375 271.1521 351.3875Q270.5271 351.6219 269.79272 351.6219Q268.60522 351.6219 267.94897 351.04376Q267.30835 350.45 267.30835 349.52814Q267.30835 348.9969 267.54272 348.5594Q267.79272 348.1219 268.18335 347.85626Q268.5896 347.59064 269.07397 347.45Q269.43335 347.35626 270.16772 347.2625Q271.66772 347.09064 272.37085 346.84064Q272.37085 346.59064 272.37085 346.52814Q272.37085 345.7625 272.0271 345.46564Q271.55835 345.04376 270.62085 345.04376Q269.76147 345.04376 269.3396 345.35626Q268.93335 345.65314 268.73022 346.41876L267.5271 346.2625Q267.68335 345.48126 268.05835 345.0125Q268.44897 344.54376 269.1521 344.29376Q269.87085 344.02814 270.80835 344.02814Q271.73022 344.02814 272.30835 344.2469Q272.88647 344.46564 273.1521 344.79376Q273.43335 345.1219 273.54272 345.6375Q273.60522 345.95 273.60522 346.7625L273.60522 348.40314Q273.60522 350.1219 273.68335 350.575Q273.76147 351.02814 273.99585 351.45L272.7146 351.45Q272.5271 351.0594 272.4646 350.5594ZM272.37085 347.8094Q271.69897 348.075 270.35522 348.27814Q269.60522 348.3875 269.2771 348.52814Q268.9646 348.65314 268.79272 348.91876Q268.62085 349.1844 268.62085 349.4969Q268.62085 349.9969 268.99585 350.325Q269.37085 350.65314 270.0896 350.65314Q270.80835 350.65314 271.35522 350.34064Q271.9021 350.02814 272.16772 349.48126Q272.37085 349.075 272.37085 348.2625L272.37085 347.8094ZM278.41772 350.35626L278.5896 351.4344Q278.07397 351.54376 277.66772 351.54376Q276.99585 351.54376 276.62085 351.34064Q276.26147 351.1219 276.10522 350.77814Q275.9646 350.4344 275.9646 349.325L275.9646 345.15314L275.05835 345.15314L275.05835 344.1844L275.9646 344.1844L275.9646 342.3875L277.18335 341.65314L277.18335 344.1844L278.41772 344.1844L278.41772 345.15314L277.18335 345.15314L277.18335 349.3875Q277.18335 349.91876 277.24585 350.075Q277.30835 350.21564 277.44897 350.3094Q277.60522 350.40314 277.87085 350.40314Q278.0896 350.40314 278.41772 350.35626ZM279.68335 354.2469L279.54272 353.09064Q279.94897 353.2 280.24585 353.2Q280.6521 353.2 280.9021 353.0594Q281.1521 352.9344 281.30835 352.6844Q281.41772 352.4969 281.68335 351.7625Q281.7146 351.66876 281.79272 351.46564L279.0271 344.1844L280.35522 344.1844L281.87085 348.3875Q282.16772 349.2 282.4021 350.075Q282.60522 349.23126 282.9021 348.41876L284.44897 344.1844L285.68335 344.1844L282.91772 351.575Q282.48022 352.7625 282.23022 353.21564Q281.9021 353.825 281.48022 354.10626Q281.05835 354.40314 280.4646 354.40314Q280.12085 354.40314 279.68335 354.2469ZM288.07397 351.45L285.85522 344.1844L287.12085 344.1844L288.2771 348.3875L288.7146 349.9344Q288.73022 349.825 289.0896 348.4344L290.24585 344.1844L291.49585 344.1844L292.5896 348.40314L292.94897 349.79376L293.37085 348.3875L294.62085 344.1844L295.80835 344.1844L293.54272 351.45L292.26147 351.45L291.10522 347.10626L290.82397 345.8719L289.35522 351.45L288.07397 351.45ZM295.73022 351.45L295.73022 344.1844L296.8396 344.1844L296.8396 345.21564Q297.63647 344.02814 299.1521 344.02814Q299.80835 344.02814 300.35522 344.2625Q300.9021 344.4969 301.16772 344.8875Q301.44897 345.2625 301.55835 345.79376Q301.63647 346.1375 301.63647 346.98126L301.63647 351.45L300.4021 351.45L300.4021 347.02814Q300.4021 346.27814 300.26147 345.91876Q300.12085 345.54376 299.74585 345.325Q299.38647 345.09064 298.88647 345.09064Q298.10522 345.09064 297.5271 345.59064Q296.9646 346.09064 296.9646 347.48126L296.9646 351.45L295.73022 351.45ZM308.69897 349.10626L309.98022 349.2625Q309.66772 350.3875 308.85522 351.0125Q308.04272 351.6219 306.7771 351.6219Q305.18335 351.6219 304.24585 350.6375Q303.32397 349.65314 303.32397 347.8875Q303.32397 346.04376 304.26147 345.04376Q305.2146 344.02814 306.7146 344.02814Q308.16772 344.02814 309.0896 345.02814Q310.01147 346.0125 310.01147 347.8094Q310.01147 347.91876 310.01147 348.1375L304.5896 348.1375Q304.66772 349.325 305.26147 349.96564Q305.87085 350.60626 306.79272 350.60626Q307.4646 350.60626 307.93335 350.2469Q308.41772 349.8875 308.69897 349.10626ZM304.66772 347.1219L308.7146 347.1219Q308.63647 346.2 308.24585 345.7469Q307.66772 345.04376 306.73022 345.04376Q305.87085 345.04376 305.29272 345.60626Q304.73022 346.16876 304.66772 347.1219Z" fill-rule="nonzero"/><path fill="#4285f4" d="M326.80832 341.45C326.80832 340.8977 327.25604 340.45 327.80832 340.45L337.80832 340.45C338.36063 340.45 338.80832 340.8977 338.80832 341.45L338.80832 351.45C338.80832 352.0023 338.36063 352.45 337.80832 352.45L327.80832 352.45C327.25604 352.45 326.80832 352.0023 326.80832 351.45Z" fill-rule="nonzero"/><path fill="#1a1a1a" d="M347.7302 354.23126L347.7302 344.1844L348.8552 344.1844L348.8552 345.1375Q349.24582 344.575 349.74582 344.3094Q350.24582 344.02814 350.96457 344.02814Q351.88644 344.02814 352.58957 344.5125Q353.30832 344.98126 353.6677 345.85626Q354.02707 346.73126 354.02707 347.7625Q354.02707 348.8719 353.62082 349.77814Q353.2302 350.66876 352.46457 351.15314Q351.71457 351.6219 350.87082 351.6219Q350.26144 351.6219 349.76144 351.35626Q349.27707 351.09064 348.96457 350.7L348.96457 354.23126L347.7302 354.23126ZM348.83957 347.85626Q348.83957 349.2625 349.40207 349.9344Q349.9802 350.60626 350.7927 350.60626Q351.6052 350.60626 352.18332 349.91876Q352.77707 349.21564 352.77707 347.7625Q352.77707 346.3719 352.19894 345.6844Q351.63644 344.9969 350.83957 344.9969Q350.05832 344.9969 349.44894 345.73126Q348.83957 346.46564 348.83957 347.85626ZM355.27707 347.825Q355.27707 345.8094 356.40207 344.825Q357.32394 344.02814 358.68332 344.02814Q360.1677 344.02814 361.12082 345.0125Q362.07394 345.98126 362.07394 347.71564Q362.07394 349.1219 361.65207 349.9344Q361.2302 350.73126 360.4177 351.1844Q359.62082 351.6219 358.68332 351.6219Q357.15207 351.6219 356.21457 350.6375Q355.27707 349.65314 355.27707 347.825ZM356.5427 347.825Q356.5427 349.21564 357.15207 349.91876Q357.76144 350.60626 358.68332 350.60626Q359.58957 350.60626 360.19894 349.90314Q360.80832 349.2 360.80832 347.77814Q360.80832 346.4344 360.19894 345.7469Q359.58957 345.04376 358.68332 345.04376Q357.76144 345.04376 357.15207 345.73126Q356.5427 346.41876 356.5427 347.825ZM363.08957 351.45L363.08957 350.45L367.69894 345.15314Q366.9177 345.1844 366.30832 345.1844L363.3552 345.1844L363.3552 344.1844L369.2927 344.1844L369.2927 344.9969L365.3552 349.60626L364.6052 350.45Q365.43332 350.3875 366.15207 350.3875L369.51144 350.3875L369.51144 351.45L363.08957 351.45ZM369.68332 354.2469L369.5427 353.09064Q369.94894 353.2 370.24582 353.2Q370.65207 353.2 370.90207 353.0594Q371.15207 352.9344 371.30832 352.6844Q371.4177 352.4969 371.68332 351.7625Q371.71457 351.66876 371.7927 351.46564L369.02707 344.1844L370.3552 344.1844L371.87082 348.3875Q372.1677 349.2 372.40207 350.075Q372.6052 349.23126 372.90207 348.41876L374.44894 344.1844L375.68332 344.1844L372.9177 351.575Q372.4802 352.7625 372.2302 353.21564Q371.90207 353.825 371.4802 354.10626Q371.05832 354.40314 370.46457 354.40314Q370.12082 354.40314 369.68332 354.2469ZM379.4177 350.35626L379.58957 351.4344Q379.07394 351.54376 378.6677 351.54376Q377.99582 351.54376 377.62082 351.34064Q377.26144 351.1219 377.1052 350.77814Q376.96457 350.4344 376.96457 349.325L376.96457 345.15314L376.05832 345.15314L376.05832 344.1844L376.96457 344.1844L376.96457 342.3875L378.18332 341.65314L378.18332 344.1844L379.4177 344.1844L379.4177 345.15314L378.18332 345.15314L378.18332 349.3875Q378.18332 349.91876 378.24582 350.075Q378.30832 350.21564 378.44894 350.3094Q378.6052 350.40314 378.87082 350.40314Q379.08957 350.40314 379.4177 350.35626ZM380.68332 354.2469L380.5427 353.09064Q380.94894 353.2 381.24582 353.2Q381.65207 353.2 381.90207 353.0594Q382.15207 352.9344 382.30832 352.6844Q382.4177 352.4969 382.68332 351.7625Q382.71457 351.66876 382.7927 351.46564L380.02707 344.1844L381.3552 344.1844L382.87082 348.3875Q383.1677 349.2 383.40207 350.075Q383.6052 349.23126 383.90207 348.41876L385.44894 344.1844L386.68332 344.1844L383.9177 351.575Q383.4802 352.7625 383.2302 353.21564Q382.90207 353.825 382.4802 354.10626Q382.05832 354.40314 381.46457 354.40314Q381.12082 354.40314 380.68332 354.2469ZM389.07394 351.45L386.8552 344.1844L388.12082 344.1844L389.27707 348.3875L389.71457 349.9344Q389.7302 349.825 390.08957 348.4344L391.24582 344.1844L392.49582 344.1844L393.58957 348.40314L393.94894 349.79376L394.37082 348.3875L395.62082 344.1844L396.80832 344.1844L394.5427 351.45L393.26144 351.45L392.1052 347.10626L391.82394 345.8719L390.3552 351.45L389.07394 351.45ZM396.7302 351.45L396.7302 344.1844L397.83957 344.1844L397.83957 345.21564Q398.63644 344.02814 400.15207 344.02814Q400.80832 344.02814 401.3552 344.2625Q401.90207 344.4969 402.1677 344.8875Q402.44894 345.2625 402.55832 345.79376Q402.63644 346.1375 402.63644 346.98126L402.63644 351.45L401.40207 351.45L401.40207 347.02814Q401.40207 346.27814 401.26144 345.91876Q401.12082 345.54376 400.74582 345.325Q400.38644 345.09064 399.88644 345.09064Q399.1052 345.09064 398.52707 345.59064Q397.96457 346.09064 397.96457 347.48126L397.96457 351.45L396.7302 351.45ZM409.69894 349.10626L410.9802 349.2625Q410.6677 350.3875 409.8552 351.0125Q409.0427 351.6219 407.77707 351.6219Q406.18332 351.6219 405.24582 350.6375Q404.32394 349.65314 404.32394 347.8875Q404.32394 346.04376 405.26144 345.04376Q406.21457 344.02814 407.71457 344.02814Q409.1677 344.02814 410.08957 345.02814Q411.01144 346.0125 411.01144 347.8094Q411.01144 347.91876 411.01144 348.1375L405.58957 348.1375Q405.6677 349.325 406.26144 349.96564Q406.87082 350.60626 407.7927 350.60626Q408.46457 350.60626 408.93332 350.2469Q409.4177 349.8875 409.69894 349.10626ZM405.6677 347.1219L409.71457 347.1219Q409.63644 346.2 409.24582 345.7469Q408.6677 345.04376 407.7302 345.04376Q406.87082 345.04376 406.2927 345.60626Q405.7302 346.16876 405.6677 347.1219Z" fill-rule="nonzero"/><path fill="#999999" d="M266.26562 63.05L264.04688 55.784374L265.3125 55.784374L266.46875 59.9875L266.90625 61.534374Q266.92188 61.425 267.28125 60.034374L268.4375 55.784374L269.6875 55.784374L270.78125 60.003124L271.14062 61.39375L271.5625 59.9875L272.8125 55.784374L274.0 55.784374L271.73438 63.05L270.45312 63.05L269.29688 58.70625L269.01562 57.471874L267.54688 63.05L266.26562 63.05ZM280.60938 61.95625L280.78125 63.034374Q280.26562 63.14375 279.85938 63.14375Q279.1875 63.14375 278.8125 62.940624Q278.45312 62.721874 278.29688 62.378124Q278.15625 62.034374 278.15625 60.925L278.15625 56.753124L277.25 56.753124L277.25 55.784374L278.15625 55.784374L278.15625 53.9875L279.375 53.253124L279.375 55.784374L280.60938 55.784374L280.60938 56.753124L279.375 56.753124L279.375 60.9875Q279.375 61.51875 279.4375 61.675Q279.5 61.815624 279.64062 61.909374Q279.79688 62.003124 280.0625 62.003124Q280.28125 62.003124 280.60938 61.95625ZM281.875 65.84688L281.73438 64.69063Q282.14062 64.8 282.4375 64.8Q282.84375 64.8 283.09375 64.65938Q283.34375 64.53438 283.5 64.28438Q283.60938 64.09688 283.875 63.3625Q283.90625 63.26875 283.98438 63.065624L281.21875 55.784374L282.54688 55.784374L284.0625 59.9875Q284.35938 60.8 284.59375 61.675Q284.79688 60.83125 285.09375 60.01875L286.64062 55.784374L287.875 55.784374L285.10938 63.175Q284.67188 64.3625 284.42188 64.81563Q284.09375 65.425 283.67188 65.70625Q283.25 66.00313 282.65625 66.00313Q282.3125 66.00313 281.875 65.84688ZM288.4375 60.878124L289.64062 60.690624Q289.75 61.425 290.21875 61.815624Q290.6875 62.20625 291.53125 62.20625Q292.375 62.20625 292.78125 61.8625Q293.20312 61.51875 293.20312 61.05Q293.20312 60.628124 292.82812 60.39375Q292.57812 60.221874 291.57812 59.971874Q290.21875 59.628124 289.6875 59.378124Q289.17188 59.128124 288.90625 58.690624Q288.64062 58.253124 288.64062 57.721874Q288.64062 57.2375 288.85938 56.83125Q289.07812 56.409374 289.46875 56.128124Q289.75 55.925 290.23438 55.784374Q290.73438 55.628124 291.3125 55.628124Q292.15625 55.628124 292.79688 55.878124Q293.45312 56.1125 293.76562 56.534374Q294.07812 56.95625 294.1875 57.659374L292.98438 57.83125Q292.90625 57.26875 292.5 56.95625Q292.10938 56.64375 291.39062 56.64375Q290.54688 56.64375 290.1875 56.925Q289.82812 57.190624 289.82812 57.58125Q289.82812 57.815624 289.96875 58.003124Q290.125 58.20625 290.45312 58.33125Q290.625 58.39375 291.53125 58.64375Q292.84375 59.003124 293.35938 59.221874Q293.875 59.440624 294.15625 59.8625Q294.45312 60.284374 294.45312 60.909374Q294.45312 61.534374 294.09375 62.08125Q293.75 62.6125 293.0625 62.925Q292.39062 63.221874 291.53125 63.221874Q290.125 63.221874 289.375 62.628124Q288.64062 62.034374 288.4375 60.878124ZM295.9375 54.440624L295.9375 53.034374L297.15625 53.034374L297.15625 54.440624L295.9375 54.440624ZM295.9375 63.05L295.9375 55.784374L297.15625 55.784374L297.15625 63.05L295.9375 63.05ZM303.65625 62.159374Q302.98438 62.7375 302.34375 62.9875Q301.71875 63.221874 300.98438 63.221874Q299.79688 63.221874 299.14062 62.64375Q298.5 62.05 298.5 61.128124Q298.5 60.596874 298.73438 60.159374Q298.98438 59.721874 299.375 59.45625Q299.78125 59.190624 300.26562 59.05Q300.625 58.95625 301.35938 58.8625Q302.85938 58.690624 303.5625 58.440624Q303.5625 58.190624 303.5625 58.128124Q303.5625 57.3625 303.21875 57.065624Q302.75 56.64375 301.8125 56.64375Q300.95312 56.64375 300.53125 56.95625Q300.125 57.253124 299.92188 58.01875L298.71875 57.8625Q298.875 57.08125 299.25 56.6125Q299.64062 56.14375 300.34375 55.89375Q301.0625 55.628124 302.0 55.628124Q302.92188 55.628124 303.5 55.846874Q304.07812 56.065624 304.34375 56.39375Q304.625 56.721874 304.73438 57.2375Q304.79688 57.55 304.79688 58.3625L304.79688 60.003124Q304.79688 61.721874 304.875 62.175Q304.95312 62.628124 305.1875 63.05L303.90625 63.05Q303.71875 62.659374 303.65625 62.159374ZM303.5625 59.409374Q302.89062 59.675 301.54688 59.878124Q300.79688 59.9875 300.46875 60.128124Q300.15625 60.253124 299.98438 60.51875Q299.8125 60.784374 299.8125 61.096874Q299.8125 61.596874 300.1875 61.925Q300.5625 62.253124 301.28125 62.253124Q302.0 62.253124 302.54688 61.940624Q303.09375 61.628124 303.35938 61.08125Q303.5625 60.675 303.5625 59.8625L303.5625 59.409374ZM304.9375 63.05Q304.54688 63.284374 304.32812 63.628124Q304.10938 63.9875 304.10938 64.3625Q304.10938 64.64375 304.26562 64.83125Q304.4375 65.03438 304.78125 65.03438Q304.9375 65.03438 305.09375 64.9875Q305.26562 64.95625 305.40625 64.87813L305.40625 65.75313Q304.90625 65.9875 304.48438 65.9875Q304.125 65.9875 303.85938 65.87813Q303.60938 65.78438 303.4375 65.6125Q303.26562 65.44063 303.17188 65.20625Q303.09375 64.9875 303.09375 64.7375Q303.09375 64.3 303.32812 63.846874Q303.57812 63.409374 304.03125 63.05L304.9375 63.05ZM311.65625 60.39375L312.875 60.55Q312.67188 61.8 311.84375 62.51875Q311.03125 63.221874 309.84375 63.221874Q308.35938 63.221874 307.45312 62.253124Q306.54688 61.26875 306.54688 59.440624Q306.54688 58.26875 306.9375 57.39375Q307.32812 56.503124 308.125 56.065624Q308.92188 55.628124 309.85938 55.628124Q311.03125 55.628124 311.78125 56.221874Q312.54688 56.815624 312.75 57.925L311.5625 58.1125Q311.39062 57.378124 310.95312 57.01875Q310.51562 56.64375 309.90625 56.64375Q308.96875 56.64375 308.39062 57.315624Q307.8125 57.971874 307.8125 59.409374Q307.8125 60.878124 308.375 61.55Q308.9375 62.20625 309.82812 62.20625Q310.5625 62.20625 311.04688 61.76875Q311.53125 61.315624 311.65625 60.39375ZM318.65625 62.159374Q317.98438 62.7375 317.34375 62.9875Q316.71875 63.221874 315.98438 63.221874Q314.79688 63.221874 314.14062 62.64375Q313.5 62.05 313.5 61.128124Q313.5 60.596874 313.73438 60.159374Q313.98438 59.721874 314.375 59.45625Q314.78125 59.190624 315.26562 59.05Q315.625 58.95625 316.35938 58.8625Q317.85938 58.690624 318.5625 58.440624Q318.5625 58.190624 318.5625 58.128124Q318.5625 57.3625 318.21875 57.065624Q317.75 56.64375 316.8125 56.64375Q315.95312 56.64375 315.53125 56.95625Q315.125 57.253124 314.92188 58.01875L313.71875 57.8625Q313.875 57.08125 314.25 56.6125Q314.64062 56.14375 315.34375 55.89375Q316.0625 55.628124 317.0 55.628124Q317.92188 55.628124 318.5 55.846874Q319.07812 56.065624 319.34375 56.39375Q319.625 56.721874 319.73438 57.2375Q319.79688 57.55 319.79688 58.3625L319.79688 60.003124Q319.79688 61.721874 319.875 62.175Q319.95312 62.628124 320.1875 63.05L318.90625 63.05Q318.71875 62.659374 318.65625 62.159374ZM318.5625 59.409374Q317.89062 59.675 316.54688 59.878124Q315.79688 59.9875 315.46875 60.128124Q315.15625 60.253124 314.98438 60.51875Q314.8125 60.784374 314.8125 61.096874Q314.8125 61.596874 315.1875 61.925Q315.5625 62.253124 316.28125 62.253124Q317.0 62.253124 317.54688 61.940624Q318.09375 61.628124 318.35938 61.08125Q318.5625 60.675 318.5625 59.8625L318.5625 59.409374ZM326.65625 60.39375L327.875 60.55Q327.67188 61.8 326.84375 62.51875Q326.03125 63.221874 324.84375 63.221874Q323.35938 63.221874 322.45312 62.253124Q321.54688 61.26875 321.54688 59.440624Q321.54688 58.26875 321.9375 57.39375Q322.32812 56.503124 323.125 56.065624Q323.92188 55.628124 324.85938 55.628124Q326.03125 55.628124 326.78125 56.221874Q327.54688 56.815624 327.75 57.925L326.5625 58.1125Q326.39062 57.378124 325.95312 57.01875Q325.51562 56.64375 324.90625 56.64375Q323.96875 56.64375 323.39062 57.315624Q322.8125 57.971874 322.8125 59.409374Q322.8125 60.878124 323.375 61.55Q323.9375 62.20625 324.82812 62.20625Q325.5625 62.20625 326.04688 61.76875Q326.53125 61.315624 326.65625 60.39375ZM328.92188 63.05L328.92188 53.034374L330.15625 53.034374L330.15625 56.628124Q331.01562 55.628124 332.32812 55.628124Q333.14062 55.628124 333.73438 55.95625Q334.32812 56.26875 334.57812 56.83125Q334.84375 57.378124 334.84375 58.45625L334.84375 63.05L333.60938 63.05L333.60938 58.45625Q333.60938 57.51875 333.20312 57.1125Q332.8125 56.690624 332.07812 56.690624Q331.53125 56.690624 331.04688 56.971874Q330.5625 57.253124 330.35938 57.7375Q330.15625 58.221874 330.15625 59.08125L330.15625 63.05L328.92188 63.05Z" fill-rule="nonzero"/><path fill="#757575" d="M221.07812 37.55L221.07812 23.2375L227.42188 23.2375Q229.32812 23.2375 230.32812 23.628124Q231.32812 24.003124 231.92188 24.9875Q232.51562 25.95625 232.51562 27.14375Q232.51562 28.659374 231.53125 29.70625Q230.54688 30.753124 228.48438 31.034374Q229.23438 31.39375 229.625 31.753124Q230.45312 32.503124 231.20312 33.659374L233.6875 37.55L231.3125 37.55L229.40625 34.565624Q228.57812 33.284374 228.04688 32.596874Q227.51562 31.909374 227.07812 31.64375Q226.65625 31.3625 226.21875 31.253124Q225.89062 31.190624 225.17188 31.190624L222.96875 31.190624L222.96875 37.55L221.07812 37.55ZM222.96875 29.55L227.04688 29.55Q228.34375 29.55 229.0625 29.284374Q229.79688 29.01875 230.17188 28.425Q230.5625 27.83125 230.5625 27.14375Q230.5625 26.128124 229.82812 25.471874Q229.09375 24.815624 227.5 24.815624L222.96875 24.815624L222.96875 29.55ZM234.17188 32.3625Q234.17188 29.4875 235.76562 28.096874Q237.10938 26.940624 239.03125 26.940624Q241.17188 26.940624 242.51562 28.346874Q243.875 29.753124 243.875 32.221874Q243.875 34.221874 243.28125 35.378124Q242.6875 36.51875 241.53125 37.159374Q240.39062 37.784374 239.03125 37.784374Q236.84375 37.784374 235.5 36.39375Q234.17188 34.9875 234.17188 32.3625ZM235.96875 32.3625Q235.96875 34.3625 236.82812 35.346874Q237.70312 36.33125 239.03125 36.33125Q240.34375 36.33125 241.20312 35.346874Q242.07812 34.346874 242.07812 32.3Q242.07812 30.378124 241.20312 29.39375Q240.32812 28.39375 239.03125 28.39375Q237.70312 28.39375 236.82812 29.39375Q235.96875 30.378124 235.96875 32.3625ZM244.89062 37.55L244.89062 36.128124L251.5 28.55Q250.375 28.596874 249.51562 28.596874L245.28125 28.596874L245.28125 27.175L253.76562 27.175L253.76562 28.346874L248.14062 34.925L247.0625 36.128124Q248.23438 36.034374 249.28125 36.034374L254.07812 36.034374L254.07812 37.55L244.89062 37.55ZM254.82812 37.55L254.82812 23.2375L256.59375 23.2375L256.59375 31.39375L260.75 27.175L263.01562 27.175L259.0625 31.01875L263.42188 37.55L261.25 37.55L257.82812 32.253124L256.59375 33.440624L256.59375 37.55L254.82812 37.55ZM264.79688 31.940624L263.53125 33.01875L263.53125 31.471874L264.79688 30.39375L264.79688 23.2375L266.54688 23.2375L266.54688 28.909374L267.85938 27.8L267.85938 29.33125L266.54688 30.45625L266.54688 37.55L264.79688 37.55L264.79688 31.940624ZM275.59375 36.26875Q274.60938 37.096874 273.70312 37.440624Q272.79688 37.784374 271.76562 37.784374Q270.0625 37.784374 269.14062 36.95625Q268.21875 36.1125 268.21875 34.815624Q268.21875 34.05 268.5625 33.425Q268.92188 32.8 269.48438 32.425Q270.04688 32.034374 270.75 31.83125Q271.26562 31.70625 272.3125 31.565624Q274.4375 31.315624 275.4375 30.971874Q275.45312 30.6125 275.45312 30.503124Q275.45312 29.440624 274.95312 28.9875Q274.28125 28.39375 272.95312 28.39375Q271.70312 28.39375 271.10938 28.83125Q270.53125 29.26875 270.25 30.378124L268.53125 30.14375Q268.76562 29.034374 269.29688 28.3625Q269.82812 27.675 270.84375 27.315624Q271.85938 26.940624 273.20312 26.940624Q274.53125 26.940624 275.35938 27.253124Q276.1875 27.565624 276.57812 28.05Q276.96875 28.51875 277.125 29.2375Q277.21875 29.690624 277.21875 30.8625L277.21875 33.20625Q277.21875 35.659374 277.32812 36.315624Q277.4375 36.95625 277.78125 37.55L275.9375 37.55Q275.67188 37.003124 275.59375 36.26875ZM275.4375 32.346874Q274.48438 32.7375 272.5625 33.003124Q271.48438 33.159374 271.03125 33.3625Q270.59375 33.55 270.34375 33.925Q270.09375 34.3 270.09375 34.76875Q270.09375 35.471874 270.625 35.940624Q271.15625 36.409374 272.1875 36.409374Q273.20312 36.409374 273.98438 35.971874Q274.78125 35.51875 275.15625 34.753124Q275.4375 34.14375 275.4375 32.9875L275.4375 32.346874ZM286.54688 37.55L286.54688 36.2375Q285.5625 37.784374 283.64062 37.784374Q282.40625 37.784374 281.35938 37.096874Q280.32812 36.409374 279.75 35.190624Q279.1875 33.971874 279.1875 32.378124Q279.1875 30.815624 279.70312 29.55Q280.21875 28.284374 281.25 27.6125Q282.29688 26.940624 283.5625 26.940624Q284.5 26.940624 285.23438 27.346874Q285.96875 27.7375 286.4375 28.3625L286.4375 23.2375L288.17188 23.2375L288.17188 37.55L286.54688 37.55ZM280.98438 32.378124Q280.98438 34.3625 281.82812 35.346874Q282.67188 36.33125 283.8125 36.33125Q284.96875 36.33125 285.76562 35.39375Q286.57812 34.45625 286.57812 32.51875Q286.57812 30.39375 285.75 29.39375Q284.9375 28.39375 283.73438 28.39375Q282.5625 28.39375 281.76562 29.3625Q280.98438 30.315624 280.98438 32.378124ZM296.8125 37.55L296.8125 27.175L298.40625 27.175L298.40625 28.659374Q299.54688 26.940624 301.70312 26.940624Q302.64062 26.940624 303.42188 27.284374Q304.21875 27.6125 304.60938 28.159374Q305.0 28.70625 305.15625 29.45625Q305.25 29.95625 305.25 31.175L305.25 37.55L303.48438 37.55L303.48438 31.2375Q303.48438 30.159374 303.28125 29.628124Q303.07812 29.096874 302.54688 28.784374Q302.03125 28.471874 301.32812 28.471874Q300.20312 28.471874 299.39062 29.190624Q298.57812 29.89375 298.57812 31.878124L298.57812 37.55L296.8125 37.55ZM313.59375 36.26875Q312.60938 37.096874 311.70312 37.440624Q310.79688 37.784374 309.76562 37.784374Q308.0625 37.784374 307.14062 36.95625Q306.21875 36.1125 306.21875 34.815624Q306.21875 34.05 306.5625 33.425Q306.92188 32.8 307.48438 32.425Q308.04688 32.034374 308.75 31.83125Q309.26562 31.70625 310.3125 31.565624Q312.4375 31.315624 313.4375 30.971874Q313.45312 30.6125 313.45312 30.503124Q313.45312 29.440624 312.95312 28.9875Q312.28125 28.39375 310.95312 28.39375Q309.70312 28.39375 309.10938 28.83125Q308.53125 29.26875 308.25 30.378124L306.53125 30.14375Q306.76562 29.034374 307.29688 28.3625Q307.82812 27.675 308.84375 27.315624Q309.85938 26.940624 311.20312 26.940624Q312.53125 26.940624 313.35938 27.253124Q314.1875 27.565624 314.57812 28.05Q314.96875 28.51875 315.125 29.2375Q315.21875 29.690624 315.21875 30.8625L315.21875 33.20625Q315.21875 35.659374 315.32812 36.315624Q315.4375 36.95625 315.78125 37.55L313.9375 37.55Q313.67188 37.003124 313.59375 36.26875ZM313.4375 32.346874Q312.48438 32.7375 310.5625 33.003124Q309.48438 33.159374 309.03125 33.3625Q308.59375 33.55 308.34375 33.925Q308.09375 34.3 308.09375 34.76875Q308.09375 35.471874 308.625 35.940624Q309.15625 36.409374 310.1875 36.409374Q311.20312 36.409374 311.98438 35.971874Q312.78125 35.51875 313.15625 34.753124Q313.4375 34.14375 313.4375 32.9875L313.4375 32.346874ZM317.10938 34.45625L318.85938 34.175Q319.0 35.221874 319.67188 35.784374Q320.34375 36.33125 321.54688 36.33125Q322.75 36.33125 323.32812 35.846874Q323.92188 35.346874 323.92188 34.690624Q323.92188 34.096874 323.40625 33.753124Q323.04688 33.51875 321.60938 33.159374Q319.67188 32.659374 318.92188 32.315624Q318.1875 31.95625 317.79688 31.33125Q317.40625 30.690624 317.40625 29.925Q317.40625 29.2375 317.71875 28.64375Q318.04688 28.05 318.59375 27.659374Q319.0 27.3625 319.70312 27.159374Q320.42188 26.940624 321.23438 26.940624Q322.45312 26.940624 323.375 27.3Q324.29688 27.64375 324.73438 28.253124Q325.17188 28.846874 325.34375 29.846874L323.625 30.08125Q323.5 29.284374 322.9375 28.846874Q322.375 28.39375 321.35938 28.39375Q320.14062 28.39375 319.625 28.8Q319.10938 29.190624 319.10938 29.721874Q319.10938 30.065624 319.32812 30.346874Q319.53125 30.628124 320.0 30.815624Q320.26562 30.909374 321.54688 31.253124Q323.42188 31.753124 324.15625 32.08125Q324.89062 32.39375 325.3125 33.003124Q325.73438 33.596874 325.73438 34.503124Q325.73438 35.378124 325.21875 36.159374Q324.70312 36.940624 323.73438 37.3625Q322.76562 37.784374 321.54688 37.784374Q319.53125 37.784374 318.46875 36.940624Q317.40625 36.096874 317.10938 34.45625ZM331.65625 35.971874L331.90625 37.534374Q331.17188 37.690624 330.57812 37.690624Q329.625 37.690624 329.09375 37.39375Q328.57812 37.08125 328.35938 36.596874Q328.14062 36.096874 328.14062 34.51875L328.14062 28.55L326.85938 28.55L326.85938 27.175L328.14062 27.175L328.14062 24.6125L329.89062 23.55L329.89062 27.175L331.65625 27.175L331.65625 28.55L329.89062 28.55L329.89062 34.6125Q329.89062 35.3625 329.98438 35.58125Q330.07812 35.784374 330.28125 35.925Q330.5 36.05 330.89062 36.05Q331.17188 36.05 331.65625 35.971874ZM333.79688 37.55L333.79688 27.175L335.375 27.175L335.375 28.753124Q335.98438 27.64375 336.5 27.3Q337.01562 26.940624 337.625 26.940624Q338.51562 26.940624 339.4375 27.503124L338.82812 29.14375Q338.1875 28.753124 337.54688 28.753124Q336.96875 28.753124 336.5 29.1125Q336.04688 29.45625 335.84375 30.065624Q335.5625 31.003124 335.5625 32.1125L335.5625 37.55L333.79688 37.55ZM340.17188 32.3625Q340.17188 29.4875 341.76562 28.096874Q343.10938 26.940624 345.03125 26.940624Q347.17188 26.940624 348.51562 28.346874Q349.875 29.753124 349.875 32.221874Q349.875 34.221874 349.28125 35.378124Q348.6875 36.51875 347.53125 37.159374Q346.39062 37.784374 345.03125 37.784374Q342.84375 37.784374 341.5 36.39375Q340.17188 34.9875 340.17188 32.3625ZM341.96875 32.3625Q341.96875 34.3625 342.82812 35.346874Q343.70312 36.33125 345.03125 36.33125Q346.34375 36.33125 347.20312 35.346874Q348.07812 34.346874 348.07812 32.3Q348.07812 30.378124 347.20312 29.39375Q346.32812 28.39375 345.03125 28.39375Q343.70312 28.39375 342.82812 29.39375Q341.96875 30.378124 341.96875 32.3625ZM351.8125 25.26875L351.8125 23.2375L353.5625 23.2375L353.5625 25.26875L351.8125 25.26875ZM349.57812 41.58125L349.90625 40.08125Q350.4375 40.221874 350.75 40.221874Q351.28125 40.221874 351.54688 39.8625Q351.8125 39.503124 351.8125 38.08125L351.8125 27.175L353.5625 27.175L353.5625 38.1125Q353.5625 40.034374 353.0625 40.784374Q352.4375 41.753124 350.95312 41.753124Q350.25 41.753124 349.57812 41.58125ZM355.17188 32.3625Q355.17188 29.4875 356.76562 28.096874Q358.10938 26.940624 360.03125 26.940624Q362.17188 26.940624 363.51562 28.346874Q364.875 29.753124 364.875 32.221874Q364.875 34.221874 364.28125 35.378124Q363.6875 36.51875 362.53125 37.159374Q361.39062 37.784374 360.03125 37.784374Q357.84375 37.784374 356.5 36.39375Q355.17188 34.9875 355.17188 32.3625ZM356.96875 32.3625Q356.96875 34.3625 357.82812 35.346874Q358.70312 36.33125 360.03125 36.33125Q361.34375 36.33125 362.20312 35.346874Q363.07812 34.346874 363.07812 32.3Q363.07812 30.378124 362.20312 29.39375Q361.32812 28.39375 360.03125 28.39375Q358.70312 28.39375 357.82812 29.39375Q356.96875 30.378124 356.96875 32.3625ZM359.0625 25.89375L360.35938 23.159374L362.65625 23.159374L360.51562 25.89375L359.0625 25.89375ZM368.73438 37.55L365.5625 27.175L367.375 27.175L369.03125 33.159374L369.64062 35.39375Q369.6875 35.221874 370.17188 33.253124L371.82812 27.175L373.64062 27.175L375.1875 33.190624L375.70312 35.175L376.29688 33.175L378.07812 27.175L379.78125 27.175L376.54688 37.55L374.71875 37.55L373.0625 31.33125L372.67188 29.565624L370.5625 37.55L368.73438 37.55Z" fill-rule="nonzero"/></svg>